<svg width="4522" height="2203" xmlns="http://www.w3.org/2000/svg" xmlns:xlink="http://www.w3.org/1999/xlink" xml:space="preserve" overflow="hidden"><g transform="translate(61 3)"><path d="M-57.4999 57.8065C-57.4999 26.1569-31.8429 0.499836-0.193371 0.499836L4400.19 0.499836C4431.84 0.499836 4457.5 26.1569 4457.5 57.8065L4457.5 1537.19C4457.5 1568.84 4431.84 1594.5 4400.19 1594.5L-0.193371 1594.5C-31.8429 1594.5-57.4999 1568.84-57.4999 1537.19Z" stroke="#D9D9D9" stroke-width="6.875" stroke-miterlimit="8" fill="#F2F2F2" fill-rule="evenodd"/><path d="M0.957449 330.784C0.957449 297.705 27.7308 270.89 60.759 270.89L1212.16 270.89C1245.18 270.89 1271.96 297.705 1271.96 330.784L1271.96 515.997C1271.96 549.075 1245.18 575.891 1212.16 575.891L60.759 575.891C27.7308 575.891 0.957449 549.075 0.957449 515.997Z" stroke="#B4E5A2" stroke-width="2.42339" stroke-miterlimit="8" fill="#D9F2D0" fill-rule="evenodd"/><text font-family="Assistant,Assistant_MSFontService,sans-serif" font-weight="700" font-size="73" transform="matrix(1 0 0 1 53.5857 354)">CHAP Models (Baseline)</text><text font-family="Assistant,Assistant_MSFontService,sans-serif" font-weight="700" font-size="73" transform="matrix(1 0 0 1 810.981 354)"> </text><text font-family="Assistant,Assistant_MSFontService,sans-serif" font-weight="700" font-size="73" transform="matrix(1 0 0 1 804.807 354)"> </text><text font-family="Assistant,Assistant_MSFontService,sans-serif" font-weight="700" font-size="73" transform="matrix(1 0 0 1 819.703 354)"> </text><text font-family="Assistant,Assistant_MSFontService,sans-serif" font-weight="400" font-size="73" transform="matrix(1 0 0 1 53.5857 442)">Evaluate existing DHIS2 models for </text><text font-family="Assistant,Assistant_MSFontService,sans-serif" font-weight="400" font-size="73" transform="matrix(1 0 0 1 1123.79 442)"> </text><text font-family="Assistant,Assistant_MSFontService,sans-serif" font-weight="400" font-size="73" transform="matrix(1 0 0 1 53.5857 529)">consumption data.</text><text font-family="Assistant,Assistant_MSFontService,sans-serif" font-weight="400" font-size="73" transform="matrix(1 0 0 1 628.794 529)"> </text><text font-family="Assistant,Assistant_MSFontService,sans-serif" font-weight="400" font-size="73" transform="matrix(1 0 0 1 624.271 529)"> </text><text font-family="Assistant,Assistant_MSFontService,sans-serif" font-weight="400" font-size="73" transform="matrix(1 0 0 1 639.167 529)"> </text><path d="M0.957449 807.848C0.957449 784.675 19.7359 765.891 42.9005 765.891L1230.01 765.891C1253.18 765.891 1271.96 784.675 1271.96 807.848L1271.96 1492.93C1271.96 1516.1 1253.18 1534.89 1230.01 1534.89L42.9005 1534.89C19.7359 1534.89 0.957449 1516.1 0.957449 1492.93Z" stroke="#D9D9D9" stroke-width="2.42339" stroke-miterlimit="8" fill="#FFFFFF" fill-rule="evenodd"/><text font-family="Assistant,Assistant_MSFontService,sans-serif" font-weight="700" font-size="73" transform="matrix(1 0 0 1 48.3394 864)">External Models</text><text font-family="Assistant,Assistant_MSFontService,sans-serif" font-weight="700" font-size="73" transform="matrix(1 0 0 1 563.391 864)"> </text><text font-family="Assistant,Assistant_MSFontService,sans-serif" font-weight="700" font-size="73" transform="matrix(1 0 0 1 558.443 864)"> </text><text font-family="Assistant,Assistant_MSFontService,sans-serif" font-weight="700" font-size="73" transform="matrix(1 0 0 1 573.339 864)"> </text><text font-family="Assistant,Assistant_MSFontService,sans-serif" font-weight="700" font-size="73" transform="matrix(1 0 0 1 48.3394 952)"> </text><text font-family="Assistant,Assistant_MSFontService,sans-serif" font-weight="700" font-size="73" transform="matrix(1 0 0 1 63.2352 952)"> </text><text font-family="Assistant,Assistant_MSFontService,sans-serif" font-weight="700" font-size="73" transform="matrix(1 0 0 1 48.3394 1038)">Statistical Models</text><text font-family="Assistant,Assistant_MSFontService,sans-serif" font-weight="700" font-size="73" transform="matrix(1 0 0 1 618.964 1038)"> </text><text font-family="Assistant,Assistant_MSFontService,sans-serif" font-weight="700" font-size="73" transform="matrix(1 0 0 1 614.179 1038)"> </text><text font-family="Assistant,Assistant_MSFontService,sans-serif" font-weight="700" font-size="73" transform="matrix(1 0 0 1 629.075 1038)"> </text><text font-family="Assistant,Assistant_MSFontService,sans-serif" font-weight="400" font-size="73" transform="matrix(1 0 0 1 48.3394 1126)">NAIVE, MEAN, ARIMA, ETS, Linear </text><text font-family="Assistant,Assistant_MSFontService,sans-serif" font-weight="400" font-size="73" transform="matrix(1 0 0 1 1051.52 1126)"> </text><text font-family="Assistant,Assistant_MSFontService,sans-serif" font-weight="400" font-size="73" transform="matrix(1 0 0 1 48.3394 1213)">Regression</text><text font-family="Assistant,Assistant_MSFontService,sans-serif" font-weight="400" font-size="73" transform="matrix(1 0 0 1 381.777 1213)"> </text><text font-family="Assistant,Assistant_MSFontService,sans-serif" font-weight="400" font-size="73" transform="matrix(1 0 0 1 379.12 1213)"> </text><text font-family="Assistant,Assistant_MSFontService,sans-serif" font-weight="400" font-size="73" transform="matrix(1 0 0 1 394.016 1213)"> </text><text font-family="Assistant,Assistant_MSFontService,sans-serif" font-weight="400" font-size="73" transform="matrix(1 0 0 1 48.3394 1301)"> </text><text font-family="Assistant,Assistant_MSFontService,sans-serif" font-weight="400" font-size="73" transform="matrix(1 0 0 1 63.2352 1301)"> </text><text font-family="Assistant,Assistant_MSFontService,sans-serif" font-weight="700" font-size="73" transform="matrix(1 0 0 1 48.3394 1387)">Machine Learning</text><text font-family="Assistant,Assistant_MSFontService,sans-serif" font-weight="700" font-size="73" transform="matrix(1 0 0 1 618.391 1387)"> </text><text font-family="Assistant,Assistant_MSFontService,sans-serif" font-weight="700" font-size="73" transform="matrix(1 0 0 1 612.967 1387)"> </text><text font-family="Assistant,Assistant_MSFontService,sans-serif" font-weight="700" font-size="73" transform="matrix(1 0 0 1 627.863 1387)"> </text><text font-family="Assistant,Assistant_MSFontService,sans-serif" font-weight="400" font-size="73" transform="matrix(1 0 0 1 48.3394 1475)">XGBoost</text><text font-family="Assistant,Assistant_MSFontService,sans-serif" font-weight="400" font-size="73" transform="matrix(1 0 0 1 307.298 1475)"> </text><text font-family="Assistant,Assistant_MSFontService,sans-serif" font-weight="400" font-size="73" transform="matrix(1 0 0 1 305.815 1475)">, </text><text font-family="Assistant,Assistant_MSFontService,sans-serif" font-weight="400" font-size="73" transform="matrix(1 0 0 1 338.471 1475)"> </text><text font-family="Assistant,Assistant_MSFontService,sans-serif" font-weight="400" font-size="73" transform="matrix(1 0 0 1 337.923 1475)">LightGBM</text><text font-family="Assistant,Assistant_MSFontService,sans-serif" font-weight="400" font-size="73" transform="matrix(1 0 0 1 632.402 1475)"> </text><text font-family="Assistant,Assistant_MSFontService,sans-serif" font-weight="400" font-size="73" transform="matrix(1 0 0 1 630.536 1475)">, Random Forest</text><text font-family="Assistant,Assistant_MSFontService,sans-serif" font-weight="400" font-size="73" transform="matrix(1 0 0 1 1128.4 1475)"> </text><text font-family="Assistant,Assistant_MSFontService,sans-serif" font-weight="400" font-size="73" transform="matrix(1 0 0 1 1123.68 1475)"> </text><text font-family="Assistant,Assistant_MSFontService,sans-serif" font-weight="400" font-size="73" transform="matrix(1 0 0 1 1138.57 1475)"> </text><path d="M3127.96 330.784C3127.96 297.705 3154.73 270.89 3187.75 270.89L4339.16 270.89C4372.18 270.89 4398.96 297.705 4398.96 330.784L4398.96 515.997C4398.96 549.075 4372.18 575.891 4339.16 575.891L3187.75 575.891C3154.73 575.891 3127.96 549.075 3127.96 515.997Z" stroke="#4E95D9" stroke-width="2.42339" stroke-miterlimit="8" fill="#DCEAF7" fill-rule="evenodd"/><text font-family="Assistant,Assistant_MSFontService,sans-serif" font-weight="700" font-size="73" transform="matrix(1 0 0 1 3180.26 399)">Variant 1: Core Model</text><text font-family="Assistant,Assistant_MSFontService,sans-serif" font-weight="700" font-size="73" transform="matrix(1 0 0 1 3862.03 399)"> </text><text font-family="Assistant,Assistant_MSFontService,sans-serif" font-weight="700" font-size="73" transform="matrix(1 0 0 1 3855.75 399)"> </text><text font-family="Assistant,Assistant_MSFontService,sans-serif" font-weight="700" font-size="73" transform="matrix(1 0 0 1 3870.64 399)"> </text><text font-family="Assistant,Assistant_MSFontService,sans-serif" font-weight="400" font-size="73" transform="matrix(1 0 0 1 3180.26 487)">e.g., ARIMA</text><text font-family="Assistant,Assistant_MSFontService,sans-serif" font-weight="400" font-size="73" transform="matrix(1 0 0 1 3513.12 487)"> </text><text font-family="Assistant,Assistant_MSFontService,sans-serif" font-weight="400" font-size="73" transform="matrix(1 0 0 1 3511.03 487)"> </text><text font-family="Assistant,Assistant_MSFontService,sans-serif" font-weight="400" font-size="73" transform="matrix(1 0 0 1 3525.93 487)"> </text><path d="M3127.96 794.784C3127.96 761.705 3154.73 734.89 3187.75 734.89L4339.16 734.89C4372.18 734.89 4398.96 761.705 4398.96 794.784L4398.96 979.997C4398.96 1013.08 4372.18 1039.89 4339.16 1039.89L3187.75 1039.89C3154.73 1039.89 3127.96 1013.08 3127.96 979.997Z" stroke="#4E95D9" stroke-width="2.42339" stroke-miterlimit="8" fill="#DCEAF7" fill-rule="evenodd"/><text font-family="Assistant,Assistant_MSFontService,sans-serif" font-weight="700" font-size="73" transform="matrix(1 0 0 1 3180.26 819)">Variant 2: Core + Regressors</text><text font-family="Assistant,Assistant_MSFontService,sans-serif" font-weight="700" font-size="73" transform="matrix(1 0 0 1 4075.72 819)"> </text><text font-family="Assistant,Assistant_MSFontService,sans-serif" font-weight="700" font-size="73" transform="matrix(1 0 0 1 4069 819)"> </text><text font-family="Assistant,Assistant_MSFontService,sans-serif" font-weight="700" font-size="73" transform="matrix(1 0 0 1 4083.9 819)"> </text><text font-family="Assistant,Assistant_MSFontService,sans-serif" font-weight="400" font-size="73" transform="matrix(1 0 0 1 3180.26 906)">e.g., ARIMA + Climate Data + Campaign </text><text font-family="Assistant,Assistant_MSFontService,sans-serif" font-weight="400" font-size="73" transform="matrix(1 0 0 1 4363.33 906)"> </text><text font-family="Assistant,Assistant_MSFontService,sans-serif" font-weight="400" font-size="73" transform="matrix(1 0 0 1 3180.26 993)">Info</text><text font-family="Assistant,Assistant_MSFontService,sans-serif" font-weight="400" font-size="73" transform="matrix(1 0 0 1 3299.42 993)"> </text><text font-family="Assistant,Assistant_MSFontService,sans-serif" font-weight="400" font-size="73" transform="matrix(1 0 0 1 3298.39 993)"> </text><text font-family="Assistant,Assistant_MSFontService,sans-serif" font-weight="400" font-size="73" transform="matrix(1 0 0 1 3313.29 993)"> </text><path d="M1564.96 871.089C1564.96 812.99 1612.05 765.891 1670.12 765.891L2729.79 765.891C2787.87 765.891 2834.96 812.99 2834.96 871.089L2834.96 1429.7C2834.96 1487.79 2787.87 1534.89 2729.79 1534.89L1670.12 1534.89C1612.05 1534.89 1564.96 1487.79 1564.96 1429.7Z" stroke="#F2AA84" stroke-width="2.42339" stroke-miterlimit="8" fill="#FBD8BC" fill-rule="evenodd"/><text font-family="Assistant,Assistant_MSFontService,sans-serif" font-weight="700" font-size="73" transform="matrix(1 0 0 1 1705.92 968)">Cross Validation and Accuracy </text><text font-family="Assistant,Assistant_MSFontService,sans-serif" font-weight="700" font-size="73" transform="matrix(1 0 0 1 2683.89 968)"> </text><text font-family="Assistant,Assistant_MSFontService,sans-serif" font-weight="700" font-size="73" transform="matrix(1 0 0 1 1790.67 1055)">Evaluation (within CHAP)</text><text font-family="Assistant,Assistant_MSFontService,sans-serif" font-weight="700" font-size="73" transform="matrix(1 0 0 1 2600.77 1055)"> </text><text font-family="Assistant,Assistant_MSFontService,sans-serif" font-weight="700" font-size="73" transform="matrix(1 0 0 1 2601.17 1213)"> </text><text font-family="Assistant,Assistant_MSFontService,sans-serif" font-weight="700" font-size="73" transform="matrix(1 0 0 1 2616.07 1213)"> </text><path d="M1564.96 1936.78C1564.96 1903.7 1591.73 1876.89 1624.77 1876.89L2775.16 1876.89C2808.18 1876.89 2834.96 1903.7 2834.96 1936.78L2834.96 2121.99C2834.96 2155.08 2808.18 2181.89 2775.16 2181.89L1624.77 2181.89C1591.73 2181.89 1564.96 2155.08 1564.96 2121.99Z" stroke="#4E95D9" stroke-width="2.42339" stroke-miterlimit="8" fill="#D1CEEB" fill-rule="evenodd"/><text font-family="Assistant,Assistant_MSFontService,sans-serif" font-weight="700" font-size="73" transform="matrix(1 0 0 1 1616.92 1962)">Inventory Policy Simulation</text><text font-family="Assistant,Assistant_MSFontService,sans-serif" font-weight="700" font-size="73" transform="matrix(1 0 0 1 2512.96 1962)"> </text><text font-family="Assistant,Assistant_MSFontService,sans-serif" font-weight="700" font-size="73" transform="matrix(1 0 0 1 2503.24 1962)"> </text><text font-family="Assistant,Assistant_MSFontService,sans-serif" font-weight="700" font-size="73" transform="matrix(1 0 0 1 2518.14 1962)"> </text><text font-family="Assistant,Assistant_MSFontService,sans-serif" font-weight="400" font-size="73" transform="matrix(1 0 0 1 1616.92 2049)">Order</text><text font-family="Assistant,Assistant_MSFontService,sans-serif" font-weight="400" font-size="73" transform="matrix(1 0 0 1 1792.8 2049)"> </text><text font-family="Assistant,Assistant_MSFontService,sans-serif" font-weight="400" font-size="73" transform="matrix(1 0 0 1 1790.19 2049)">-</text><text font-family="Assistant,Assistant_MSFontService,sans-serif" font-weight="400" font-size="73" transform="matrix(1 0 0 1 1812.53 2049)"> </text><text font-family="Assistant,Assistant_MSFontService,sans-serif" font-weight="400" font-size="73" transform="matrix(1 0 0 1 1812.6 2049)">Up</text><text font-family="Assistant,Assistant_MSFontService,sans-serif" font-weight="400" font-size="73" transform="matrix(1 0 0 1 1900.25 2049)"> </text><text font-family="Assistant,Assistant_MSFontService,sans-serif" font-weight="400" font-size="73" transform="matrix(1 0 0 1 1899.23 2049)">-</text><text font-family="Assistant,Assistant_MSFontService,sans-serif" font-weight="400" font-size="73" transform="matrix(1 0 0 1 1921.58 2049)"> </text><text font-family="Assistant,Assistant_MSFontService,sans-serif" font-weight="400" font-size="73" transform="matrix(1 0 0 1 1921.65 2049)">To</text><text font-family="Assistant,Assistant_MSFontService,sans-serif" font-weight="400" font-size="73" transform="matrix(1 0 0 1 2000.14 2049)"> </text><text font-family="Assistant,Assistant_MSFontService,sans-serif" font-weight="400" font-size="73" transform="matrix(1 0 0 1 1999.81 2049)">-</text><text font-family="Assistant,Assistant_MSFontService,sans-serif" font-weight="400" font-size="73" transform="matrix(1 0 0 1 2022.15 2049)"> </text><text font-family="Assistant,Assistant_MSFontService,sans-serif" font-weight="400" font-size="73" transform="matrix(1 0 0 1 2022.21 2049)">Level  inventory </text><text font-family="Assistant,Assistant_MSFontService,sans-serif" font-weight="400" font-size="73" transform="matrix(1 0 0 1 2517.21 2049)"> </text><text font-family="Assistant,Assistant_MSFontService,sans-serif" font-weight="400" font-size="73" transform="matrix(1 0 0 1 1616.92 2136)">simulation.</text><text font-family="Assistant,Assistant_MSFontService,sans-serif" font-weight="400" font-size="73" transform="matrix(1 0 0 1 1959.52 2136)"> </text><text font-family="Assistant,Assistant_MSFontService,sans-serif" font-weight="400" font-size="73" transform="matrix(1 0 0 1 1956.79 2136)"> </text><text font-family="Assistant,Assistant_MSFontService,sans-serif" font-weight="400" font-size="73" transform="matrix(1 0 0 1 1971.68 2136)"> </text><path d="M3127.96 1936.78C3127.96 1903.7 3154.73 1876.89 3187.75 1876.89L4339.16 1876.89C4372.18 1876.89 4398.96 1903.7 4398.96 1936.78L4398.96 2122C4398.96 2155.08 4372.18 2181.89 4339.16 2181.89L3187.75 2181.89C3154.73 2181.89 3127.96 2155.08 3127.96 2122Z" stroke="#4E95D9" stroke-width="2.42339" stroke-miterlimit="8" fill="#D1CEEB" fill-rule="evenodd"/><text font-family="Assistant,Assistant_MSFontService,sans-serif" font-weight="700" font-size="73" transform="matrix(1 0 0 1 3180.26 1962)">Inventory Perfromance Evaluation</text><text font-family="Assistant,Assistant_MSFontService,sans-serif" font-weight="700" font-size="73" transform="matrix(1 0 0 1 4291.14 1962)"> </text><text font-family="Assistant,Assistant_MSFontService,sans-serif" font-weight="700" font-size="73" transform="matrix(1 0 0 1 4279.22 1962)"> </text><text font-family="Assistant,Assistant_MSFontService,sans-serif" font-weight="700" font-size="73" transform="matrix(1 0 0 1 4294.11 1962)"> </text><text font-family="Assistant,Assistant_MSFontService,sans-serif" font-weight="400" font-size="73" transform="matrix(1 0 0 1 3180.26 2049)">e.g., stockouts, service levels, </text><text font-family="Assistant,Assistant_MSFontService,sans-serif" font-weight="400" font-size="73" transform="matrix(1 0 0 1 4083.17 2049)"> </text><text font-family="Assistant,Assistant_MSFontService,sans-serif" font-weight="400" font-size="73" transform="matrix(1 0 0 1 3180.26 2136)">inventory holding.</text><text font-family="Assistant,Assistant_MSFontService,sans-serif" font-weight="400" font-size="73" transform="matrix(1 0 0 1 3735.41 2136)"> </text><text font-family="Assistant,Assistant_MSFontService,sans-serif" font-weight="400" font-size="73" transform="matrix(1 0 0 1 3729.74 2136)"> </text><text font-family="Assistant,Assistant_MSFontService,sans-serif" font-weight="400" font-size="73" transform="matrix(1 0 0 1 3744.64 2136)"> </text><path d="M1271.96 417.891 1423.91 417.891 1423.91 1150.53 1418.46 1145.07 1537.67 1145.07 1537.67 1155.98 1413 1155.98 1413 423.344 1418.46 428.798 1271.96 428.798ZM1532.21 1134.17 1564.96 1150.53 1532.21 1166.89Z" fill="#404040" fill-rule="evenodd"/><path d="M0.968577 0.0523429 152.928 0.0523429 152.928 732.692 147.469 727.237 266.678 727.237 266.678 738.146 142.011 738.146 142.011 5.50611 147.469 10.9599 0.968577 10.9599ZM261.22 716.33 293.969 732.692 261.22 749.053Z" fill="#404040" fill-rule="evenodd" transform="matrix(-1 1.22465e-16 1.22465e-16 1 3128 418)"/><path d="M0.434613 11.3029 266.145 11.3032 266.145 22.3036 0.434613 22.3032ZM260.686 0.30325 293.435 16.8032 260.686 33.3036Z" fill="#404040" fill-rule="evenodd" transform="matrix(1 0 0 -1 1272 1167)"/><path d="M0.968574 0.210934 152.927 0.210934 152.927 268.84 147.468 263.384 266.678 263.384 266.678 274.297 142.01 274.297 142.01 5.66777 147.468 11.1246 0.968574 11.1246ZM261.219 252.469 293.969 268.84 261.219 285.211Z" fill="#404040" fill-rule="evenodd" transform="matrix(-1 1.22465e-16 1.22465e-16 1 3128 882)"/><path d="M58.7485 0.430919 58.7488 269.851 29.7487 269.851 29.7484 0.430919ZM87.7486 255.336 44.2486 342.431 0.748604 255.336Z" fill-rule="evenodd" transform="matrix(-1 1.22465e-16 1.22465e-16 1 2243 1535)"/><path d="M2834.96 2023.89 3100.67 2023.89 3100.67 2034.89 2834.96 2034.89ZM3095.22 2012.89 3127.96 2029.39 3095.22 2045.89Z" fill="#404040" fill-rule="evenodd"/><text font-family="Assistant,Assistant_MSFontService,sans-serif" font-weight="400" font-size="73" transform="matrix(1 0 0 1 1833.89 1232)">Morbidity based models </text><text font-family="Assistant,Assistant_MSFontService,sans-serif" font-weight="400" font-size="73" transform="matrix(1 0 0 1 1831.9 1320)">and </text><text font-family="Assistant,Assistant_MSFontService,sans-serif" font-weight="400" font-size="73" transform="matrix(1 0 0 1 1964.24 1320)">consumption based</text><text font-family="Assistant,Assistant_MSFontService,sans-serif" font-weight="400" font-size="73" transform="matrix(1 0 0 1 2568.1 1320)"> </text><text font-family="Assistant,Assistant_MSFontService,sans-serif" font-weight="400" font-size="73" transform="matrix(1 0 0 1 2078.25 1408)">models.</text><text font-family="Assistant,Assistant_MSFontService,sans-serif" font-weight="700" font-size="73" transform="matrix(1 0 0 1 2321.74 1408)"> </text><path d="M1564.96 340.192C1564.96 301.908 1591.71 270.873 1624.71 270.873L2775.21 270.873C2808.21 270.873 2834.96 301.908 2834.96 340.192L2834.96 554.554C2834.96 592.838 2808.21 623.874 2775.21 623.874L1624.71 623.874C1591.71 623.874 1564.96 592.838 1564.96 554.554Z" stroke="#B4E5A2" stroke-width="2.42339" stroke-miterlimit="8" fill="#D9F2D0" fill-rule="evenodd"/><text font-family="Assistant,Assistant_MSFontService,sans-serif" font-weight="700" font-size="73" transform="matrix(1 0 0 1 1639.86 399)">Data Sources</text><text font-family="Assistant,Assistant_MSFontService,sans-serif" font-weight="700" font-size="73" transform="matrix(1 0 0 1 2060.95 399)"> </text><text font-family="Assistant,Assistant_MSFontService,sans-serif" font-weight="400" font-size="73" transform="matrix(1 0 0 1 1639.86 487)">Morbidity data, Logistics data and </text><text font-family="Assistant,Assistant_MSFontService,sans-serif" font-weight="400" font-size="73" transform="matrix(1 0 0 1 1639.86 575)">Climate data</text><text font-family="Assistant,Assistant_MSFontService,sans-serif" font-weight="400" font-size="73" transform="matrix(1 0 0 1 2028.3 575)"> </text><g><g><g><path d="M167.658 52.4176 95.374 5.53879C89.9083 2.25775 83.0788 2.25775 77.6131 5.53879L7.41709 51.046C2.40436 53.9437 0.68959 60.3559 3.58704 65.3689 4.4631 66.8845 5.70475 68.1565 7.19869 69.0691L77.5606 117.066C82.9756 120.504 89.8675 120.588 95.3653 117.285L167.658 70.4143C172.625 67.5637 174.341 61.2259 171.49 56.2585 170.575 54.664 169.252 53.3416 167.658 52.4263ZM88.1578 106.102C87.1813 106.52 86.0731 106.504 85.1089 106.058L17.8395 60.2017 84.8554 16.7125C85.8988 16.2667 87.0793 16.2667 88.1227 16.7125L157.061 61.3987Z" fill="#0080D4" transform="matrix(1.0073 0 0 1 1935 76)"/><path d="M77.6131 41.7768 39.5577 66.448 51.4567 74.599 84.8554 52.9507C85.8988 52.5049 87.0793 52.5049 88.1227 52.9507L122.517 75.2455 134.748 67.3306 95.374 41.7768C89.9065 38.5017 83.0803 38.5017 77.6131 41.7768Z" fill="#0080D4" transform="matrix(1.0073 0 0 1 1935 76)"/><path d="M167.658 88.6381 160.127 83.7547 147.896 91.6696 157.087 97.6366 88.1491 142.323C87.1768 142.746 86.0722 142.746 85.1002 142.323L17.8307 96.4573 26.567 90.8047 14.6245 82.6189 7.41709 87.2842C2.40436 90.1816 0.68959 96.5941 3.58704 101.607 4.4631 103.122 5.70475 104.394 7.19869 105.307L77.5606 153.287C82.9753 156.728 89.8708 156.809 95.3653 153.496L167.649 106.626C172.616 103.776 174.332 97.4377 171.481 92.4703 170.566 90.8758 169.244 89.5534 167.649 88.6381Z" fill="#0080D4" transform="matrix(1.0073 0 0 1 1935 76)"/><path d="M256.488 61.783C252.464 55.3765 246.459 52.1731 238.474 52.1731 230.786 52.0444 223.448 55.3768 218.485 61.2499 213.052 67.4878 210.334 75.6097 210.334 85.6156 210.334 95.6215 213.183 103.863 218.878 110.339 223.966 116.367 231.487 119.797 239.374 119.687 247.528 119.687 253.579 115.788 257.528 107.989L259.363 117.852 272.117 117.852 272.117 27.5979 256.488 27.5979ZM256.488 89.5294C256.612 93.8572 254.947 98.0446 251.884 101.105 246.577 106.791 237.666 107.098 231.98 101.791 231.427 101.275 230.917 100.716 230.454 100.118 227.472 96.4834 225.981 91.6843 225.981 85.7203 225.981 79.7563 227.437 75.001 230.349 71.4541 232.97 68.0515 237.037 66.0781 241.331 66.1249 245.716 66.1249 249.211 67.4383 251.814 70.0648 254.775 73.0378 256.453 77.0521 256.488 81.2473Z" fill="#212225" transform="matrix(1.0073 0 0 1 1935 76)"/><path d="M322.236 52.1818C313.827 52.1818 307.419 56.215 303.018 64.2814L303.018 27.5891 287.528 27.5891 287.528 117.809 303.045 117.809 303.045 88.2364C303.219 80.8687 304.773 75.3358 307.71 71.6374 310.644 67.939 314.175 66.0988 318.297 66.1162 322.416 66.1162 325.617 67.3216 327.906 69.733 330.195 72.1441 331.335 75.7174 331.323 80.4523L331.323 117.8 346.83 117.8 346.83 80.461C346.83 71.9521 344.835 65.1115 340.845 59.9395 336.855 54.7678 330.654 52.1818 322.236 52.1818Z" fill="#212225" transform="matrix(1.0073 0 0 1 1935 76)"/><path d="M361.689 53.7631 377.205 53.7631 377.205 117.809 361.689 117.809Z" fill="#212225" transform="matrix(1.0073 0 0 1 1935 76)"/><path d="M369.447 24.1733C366.384 24.1733 364.017 24.9857 362.346 26.6107 360.624 28.3798 359.718 30.7857 359.847 33.2502 359.718 35.715 360.624 38.1219 362.346 39.8898 364.014 41.5146 366.381 42.3186 369.447 42.3186 372.513 42.3186 374.778 41.5146 376.482 39.8898 378.24 38.1417 379.173 35.7276 379.05 33.2502 379.173 30.7728 378.24 28.3588 376.482 26.6107 374.787 24.9857 372.426 24.1733 369.447 24.1733Z" fill="#212225" transform="matrix(1.0073 0 0 1 1935 76)"/><path d="M431.913 83.4838 416.79 77.8315C411.618 76.3348 409.032 74.0545 409.032 70.9909 409.032 69.2437 409.974 67.6858 411.861 66.3172 413.742 64.963 416.397 64.2814 419.811 64.2814 423.228 64.2814 425.868 64.9018 427.674 66.1249 429.423 67.2127 430.545 69.0694 430.698 71.122L445.296 71.122C445.17 65.7907 442.626 60.8059 438.387 57.5722 433.959 53.9785 427.65 52.1818 419.454 52.1818 411.261 52.1818 404.727 53.827 399.858 57.1177 394.989 60.4027 392.556 64.7707 392.556 70.2223 392.556 78.376 397.728 84.2497 408.072 87.8431L422.049 92.8315C424.263 93.4306 426.357 94.4122 428.235 95.7322 429.564 96.8242 430.296 98.4859 430.2 100.205 430.2 102.127 429.126 103.822 426.984 105.263 424.524 106.796 421.659 107.551 418.764 107.43 410.091 107.43 405.663 104.407 405.477 98.3617L391.017 98.3617C391.104 105.118 393.726 110.36 398.88 114.087 404.034 117.814 410.88 119.681 419.418 119.687 427.923 119.687 434.76 117.672 439.932 113.641 444.93 109.78 447.429 105.223 447.429 99.9691 447.57 96.199 446.115 92.5441 443.418 89.905 440.763 87.2899 436.926 85.1497 431.913 83.4838Z" fill="#212225" transform="matrix(1.0073 0 0 1 1935 76)"/><path d="M475.305 103.604 475.305 100.467C475.26 98.2984 476.145 96.214 477.745 94.7449 479.358 93.2161 482.016 91.9579 485.7 90.997L499.507 87.5725C507.217 85.6387 512.821 82.8955 516.313 79.3429 519.808 75.79 521.542 70.7698 521.512 64.2814 521.512 57.7993 518.839 52.3654 513.493 47.9796 507.958 43.4193 500.901 41.139 492.315 41.139 483.117 41.139 475.756 43.1106 470.22 47.0535 464.409 51.2644 461.427 57.3157 461.274 65.2075L478.504 65.2075C479.377 58.2187 484.242 54.724 493.102 54.724 497.131 54.724 500.286 55.6879 502.564 57.6157 504.763 59.3707 506.026 62.0443 505.987 64.858 506.05 67.5943 504.979 70.2349 503.026 72.1528 501.052 74.1274 497.653 75.7261 492.831 76.9492L480.312 79.9369C473.199 81.6841 468.024 84.4012 464.787 88.0879 461.461 92.0308 459.795 97.6396 459.789 104.914L459.789 117.809 521.992 117.809 521.992 103.604Z" fill="#212225" transform="matrix(1.0073 0 0 1 1935 76)"/></g></g></g><path d="M2192.16 624 2192.16 740.026 2181.84 740.026 2181.84 624ZM2202.47 734.87 2187 765.807 2171.53 734.87Z" fill="#262626"/></g></svg>