<svg width="4161" height="1830" xmlns="http://www.w3.org/2000/svg" xmlns:xlink="http://www.w3.org/1999/xlink" xml:space="preserve" overflow="hidden"><g transform="translate(-118 -303)"><path d="M119 360.555C119 329.32 144.32 304 175.555 304L1264.45 304C1295.68 304 1321 329.32 1321 360.555L1321 535.445C1321 566.679 1295.68 592 1264.45 592L175.555 592C144.32 592 119 566.679 119 535.445Z" stroke="#B4E5A2" stroke-width="2.29167" stroke-miterlimit="8" fill="#D9F2D0" fill-rule="evenodd"/><text font-family="Assistant,Assistant_MSFontService,sans-serif" font-weight="700" font-size="69" transform="matrix(1 0 0 1 168.675 388)">CHAP Models (Baseline)</text><text font-family="Assistant,Assistant_MSFontService,sans-serif" font-weight="700" font-size="69" transform="matrix(1 0 0 1 879.092 388)"> </text><text font-family="Assistant,Assistant_MSFontService,sans-serif" font-weight="400" font-size="69" transform="matrix(1 0 0 1 168.675 471)">Evaluate existing DHIS2 models for </text><text font-family="Assistant,Assistant_MSFontService,sans-serif" font-weight="400" font-size="69" transform="matrix(1 0 0 1 168.675 553)">consumption data.</text><text font-family="Assistant,Assistant_MSFontService,sans-serif" font-weight="400" font-size="69" transform="matrix(1 0 0 1 708.362 553)"> </text><path d="M119 811.666C119 789.759 136.759 772 158.666 772L1281.33 772C1303.24 772 1321 789.759 1321 811.666L1321 1459.33C1321 1481.24 1303.24 1499 1281.33 1499L158.666 1499C136.759 1499 119 1481.24 119 1459.33Z" stroke="#D9D9D9" stroke-width="2.29167" stroke-miterlimit="8" fill="#F2F2F2" fill-rule="evenodd"/><text font-family="Assistant,Assistant_MSFontService,sans-serif" font-weight="700" font-size="69" transform="matrix(1 0 0 1 163.714 870)">External Models</text><text font-family="Assistant,Assistant_MSFontService,sans-serif" font-weight="700" font-size="69" transform="matrix(1 0 0 1 646.11 870)"> </text><text font-family="Assistant,Assistant_MSFontService,sans-serif" font-weight="700" font-size="69" transform="matrix(1 0 0 1 163.714 953)"> </text><text font-family="Assistant,Assistant_MSFontService,sans-serif" font-weight="700" font-size="69" transform="matrix(1 0 0 1 163.714 1035)">Statistical Models</text><text font-family="Assistant,Assistant_MSFontService,sans-serif" font-weight="700" font-size="69" transform="matrix(1 0 0 1 698.818 1035)"> </text><text font-family="Assistant,Assistant_MSFontService,sans-serif" font-weight="400" font-size="69" transform="matrix(1 0 0 1 163.714 1118)">NAIVE, MEAN, ARIMA, ETS, Linear </text><text font-family="Assistant,Assistant_MSFontService,sans-serif" font-weight="400" font-size="69" transform="matrix(1 0 0 1 163.714 1200)">Regression</text><text font-family="Assistant,Assistant_MSFontService,sans-serif" font-weight="400" font-size="69" transform="matrix(1 0 0 1 476.527 1200)"> </text><text font-family="Assistant,Assistant_MSFontService,sans-serif" font-weight="400" font-size="69" transform="matrix(1 0 0 1 163.714 1283)"> </text><text font-family="Assistant,Assistant_MSFontService,sans-serif" font-weight="700" font-size="69" transform="matrix(1 0 0 1 163.714 1365)">Machine Learning</text><text font-family="Assistant,Assistant_MSFontService,sans-serif" font-weight="700" font-size="69" transform="matrix(1 0 0 1 697.672 1365)"> </text><text font-family="Assistant,Assistant_MSFontService,sans-serif" font-weight="400" font-size="69" transform="matrix(1 0 0 1 163.714 1448)">XGBoost</text><text font-family="Assistant,Assistant_MSFontService,sans-serif" font-weight="400" font-size="69" transform="matrix(1 0 0 1 407.204 1448)">, </text><text font-family="Assistant,Assistant_MSFontService,sans-serif" font-weight="400" font-size="69" transform="matrix(1 0 0 1 437.568 1448)">LightGBM</text><text font-family="Assistant,Assistant_MSFontService,sans-serif" font-weight="400" font-size="69" transform="matrix(1 0 0 1 714.287 1448)">, Random Forest</text><text font-family="Assistant,Assistant_MSFontService,sans-serif" font-weight="400" font-size="69" transform="matrix(1 0 0 1 1180.64 1448)"> </text><path d="M3076 360.555C3076 329.32 3101.32 304 3132.55 304L4221.45 304C4252.68 304 4278 329.32 4278 360.555L4278 535.445C4278 566.679 4252.68 592 4221.45 592L3132.55 592C3101.32 592 3076 566.679 3076 535.445Z" stroke="#D9D9D9" stroke-width="2.29167" stroke-miterlimit="8" fill="#F2F2F2" fill-rule="evenodd"/><text font-family="Assistant,Assistant_MSFontService,sans-serif" font-weight="700" font-size="69" transform="matrix(1 0 0 1 3125.51 430)">Variant 1: Core Model</text><text font-family="Assistant,Assistant_MSFontService,sans-serif" font-weight="700" font-size="69" transform="matrix(1 0 0 1 3764.31 430)"> </text><text font-family="Assistant,Assistant_MSFontService,sans-serif" font-weight="400" font-size="69" transform="matrix(1 0 0 1 3125.51 513)">e.g., ARIMA</text><text font-family="Assistant,Assistant_MSFontService,sans-serif" font-weight="400" font-size="69" transform="matrix(1 0 0 1 3438.32 513)"> </text><path d="M3076 799.555C3076 768.32 3101.32 743 3132.55 743L4221.45 743C4252.68 743 4278 768.32 4278 799.555L4278 974.445C4278 1005.68 4252.68 1031 4221.45 1031L3132.55 1031C3101.32 1031 3076 1005.68 3076 974.445Z" stroke="#4E95D9" stroke-width="2.29167" stroke-miterlimit="8" fill="#DCEAF7" fill-rule="evenodd"/><text font-family="Assistant,Assistant_MSFontService,sans-serif" font-weight="700" font-size="69" transform="matrix(1 0 0 1 3125.51 827)">Variant 2: Core + Regressors</text><text font-family="Assistant,Assistant_MSFontService,sans-serif" font-weight="700" font-size="69" transform="matrix(1 0 0 1 3965.98 827)"> </text><text font-family="Assistant,Assistant_MSFontService,sans-serif" font-weight="400" font-size="69" transform="matrix(1 0 0 1 3125.51 910)">e.g., ARIMA + Climate Data + Campaign </text><text font-family="Assistant,Assistant_MSFontService,sans-serif" font-weight="400" font-size="69" transform="matrix(1 0 0 1 3125.51 992)">Info</text><text font-family="Assistant,Assistant_MSFontService,sans-serif" font-weight="400" font-size="69" transform="matrix(1 0 0 1 3237.23 992)"> </text><path d="M1598 871.453C1598 816.527 1642.53 772 1697.45 772L2699.55 772C2754.47 772 2799 816.527 2799 871.453L2799 1399.55C2799 1454.47 2754.47 1499 2699.55 1499L1697.45 1499C1642.53 1499 1598 1454.47 1598 1399.55Z" stroke="#F2AA84" stroke-width="2.29167" stroke-miterlimit="8" fill="#FBD8BC" fill-rule="evenodd"/><text font-family="Assistant,Assistant_MSFontService,sans-serif" font-weight="700" font-size="69" transform="matrix(1 0 0 1 1747.15 1117)">Cross Validation and Accuracy </text><text font-family="Assistant,Assistant_MSFontService,sans-serif" font-weight="700" font-size="69" transform="matrix(1 0 0 1 1818.77 1200)">Evaluation (within CHAP)</text><text font-family="Assistant,Assistant_MSFontService,sans-serif" font-weight="700" font-size="69" transform="matrix(1 0 0 1 2577.88 1200)"> </text><path d="M1598 1879.55C1598 1848.32 1623.32 1823 1654.56 1823L2742.45 1823C2773.68 1823 2799 1848.32 2799 1879.55L2799 2054.44C2799 2085.68 2773.68 2111 2742.45 2111L1654.56 2111C1623.32 2111 1598 2085.68 1598 2054.44Z" stroke="#4E95D9" stroke-width="2.29167" stroke-miterlimit="8" fill="#D1CEEB" fill-rule="evenodd"/><text font-family="Assistant,Assistant_MSFontService,sans-serif" font-weight="700" font-size="69" transform="matrix(1 0 0 1 1647.09 1908)">Inventory Policy Simulation</text><text font-family="Assistant,Assistant_MSFontService,sans-serif" font-weight="700" font-size="69" transform="matrix(1 0 0 1 2485.27 1908)"> </text><text font-family="Assistant,Assistant_MSFontService,sans-serif" font-weight="400" font-size="69" transform="matrix(1 0 0 1 1647.09 1991)">Order</text><text font-family="Assistant,Assistant_MSFontService,sans-serif" font-weight="400" font-size="69" transform="matrix(1 0 0 1 1810.95 1991)">-</text><text font-family="Assistant,Assistant_MSFontService,sans-serif" font-weight="400" font-size="69" transform="matrix(1 0 0 1 1832.14 1991)">Up</text><text font-family="Assistant,Assistant_MSFontService,sans-serif" font-weight="400" font-size="69" transform="matrix(1 0 0 1 1914.07 1991)">-</text><text font-family="Assistant,Assistant_MSFontService,sans-serif" font-weight="400" font-size="69" transform="matrix(1 0 0 1 1935.27 1991)">To</text><text font-family="Assistant,Assistant_MSFontService,sans-serif" font-weight="400" font-size="69" transform="matrix(1 0 0 1 2009.18 1991)">-</text><text font-family="Assistant,Assistant_MSFontService,sans-serif" font-weight="400" font-size="69" transform="matrix(1 0 0 1 2030.37 1991)">Level  inventory </text><text font-family="Assistant,Assistant_MSFontService,sans-serif" font-weight="400" font-size="69" transform="matrix(1 0 0 1 1647.09 2073)">simulation.</text><text font-family="Assistant,Assistant_MSFontService,sans-serif" font-weight="400" font-size="69" transform="matrix(1 0 0 1 1968.5 2073)"> </text><path d="M3076 1879.55C3076 1848.32 3101.32 1823 3132.55 1823L4221.45 1823C4252.68 1823 4278 1848.32 4278 1879.55L4278 2054.45C4278 2085.68 4252.68 2111 4221.45 2111L3132.55 2111C3101.32 2111 3076 2085.68 3076 2054.45Z" stroke="#4E95D9" stroke-width="2.29167" stroke-miterlimit="8" fill="#D1CEEB" fill-rule="evenodd"/><text font-family="Assistant,Assistant_MSFontService,sans-serif" font-weight="700" font-size="69" transform="matrix(1 0 0 1 3125.51 1908)">Inventory Perfromance Evaluation</text><text font-family="Assistant,Assistant_MSFontService,sans-serif" font-weight="700" font-size="69" transform="matrix(1 0 0 1 4164.78 1908)"> </text><text font-family="Assistant,Assistant_MSFontService,sans-serif" font-weight="400" font-size="69" transform="matrix(1 0 0 1 3125.51 1991)">e.g., stockouts, service levels, </text><text font-family="Assistant,Assistant_MSFontService,sans-serif" font-weight="400" font-size="69" transform="matrix(1 0 0 1 3125.51 2073)">inventory holding.</text><text font-family="Assistant,Assistant_MSFontService,sans-serif" font-weight="400" font-size="69" transform="matrix(1 0 0 1 3645.15 2073)"> </text><path d="M1321 442.844 1464.55 442.844 1464.55 1135.51 1459.4 1130.35 1572.01 1130.35 1572.01 1140.66 1454.24 1140.66 1454.24 448 1459.4 453.156 1321 453.156ZM1566.85 1120.04 1597.79 1135.51 1566.85 1150.98Z" fill="#404040"/><path d="M0-5.15625 143.553-5.15625 143.553 687.509 138.396 682.352 251.011 682.352 251.011 692.665 133.24 692.665 133.24 0 138.396 5.15625 0 5.15625ZM245.855 672.04 276.792 687.509 245.855 702.977Z" fill="#404040" transform="matrix(-1 1.22465e-16 1.22465e-16 1 3075.79 448)"/><path d="M6.72292e-06-5.15625 251.011-5.15592 251.011 5.15658-6.72292e-06 5.15625ZM245.855-15.4684 276.792 0.000360892 245.855 15.4691Z" fill="#404040" transform="matrix(1 0 0 -1 1321 1136)"/><path d="M0-5.15625 143.553-5.15625 143.553 248.673 138.396 243.517 251.012 243.517 251.012 253.829 133.24 253.829 133.24 0 138.396 5.15625 0 5.15625ZM245.855 233.204 276.793 248.673 245.855 264.142Z" fill="#404040" transform="matrix(-1 1.22465e-16 1.22465e-16 1 3075.79 887)"/><path d="M13.75-1.53178e-05 13.7503 255.205-13.7497 255.205-13.75 1.53178e-05ZM41.2503 241.455 0.000360892 323.955-41.2497 241.455Z" transform="matrix(-1 0 0 1 2198 1499)"/><path d="M2799 1961.84 3050.01 1961.84 3050.01 1972.16 2799 1972.16ZM3044.86 1951.53 3075.79 1967 3044.86 1982.47Z" fill="#404040"/></g></svg>