<svg width="2019" height="1801" xmlns="http://www.w3.org/2000/svg" xmlns:xlink="http://www.w3.org/1999/xlink" xml:space="preserve" overflow="hidden"><defs><filter id="fx0" x="-10%" y="-10%" width="120%" height="120%" filterUnits="userSpaceOnUse" primitiveUnits="userSpaceOnUse"><feComponentTransfer color-interpolation-filters="sRGB"><feFuncR type="discrete" tableValues="0 0"/><feFuncG type="discrete" tableValues="0 0"/><feFuncB type="discrete" tableValues="0 0"/><feFuncA type="linear" slope="0.34902" intercept="0"/></feComponentTransfer><feGaussianBlur stdDeviation="4.8119 4.8119"/></filter><filter id="fx1" x="-10%" y="-10%" width="120%" height="120%" filterUnits="userSpaceOnUse" primitiveUnits="userSpaceOnUse"><feComponentTransfer color-interpolation-filters="sRGB"><feFuncR type="discrete" tableValues="0 0"/><feFuncG type="discrete" tableValues="0 0"/><feFuncB type="discrete" tableValues="0 0"/><feFuncA type="linear" slope="0.34902" intercept="0"/></feComponentTransfer><feGaussianBlur stdDeviation="4.8119 4.8119"/></filter><filter id="fx2" x="-10%" y="-10%" width="120%" height="120%" filterUnits="userSpaceOnUse" primitiveUnits="userSpaceOnUse"><feComponentTransfer color-interpolation-filters="sRGB"><feFuncR type="discrete" tableValues="0 0"/><feFuncG type="discrete" tableValues="0 0"/><feFuncB type="discrete" tableValues="0 0"/><feFuncA type="linear" slope="0.34902" intercept="0"/></feComponentTransfer><feGaussianBlur stdDeviation="4.8119 4.8119"/></filter><clipPath id="clip3"><rect x="-5" y="-5" width="1050" height="511"/></clipPath><clipPath id="clip4"><rect x="-5" y="34" width="914" height="703"/></clipPath></defs><g transform="translate(-2103 0)"><rect x="2103" y="0" width="2019" height="1801" fill="#FFFFFF"/><path d="M2248 1592 3975.41 1592" stroke="#595959" stroke-width="18.3333" stroke-linejoin="round" stroke-miterlimit="10" fill="none" fill-rule="evenodd"/><g filter="url(#fx0)" transform="translate(3946 1560)"><g><path d="M16 16.3004 42.9998 40.3005 16 64.3005Z" fill="#404040" fill-rule="evenodd"/></g></g><path d="M3962 1568 3989 1592 3962 1616Z" fill="#404040" fill-rule="evenodd"/><path d="M0 0 0.000360892 1428.08" stroke="#595959" stroke-width="18.3333" stroke-linejoin="round" stroke-miterlimit="10" fill="none" fill-rule="evenodd" transform="matrix(1 0 0 -1 2248 1592.08)"/><path d="M2234 188 2248 139 2262 188Z" fill="#404040" fill-rule="evenodd"/><path d="M2961 164 2961 1592.08" stroke="#595959" stroke-width="13.75" stroke-linejoin="round" stroke-miterlimit="10" fill="none" fill-rule="evenodd"/><text fill="#1F497D" font-family="Inter,Inter_MSFontService,sans-serif" font-weight="400" font-size="73" transform="matrix(1 0 0 1 2557.25 183)">Actuals</text><text fill="#1F497D" font-family="Inter,Inter_MSFontService,sans-serif" font-weight="400" font-size="73" transform="matrix(1 0 0 1 2815.07 183)"> </text><text fill="#1F497D" font-family="Inter,Inter_MSFontService,sans-serif" font-weight="400" font-size="73" transform="matrix(1 0 0 1 3230.94 183)">Forecast</text><text fill="#1F497D" font-family="Inter,Inter_MSFontService,sans-serif" font-weight="400" font-size="73" transform="matrix(1 0 0 1 3531.73 183)"> </text><text fill="#262626" font-family="Inter,Inter_MSFontService,sans-serif" font-weight="400" font-size="64" transform="matrix(-1.83697e-16 -1 1 -1.83697e-16 2190.52 695)">Number</text><text fill="#262626" font-family="Inter,Inter_MSFontService,sans-serif" font-weight="400" font-size="64" transform="matrix(-1.83697e-16 -1 1 -1.83697e-16 2190.52 452)"> </text><text fill="#262626" font-family="Inter,Inter_MSFontService,sans-serif" font-weight="400" font-size="64" transform="matrix(-1.83697e-16 -1 1 -1.83697e-16 2190.52 434)">of</text><text fill="#262626" font-family="Inter,Inter_MSFontService,sans-serif" font-weight="400" font-size="64" transform="matrix(-1.83697e-16 -1 1 -1.83697e-16 2190.52 372)"> </text><text fill="#262626" font-family="Inter,Inter_MSFontService,sans-serif" font-weight="400" font-size="64" transform="matrix(-1.83697e-16 -1 1 -1.83697e-16 2190.52 353)">case</text><text fill="#262626" font-family="Inter,Inter_MSFontService,sans-serif" font-weight="400" font-size="64" transform="matrix(-1.83697e-16 -1 1 -1.83697e-16 2190.52 209)">s</text><text fill="#262626" font-family="Inter,Inter_MSFontService,sans-serif" font-weight="400" font-size="64" transform="matrix(-1.83697e-16 -1 1 -1.83697e-16 2190.52 175)"> </text><text fill="#262626" font-family="Inter,Inter_MSFontService,sans-serif" font-weight="400" font-size="64" transform="matrix(1 0 0 1 3824.57 1705)">Time</text><text fill="#262626" font-family="Inter,Inter_MSFontService,sans-serif" font-weight="400" font-size="64" transform="matrix(1 0 0 1 3974.67 1705)"> </text><text fill="#262626" font-family="Inter,Inter_MSFontService,sans-serif" font-weight="400" font-size="73" transform="matrix(1 0 0 1 2944.66 1694)">t₀</text><text fill="#262626" font-family="Inter,Inter_MSFontService,sans-serif" font-weight="400" font-size="73" transform="matrix(1 0 0 1 3002.53 1694)"> </text><path d="M2282.5 1408.5 2357.61 1306.72 2432.72 1305.07 2507.83 1201.12 2582.94 1322.29 2658.06 1328.54 2733.17 1288.32 2808.28 1277.98 2883.39 1180.74 2958.5 1084.5" stroke="#1F497D" stroke-width="22.9167" stroke-linejoin="round" stroke-miterlimit="10" fill="none" fill-rule="evenodd"/><g clip-path="url(#clip3)" filter="url(#fx1)" transform="translate(2938 630)"><g><path d="M23 481.301 97.0713 377.243 171.143 368.519 245.214 418.736 319.286 471.633 393.357 468.977 467.429 368.737 541.5 243.622 615.571 71.2908 689.643 78.1525 763.714 25.3005 837.786 63.6193 911.857 88.7351 985.929 97.3459 1060 44.2827" stroke="#1F497D" stroke-width="18" stroke-linejoin="round" stroke-miterlimit="10" stroke-dasharray="73.3333 55" fill="none" fill-rule="evenodd"/></g></g><path d="M2961 1103 3035.07 998.943 3109.14 990.219 3183.21 1040.44 3257.29 1093.33 3331.36 1090.68 3405.43 990.436 3479.5 865.322 3553.57 692.99 3627.64 699.852 3701.71 647 3775.79 685.319 3849.86 710.435 3923.93 719.045 3998 665.982" stroke="#1F497D" stroke-width="18.3333" stroke-linejoin="round" stroke-miterlimit="10" stroke-dasharray="73.3333 55" fill="none" fill-rule="evenodd"/><text fill="#1F497D" font-family="Inter,Inter_MSFontService,sans-serif" font-weight="400" font-size="55" transform="matrix(1 0 0 1 3217.25 351)">Two </text><text fill="#1F497D" font-family="Inter,Inter_MSFontService,sans-serif" font-weight="400" font-size="55" transform="matrix(1 0 0 1 3342.15 351)">futures</text><text fill="#1F497D" font-family="Inter,Inter_MSFontService,sans-serif" font-weight="400" font-size="55" transform="matrix(1 0 0 1 3527.2 351)"> </text><g clip-path="url(#clip4)" filter="url(#fx2)" transform="translate(2945 380)"><g><path d="M24.9958 712.416 69.5683 592.622 138.843 565.018 223.39 594.411 308.631 626.395 379.478 604.66 425.04 488.557 464.157 348.401 491.038 162.586 564.352 150.053 622.192 79.7765 703.656 97.6637 781.699 102.783 855.466 91.9424 913.251 21.4615" stroke="#8064A2" stroke-width="18.3333" stroke-linejoin="round" stroke-miterlimit="10" stroke-dasharray="73.3333 55" fill="none" fill-rule="evenodd"/></g></g><path d="M2970 1084.11 3014.57 964.322 3083.84 936.718 3168.39 966.11 3253.63 998.095 3324.48 976.359 3370.04 860.257 3409.16 720.101 3436.04 534.285 3509.35 521.753 3567.19 451.476 3648.66 469.363 3726.7 474.483 3800.47 463.642 3858.25 393.161" stroke="#8064A2" stroke-width="18.3333" stroke-linejoin="round" stroke-miterlimit="10" stroke-dasharray="73.3333 55" fill="none" fill-rule="evenodd"/><path d="M0 324.17 75.1046 222.338 150.209 220.685 225.314 116.686 300.419 237.916 375.524 244.173 450.629 203.93 525.733 193.579 600.838 96.2864 675.943 0" stroke="#00B050" stroke-width="13.75" stroke-linejoin="round" stroke-miterlimit="10" fill="none" fill-rule="evenodd" transform="matrix(-0.669122 0.743152 0.743152 0.669122 2732.44 852.851)"/><text fill="#00B050" font-family="Inter,Inter_MSFontService,sans-serif" font-weight="400" font-size="55" transform="matrix(1 0 0 1 2594.31 1017)">Fitted model</text><text fill="#00B050" font-family="Inter,Inter_MSFontService,sans-serif" font-weight="400" font-size="55" transform="matrix(1 0 0 1 2916.86 1017)"> </text><path d="M2796.16 1110 2796.16 1274.67 2785.84 1274.67 2785.84 1110ZM2775.53 1110C2775.53 1101.46 2782.46 1094.53 2791 1094.53 2799.54 1094.53 2806.47 1101.46 2806.47 1110 2806.47 1118.54 2799.54 1125.47 2791 1125.47 2782.46 1125.47 2775.53 1118.54 2775.53 1110ZM2806.47 1274.67C2806.47 1283.22 2799.54 1290.14 2791 1290.14 2782.46 1290.14 2775.53 1283.22 2775.53 1274.67 2775.53 1266.13 2782.46 1259.21 2791 1259.21 2799.54 1259.21 2806.47 1266.13 2806.47 1274.67Z" fill="#C00000"/><text fill="#C00000" font-family="Inter,Inter_MSFontService,sans-serif" font-weight="700" font-size="55" transform="matrix(1 0 0 1 2731.84 1393)">error</text><text fill="#C00000" font-family="Inter,Inter_MSFontService,sans-serif" font-weight="700" font-size="55" transform="matrix(1 0 0 1 2864.75 1393)"> </text><path d="M3401.16 808 3401.16 972.675 3390.84 972.675 3390.84 808ZM3380.53 808C3380.53 799.457 3387.46 792.531 3396 792.531 3404.54 792.531 3411.47 799.457 3411.47 808 3411.47 816.543 3404.54 823.469 3396 823.469 3387.46 823.469 3380.53 816.543 3380.53 808ZM3411.47 972.675C3411.47 981.218 3404.54 988.144 3396 988.144 3387.46 988.144 3380.53 981.218 3380.53 972.675 3380.53 964.132 3387.46 957.206 3396 957.206 3404.54 957.206 3411.47 964.132 3411.47 972.675Z" fill="#C00000"/><text fill="#C00000" font-family="Inter,Inter_MSFontService,sans-serif" font-weight="700" font-size="55" transform="matrix(1 0 0 1 3336.25 1092)">error</text><text fill="#C00000" font-family="Inter,Inter_MSFontService,sans-serif" font-weight="700" font-size="55" transform="matrix(1 0 0 1 3469.17 1092)"> </text></g></svg>