<svg width="2019" height="1801" xmlns="http://www.w3.org/2000/svg" xmlns:xlink="http://www.w3.org/1999/xlink" xml:space="preserve" overflow="hidden"><defs><filter id="fx0" x="-10%" y="-10%" width="120%" height="120%" filterUnits="userSpaceOnUse" primitiveUnits="userSpaceOnUse"><feComponentTransfer color-interpolation-filters="sRGB"><feFuncR type="discrete" tableValues="0 0"/><feFuncG type="discrete" tableValues="0 0"/><feFuncB type="discrete" tableValues="0 0"/><feFuncA type="linear" slope="0.34902" intercept="0"/></feComponentTransfer><feGaussianBlur stdDeviation="4.8119 4.8119"/></filter><filter id="fx1" x="-10%" y="-10%" width="120%" height="120%" filterUnits="userSpaceOnUse" primitiveUnits="userSpaceOnUse"><feComponentTransfer color-interpolation-filters="sRGB"><feFuncR type="discrete" tableValues="0 0"/><feFuncG type="discrete" tableValues="0 0"/><feFuncB type="discrete" tableValues="0 0"/><feFuncA type="linear" slope="0.34902" intercept="0"/></feComponentTransfer><feGaussianBlur stdDeviation="4.8119 4.8119"/></filter><clipPath id="clip2"><rect x="-5" y="-5" width="1050" height="511"/></clipPath></defs><g transform="translate(-4275 0)"><rect x="4275" y="0" width="2019" height="1801" fill="#FFFFFF"/><path d="M4420 1592 6147.41 1592" stroke="#595959" stroke-width="18.3333" stroke-linejoin="round" stroke-miterlimit="10" fill="none" fill-rule="evenodd"/><g filter="url(#fx0)" transform="translate(6118 1560)"><g><path d="M15.9998 16.3002 43 40.3002 15.9998 64.3003Z" fill="#404040" fill-rule="evenodd"/></g></g><path d="M6134 1568 6161 1592 6134 1616Z" fill="#404040" fill-rule="evenodd"/><path d="M0 0 0.000360892 1428.08" stroke="#595959" stroke-width="18.3333" stroke-linejoin="round" stroke-miterlimit="10" fill="none" fill-rule="evenodd" transform="matrix(1 0 0 -1 4420 1592.08)"/><path d="M4406 188 4420 139 4434 188Z" fill="#404040" fill-rule="evenodd"/><path d="M5133 164 5133 1592.08" stroke="#595959" stroke-width="13.75" stroke-linejoin="round" stroke-miterlimit="10" fill="none" fill-rule="evenodd"/><text fill="#1F497D" font-family="Inter,Inter_MSFontService,sans-serif" font-weight="400" font-size="73" transform="matrix(1 0 0 1 4729.25 183)">Actuals</text><text fill="#1F497D" font-family="Inter,Inter_MSFontService,sans-serif" font-weight="400" font-size="73" transform="matrix(1 0 0 1 4987.06 183)"> </text><text fill="#1F497D" font-family="Inter,Inter_MSFontService,sans-serif" font-weight="400" font-size="73" transform="matrix(1 0 0 1 5402.94 183)">Forecast</text><text fill="#1F497D" font-family="Inter,Inter_MSFontService,sans-serif" font-weight="400" font-size="73" transform="matrix(1 0 0 1 5703.72 183)"> </text><text fill="#262626" font-family="Inter,Inter_MSFontService,sans-serif" font-weight="400" font-size="64" transform="matrix(-1.83697e-16 -1 1 -1.83697e-16 4362.52 695)">Number</text><text fill="#262626" font-family="Inter,Inter_MSFontService,sans-serif" font-weight="400" font-size="64" transform="matrix(-1.83697e-16 -1 1 -1.83697e-16 4362.52 452)"> </text><text fill="#262626" font-family="Inter,Inter_MSFontService,sans-serif" font-weight="400" font-size="64" transform="matrix(-1.83697e-16 -1 1 -1.83697e-16 4362.52 434)">of</text><text fill="#262626" font-family="Inter,Inter_MSFontService,sans-serif" font-weight="400" font-size="64" transform="matrix(-1.83697e-16 -1 1 -1.83697e-16 4362.52 372)"> </text><text fill="#262626" font-family="Inter,Inter_MSFontService,sans-serif" font-weight="400" font-size="64" transform="matrix(-1.83697e-16 -1 1 -1.83697e-16 4362.52 353)">case</text><text fill="#262626" font-family="Inter,Inter_MSFontService,sans-serif" font-weight="400" font-size="64" transform="matrix(-1.83697e-16 -1 1 -1.83697e-16 4362.52 209)">s</text><text fill="#262626" font-family="Inter,Inter_MSFontService,sans-serif" font-weight="400" font-size="64" transform="matrix(-1.83697e-16 -1 1 -1.83697e-16 4362.52 175)"> </text><text fill="#262626" font-family="Inter,Inter_MSFontService,sans-serif" font-weight="400" font-size="64" transform="matrix(1 0 0 1 5996.57 1705)">Time</text><text fill="#262626" font-family="Inter,Inter_MSFontService,sans-serif" font-weight="400" font-size="64" transform="matrix(1 0 0 1 6146.67 1705)"> </text><text fill="#262626" font-family="Inter,Inter_MSFontService,sans-serif" font-weight="400" font-size="73" transform="matrix(1 0 0 1 5116.66 1694)">t₀</text><text fill="#262626" font-family="Inter,Inter_MSFontService,sans-serif" font-weight="400" font-size="73" transform="matrix(1 0 0 1 5174.52 1694)"> </text><path d="M4454.5 1408.5 4529.61 1306.72 4604.72 1305.07 4679.83 1201.12 4754.94 1322.29 4830.06 1328.54 4905.17 1288.32 4980.28 1277.98 5055.39 1180.74 5130.5 1084.5" stroke="#1F497D" stroke-width="22.9167" stroke-linejoin="round" stroke-miterlimit="10" fill="none" fill-rule="evenodd"/><path d="M5129.5 1110.23 5202.21 1051.73 5274.93 1030.06 5347.64 1101.54 5420.36 1074.16 5493.07 1122.5 5565.79 965.942 5638.5 726.259 5711.21 515.5 5783.93 572.637 5856.64 663.338 5929.36 768.677 6002.07 818.849 6074.79 741.031 6147.5 619.844" stroke="#A6A6A6" stroke-width="3.4375" stroke-linejoin="round" stroke-miterlimit="10" fill="none" fill-rule="evenodd"/><path d="M5129.5 1110.42 5202.21 1044.67 5274.93 1058.09 5347.64 1013.89 5420.36 1272.5 5493.07 1115.09 5565.79 930.487 5638.5 967.373 5711.21 800.509 5783.93 767.164 5856.64 476.643 5929.36 654.568 6002.07 1025.28 6074.79 757.747 6147.5 384.5" stroke="#A6A6A6" stroke-width="3.4375" stroke-linejoin="round" stroke-miterlimit="10" fill="none" fill-rule="evenodd"/><path d="M5129.5 1110.27 5202.21 936.658 5274.93 938.149 5347.64 1057.73 5420.36 1271.5 5493.07 1078.14 5565.79 1002.11 5638.5 827.624 5711.21 417.5 5783.93 619.139 5856.64 540.463 5929.36 520.865 6002.07 710.233 6074.79 808.205 6147.5 771.941" stroke="#A6A6A6" stroke-width="3.4375" stroke-linejoin="round" stroke-miterlimit="10" fill="none" fill-rule="evenodd"/><path d="M5129.5 1110.24 5202.21 948.508 5274.93 946.56 5347.64 1077.97 5420.36 991.431 5493.07 1076.53 5565.79 1140.5 5638.5 757.778 5711.21 659.993 5783.93 856.562 5856.64 499.5 5929.36 694.028 6002.07 736.523 6074.79 546.961 6147.5 1093.14" stroke="#A6A6A6" stroke-width="3.4375" stroke-linejoin="round" stroke-miterlimit="10" fill="none" fill-rule="evenodd"/><path d="M5129.5 1110.69 5202.21 1061.79 5274.93 1010.05 5347.64 1018.71 5420.36 1161.81 5493.07 1202.5 5565.79 1106.72 5638.5 853.177 5711.21 542.194 5783.93 875.807 5856.64 940.826 5929.36 685.353 6002.07 734.549 6074.79 859.113 6147.5 473.5" stroke="#A6A6A6" stroke-width="3.4375" stroke-linejoin="round" stroke-miterlimit="10" fill="none" fill-rule="evenodd"/><path d="M5129.5 1110.73 5202.21 946.811 5274.93 1019.62 5347.64 1066.72 5420.36 1046.33 5493.07 1142.19 5565.79 1148.5 5638.5 846.775 5711.21 770.707 5783.93 596.752 5856.64 673.122 5929.36 665.795 6002.07 558.5 6074.79 695.939 6147.5 749.159" stroke="#A6A6A6" stroke-width="3.4375" stroke-linejoin="round" stroke-miterlimit="10" fill="none" fill-rule="evenodd"/><path d="M5129.5 1110.05 5202.21 1046.24 5274.93 863.653 5347.64 948.938 5420.36 1239.5 5493.07 1207.69 5565.79 911.42 5638.5 914.815 5711.21 637.391 5783.93 519.5 5856.64 564.923 5929.36 654.384 6002.07 752.153 6074.79 687.47 6147.5 523.165" stroke="#A6A6A6" stroke-width="3.4375" stroke-linejoin="round" stroke-miterlimit="10" fill="none" fill-rule="evenodd"/><path d="M5129.5 1110.44 5202.21 895.195 5274.93 908.603 5347.64 1054.74 5420.36 1013.66 5493.07 1083.85 5565.79 1157.5 5638.5 851.719 5711.21 496.199 5783.93 741.53 5856.64 428.037 5929.36 687.127 6002.07 654.74 6074.79 917.799 6147.5 151.5" stroke="#A6A6A6" stroke-width="3.4375" stroke-linejoin="round" stroke-miterlimit="10" fill="none" fill-rule="evenodd"/><path d="M5129.5 1110.76 5202.21 966.258 5274.93 912.72 5347.64 1075.5 5420.36 1236.5 5493.07 967.877 5565.79 1066.26 5638.5 620.253 5711.21 664.818 5783.93 392.5 5856.64 711.239 5929.36 953.671 6002.07 523.635 6074.79 684.174 6147.5 609.69" stroke="#A6A6A6" stroke-width="3.4375" stroke-linejoin="round" stroke-miterlimit="10" fill="none" fill-rule="evenodd"/><path d="M5129.5 1110.95 5202.21 933.603 5274.93 1041.49 5347.64 1143.67 5420.36 1209.08 5493.07 1275.5 5565.79 1196.95 5638.5 1007.48 5711.21 781.12 5783.93 720.434 5856.64 794.023 5929.36 658.948 6002.07 517.5 6074.79 722.722 6147.5 525.531" stroke="#A6A6A6" stroke-width="3.4375" stroke-linejoin="round" stroke-miterlimit="10" fill="none" fill-rule="evenodd"/><path d="M5129.5 1110.12 5202.21 1043.6 5274.93 964.618 5347.64 1005.73 5420.36 1166.14 5493.07 1267.5 5565.79 1014.66 5638.5 852.948 5711.21 451.723 5783.93 732.889 5856.64 334.5 5929.36 1095 6002.07 750.99 6074.79 806.34 6147.5 731.272" stroke="#A6A6A6" stroke-width="3.4375" stroke-linejoin="round" stroke-miterlimit="10" fill="none" fill-rule="evenodd"/><path d="M5129.5 1110.81 5202.21 1030.45 5274.93 997.178 5347.64 922.802 5420.36 1131.5 5493.07 991.711 5565.79 1015.71 5638.5 849.286 5711.21 1007.72 5783.93 665.15 5856.64 518.795 5929.36 872.663 6002.07 816.704 6074.79 887.07 6147.5 190.5" stroke="#A6A6A6" stroke-width="3.4375" stroke-linejoin="round" stroke-miterlimit="10" fill="none" fill-rule="evenodd"/><path d="M5129.5 1110.63 5202.21 1055.81 5274.93 1043.32 5347.64 1271.5 5420.36 1264.29 5493.07 1096.66 5565.79 1156.23 5638.5 1224.36 5711.21 712.095 5783.93 665.58 5856.64 578.935 5929.36 604.116 6002.07 819.419 6074.79 139.5 6147.5 778.007" stroke="#A6A6A6" stroke-width="3.4375" stroke-linejoin="round" stroke-miterlimit="10" fill="none" fill-rule="evenodd"/><path d="M5129.5 1110.48 5202.21 978.784 5274.93 1080.89 5347.64 1105.59 5420.36 1260.5 5493.07 1096.68 5565.79 1053.75 5638.5 996.245 5711.21 956.446 5783.93 595.496 5856.64 485.548 5929.36 518.512 6002.07 717.316 6074.79 569.872 6147.5 454.5" stroke="#A6A6A6" stroke-width="3.4375" stroke-linejoin="round" stroke-miterlimit="10" fill="none" fill-rule="evenodd"/><path d="M5129.5 1110.85 5202.21 974.633 5274.93 898.508 5347.64 1067.39 5420.36 1098.24 5493.07 1275.5 5565.79 757.09 5638.5 958.383 5711.21 618.077 5783.93 575.737 5856.64 750.754 5929.36 667.229 6002.07 556.5 6074.79 719.729 6147.5 706.892" stroke="#A6A6A6" stroke-width="3.4375" stroke-linejoin="round" stroke-miterlimit="10" fill="none" fill-rule="evenodd"/><path d="M5129.5 1110.5 5202.21 1016.09 5274.93 1038.02 5347.64 1062.99 5420.36 1077.75 5493.07 1062.12 5565.79 867.582 5638.5 847.048 5711.21 730.39 5783.93 535.294 5856.64 547.762 5929.36 470.5 6002.07 644.925 6074.79 582.048 6147.5 546.174" stroke="#A6A6A6" stroke-width="3.4375" stroke-linejoin="round" stroke-miterlimit="10" fill="none" fill-rule="evenodd"/><path d="M5129.5 1110.5 5202.21 956.724 5274.93 1053.33 5347.64 1054.96 5420.36 1091.83 5493.07 926.28 5565.79 1001.05 5638.5 790.275 5711.21 678.843 5783.93 983.384 5856.64 393.5 5929.36 525.578 6002.07 436.729 6074.79 969.245 6147.5 567.458" stroke="#A6A6A6" stroke-width="3.4375" stroke-linejoin="round" stroke-miterlimit="10" fill="none" fill-rule="evenodd"/><path d="M5129.5 1110.33 5202.21 986.488 5274.93 1092.52 5347.64 1008.81 5420.36 1164.02 5493.07 1054.39 5565.79 1187.5 5638.5 964.593 5711.21 754.546 5783.93 899.299 5856.64 593.476 5929.36 411.34 6002.07 681.617 6074.79 559.154 6147.5 307.5" stroke="#A6A6A6" stroke-width="3.4375" stroke-linejoin="round" stroke-miterlimit="10" fill="none" fill-rule="evenodd"/><g clip-path="url(#clip2)" filter="url(#fx1)" transform="translate(5110 630)"><g><path d="M23 481.301 97.0713 377.243 171.143 368.519 245.214 418.736 319.286 471.633 393.357 468.977 467.429 368.737 541.5 243.622 615.571 71.2908 689.643 78.1525 763.714 25.3005 837.786 63.6193 911.857 88.7351 985.929 97.3459 1060 44.2827" stroke="#1F497D" stroke-width="18" stroke-linejoin="round" stroke-miterlimit="10" stroke-dasharray="73.3333 55" fill="none" fill-rule="evenodd"/></g></g><path d="M5133 1103 5207.07 998.943 5281.14 990.219 5355.21 1040.44 5429.29 1093.33 5503.36 1090.68 5577.43 990.436 5651.5 865.322 5725.57 692.99 5799.64 699.852 5873.71 647 5947.79 685.319 6021.86 710.435 6095.93 719.045 6170 665.982" stroke="#1F497D" stroke-width="18.3333" stroke-linejoin="round" stroke-miterlimit="10" stroke-dasharray="73.3333 55" fill="none" fill-rule="evenodd"/><text fill="#1F497D" font-family="Inter,Inter_MSFontService,sans-serif" font-weight="400" font-size="55" transform="matrix(1 0 0 1 5389.25 351)">Many possible futures</text><text fill="#1F497D" font-family="Inter,Inter_MSFontService,sans-serif" font-weight="400" font-size="55" transform="matrix(1 0 0 1 5966.18 351)"> </text></g></svg>