<svg width="2586" height="1669" xmlns="http://www.w3.org/2000/svg" xmlns:xlink="http://www.w3.org/1999/xlink" xml:space="preserve" overflow="hidden"><defs><filter id="fx0" x="-10%" y="-10%" width="120%" height="120%" filterUnits="userSpaceOnUse" primitiveUnits="userSpaceOnUse"><feComponentTransfer color-interpolation-filters="sRGB"><feFuncR type="discrete" tableValues="0 0"/><feFuncG type="discrete" tableValues="0 0"/><feFuncB type="discrete" tableValues="0 0"/><feFuncA type="linear" slope="0.34902" intercept="0"/></feComponentTransfer><feGaussianBlur stdDeviation="4.8119 4.8119"/></filter></defs><g transform="translate(-110 -223)"><path d="M237 1725 2585.01 1725" stroke="#595959" stroke-width="18.3333" stroke-linejoin="round" stroke-miterlimit="10" fill="none" fill-rule="evenodd"/><g filter="url(#fx0)" transform="translate(2550 1693)"><g><path d="M16.0002 16.3004 54 40.3005 16.0002 64.3005Z" fill="#404040" fill-rule="evenodd"/></g></g><path d="M2566 1701 2604 1725 2566 1749Z" fill="#404040" fill-rule="evenodd"/><path d="M0 0 0.000360892 1428.08" stroke="#595959" stroke-width="18.3333" stroke-linejoin="round" stroke-miterlimit="10" fill="none" fill-rule="evenodd" transform="matrix(1 0 0 -1 237 1725.08)"/><path d="M218 321 237 272 256 321Z" fill="#404040" fill-rule="evenodd"/><path d="M1207 297 1207 1725.08" stroke="#595959" stroke-width="13.75" stroke-linejoin="round" stroke-miterlimit="10" fill="none" fill-rule="evenodd"/><text fill="#1F497D" font-family="Inter,Inter_MSFontService,sans-serif" font-weight="400" font-size="73" transform="matrix(1 0 0 1 645.732 316)">Actuals</text><text fill="#1F497D" font-family="Inter,Inter_MSFontService,sans-serif" font-weight="400" font-size="73" transform="matrix(1 0 0 1 903.545 316)"> </text><text fill="#1F497D" font-family="Inter,Inter_MSFontService,sans-serif" font-weight="400" font-size="73" transform="matrix(1 0 0 1 1561.46 316)">Forecast</text><text fill="#1F497D" font-family="Inter,Inter_MSFontService,sans-serif" font-weight="400" font-size="73" transform="matrix(1 0 0 1 1862.24 316)"> </text><text fill="#262626" font-family="Inter,Inter_MSFontService,sans-serif" font-weight="400" font-size="64" transform="matrix(-1.83697e-16 -1 1 -1.83697e-16 191.806 828)">Number</text><text fill="#262626" font-family="Inter,Inter_MSFontService,sans-serif" font-weight="400" font-size="64" transform="matrix(-1.83697e-16 -1 1 -1.83697e-16 191.806 585)"> </text><text fill="#262626" font-family="Inter,Inter_MSFontService,sans-serif" font-weight="400" font-size="64" transform="matrix(-1.83697e-16 -1 1 -1.83697e-16 191.806 567)">of</text><text fill="#262626" font-family="Inter,Inter_MSFontService,sans-serif" font-weight="400" font-size="64" transform="matrix(-1.83697e-16 -1 1 -1.83697e-16 191.806 505)"> </text><text fill="#262626" font-family="Inter,Inter_MSFontService,sans-serif" font-weight="400" font-size="64" transform="matrix(-1.83697e-16 -1 1 -1.83697e-16 191.806 486)">case</text><text fill="#262626" font-family="Inter,Inter_MSFontService,sans-serif" font-weight="400" font-size="64" transform="matrix(-1.83697e-16 -1 1 -1.83697e-16 191.806 342)">s</text><text fill="#262626" font-family="Inter,Inter_MSFontService,sans-serif" font-weight="400" font-size="64" transform="matrix(-1.83697e-16 -1 1 -1.83697e-16 191.806 308)"> </text><text fill="#262626" font-family="Inter,Inter_MSFontService,sans-serif" font-weight="400" font-size="64" transform="matrix(1 0 0 1 2407.17 1838)">Time</text><text fill="#262626" font-family="Inter,Inter_MSFontService,sans-serif" font-weight="400" font-size="64" transform="matrix(1 0 0 1 2557.27 1838)"> </text><text fill="#262626" font-family="Inter,Inter_MSFontService,sans-serif" font-weight="400" font-size="55" transform="matrix(1 0 0 1 1202.02 1810)">t₀</text><text fill="#262626" font-family="Inter,Inter_MSFontService,sans-serif" font-weight="400" font-size="55" transform="matrix(1 0 0 1 1244.99 1810)"> </text><path d="M237.5 1550.5 339.611 1448.72 441.722 1447.07 543.833 1343.12 645.944 1464.29 748.055 1470.54 850.167 1430.32 952.278 1419.98 1054.39 1322.74 1156.5 1226.5" stroke="#1F497D" stroke-width="22.9167" stroke-linejoin="round" stroke-miterlimit="10" fill="none" fill-rule="evenodd"/><path d="M1156 1226 1258.07 1150.47 1360.14 1144.13 1462.21 1180.59 1564.29 1218.98 1666.36 1217.05 1768.43 1144.29 1870.5 1053.47 1972.57 928.383 2074.64 933.364 2176.71 895 2278.79 922.815 2380.86 941.046 2482.93 947.296 2585 908.779" stroke="#1F497D" stroke-width="18.3333" stroke-linejoin="round" stroke-miterlimit="10" stroke-dasharray="73.3333 55" fill="none" fill-rule="evenodd"/><text fill="#1F497D" font-family="Inter,Inter_MSFontService,sans-serif" font-weight="400" font-size="64" transform="matrix(1 0 0 1 2101.5 1030)">Point</text><text fill="#1F497D" font-family="Inter,Inter_MSFontService,sans-serif" font-weight="400" font-size="64" transform="matrix(1 0 0 1 2255.04 1030)"> </text><text fill="#1F497D" font-family="Inter,Inter_MSFontService,sans-serif" font-weight="400" font-size="64" transform="matrix(1 0 0 1 2101.5 1107)">forecast</text><text fill="#1F497D" font-family="Inter,Inter_MSFontService,sans-serif" font-weight="400" font-size="64" transform="matrix(1 0 0 1 2350.15 1107)"> </text><path d="M256.5 769.5 2691.21 769.501" stroke="#C0504D" stroke-width="9.16667" stroke-linejoin="round" stroke-miterlimit="10" fill="none" fill-rule="evenodd"/><text fill="#C0504D" font-family="Inter,Inter_MSFontService,sans-serif" font-weight="400" font-size="64" transform="matrix(1 0 0 1 346.208 731)">Hospital capacity</text><text fill="#C0504D" font-family="Inter,Inter_MSFontService,sans-serif" font-weight="400" font-size="64" transform="matrix(1 0 0 1 872.145 731)"> </text></g></svg>