<svg width="2019" height="1801" xmlns="http://www.w3.org/2000/svg" xmlns:xlink="http://www.w3.org/1999/xlink" xml:space="preserve" overflow="hidden"><defs><filter id="fx0" x="-10%" y="-10%" width="120%" height="120%" filterUnits="userSpaceOnUse" primitiveUnits="userSpaceOnUse"><feComponentTransfer color-interpolation-filters="sRGB"><feFuncR type="discrete" tableValues="0 0"/><feFuncG type="discrete" tableValues="0 0"/><feFuncB type="discrete" tableValues="0 0"/><feFuncA type="linear" slope="0.34902" intercept="0"/></feComponentTransfer><feGaussianBlur stdDeviation="4.8119 4.8119"/></filter><filter id="fx1" x="-10%" y="-10%" width="120%" height="120%" filterUnits="userSpaceOnUse" primitiveUnits="userSpaceOnUse"><feComponentTransfer color-interpolation-filters="sRGB"><feFuncR type="discrete" tableValues="0 0"/><feFuncG type="discrete" tableValues="0 0"/><feFuncB type="discrete" tableValues="0 0"/><feFuncA type="linear" slope="0.34902" intercept="0"/></feComponentTransfer><feGaussianBlur stdDeviation="4.8119 4.8119"/></filter><clipPath id="clip2"><rect x="-5" y="-5" width="1050" height="511"/></clipPath></defs><g><rect x="0" y="0" width="2019" height="1801" fill="#FFFFFF"/><path d="M145 1592 1872.41 1592" stroke="#595959" stroke-width="18.3333" stroke-linejoin="round" stroke-miterlimit="10" fill="none" fill-rule="evenodd"/><g filter="url(#fx0)" transform="translate(1842 1560)"><g><path d="M15.9999 16.3004 44.0001 40.3005 15.9999 64.3005Z" fill="#404040" fill-rule="evenodd"/></g></g><path d="M1858 1568 1886 1592 1858 1616Z" fill="#404040" fill-rule="evenodd"/><path d="M0 0 0.000360892 1428.08" stroke="#595959" stroke-width="18.3333" stroke-linejoin="round" stroke-miterlimit="10" fill="none" fill-rule="evenodd" transform="matrix(1 0 0 -1 145 1592.08)"/><path d="M131 188 144.5 139 158 188Z" fill="#404040" fill-rule="evenodd"/><path d="M858 164 858 1592.08" stroke="#595959" stroke-width="13.75" stroke-linejoin="round" stroke-miterlimit="10" fill="none" fill-rule="evenodd"/><text fill="#1F497D" font-family="Inter,Inter_MSFontService,sans-serif" font-weight="400" font-size="73" transform="matrix(1 0 0 1 454.034 183)">Actuals</text><text fill="#1F497D" font-family="Inter,Inter_MSFontService,sans-serif" font-weight="400" font-size="73" transform="matrix(1 0 0 1 711.846 183)"> </text><text fill="#1F497D" font-family="Inter,Inter_MSFontService,sans-serif" font-weight="400" font-size="73" transform="matrix(1 0 0 1 1127.72 183)">Forecast</text><text fill="#1F497D" font-family="Inter,Inter_MSFontService,sans-serif" font-weight="400" font-size="73" transform="matrix(1 0 0 1 1428.5 183)"> </text><text fill="#262626" font-family="Inter,Inter_MSFontService,sans-serif" font-weight="400" font-size="64" transform="matrix(-1.83697e-16 -1 1 -1.83697e-16 87.3035 695)">Number</text><text fill="#262626" font-family="Inter,Inter_MSFontService,sans-serif" font-weight="400" font-size="64" transform="matrix(-1.83697e-16 -1 1 -1.83697e-16 87.3035 452)"> </text><text fill="#262626" font-family="Inter,Inter_MSFontService,sans-serif" font-weight="400" font-size="64" transform="matrix(-1.83697e-16 -1 1 -1.83697e-16 87.3035 434)">of</text><text fill="#262626" font-family="Inter,Inter_MSFontService,sans-serif" font-weight="400" font-size="64" transform="matrix(-1.83697e-16 -1 1 -1.83697e-16 87.3035 372)"> </text><text fill="#262626" font-family="Inter,Inter_MSFontService,sans-serif" font-weight="400" font-size="64" transform="matrix(-1.83697e-16 -1 1 -1.83697e-16 87.3035 353)">case</text><text fill="#262626" font-family="Inter,Inter_MSFontService,sans-serif" font-weight="400" font-size="64" transform="matrix(-1.83697e-16 -1 1 -1.83697e-16 87.3035 209)">s</text><text fill="#262626" font-family="Inter,Inter_MSFontService,sans-serif" font-weight="400" font-size="64" transform="matrix(-1.83697e-16 -1 1 -1.83697e-16 87.3035 175)"> </text><text fill="#262626" font-family="Inter,Inter_MSFontService,sans-serif" font-weight="400" font-size="64" transform="matrix(1 0 0 1 1721.35 1705)">Time</text><text fill="#262626" font-family="Inter,Inter_MSFontService,sans-serif" font-weight="400" font-size="64" transform="matrix(1 0 0 1 1871.45 1705)"> </text><text fill="#262626" font-family="Inter,Inter_MSFontService,sans-serif" font-weight="400" font-size="73" transform="matrix(1 0 0 1 841.44 1694)">t₀</text><text fill="#262626" font-family="Inter,Inter_MSFontService,sans-serif" font-weight="400" font-size="73" transform="matrix(1 0 0 1 899.305 1694)"> </text><path d="M179.5 1408.5 254.611 1306.72 329.722 1305.07 404.833 1201.12 479.944 1322.29 555.056 1328.54 630.167 1288.32 705.278 1277.98 780.389 1180.74 855.5 1084.5" stroke="#1F497D" stroke-width="22.9167" stroke-linejoin="round" stroke-miterlimit="10" fill="none" fill-rule="evenodd"/><g clip-path="url(#clip2)" filter="url(#fx1)" transform="translate(835 630)"><g><path d="M23 481.301 97.0713 377.243 171.143 368.519 245.214 418.736 319.286 471.633 393.357 468.977 467.429 368.737 541.5 243.622 615.571 71.2908 689.643 78.1525 763.714 25.3005 837.786 63.6193 911.857 88.7351 985.929 97.3459 1060 44.2827" stroke="#1F497D" stroke-width="18" stroke-linejoin="round" stroke-miterlimit="10" stroke-dasharray="73.3333 55" fill="none" fill-rule="evenodd"/></g></g><path d="M858 1103 932.071 998.943 1006.14 990.219 1080.21 1040.44 1154.29 1093.33 1228.36 1090.68 1302.43 990.436 1376.5 865.322 1450.57 692.99 1524.64 699.852 1598.71 647 1672.79 685.319 1746.86 710.435 1820.93 719.045 1895 665.982" stroke="#1F497D" stroke-width="18.3333" stroke-linejoin="round" stroke-miterlimit="10" stroke-dasharray="73.3333 55" fill="none" fill-rule="evenodd"/><text fill="#1F497D" font-family="Inter,Inter_MSFontService,sans-serif" font-weight="400" font-size="55" transform="matrix(1 0 0 1 1114.03 351)">One </text><text fill="#1F497D" font-family="Inter,Inter_MSFontService,sans-serif" font-weight="400" font-size="55" transform="matrix(1 0 0 1 1236.06 351)">future</text><text fill="#1F497D" font-family="Inter,Inter_MSFontService,sans-serif" font-weight="400" font-size="55" transform="matrix(1 0 0 1 1391.9 351)"> </text><path d="M0 324.17 75.1046 222.338 150.209 220.685 225.314 116.686 300.419 237.916 375.524 244.173 450.629 203.93 525.733 193.579 600.838 96.2864 675.943 0" stroke="#00B050" stroke-width="13.75" stroke-linejoin="round" stroke-miterlimit="10" fill="none" fill-rule="evenodd" transform="matrix(-0.669122 0.743152 0.743152 0.669122 628.689 852.851)"/><text fill="#00B050" font-family="Inter,Inter_MSFontService,sans-serif" font-weight="400" font-size="55" transform="matrix(1 0 0 1 490.558 1017)">Fitted model</text><text fill="#00B050" font-family="Inter,Inter_MSFontService,sans-serif" font-weight="400" font-size="55" transform="matrix(1 0 0 1 813.111 1017)"> </text><path d="M693.156 1110 693.156 1274.67 682.844 1274.67 682.844 1110ZM672.531 1110C672.531 1101.46 679.457 1094.53 688 1094.53 696.543 1094.53 703.469 1101.46 703.469 1110 703.469 1118.54 696.543 1125.47 688 1125.47 679.457 1125.47 672.531 1118.54 672.531 1110ZM703.469 1274.67C703.469 1283.22 696.543 1290.14 688 1290.14 679.457 1290.14 672.531 1283.22 672.531 1274.67 672.531 1266.13 679.457 1259.21 688 1259.21 696.543 1259.21 703.469 1266.13 703.469 1274.67Z" fill="#C00000"/><text fill="#C00000" font-family="Inter,Inter_MSFontService,sans-serif" font-weight="700" font-size="55" transform="matrix(1 0 0 1 628.084 1393)">error</text><text fill="#C00000" font-family="Inter,Inter_MSFontService,sans-serif" font-weight="700" font-size="55" transform="matrix(1 0 0 1 761 1393)"> </text></g></svg>