<svg width="2026" height="1801" xmlns="http://www.w3.org/2000/svg" xmlns:xlink="http://www.w3.org/1999/xlink" xml:space="preserve" overflow="hidden"><defs><filter id="fx0" x="-10%" y="-10%" width="120%" height="120%" filterUnits="userSpaceOnUse" primitiveUnits="userSpaceOnUse"><feComponentTransfer color-interpolation-filters="sRGB"><feFuncR type="discrete" tableValues="0 0"/><feFuncG type="discrete" tableValues="0 0"/><feFuncB type="discrete" tableValues="0 0"/><feFuncA type="linear" slope="0.34902" intercept="0"/></feComponentTransfer><feGaussianBlur stdDeviation="4.8119 4.8119"/></filter><clipPath id="clip1"><rect x="-14" y="0" width="2026" height="1801"/></clipPath></defs><g clip-path="url(#clip1)" transform="translate(14 0)"><rect x="-6.99987" y="0" width="2019" height="1801" fill="#FFFFFF"/><path d="M841.179 528 841.21 533.387 841.247 538.774 841.288 544.161 841.337 549.548 841.393 554.935 841.457 560.322 841.531 565.708 841.616 571.095 841.714 576.482 841.825 581.869 841.953 587.256 842.099 592.643 842.264 598.03 842.453 603.417 842.667 608.804 842.909 614.191 843.183 619.578 843.493 624.965 843.841 630.352 844.233 635.739 844.674 641.126 845.167 646.513 845.719 651.899 846.336 657.286 847.024 662.673 847.789 668.06 848.639 673.447 849.582 678.834 850.625 684.221 851.778 689.608 853.049 694.995 854.449 700.382 855.987 705.769 857.674 711.156 859.521 716.543 861.539 721.93 863.74 727.317 866.136 732.703 868.741 738.09 871.565 743.477 874.623 748.864 877.927 754.251 881.491 759.638 885.326 765.025 889.447 770.412 893.864 775.799 898.592 781.186 903.641 786.573 909.023 791.96 914.748 797.347 920.825 802.734 927.264 808.121 934.072 813.508 941.255 818.894 948.817 824.281 956.763 829.668 965.094 835.055 973.81 840.442 982.908 845.829 992.384 851.216 1002.23 856.603 1012.45 861.99 1023.01 867.377 1033.91 872.764 1045.14 878.151 1056.67 883.538 1068.49 888.925 1080.56 894.312 1092.87 899.698 1105.38 905.085 1118.06 910.472 1130.89 915.859 1143.82 921.246 1156.82 926.633 1169.84 932.02 1182.84 937.407 1195.79 942.794 1208.63 948.181 1221.32 953.568 1233.81 958.955 1246.06 964.342 1258.02 969.729 1269.63 975.116 1280.86 980.502 1291.66 985.889 1301.97 991.276 1311.76 996.663 1320.97 1002.05 1329.58 1007.44 1337.54 1012.82 1344.82 1018.21 1351.37 1023.6 1357.18 1028.98 1362.21 1034.37 1366.44 1039.76 1369.85 1045.15 1372.42 1050.53 1374.14 1055.92 1375 1061.31 1375 1066.69 1374.14 1072.08 1372.42 1077.47 1369.85 1082.85 1366.44 1088.24 1362.21 1093.63 1357.18 1099.02 1351.37 1104.4 1344.82 1109.79 1337.54 1115.18 1329.58 1120.56 1320.97 1125.95 1311.76 1131.34 1301.97 1136.72 1291.66 1142.11 1280.86 1147.5 1269.63 1152.88 1258.02 1158.27 1246.06 1163.66 1233.81 1169.05 1221.32 1174.43 1208.63 1179.82 1195.79 1185.21 1182.84 1190.59 1169.84 1195.98 1156.82 1201.37 1143.82 1206.75 1130.89 1212.14 1118.06 1217.53 1105.38 1222.91 1092.87 1228.3 1080.56 1233.69 1068.49 1239.08 1056.67 1244.46 1045.14 1249.85 1033.91 1255.24 1023.01 1260.62 1012.45 1266.01 1002.23 1271.4 992.384 1276.78 982.908 1282.17 973.81 1287.56 965.094 1292.94 956.763 1298.33 948.817 1303.72 941.255 1309.11 934.072 1314.49 927.264 1319.88 920.825 1325.27 914.748 1330.65 909.023 1336.04 903.641 1341.43 898.592 1346.81 893.864 1352.2 889.447 1357.59 885.326 1362.97 881.491 1368.36 877.927 1373.75 874.623 1379.14 871.565 1384.52 868.741 1389.91 866.136 1395.3 863.74 1400.68 861.539 1406.07 859.521 1411.46 857.674 1416.84 855.987 1422.23 854.449 1427.62 853.049 1433.01 851.778 1438.39 850.625 1443.78 849.582 1449.17 848.639 1454.55 847.789 1459.94 847.024 1465.33 846.336 1470.71 845.719 1476.1 845.167 1481.49 844.674 1486.87 844.233 1492.26 843.841 1497.65 843.493 1503.04 843.183 1508.42 842.909 1513.81 842.667 1519.2 842.453 1524.58 842.264 1529.97 842.099 1535.36 841.953 1540.74 841.825 1546.13 841.714 1551.52 841.616 1556.9 841.531 1562.29 841.457 1567.68 841.393 1573.07 841.337 1578.45 841.288 1583.84 841.247 1589.23 841.21 1594.61 841.179 1600 841 1600 841 528 841.179 528Z" fill="#1F497D" fill-rule="evenodd" fill-opacity="0.25098"/><path d="M125 1592 1852.41 1592" stroke="#595959" stroke-width="18.3333" stroke-linejoin="round" stroke-miterlimit="10" fill="none" fill-rule="evenodd"/><g filter="url(#fx0)" transform="translate(1823 1560)"><g><path d="M16.0001 16.3004 42.9999 40.3005 16.0001 64.3005Z" fill="#404040" fill-rule="evenodd"/></g></g><path d="M1839 1568 1866 1592 1839 1616Z" fill="#404040" fill-rule="evenodd"/><path d="M0 0 0.000360892 1428.08" stroke="#595959" stroke-width="18.3333" stroke-linejoin="round" stroke-miterlimit="10" fill="none" fill-rule="evenodd" transform="matrix(1 0 0 -1 125 1592.08)"/><path d="M111 188 125 139 139 188Z" fill="#404040" fill-rule="evenodd"/><path d="M838 164 838 1592.08" stroke="#595959" stroke-width="13.75" stroke-linejoin="round" stroke-miterlimit="10" fill="none" fill-rule="evenodd"/><text fill="#1F497D" font-family="Inter,Inter_MSFontService,sans-serif" font-weight="400" font-size="73" transform="matrix(1 0 0 1 434.33 183)">Actuals</text><text fill="#1F497D" font-family="Inter,Inter_MSFontService,sans-serif" font-weight="400" font-size="73" transform="matrix(1 0 0 1 692.142 183)"> </text><text fill="#1F497D" font-family="Inter,Inter_MSFontService,sans-serif" font-weight="400" font-size="73" transform="matrix(1 0 0 1 1108.02 183)">Forecast</text><text fill="#1F497D" font-family="Inter,Inter_MSFontService,sans-serif" font-weight="400" font-size="73" transform="matrix(1 0 0 1 1408.8 183)"> </text><text fill="#262626" font-family="Inter,Inter_MSFontService,sans-serif" font-weight="400" font-size="64" transform="matrix(-1.83697e-16 -1 1 -1.83697e-16 67.5995 695)">Number</text><text fill="#262626" font-family="Inter,Inter_MSFontService,sans-serif" font-weight="400" font-size="64" transform="matrix(-1.83697e-16 -1 1 -1.83697e-16 67.5995 452)"> </text><text fill="#262626" font-family="Inter,Inter_MSFontService,sans-serif" font-weight="400" font-size="64" transform="matrix(-1.83697e-16 -1 1 -1.83697e-16 67.5995 434)">of</text><text fill="#262626" font-family="Inter,Inter_MSFontService,sans-serif" font-weight="400" font-size="64" transform="matrix(-1.83697e-16 -1 1 -1.83697e-16 67.5995 372)"> </text><text fill="#262626" font-family="Inter,Inter_MSFontService,sans-serif" font-weight="400" font-size="64" transform="matrix(-1.83697e-16 -1 1 -1.83697e-16 67.5995 353)">case</text><text fill="#262626" font-family="Inter,Inter_MSFontService,sans-serif" font-weight="400" font-size="64" transform="matrix(-1.83697e-16 -1 1 -1.83697e-16 67.5995 209)">s</text><text fill="#262626" font-family="Inter,Inter_MSFontService,sans-serif" font-weight="400" font-size="64" transform="matrix(-1.83697e-16 -1 1 -1.83697e-16 67.5995 175)"> </text><text fill="#262626" font-family="Inter,Inter_MSFontService,sans-serif" font-weight="400" font-size="64" transform="matrix(1 0 0 1 1701.64 1705)">Time</text><text fill="#262626" font-family="Inter,Inter_MSFontService,sans-serif" font-weight="400" font-size="64" transform="matrix(1 0 0 1 1851.75 1705)"> </text><text fill="#262626" font-family="Inter,Inter_MSFontService,sans-serif" font-weight="400" font-size="73" transform="matrix(1 0 0 1 821.736 1694)">t₀</text><text fill="#262626" font-family="Inter,Inter_MSFontService,sans-serif" font-weight="400" font-size="73" transform="matrix(1 0 0 1 879.601 1694)"> </text><path d="M125.5 1417.5 205.055 1304.1 284.611 1302.26 364.167 1186.44 443.722 1321.45 523.278 1328.41 602.833 1283.6 682.389 1272.07 761.944 1163.73 841.5 1056.5" stroke="#1F497D" stroke-width="22.9167" stroke-linejoin="round" stroke-miterlimit="10" fill="none" fill-rule="evenodd"/><path d="M838.5 520.5 838.531 525.887 838.567 531.274 838.609 536.661 838.658 542.047 838.713 547.434 838.778 552.821 838.852 558.208 838.937 563.595 839.035 568.982 839.146 574.369 839.274 579.756 839.42 585.143 839.586 590.53 839.774 595.917 839.988 601.304 840.231 606.691 840.505 612.078 840.814 617.465 841.163 622.852 841.555 628.238 841.996 633.625 842.489 639.012 843.042 644.399 843.659 649.786 844.346 655.173 845.112 660.56 845.962 665.947 846.905 671.334 847.949 676.721 849.102 682.108 850.374 687.495 851.774 692.882 853.312 698.269 855 703.655 856.847 709.042 858.866 714.429 861.068 719.816 863.466 725.203 866.071 730.59 868.896 735.977 871.955 741.364 875.261 746.751 878.825 752.138 882.662 757.525 886.783 762.912 891.203 768.299 895.932 773.686 900.983 779.073 906.366 784.46 912.093 789.846 918.173 795.233 924.614 800.62 931.424 806.007 938.609 811.394 946.174 816.781 954.123 822.168 962.456 827.555 971.175 832.942 980.276 838.329 989.756 843.716 999.608 849.103 1009.82 854.49 1020.39 859.877 1031.3 865.264 1042.53 870.651 1054.06 876.037 1065.88 881.424 1077.96 886.811 1090.27 892.198 1102.79 897.585 1115.48 902.972 1128.31 908.359 1141.24 913.746 1154.24 919.133 1167.27 924.52 1180.28 929.907 1193.23 935.294 1206.07 940.681 1218.77 946.068 1231.27 951.455 1243.52 956.841 1255.48 962.228 1267.1 967.615 1278.33 973.002 1289.13 978.389 1299.44 983.776 1309.23 989.163 1318.46 994.55 1327.07 999.937 1335.03 1005.32 1342.31 1010.71 1348.87 1016.1 1354.68 1021.48 1359.71 1026.87 1363.94 1032.26 1367.35 1037.65 1369.92 1043.03 1371.64 1048.42 1372.5 1053.81 1372.5 1059.19 1371.64 1064.58 1369.92 1069.97 1367.35 1075.35 1363.94 1080.74 1359.71 1086.13 1354.68 1091.51 1348.87 1096.9 1342.31 1102.29 1335.03 1107.68 1327.07 1113.06 1318.46 1118.45 1309.23 1123.84 1299.44 1129.22 1289.13 1134.61 1278.33 1140 1267.1 1145.38 1255.48 1150.77 1243.52 1156.16 1231.27 1161.55 1218.77 1166.93 1206.07 1172.32 1193.23 1177.71 1180.28 1183.09 1167.27 1188.48 1154.24 1193.87 1141.24 1199.25 1128.31 1204.64 1115.48 1210.03 1102.79 1215.41 1090.27 1220.8 1077.96 1226.19 1065.88 1231.58 1054.06 1236.96 1042.53 1242.35 1031.3 1247.74 1020.39 1253.12 1009.82 1258.51 999.608 1263.9 989.756 1269.28 980.276 1274.67 971.175 1280.06 962.456 1285.44 954.123 1290.83 946.174 1296.22 938.609 1301.61 931.424 1306.99 924.614 1312.38 918.173 1317.77 912.093 1323.15 906.366 1328.54 900.983 1333.93 895.932 1339.31 891.203 1344.7 886.783 1350.09 882.662 1355.47 878.825 1360.86 875.261 1366.25 871.955 1371.64 868.896 1377.02 866.071 1382.41 863.466 1387.8 861.068 1393.18 858.866 1398.57 856.847 1403.96 855 1409.34 853.312 1414.73 851.774 1420.12 850.374 1425.5 849.102 1430.89 847.949 1436.28 846.905 1441.67 845.962 1447.05 845.112 1452.44 844.346 1457.83 843.659 1463.21 843.042 1468.6 842.489 1473.99 841.996 1479.37 841.555 1484.76 841.163 1490.15 840.814 1495.54 840.505 1500.92 840.231 1506.31 839.988 1511.7 839.774 1517.08 839.586 1522.47 839.42 1527.86 839.274 1533.24 839.146 1538.63 839.035 1544.02 838.937 1549.4 838.852 1554.79 838.778 1560.18 838.713 1565.57 838.658 1570.95 838.609 1576.34 838.567 1581.73 838.531 1587.11 838.5 1592.5" stroke="#1F497D" stroke-width="6.875" stroke-linecap="square" stroke-linejoin="round" stroke-miterlimit="10" stroke-dasharray="20.625 6.875" fill="none" fill-rule="evenodd"/><path d="M841 1056 1715 1056" stroke="#C0504D" stroke-width="10.3125" stroke-linejoin="round" stroke-miterlimit="10" fill="none" fill-rule="evenodd"/><text fill="#C0504D" font-family="Inter,Inter_MSFontService,sans-serif" font-weight="400" font-size="55" transform="matrix(1 0 0 1 1362.52 1140)">Point</text><text fill="#C0504D" font-family="Inter,Inter_MSFontService,sans-serif" font-weight="400" font-size="55" transform="matrix(1 0 0 1 1494.29 1140)"> </text><text fill="#C0504D" font-family="Inter,Inter_MSFontService,sans-serif" font-weight="400" font-size="55" transform="matrix(1 0 0 1 1509.76 1140)">forecast</text><text fill="#C0504D" font-family="Inter,Inter_MSFontService,sans-serif" font-weight="400" font-size="55" transform="matrix(1 0 0 1 1724.03 1140)"> </text><text fill="#C0504D" font-family="Inter,Inter_MSFontService,sans-serif" font-weight="400" font-size="55" transform="matrix(1 0 0 1 1362.52 1206)">(</text><text fill="#C0504D" font-family="Inter,Inter_MSFontService,sans-serif" font-weight="400" font-size="55" transform="matrix(1 0 0 1 1382.57 1206)">mean)</text><text fill="#C0504D" font-family="Inter,Inter_MSFontService,sans-serif" font-weight="400" font-size="55" transform="matrix(1 0 0 1 1547 1206)"> </text><path d="M841 1276 1684.66 1276" stroke="#1F497D" stroke-width="13.75" stroke-linejoin="round" stroke-miterlimit="10" stroke-dasharray="55 41.25" fill="none" fill-rule="evenodd"/><path d="M841 839 1684.66 839" stroke="#1F497D" stroke-width="13.75" stroke-linejoin="round" stroke-miterlimit="10" stroke-dasharray="55 41.25" fill="none" fill-rule="evenodd"/></g></svg>