<svg width="2054" height="1801" xmlns="http://www.w3.org/2000/svg" xmlns:xlink="http://www.w3.org/1999/xlink" xml:space="preserve" overflow="hidden"><defs><filter id="fx0" x="-10%" y="-10%" width="120%" height="120%" filterUnits="userSpaceOnUse" primitiveUnits="userSpaceOnUse"><feComponentTransfer color-interpolation-filters="sRGB"><feFuncR type="discrete" tableValues="0 0"/><feFuncG type="discrete" tableValues="0 0"/><feFuncB type="discrete" tableValues="0 0"/><feFuncA type="linear" slope="0.34902" intercept="0"/></feComponentTransfer><feGaussianBlur stdDeviation="4.8119 4.8119"/></filter><filter id="fx1" x="-10%" y="-10%" width="120%" height="120%" filterUnits="userSpaceOnUse" primitiveUnits="userSpaceOnUse"><feComponentTransfer color-interpolation-filters="sRGB"><feFuncR type="discrete" tableValues="0 0"/><feFuncG type="discrete" tableValues="0 0"/><feFuncB type="discrete" tableValues="0 0"/><feFuncA type="linear" slope="0.34902" intercept="0"/></feComponentTransfer><feGaussianBlur stdDeviation="4.8119 4.8119"/></filter><filter id="fx2" x="-10%" y="-10%" width="120%" height="120%" filterUnits="userSpaceOnUse" primitiveUnits="userSpaceOnUse"><feComponentTransfer color-interpolation-filters="sRGB"><feFuncR type="discrete" tableValues="0 0"/><feFuncG type="discrete" tableValues="0 0"/><feFuncB type="discrete" tableValues="0 0"/><feFuncA type="linear" slope="0.34902" intercept="0"/></feComponentTransfer><feGaussianBlur stdDeviation="4.8119 4.8119"/></filter><filter id="fx3" x="-10%" y="-10%" width="120%" height="120%" filterUnits="userSpaceOnUse" primitiveUnits="userSpaceOnUse"><feComponentTransfer color-interpolation-filters="sRGB"><feFuncR type="discrete" tableValues="0 0"/><feFuncG type="discrete" tableValues="0 0"/><feFuncB type="discrete" tableValues="0 0"/><feFuncA type="linear" slope="0.34902" intercept="0"/></feComponentTransfer><feGaussianBlur stdDeviation="4.8119 4.8119"/></filter><filter id="fx4" x="-10%" y="-10%" width="120%" height="120%" filterUnits="userSpaceOnUse" primitiveUnits="userSpaceOnUse"><feComponentTransfer color-interpolation-filters="sRGB"><feFuncR type="discrete" tableValues="0 0"/><feFuncG type="discrete" tableValues="0 0"/><feFuncB type="discrete" tableValues="0 0"/><feFuncA type="linear" slope="0.380392" intercept="0"/></feComponentTransfer><feGaussianBlur stdDeviation="4.8119 4.8119"/></filter><clipPath id="clip5"><rect x="10" y="22" width="69" height="890"/></clipPath></defs><g transform="translate(-4204 0)"><rect x="4204" y="0" width="2019" height="1801" fill="#FFFFFF"/><g filter="url(#fx0)" transform="translate(5029 248)"><g><path d="M16 833.175 90.0713 633.579 164.143 611.031 238.214 636.514 312.286 662.274 386.357 637.126 460.429 523.995 534.5 387.753 608.571 208.661 682.643 188.215 756.714 113.979 830.786 120.228 904.857 114.17 978.929 92.9086 1053 16.3006 1053 872.579 978.929 890.372 904.857 853.792 830.786 803.051 756.714 741.13 682.643 760.92 608.571 728.266 534.5 855.759 460.429 942.101 386.357 1007.3 312.286 986.876 238.214 918.532 164.143 854.677 90.0713 847.649 16 833.175 16 833.175Z" fill="#1F497D" fill-rule="evenodd" fill-opacity="0.25098"/></g></g><path d="M5045 1072.87 5119.07 873.279 5193.14 850.731 5267.21 876.213 5341.29 901.973 5415.36 876.826 5489.43 763.694 5563.5 627.452 5637.57 448.361 5711.64 427.915 5785.71 353.679 5859.79 359.928 5933.86 353.87 6007.93 332.608 6082 256 6082 1112.28 6007.93 1130.07 5933.86 1093.49 5859.79 1042.75 5785.71 980.829 5711.64 1000.62 5637.57 967.966 5563.5 1095.46 5489.43 1181.8 5415.36 1247 5341.29 1226.58 5267.21 1158.23 5193.14 1094.38 5119.07 1087.35 5045 1072.87 5045 1072.87Z" fill="#1F497D" fill-rule="evenodd" fill-opacity="0.25098"/><g filter="url(#fx1)" transform="translate(5026 246)"><g><path d="M19.5 835.801 93.5713 636.174 167.643 613.622 241.714 639.109 315.786 664.873 389.857 639.721 463.929 526.573 538 390.309 612.071 211.191 686.143 190.742 760.214 116.494 834.286 122.744 908.357 116.685 982.429 95.4202 1056.5 18.8004" stroke="#1F497D" stroke-width="7" stroke-linejoin="round" stroke-miterlimit="10" stroke-dasharray="27.5 20.625" fill="none" fill-rule="evenodd"/></g></g><path d="M5045.5 1073.5 5119.57 873.874 5193.64 851.322 5267.71 876.808 5341.79 902.573 5415.86 877.421 5489.93 764.272 5564 628.009 5638.07 448.89 5712.14 428.441 5786.21 354.194 5860.29 360.444 5934.36 354.384 6008.43 333.12 6082.5 256.5" stroke="#1F497D" stroke-width="6.875" stroke-linejoin="round" stroke-miterlimit="10" stroke-dasharray="27.5 20.625" fill="none" fill-rule="evenodd"/><g filter="url(#fx2)" transform="translate(5029 957)"><g><path d="M16.5 124.696 90.5713 139.168 164.643 146.196 238.714 210.043 312.786 278.379 386.857 298.8 460.929 233.609 535 147.277 609.071 19.8004 683.143 52.4497 757.214 32.6623 831.286 94.5762 905.357 145.31 979.429 181.886 1053.5 164.096" stroke="#1F497D" stroke-width="7" stroke-linejoin="round" stroke-miterlimit="10" stroke-dasharray="27.5 20.625" fill="none" fill-rule="evenodd"/></g></g><path d="M5045.5 1073.4 5119.57 1087.87 5193.64 1094.9 5267.71 1158.74 5341.79 1227.08 5415.86 1247.5 5489.93 1182.31 5564 1095.98 5638.07 968.5 5712.14 1001.15 5786.21 981.362 5860.29 1043.28 5934.36 1094.01 6008.43 1130.59 6082.5 1112.8" stroke="#1F497D" stroke-width="6.875" stroke-linejoin="round" stroke-miterlimit="10" stroke-dasharray="27.5 20.625" fill="none" fill-rule="evenodd"/><path d="M4355 1592 6082.41 1592" stroke="#595959" stroke-width="18.3333" stroke-linejoin="round" stroke-miterlimit="10" fill="none" fill-rule="evenodd"/><g filter="url(#fx3)" transform="translate(6053 1560)"><g><path d="M16.0003 16.3002 43.0005 40.3002 16.0003 64.3003Z" fill="#404040" fill-rule="evenodd"/></g></g><path d="M6069 1568 6096 1592 6069 1616Z" fill="#404040" fill-rule="evenodd"/><path d="M0 0 0.000360892 1428.08" stroke="#595959" stroke-width="18.3333" stroke-linejoin="round" stroke-miterlimit="10" fill="none" fill-rule="evenodd" transform="matrix(1 0 0 -1 4355 1592.08)"/><path d="M4341 188 4355 139 4369 188Z" fill="#404040" fill-rule="evenodd"/><path d="M5068 164 5068 1592.08" stroke="#595959" stroke-width="13.75" stroke-linejoin="round" stroke-miterlimit="10" fill="none" fill-rule="evenodd"/><text fill="#1F497D" font-family="Inter,Inter_MSFontService,sans-serif" font-weight="400" font-size="73" transform="matrix(1 0 0 1 4664.25 183)">Actuals</text><text fill="#1F497D" font-family="Inter,Inter_MSFontService,sans-serif" font-weight="400" font-size="73" transform="matrix(1 0 0 1 4922.06 183)"> </text><text fill="#1F497D" font-family="Inter,Inter_MSFontService,sans-serif" font-weight="400" font-size="73" transform="matrix(1 0 0 1 5337.94 183)">Forecast</text><text fill="#1F497D" font-family="Inter,Inter_MSFontService,sans-serif" font-weight="400" font-size="73" transform="matrix(1 0 0 1 5638.72 183)"> </text><text fill="#262626" font-family="Inter,Inter_MSFontService,sans-serif" font-weight="400" font-size="64" transform="matrix(-1.83697e-16 -1 1 -1.83697e-16 4297.52 695)">Number</text><text fill="#262626" font-family="Inter,Inter_MSFontService,sans-serif" font-weight="400" font-size="64" transform="matrix(-1.83697e-16 -1 1 -1.83697e-16 4297.52 452)"> </text><text fill="#262626" font-family="Inter,Inter_MSFontService,sans-serif" font-weight="400" font-size="64" transform="matrix(-1.83697e-16 -1 1 -1.83697e-16 4297.52 434)">of</text><text fill="#262626" font-family="Inter,Inter_MSFontService,sans-serif" font-weight="400" font-size="64" transform="matrix(-1.83697e-16 -1 1 -1.83697e-16 4297.52 372)"> </text><text fill="#262626" font-family="Inter,Inter_MSFontService,sans-serif" font-weight="400" font-size="64" transform="matrix(-1.83697e-16 -1 1 -1.83697e-16 4297.52 353)">case</text><text fill="#262626" font-family="Inter,Inter_MSFontService,sans-serif" font-weight="400" font-size="64" transform="matrix(-1.83697e-16 -1 1 -1.83697e-16 4297.52 209)">s</text><text fill="#262626" font-family="Inter,Inter_MSFontService,sans-serif" font-weight="400" font-size="64" transform="matrix(-1.83697e-16 -1 1 -1.83697e-16 4297.52 175)"> </text><text fill="#262626" font-family="Inter,Inter_MSFontService,sans-serif" font-weight="400" font-size="64" transform="matrix(1 0 0 1 5931.56 1705)">Time</text><text fill="#262626" font-family="Inter,Inter_MSFontService,sans-serif" font-weight="400" font-size="64" transform="matrix(1 0 0 1 6081.67 1705)"> </text><text fill="#262626" font-family="Inter,Inter_MSFontService,sans-serif" font-weight="400" font-size="73" transform="matrix(1 0 0 1 5051.65 1694)">t₀</text><text fill="#262626" font-family="Inter,Inter_MSFontService,sans-serif" font-weight="400" font-size="73" transform="matrix(1 0 0 1 5109.52 1694)"> </text><path d="M4355.5 1417.5 4430.61 1315.72 4505.72 1314.07 4580.83 1210.12 4655.94 1331.29 4731.06 1337.54 4806.17 1297.32 4881.28 1286.98 4956.39 1189.74 5031.5 1093.5" stroke="#1F497D" stroke-width="22.9167" stroke-linejoin="round" stroke-miterlimit="10" fill="none" fill-rule="evenodd"/><path d="M5031 1093 5106.07 1017.47 5181.14 1011.13 5256.21 1047.59 5331.29 1085.98 5406.36 1084.05 5481.43 1011.29 5556.5 920.475 5631.57 795.383 5706.64 800.364 5781.71 762 5856.79 789.815 5931.86 808.046 6006.93 814.296 6082 775.779" stroke="#1F497D" stroke-width="18.3333" stroke-linejoin="round" stroke-miterlimit="10" stroke-dasharray="73.3333 55" fill="none" fill-rule="evenodd"/><text fill="#262626" font-family="Inter,Inter_MSFontService,sans-serif" font-weight="400" font-size="64" transform="matrix(1 0 0 1 5977.71 1236)">90% </text><text fill="#262626" font-family="Inter,Inter_MSFontService,sans-serif" font-weight="400" font-size="64" transform="matrix(1 0 0 1 6139.27 1236)"> </text><text fill="#262626" font-family="Inter,Inter_MSFontService,sans-serif" font-weight="400" font-size="64" transform="matrix(1 0 0 1 5977.71 1313)">interval</text><text fill="#262626" font-family="Inter,Inter_MSFontService,sans-serif" font-weight="400" font-size="64" transform="matrix(1 0 0 1 6201.15 1313)"> </text><g clip-path="url(#clip5)" filter="url(#fx4)" transform="translate(6062 220)"><g><path d="M48 66.6345 48.0004 869.311 39.0004 869.311 39 66.6345ZM29.75 71.2178 43.5 43.7178 57.25 71.2178ZM57.2504 864.728 43.5004 892.228 29.7503 864.728Z" fill="#262626"/></g></g><path d="M6110.08 279.417 6110.08 1082.09 6100.92 1082.09 6100.92 279.417ZM6091.75 284 6105.5 256.5 6119.25 284ZM6119.25 1077.51 6105.5 1105.01 6091.75 1077.51Z" fill="#262626"/></g></svg>