<svg width="2019" height="1801" xmlns="http://www.w3.org/2000/svg" xmlns:xlink="http://www.w3.org/1999/xlink" xml:space="preserve" overflow="hidden"><defs><filter id="fx0" x="-10%" y="-10%" width="120%" height="120%" filterUnits="userSpaceOnUse" primitiveUnits="userSpaceOnUse"><feComponentTransfer color-interpolation-filters="sRGB"><feFuncR type="discrete" tableValues="0 0"/><feFuncG type="discrete" tableValues="0 0"/><feFuncB type="discrete" tableValues="0 0"/><feFuncA type="linear" slope="0.34902" intercept="0"/></feComponentTransfer><feGaussianBlur stdDeviation="4.8119 4.8119"/></filter><filter id="fx1" x="-10%" y="-10%" width="120%" height="120%" filterUnits="userSpaceOnUse" primitiveUnits="userSpaceOnUse"><feComponentTransfer color-interpolation-filters="sRGB"><feFuncR type="discrete" tableValues="0 0"/><feFuncG type="discrete" tableValues="0 0"/><feFuncB type="discrete" tableValues="0 0"/><feFuncA type="linear" slope="0.34902" intercept="0"/></feComponentTransfer><feGaussianBlur stdDeviation="4.8119 4.8119"/></filter><clipPath id="clip2"><rect x="-5" y="-5" width="1050" height="511"/></clipPath></defs><g transform="translate(-2051 0)"><rect x="2051" y="0" width="2019" height="1801" fill="#FFFFFF"/><path d="M2195 1592 3922.41 1592" stroke="#595959" stroke-width="18.3333" stroke-linejoin="round" stroke-miterlimit="10" fill="none" fill-rule="evenodd"/><g filter="url(#fx0)" transform="translate(3893 1560)"><g><path d="M16.0002 16.3004 43 40.3005 16.0002 64.3005Z" fill="#404040" fill-rule="evenodd"/></g></g><path d="M3909 1568 3936 1592 3909 1616Z" fill="#404040" fill-rule="evenodd"/><path d="M0 0 0.000360892 1428.08" stroke="#595959" stroke-width="18.3333" stroke-linejoin="round" stroke-miterlimit="10" fill="none" fill-rule="evenodd" transform="matrix(1 0 0 -1 2195 1592.08)"/><path d="M2182 188 2195.5 139 2209 188Z" fill="#404040" fill-rule="evenodd"/><path d="M2909 164 2909 1592.08" stroke="#595959" stroke-width="13.75" stroke-linejoin="round" stroke-miterlimit="10" fill="none" fill-rule="evenodd"/><text fill="#1F497D" font-family="Inter,Inter_MSFontService,sans-serif" font-weight="400" font-size="73" transform="matrix(1 0 0 1 2504.65 183)">Actuals</text><text fill="#1F497D" font-family="Inter,Inter_MSFontService,sans-serif" font-weight="400" font-size="73" transform="matrix(1 0 0 1 2762.46 183)"> </text><text fill="#1F497D" font-family="Inter,Inter_MSFontService,sans-serif" font-weight="400" font-size="73" transform="matrix(1 0 0 1 3178.33 183)">Forecast</text><text fill="#1F497D" font-family="Inter,Inter_MSFontService,sans-serif" font-weight="400" font-size="73" transform="matrix(1 0 0 1 3479.12 183)"> </text><text fill="#262626" font-family="Inter,Inter_MSFontService,sans-serif" font-weight="400" font-size="64" transform="matrix(-1.83697e-16 -1 1 -1.83697e-16 2137.91 695)">Number</text><text fill="#262626" font-family="Inter,Inter_MSFontService,sans-serif" font-weight="400" font-size="64" transform="matrix(-1.83697e-16 -1 1 -1.83697e-16 2137.91 452)"> </text><text fill="#262626" font-family="Inter,Inter_MSFontService,sans-serif" font-weight="400" font-size="64" transform="matrix(-1.83697e-16 -1 1 -1.83697e-16 2137.91 434)">of</text><text fill="#262626" font-family="Inter,Inter_MSFontService,sans-serif" font-weight="400" font-size="64" transform="matrix(-1.83697e-16 -1 1 -1.83697e-16 2137.91 372)"> </text><text fill="#262626" font-family="Inter,Inter_MSFontService,sans-serif" font-weight="400" font-size="64" transform="matrix(-1.83697e-16 -1 1 -1.83697e-16 2137.91 353)">case</text><text fill="#262626" font-family="Inter,Inter_MSFontService,sans-serif" font-weight="400" font-size="64" transform="matrix(-1.83697e-16 -1 1 -1.83697e-16 2137.91 209)">s</text><text fill="#262626" font-family="Inter,Inter_MSFontService,sans-serif" font-weight="400" font-size="64" transform="matrix(-1.83697e-16 -1 1 -1.83697e-16 2137.91 175)"> </text><text fill="#262626" font-family="Inter,Inter_MSFontService,sans-serif" font-weight="400" font-size="64" transform="matrix(1 0 0 1 3771.96 1705)">Time</text><text fill="#262626" font-family="Inter,Inter_MSFontService,sans-serif" font-weight="400" font-size="64" transform="matrix(1 0 0 1 3922.06 1705)"> </text><text fill="#262626" font-family="Inter,Inter_MSFontService,sans-serif" font-weight="400" font-size="73" transform="matrix(1 0 0 1 2892.05 1694)">t₀</text><text fill="#262626" font-family="Inter,Inter_MSFontService,sans-serif" font-weight="400" font-size="73" transform="matrix(1 0 0 1 2949.92 1694)"> </text><path d="M2230.5 1408.5 2305.5 1306.72 2380.5 1305.07 2455.5 1201.12 2530.5 1322.29 2605.5 1328.54 2680.5 1288.32 2755.5 1277.98 2830.5 1180.74 2905.5 1084.5" stroke="#1F497D" stroke-width="22.9167" stroke-linejoin="round" stroke-miterlimit="10" fill="none" fill-rule="evenodd"/><path d="M2904.5 1110.23 2977.29 1051.73 3050.07 1030.06 3122.86 1101.54 3195.64 1074.16 3268.43 1122.5 3341.21 965.942 3414 726.259 3486.79 515.5 3559.57 572.637 3632.36 663.338 3705.14 768.677 3777.93 818.849 3850.71 741.031 3923.5 619.844" stroke="#A6A6A6" stroke-width="3.4375" stroke-linejoin="round" stroke-miterlimit="10" fill="none" fill-rule="evenodd"/><path d="M2904.5 1110.42 2977.29 1044.67 3050.07 1058.09 3122.86 1013.89 3195.64 1272.5 3268.43 1115.09 3341.21 930.487 3414 967.373 3486.79 800.509 3559.57 767.164 3632.36 476.643 3705.14 654.568 3777.93 1025.28 3850.71 757.747 3923.5 384.5" stroke="#A6A6A6" stroke-width="3.4375" stroke-linejoin="round" stroke-miterlimit="10" fill="none" fill-rule="evenodd"/><path d="M2904.5 1110.27 2977.29 936.658 3050.07 938.149 3122.86 1057.73 3195.64 1271.5 3268.43 1078.14 3341.21 1002.11 3414 827.624 3486.79 417.5 3559.57 619.139 3632.36 540.463 3705.14 520.865 3777.93 710.233 3850.71 808.205 3923.5 771.941" stroke="#A6A6A6" stroke-width="3.4375" stroke-linejoin="round" stroke-miterlimit="10" fill="none" fill-rule="evenodd"/><path d="M2904.5 1110.24 2977.29 948.508 3050.07 946.56 3122.86 1077.97 3195.64 991.431 3268.43 1076.53 3341.21 1140.5 3414 757.778 3486.79 659.993 3559.57 856.562 3632.36 499.5 3705.14 694.028 3777.93 736.523 3850.71 546.961 3923.5 1093.14" stroke="#A6A6A6" stroke-width="3.4375" stroke-linejoin="round" stroke-miterlimit="10" fill="none" fill-rule="evenodd"/><path d="M2904.5 1110.69 2977.29 1061.79 3050.07 1010.05 3122.86 1018.71 3195.64 1161.81 3268.43 1202.5 3341.21 1106.72 3414 853.177 3486.79 542.194 3559.57 875.807 3632.36 940.826 3705.14 685.353 3777.93 734.549 3850.71 859.113 3923.5 473.5" stroke="#A6A6A6" stroke-width="3.4375" stroke-linejoin="round" stroke-miterlimit="10" fill="none" fill-rule="evenodd"/><path d="M2904.5 1110.73 2977.29 946.811 3050.07 1019.62 3122.86 1066.72 3195.64 1046.33 3268.43 1142.19 3341.21 1148.5 3414 846.775 3486.79 770.707 3559.57 596.752 3632.36 673.122 3705.14 665.795 3777.93 558.5 3850.71 695.939 3923.5 749.159" stroke="#A6A6A6" stroke-width="3.4375" stroke-linejoin="round" stroke-miterlimit="10" fill="none" fill-rule="evenodd"/><path d="M2904.5 1110.05 2977.29 1046.24 3050.07 863.653 3122.86 948.938 3195.64 1239.5 3268.43 1207.69 3341.21 911.42 3414 914.815 3486.79 637.391 3559.57 519.5 3632.36 564.923 3705.14 654.384 3777.93 752.153 3850.71 687.47 3923.5 523.165" stroke="#A6A6A6" stroke-width="3.4375" stroke-linejoin="round" stroke-miterlimit="10" fill="none" fill-rule="evenodd"/><path d="M2904.5 1110.44 2977.29 895.195 3050.07 908.603 3122.86 1054.74 3195.64 1013.66 3268.43 1083.85 3341.21 1157.5 3414 851.719 3486.79 496.199 3559.57 741.53 3632.36 428.037 3705.14 687.127 3777.93 654.74 3850.71 917.799 3923.5 151.5" stroke="#A6A6A6" stroke-width="3.4375" stroke-linejoin="round" stroke-miterlimit="10" fill="none" fill-rule="evenodd"/><path d="M2904.5 1110.76 2977.29 966.258 3050.07 912.72 3122.86 1075.5 3195.64 1236.5 3268.43 967.877 3341.21 1066.26 3414 620.253 3486.79 664.818 3559.57 392.5 3632.36 711.239 3705.14 953.671 3777.93 523.635 3850.71 684.174 3923.5 609.69" stroke="#A6A6A6" stroke-width="3.4375" stroke-linejoin="round" stroke-miterlimit="10" fill="none" fill-rule="evenodd"/><path d="M2904.5 1110.95 2977.29 933.603 3050.07 1041.49 3122.86 1143.67 3195.64 1209.08 3268.43 1275.5 3341.21 1196.95 3414 1007.48 3486.79 781.12 3559.57 720.434 3632.36 794.023 3705.14 658.948 3777.93 517.5 3850.71 722.722 3923.5 525.531" stroke="#A6A6A6" stroke-width="3.4375" stroke-linejoin="round" stroke-miterlimit="10" fill="none" fill-rule="evenodd"/><path d="M2904.5 1110.12 2977.29 1043.6 3050.07 964.618 3122.86 1005.73 3195.64 1166.14 3268.43 1267.5 3341.21 1014.66 3414 852.948 3486.79 451.723 3559.57 732.889 3632.36 334.5 3705.14 1095 3777.93 750.99 3850.71 806.34 3923.5 731.272" stroke="#A6A6A6" stroke-width="3.4375" stroke-linejoin="round" stroke-miterlimit="10" fill="none" fill-rule="evenodd"/><path d="M2904.5 1110.81 2977.29 1030.45 3050.07 997.178 3122.86 922.802 3195.64 1131.5 3268.43 991.711 3341.21 1015.71 3414 849.286 3486.79 1007.72 3559.57 665.15 3632.36 518.795 3705.14 872.663 3777.93 816.704 3850.71 887.07 3923.5 190.5" stroke="#A6A6A6" stroke-width="3.4375" stroke-linejoin="round" stroke-miterlimit="10" fill="none" fill-rule="evenodd"/><path d="M2904.5 1110.63 2977.29 1055.81 3050.07 1043.32 3122.86 1271.5 3195.64 1264.29 3268.43 1096.66 3341.21 1156.23 3414 1224.36 3486.79 712.095 3559.57 665.58 3632.36 578.935 3705.14 604.116 3777.93 819.419 3850.71 139.5 3923.5 778.007" stroke="#A6A6A6" stroke-width="3.4375" stroke-linejoin="round" stroke-miterlimit="10" fill="none" fill-rule="evenodd"/><path d="M2904.5 1110.48 2977.29 978.784 3050.07 1080.89 3122.86 1105.59 3195.64 1260.5 3268.43 1096.68 3341.21 1053.75 3414 996.245 3486.79 956.446 3559.57 595.496 3632.36 485.548 3705.14 518.512 3777.93 717.316 3850.71 569.872 3923.5 454.5" stroke="#A6A6A6" stroke-width="3.4375" stroke-linejoin="round" stroke-miterlimit="10" fill="none" fill-rule="evenodd"/><path d="M2904.5 1110.85 2977.29 974.633 3050.07 898.508 3122.86 1067.39 3195.64 1098.24 3268.43 1275.5 3341.21 757.09 3414 958.383 3486.79 618.077 3559.57 575.737 3632.36 750.754 3705.14 667.229 3777.93 556.5 3850.71 719.729 3923.5 706.892" stroke="#A6A6A6" stroke-width="3.4375" stroke-linejoin="round" stroke-miterlimit="10" fill="none" fill-rule="evenodd"/><path d="M2904.5 1110.5 2977.29 1016.09 3050.07 1038.02 3122.86 1062.99 3195.64 1077.75 3268.43 1062.12 3341.21 867.582 3414 847.048 3486.79 730.39 3559.57 535.294 3632.36 547.762 3705.14 470.5 3777.93 644.925 3850.71 582.048 3923.5 546.174" stroke="#A6A6A6" stroke-width="3.4375" stroke-linejoin="round" stroke-miterlimit="10" fill="none" fill-rule="evenodd"/><path d="M2904.5 1110.5 2977.29 956.724 3050.07 1053.33 3122.86 1054.96 3195.64 1091.83 3268.43 926.28 3341.21 1001.05 3414 790.275 3486.79 678.843 3559.57 983.384 3632.36 393.5 3705.14 525.578 3777.93 436.729 3850.71 969.245 3923.5 567.458" stroke="#A6A6A6" stroke-width="3.4375" stroke-linejoin="round" stroke-miterlimit="10" fill="none" fill-rule="evenodd"/><path d="M2904.5 1110.33 2977.29 986.488 3050.07 1092.52 3122.86 1008.81 3195.64 1164.02 3268.43 1054.39 3341.21 1187.5 3414 964.593 3486.79 754.546 3559.57 899.299 3632.36 593.476 3705.14 411.34 3777.93 681.617 3850.71 559.154 3923.5 307.5" stroke="#A6A6A6" stroke-width="3.4375" stroke-linejoin="round" stroke-miterlimit="10" fill="none" fill-rule="evenodd"/><g clip-path="url(#clip2)" filter="url(#fx1)" transform="translate(2886 630)"><g><path d="M23.0002 481.301 97.0715 377.243 171.143 368.519 245.214 418.736 319.286 471.633 393.357 468.977 467.429 368.737 541.5 243.622 615.571 71.2908 689.643 78.1525 763.714 25.3005 837.786 63.6193 911.857 88.7351 985.929 97.3459 1060 44.2827" stroke="#C00000" stroke-width="18" stroke-linejoin="round" stroke-miterlimit="10" stroke-dasharray="73.3333 55" fill="none" fill-rule="evenodd"/></g></g><path d="M2909 1103 2983.07 998.943 3057.14 990.219 3131.21 1040.44 3205.29 1093.33 3279.36 1090.68 3353.43 990.436 3427.5 865.322 3501.57 692.99 3575.64 699.852 3649.71 647 3723.79 685.319 3797.86 710.435 3871.93 719.045 3946 665.982" stroke="#C00000" stroke-width="18.3333" stroke-linejoin="round" stroke-miterlimit="10" stroke-dasharray="73.3333 55" fill="none" fill-rule="evenodd"/><text fill="#C0504D" font-family="Inter,Inter_MSFontService,sans-serif" font-weight="400" font-size="55" transform="matrix(1 0 0 1 3164.64 351)">Many possible futures</text><text fill="#C0504D" font-family="Inter,Inter_MSFontService,sans-serif" font-weight="400" font-size="55" transform="matrix(1 0 0 1 3741.57 351)"> </text></g></svg>