<svg width="5687" height="1672" xmlns="http://www.w3.org/2000/svg" xmlns:xlink="http://www.w3.org/1999/xlink" xml:space="preserve" overflow="hidden"><defs><filter id="fx0" x="-10%" y="-10%" width="120%" height="120%" filterUnits="userSpaceOnUse" primitiveUnits="userSpaceOnUse"><feComponentTransfer color-interpolation-filters="sRGB"><feFuncR type="discrete" tableValues="0 0"/><feFuncG type="discrete" tableValues="0 0"/><feFuncB type="discrete" tableValues="0 0"/><feFuncA type="linear" slope="0.34902" intercept="0"/></feComponentTransfer><feGaussianBlur stdDeviation="4.8119 4.8119"/></filter><filter id="fx1" x="-10%" y="-10%" width="120%" height="120%" filterUnits="userSpaceOnUse" primitiveUnits="userSpaceOnUse"><feComponentTransfer color-interpolation-filters="sRGB"><feFuncR type="discrete" tableValues="0 0"/><feFuncG type="discrete" tableValues="0 0"/><feFuncB type="discrete" tableValues="0 0"/><feFuncA type="linear" slope="0.34902" intercept="0"/></feComponentTransfer><feGaussianBlur stdDeviation="4.8119 4.8119"/></filter><filter id="fx2" x="-10%" y="-10%" width="120%" height="120%" filterUnits="userSpaceOnUse" primitiveUnits="userSpaceOnUse"><feComponentTransfer color-interpolation-filters="sRGB"><feFuncR type="discrete" tableValues="0 0"/><feFuncG type="discrete" tableValues="0 0"/><feFuncB type="discrete" tableValues="0 0"/><feFuncA type="linear" slope="0.34902" intercept="0"/></feComponentTransfer><feGaussianBlur stdDeviation="4.8119 4.8119"/></filter><filter id="fx3" x="-10%" y="-10%" width="120%" height="120%" filterUnits="userSpaceOnUse" primitiveUnits="userSpaceOnUse"><feComponentTransfer color-interpolation-filters="sRGB"><feFuncR type="discrete" tableValues="0 0"/><feFuncG type="discrete" tableValues="0 0"/><feFuncB type="discrete" tableValues="0 0"/><feFuncA type="linear" slope="0.34902" intercept="0"/></feComponentTransfer><feGaussianBlur stdDeviation="4.8119 4.8119"/></filter><filter id="fx4" x="-10%" y="-10%" width="120%" height="120%" filterUnits="userSpaceOnUse" primitiveUnits="userSpaceOnUse"><feComponentTransfer color-interpolation-filters="sRGB"><feFuncR type="discrete" tableValues="0 0"/><feFuncG type="discrete" tableValues="0 0"/><feFuncB type="discrete" tableValues="0 0"/><feFuncA type="linear" slope="0.34902" intercept="0"/></feComponentTransfer><feGaussianBlur stdDeviation="4.8119 4.8119"/></filter><filter id="fx5" x="-10%" y="-10%" width="120%" height="120%" filterUnits="userSpaceOnUse" primitiveUnits="userSpaceOnUse"><feComponentTransfer color-interpolation-filters="sRGB"><feFuncR type="discrete" tableValues="0 0"/><feFuncG type="discrete" tableValues="0 0"/><feFuncB type="discrete" tableValues="0 0"/><feFuncA type="linear" slope="0.380392" intercept="0"/></feComponentTransfer><feGaussianBlur stdDeviation="4.8119 4.8119"/></filter><filter id="fx6" x="-10%" y="-10%" width="120%" height="120%" filterUnits="userSpaceOnUse" primitiveUnits="userSpaceOnUse"><feComponentTransfer color-interpolation-filters="sRGB"><feFuncR type="discrete" tableValues="0 0"/><feFuncG type="discrete" tableValues="0 0"/><feFuncB type="discrete" tableValues="0 0"/><feFuncA type="linear" slope="0.34902" intercept="0"/></feComponentTransfer><feGaussianBlur stdDeviation="4.8119 4.8119"/></filter><clipPath id="clip7"><rect x="-5" y="1" width="1441" height="857"/></clipPath><clipPath id="clip8"><rect x="10" y="22" width="69" height="890"/></clipPath></defs><g transform="translate(-110 -220)"><path d="M237 1725 2585.01 1725" stroke="#595959" stroke-width="18.3333" stroke-linejoin="round" stroke-miterlimit="10" fill="none" fill-rule="evenodd"/><g filter="url(#fx0)" transform="translate(2550 1693)"><g><path d="M16.0002 16.3004 54 40.3005 16.0002 64.3005Z" fill="#404040" fill-rule="evenodd"/></g></g><path d="M2566 1701 2604 1725 2566 1749Z" fill="#404040" fill-rule="evenodd"/><path d="M0 0 0.000360892 1428.08" stroke="#595959" stroke-width="18.3333" stroke-linejoin="round" stroke-miterlimit="10" fill="none" fill-rule="evenodd" transform="matrix(1 0 0 -1 237 1725.08)"/><path d="M218 321 237 272 256 321Z" fill="#404040" fill-rule="evenodd"/><path d="M1207 297 1207 1725.08" stroke="#595959" stroke-width="13.75" stroke-linejoin="round" stroke-miterlimit="10" fill="none" fill-rule="evenodd"/><text fill="#1F497D" font-family="Inter,Inter_MSFontService,sans-serif" font-weight="400" font-size="73" transform="matrix(1 0 0 1 645.732 316)">Actuals</text><text fill="#1F497D" font-family="Inter,Inter_MSFontService,sans-serif" font-weight="400" font-size="73" transform="matrix(1 0 0 1 903.545 316)"> </text><text fill="#1F497D" font-family="Inter,Inter_MSFontService,sans-serif" font-weight="400" font-size="73" transform="matrix(1 0 0 1 1561.46 316)">Forecast</text><text fill="#1F497D" font-family="Inter,Inter_MSFontService,sans-serif" font-weight="400" font-size="73" transform="matrix(1 0 0 1 1862.24 316)"> </text><text fill="#262626" font-family="Inter,Inter_MSFontService,sans-serif" font-weight="400" font-size="64" transform="matrix(-1.83697e-16 -1 1 -1.83697e-16 191.806 828)">Number</text><text fill="#262626" font-family="Inter,Inter_MSFontService,sans-serif" font-weight="400" font-size="64" transform="matrix(-1.83697e-16 -1 1 -1.83697e-16 191.806 585)"> </text><text fill="#262626" font-family="Inter,Inter_MSFontService,sans-serif" font-weight="400" font-size="64" transform="matrix(-1.83697e-16 -1 1 -1.83697e-16 191.806 567)">of</text><text fill="#262626" font-family="Inter,Inter_MSFontService,sans-serif" font-weight="400" font-size="64" transform="matrix(-1.83697e-16 -1 1 -1.83697e-16 191.806 505)"> </text><text fill="#262626" font-family="Inter,Inter_MSFontService,sans-serif" font-weight="400" font-size="64" transform="matrix(-1.83697e-16 -1 1 -1.83697e-16 191.806 486)">case</text><text fill="#262626" font-family="Inter,Inter_MSFontService,sans-serif" font-weight="400" font-size="64" transform="matrix(-1.83697e-16 -1 1 -1.83697e-16 191.806 342)">s</text><text fill="#262626" font-family="Inter,Inter_MSFontService,sans-serif" font-weight="400" font-size="64" transform="matrix(-1.83697e-16 -1 1 -1.83697e-16 191.806 308)"> </text><text fill="#262626" font-family="Inter,Inter_MSFontService,sans-serif" font-weight="400" font-size="64" transform="matrix(1 0 0 1 2407.17 1838)">Time</text><text fill="#262626" font-family="Inter,Inter_MSFontService,sans-serif" font-weight="400" font-size="64" transform="matrix(1 0 0 1 2557.27 1838)"> </text><text fill="#262626" font-family="Inter,Inter_MSFontService,sans-serif" font-weight="400" font-size="55" transform="matrix(1 0 0 1 1202.02 1810)">t₀</text><text fill="#262626" font-family="Inter,Inter_MSFontService,sans-serif" font-weight="400" font-size="55" transform="matrix(1 0 0 1 1244.99 1810)"> </text><path d="M237.5 1550.5 339.611 1448.72 441.722 1447.07 543.833 1343.12 645.944 1464.29 748.055 1470.54 850.167 1430.32 952.278 1419.98 1054.39 1322.74 1156.5 1226.5" stroke="#1F497D" stroke-width="22.9167" stroke-linejoin="round" stroke-miterlimit="10" fill="none" fill-rule="evenodd"/><path d="M1156 1226 1258.07 1150.47 1360.14 1144.13 1462.21 1180.59 1564.29 1218.98 1666.36 1217.05 1768.43 1144.29 1870.5 1053.47 1972.57 928.383 2074.64 933.364 2176.71 895 2278.79 922.815 2380.86 941.046 2482.93 947.296 2585 908.779" stroke="#1F497D" stroke-width="18.3333" stroke-linejoin="round" stroke-miterlimit="10" stroke-dasharray="73.3333 55" fill="none" fill-rule="evenodd"/><text fill="#1F497D" font-family="Inter,Inter_MSFontService,sans-serif" font-weight="400" font-size="64" transform="matrix(1 0 0 1 2101.5 1030)">Point</text><text fill="#1F497D" font-family="Inter,Inter_MSFontService,sans-serif" font-weight="400" font-size="64" transform="matrix(1 0 0 1 2255.04 1030)"> </text><text fill="#1F497D" font-family="Inter,Inter_MSFontService,sans-serif" font-weight="400" font-size="64" transform="matrix(1 0 0 1 2101.5 1107)">forecast</text><text fill="#1F497D" font-family="Inter,Inter_MSFontService,sans-serif" font-weight="400" font-size="64" transform="matrix(1 0 0 1 2350.15 1107)"> </text><path d="M256.5 769.5 2691.21 769.501" stroke="#C0504D" stroke-width="9.16667" stroke-linejoin="round" stroke-miterlimit="10" fill="none" fill-rule="evenodd"/><text fill="#C0504D" font-family="Inter,Inter_MSFontService,sans-serif" font-weight="400" font-size="64" transform="matrix(1 0 0 1 346.208 731)">Hospital capacity</text><text fill="#C0504D" font-family="Inter,Inter_MSFontService,sans-serif" font-weight="400" font-size="64" transform="matrix(1 0 0 1 872.145 731)"> </text><g filter="url(#fx1)" transform="translate(4252 377)"><g><path d="M16 833.175 116.071 633.579 216.143 611.031 316.214 636.513 416.286 662.274 516.357 637.126 616.429 523.995 716.5 387.752 816.571 208.661 916.643 188.215 1016.71 113.979 1116.79 120.228 1216.86 114.17 1316.93 92.9085 1417 16.3005 1417 872.579 1316.93 890.372 1216.86 853.792 1116.79 803.051 1016.71 741.13 916.643 760.92 816.571 728.266 716.5 855.759 616.429 942.101 516.357 1007.3 416.286 986.876 316.214 918.532 216.143 854.677 116.071 847.649 16 833.175 16 833.175Z" fill="#1F497D" fill-rule="evenodd" fill-opacity="0.25098"/></g></g><path d="M4268 1201.87 4368.07 1002.28 4468.14 979.731 4568.21 1005.21 4668.29 1030.97 4768.36 1005.83 4868.43 892.694 4968.5 756.452 5068.57 577.361 5168.64 556.915 5268.71 482.679 5368.79 488.928 5468.86 482.87 5568.93 461.608 5669 385 5669 1241.28 5568.93 1259.07 5468.86 1222.49 5368.79 1171.75 5268.71 1109.83 5168.64 1129.62 5068.57 1096.97 4968.5 1224.46 4868.43 1310.8 4768.36 1376 4668.29 1355.58 4568.21 1287.23 4468.14 1223.38 4368.07 1216.35 4268 1201.87 4268 1201.87Z" fill="#1F497D" fill-rule="evenodd" fill-opacity="0.25098"/><g clip-path="url(#clip7)" filter="url(#fx2)" transform="translate(4249 375)"><g><path d="M19.5 835.8 119.571 636.174 219.643 613.622 319.714 639.109 419.786 664.873 519.857 639.721 619.929 526.573 720 390.309 820.071 211.19 920.143 190.741 1020.21 116.494 1120.29 122.744 1220.36 116.685 1320.43 95.4201 1420.5 18.8004" stroke="#1F497D" stroke-width="7" stroke-linejoin="round" stroke-miterlimit="10" stroke-dasharray="27.5 20.625" fill="none" fill-rule="evenodd"/></g></g><path d="M4268.5 1202.5 4368.57 1002.87 4468.64 980.322 4568.71 1005.81 4668.79 1031.57 4768.86 1006.42 4868.93 893.272 4969 757.009 5069.07 577.89 5169.14 557.441 5269.21 483.193 5369.29 489.444 5469.36 483.384 5569.43 462.12 5669.5 385.5" stroke="#1F497D" stroke-width="6.875" stroke-linejoin="round" stroke-miterlimit="10" stroke-dasharray="27.5 20.625" fill="none" fill-rule="evenodd"/><g filter="url(#fx3)" transform="translate(4252 1086)"><g><path d="M16.5 124.696 116.571 139.169 216.643 146.196 316.714 210.043 416.786 278.379 516.857 298.8 616.929 233.609 717 147.278 817.071 19.8007 917.143 52.45 1017.21 32.6626 1117.29 94.5764 1217.36 145.31 1317.43 181.886 1417.5 164.096" stroke="#1F497D" stroke-width="7" stroke-linejoin="round" stroke-miterlimit="10" stroke-dasharray="27.5 20.625" fill="none" fill-rule="evenodd"/></g></g><path d="M4268.5 1202.4 4368.57 1216.87 4468.64 1223.9 4568.71 1287.74 4668.79 1356.08 4768.86 1376.5 4868.93 1311.31 4969 1224.98 5069.07 1097.5 5169.14 1130.15 5269.21 1110.36 5369.29 1172.28 5469.36 1223.01 5569.43 1259.59 5669.5 1241.8" stroke="#1F497D" stroke-width="6.875" stroke-linejoin="round" stroke-miterlimit="10" stroke-dasharray="27.5 20.625" fill="none" fill-rule="evenodd"/><path d="M3337 1721 5668.12 1721" stroke="#595959" stroke-width="18.3333" stroke-linejoin="round" stroke-miterlimit="10" fill="none" fill-rule="evenodd"/><g filter="url(#fx4)" transform="translate(5634 1689)"><g><path d="M15.9999 16.3004 53 40.3003 15.9999 64.3002Z" fill="#404040" fill-rule="evenodd"/></g></g><path d="M5650 1697 5687 1721 5650 1745Z" fill="#404040" fill-rule="evenodd"/><path d="M0 0 0.000360892 1428.08" stroke="#595959" stroke-width="18.3333" stroke-linejoin="round" stroke-miterlimit="10" fill="none" fill-rule="evenodd" transform="matrix(1 0 0 -1 3337 1721.08)"/><path d="M3319 317 3337.5 269 3356 317Z" fill="#404040" fill-rule="evenodd"/><path d="M4300 293 4300 1721.08" stroke="#595959" stroke-width="13.75" stroke-linejoin="round" stroke-miterlimit="10" fill="none" fill-rule="evenodd"/><text fill="#1F497D" font-family="Inter,Inter_MSFontService,sans-serif" font-weight="400" font-size="73" transform="matrix(1 0 0 1 3743.4 312)">Actuals</text><text fill="#1F497D" font-family="Inter,Inter_MSFontService,sans-serif" font-weight="400" font-size="73" transform="matrix(1 0 0 1 4001.21 312)"> </text><text fill="#1F497D" font-family="Inter,Inter_MSFontService,sans-serif" font-weight="400" font-size="73" transform="matrix(1 0 0 1 4652.54 312)">Forecast</text><text fill="#1F497D" font-family="Inter,Inter_MSFontService,sans-serif" font-weight="400" font-size="73" transform="matrix(1 0 0 1 4953.32 312)"> </text><text fill="#262626" font-family="Inter,Inter_MSFontService,sans-serif" font-weight="400" font-size="64" transform="matrix(-1.83697e-16 -1 1 -1.83697e-16 3284.42 824)">Number</text><text fill="#262626" font-family="Inter,Inter_MSFontService,sans-serif" font-weight="400" font-size="64" transform="matrix(-1.83697e-16 -1 1 -1.83697e-16 3284.42 581)"> </text><text fill="#262626" font-family="Inter,Inter_MSFontService,sans-serif" font-weight="400" font-size="64" transform="matrix(-1.83697e-16 -1 1 -1.83697e-16 3284.42 563)">of</text><text fill="#262626" font-family="Inter,Inter_MSFontService,sans-serif" font-weight="400" font-size="64" transform="matrix(-1.83697e-16 -1 1 -1.83697e-16 3284.42 501)"> </text><text fill="#262626" font-family="Inter,Inter_MSFontService,sans-serif" font-weight="400" font-size="64" transform="matrix(-1.83697e-16 -1 1 -1.83697e-16 3284.42 483)">case</text><text fill="#262626" font-family="Inter,Inter_MSFontService,sans-serif" font-weight="400" font-size="64" transform="matrix(-1.83697e-16 -1 1 -1.83697e-16 3284.42 338)">s</text><text fill="#262626" font-family="Inter,Inter_MSFontService,sans-serif" font-weight="400" font-size="64" transform="matrix(-1.83697e-16 -1 1 -1.83697e-16 3284.42 304)"> </text><text fill="#262626" font-family="Inter,Inter_MSFontService,sans-serif" font-weight="400" font-size="64" transform="matrix(1 0 0 1 5491.39 1834)">Time</text><text fill="#262626" font-family="Inter,Inter_MSFontService,sans-serif" font-weight="400" font-size="64" transform="matrix(1 0 0 1 5641.49 1834)"> </text><text fill="#262626" font-family="Inter,Inter_MSFontService,sans-serif" font-weight="400" font-size="55" transform="matrix(1 0 0 1 4295.29 1807)">t₀</text><text fill="#262626" font-family="Inter,Inter_MSFontService,sans-serif" font-weight="400" font-size="55" transform="matrix(1 0 0 1 4338.26 1807)"> </text><path d="M3337.5 1546.5 3438.94 1444.72 3540.39 1443.07 3641.83 1339.12 3743.28 1460.29 3844.72 1466.54 3946.17 1426.32 4047.61 1415.98 4149.06 1318.74 4250.5 1222.5" stroke="#1F497D" stroke-width="22.9167" stroke-linejoin="round" stroke-miterlimit="10" fill="none" fill-rule="evenodd"/><path d="M4250 1222 4351.36 1146.47 4452.71 1140.13 4554.07 1176.59 4655.43 1214.98 4756.79 1213.05 4858.14 1140.29 4959.5 1049.47 5060.86 924.383 5162.21 929.364 5263.57 891 5364.93 918.815 5466.29 937.046 5567.64 943.296 5669 904.779" stroke="#1F497D" stroke-width="18.3333" stroke-linejoin="round" stroke-miterlimit="10" stroke-dasharray="73.3333 55" fill="none" fill-rule="evenodd"/><path d="M3356.5 765.5 5773.7 765.5" stroke="#C0504D" stroke-width="9.16667" stroke-linejoin="round" stroke-miterlimit="10" fill="none" fill-rule="evenodd"/><text fill="#C0504D" font-family="Inter,Inter_MSFontService,sans-serif" font-weight="400" font-size="64" transform="matrix(1 0 0 1 3446.03 727)">Hospital capacity</text><text fill="#C0504D" font-family="Inter,Inter_MSFontService,sans-serif" font-weight="400" font-size="64" transform="matrix(1 0 0 1 3971.97 727)"> </text><text fill="#262626" font-family="Inter,Inter_MSFontService,sans-serif" font-weight="400" font-size="64" transform="matrix(1 0 0 1 5515.91 1365)">90% </text><text fill="#262626" font-family="Inter,Inter_MSFontService,sans-serif" font-weight="400" font-size="64" transform="matrix(1 0 0 1 5677.47 1365)"> </text><text fill="#262626" font-family="Inter,Inter_MSFontService,sans-serif" font-weight="400" font-size="64" transform="matrix(1 0 0 1 5515.91 1442)">interval</text><text fill="#262626" font-family="Inter,Inter_MSFontService,sans-serif" font-weight="400" font-size="64" transform="matrix(1 0 0 1 5739.34 1442)"> </text><g clip-path="url(#clip8)" filter="url(#fx5)" transform="translate(5656 349)"><g><path d="M48 66.6344 48.0004 869.311 39.0004 869.311 39 66.6344ZM29.75 71.2177 43.5 43.7177 57.25 71.2177ZM57.2504 864.728 43.5004 892.228 29.7503 864.728Z" fill="#262626"/></g></g><path d="M5704.08 408.417 5704.08 1211.09 5694.92 1211.09 5694.92 408.417ZM5685.75 413 5699.5 385.5 5713.25 413ZM5713.25 1206.51 5699.5 1234.01 5685.75 1206.51Z" fill="#262626"/><g filter="url(#fx6)" transform="translate(2876 937)"><g><path d="M19.5 82.3007 138.5 82.3007 138.5 23.8005 255.5 140.801 138.5 257.801 138.5 199.301 19.5 199.301Z" stroke="#1F497D" stroke-width="7" stroke-miterlimit="8" fill="none" fill-rule="evenodd"/></g></g><path d="M2895.5 1011 3014.5 1011 3014.5 952.5 3131.5 1069.5 3014.5 1186.5 3014.5 1128 2895.5 1128Z" stroke="#1F497D" stroke-width="6.875" stroke-miterlimit="8" fill="none" fill-rule="evenodd"/></g></svg>