<svg width="1853" height="2299" xmlns="http://www.w3.org/2000/svg" xmlns:xlink="http://www.w3.org/1999/xlink" xml:space="preserve" overflow="hidden"><g transform="translate(-2341 -100)"><path d="M2343.5 156.168C2343.5 126.528 2367.53 102.5 2397.17 102.5L4137.83 102.5C4167.47 102.5 4191.5 126.528 4191.5 156.168L4191.5 370.832C4191.5 400.472 4167.47 424.5 4137.83 424.5L2397.17 424.5C2367.53 424.5 2343.5 400.472 2343.5 370.832Z" stroke="#E5E7EB" stroke-width="4.58333" stroke-linejoin="round" stroke-miterlimit="10" fill="#FFFFFF" fill-rule="evenodd"/><text fill="#111827" font-family="Inter,Inter_MSFontService,sans-serif" font-weight="400" font-size="60" transform="matrix(1 0 0 1 3005.75 188)">LMIS data sources</text><text fill="#111827" font-family="Inter,Inter_MSFontService,sans-serif" font-weight="400" font-size="60" transform="matrix(1 0 0 1 3528.25 188)"> </text><text font-family="Inter,Inter_MSFontService,sans-serif" font-weight="400" font-size="60" transform="matrix(1 0 0 1 3267 260)"> </text><text fill="#111827" font-family="Arial,Arial_MSFontService,sans-serif" font-weight="400" font-size="50" transform="matrix(1 0 0 1 2442 322)">•</text><text fill="#111827" font-family="Inter,Inter_MSFontService,sans-serif" font-weight="400" font-size="50" transform="matrix(1 0 0 1 2503.87 322)">Family Planning: </text><text font-family="Inter,Inter_MSFontService,sans-serif" font-weight="400" font-size="50" transform="matrix(1 0 0 1 2905.49 322)">Côte </text><text font-family="Inter,Inter_MSFontService,sans-serif" font-weight="400" font-size="50" transform="matrix(1 0 0 1 3032.68 322)">d'Ivoire, Ethiopia, Lao, Pakistan</text><text font-family="Inter,Inter_MSFontService,sans-serif" font-weight="400" font-size="50" transform="matrix(1 0 0 1 3774.6 322)"> </text><text font-family="Arial,Arial_MSFontService,sans-serif" font-weight="400" font-size="50" transform="matrix(1 0 0 1 2442 383)">•</text><text font-family="Inter,Inter_MSFontService,sans-serif" font-weight="400" font-size="50" transform="matrix(1 0 0 1 2503.87 383)">Public</text><text font-family="Inter,Inter_MSFontService,sans-serif" font-weight="400" font-size="50" transform="matrix(1 0 0 1 2649.4 383)"> </text><text font-family="Inter,Inter_MSFontService,sans-serif" font-weight="400" font-size="50" transform="matrix(1 0 0 1 2663.72 383)">healthcare</text><text font-family="Inter,Inter_MSFontService,sans-serif" font-weight="400" font-size="50" transform="matrix(1 0 0 1 2914.08 383)"> </text><text font-family="Inter,Inter_MSFontService,sans-serif" font-weight="400" font-size="50" transform="matrix(1 0 0 1 2928.41 383)">(9 Categories): Ethiopia and Lao</text><text font-family="Inter,Inter_MSFontService,sans-serif" font-weight="400" font-size="50" transform="matrix(1 0 0 1 3692.68 383)"> </text><path d="M3272.08 424.5 3272.08 467.583 3262.92 467.583 3262.92 424.5ZM3281.25 463 3267.5 490.5 3253.75 463Z" fill="#4B5563"/><path d="M2343.5 581.719C2343.5 535.206 2381.21 497.5 2427.72 497.5L4107.28 497.5C4153.79 497.5 4191.5 535.206 4191.5 581.719L4191.5 1400.25C4191.5 1446.77 4153.79 1484.47 4107.28 1484.47L2427.72 1484.47C2381.21 1484.47 2343.5 1446.77 2343.5 1400.25Z" stroke="#E5E7EB" stroke-width="4.58333" stroke-linejoin="round" stroke-miterlimit="10" fill="#242B4A" fill-rule="evenodd"/><text fill="#FFFFFF" font-family="Inter,Inter_MSFontService,sans-serif" font-weight="400" font-size="60" transform="matrix(1 0 0 1 2991.7 602)">Forecasting models</text><text fill="#FFFFFF" font-family="Inter,Inter_MSFontService,sans-serif" font-weight="400" font-size="60" transform="matrix(1 0 0 1 3542.27 602)"> </text><text fill="#FFFFFF" font-family="Inter,Inter_MSFontService,sans-serif" font-weight="400" font-size="60" transform="matrix(1 0 0 1 3267 674)"> </text><text fill="#FFFFFF" font-family="Arial,Arial_MSFontService,sans-serif" font-weight="400" font-size="50" transform="matrix(1 0 0 1 2442 736)">•</text><text fill="#FFFFFF" font-family="Inter,Inter_MSFontService,sans-serif" font-weight="400" font-size="50" transform="matrix(1 0 0 1 2503.87 736)">Benchmarks: Naïve, Mean, ARIMA, ETS</text><text fill="#FFFFFF" font-family="Inter,Inter_MSFontService,sans-serif" font-weight="400" font-size="50" transform="matrix(1 0 0 1 3438.3 736)"> </text><text fill="#FFFFFF" font-family="Arial,Arial_MSFontService,sans-serif" font-weight="400" font-size="50" transform="matrix(1 0 0 1 2442 797)">•</text><text fill="#FFFFFF" font-family="Inter,Inter_MSFontService,sans-serif" font-weight="400" font-size="50" transform="matrix(1 0 0 1 2503.87 797)">TimeGPT</text><text fill="#FFFFFF" font-family="Inter,Inter_MSFontService,sans-serif" font-weight="400" font-size="50" transform="matrix(1 0 0 1 2724.45 797)"> </text><text fill="#FFFFFF" font-family="Inter,Inter_MSFontService,sans-serif" font-weight="400" font-size="50" transform="matrix(1 0 0 1 2738.77 797)">(</text><text fill="#FFFFFF" font-family="Inter,Inter_MSFontService,sans-serif" font-weight="400" font-size="50" transform="matrix(1 0 0 1 2757.1 797)">Zeroshot</text><text fill="#FFFFFF" font-family="Inter,Inter_MSFontService,sans-serif" font-weight="400" font-size="50" transform="matrix(1 0 0 1 2970.23 797)"> </text><text fill="#FFFFFF" font-family="Inter,Inter_MSFontService,sans-serif" font-weight="400" font-size="50" transform="matrix(1 0 0 1 2984.55 797)">and tuned)</text><text fill="#FFFFFF" font-family="Inter,Inter_MSFontService,sans-serif" font-weight="400" font-size="50" transform="matrix(1 0 0 1 3242.36 797)"> </text><text fill="#FFFFFF" font-family="Arial,Arial_MSFontService,sans-serif" font-weight="400" font-size="50" transform="matrix(1 0 0 1 2442 857)">•</text><text fill="#FFFFFF" font-family="Inter,Inter_MSFontService,sans-serif" font-weight="400" font-size="50" transform="matrix(1 0 0 1 2503.87 857)">Chronos (t and bolt versions)</text><text fill="#FFFFFF" font-family="Inter,Inter_MSFontService,sans-serif" font-weight="400" font-size="50" transform="matrix(1 0 0 1 3196.53 857)"> </text><text fill="#FFFFFF" font-family="Arial,Arial_MSFontService,sans-serif" font-weight="400" font-size="50" transform="matrix(1 0 0 1 2442 918)">•</text><text fill="#FFFFFF" font-family="Inter,Inter_MSFontService,sans-serif" font-weight="400" font-size="50" transform="matrix(1 0 0 1 2503.87 918)">Moirai</text><text fill="#FFFFFF" font-family="Inter,Inter_MSFontService,sans-serif" font-weight="400" font-size="50" transform="matrix(1 0 0 1 2650.54 918)"> </text><text fill="#FFFFFF" font-family="Arial,Arial_MSFontService,sans-serif" font-weight="400" font-size="50" transform="matrix(1 0 0 1 2442 978)">•</text><text fill="#FFFFFF" font-family="Inter,Inter_MSFontService,sans-serif" font-weight="400" font-size="50" transform="matrix(1 0 0 1 2503.87 978)">TimesFM</text><text fill="#FFFFFF" font-family="Inter,Inter_MSFontService,sans-serif" font-weight="400" font-size="50" transform="matrix(1 0 0 1 2723.3 978)"> </text><text fill="#FFFFFF" font-family="Arial,Arial_MSFontService,sans-serif" font-weight="400" font-size="50" transform="matrix(1 0 0 1 2442 1039)">•</text><text fill="#FFFFFF" font-family="Inter,Inter_MSFontService,sans-serif" font-weight="400" font-size="50" transform="matrix(1 0 0 1 2503.87 1039)">FlowState</text><text fill="#FFFFFF" font-family="Inter,Inter_MSFontService,sans-serif" font-weight="400" font-size="50" transform="matrix(1 0 0 1 2739.92 1039)"> </text><text fill="#FFFFFF" font-family="Arial,Arial_MSFontService,sans-serif" font-weight="400" font-size="50" transform="matrix(1 0 0 1 2442 1099)">•</text><text fill="#FFFFFF" font-family="Inter,Inter_MSFontService,sans-serif" font-weight="400" font-size="50" transform="matrix(1 0 0 1 2503.87 1099)">Sundai</text><text fill="#FFFFFF" font-family="Inter,Inter_MSFontService,sans-serif" font-weight="400" font-size="50" transform="matrix(1 0 0 1 2666.58 1099)"> </text><text fill="#FFFFFF" font-family="Arial,Arial_MSFontService,sans-serif" font-weight="400" font-size="50" transform="matrix(1 0 0 1 2442 1160)">•</text><text fill="#FFFFFF" font-family="Inter,Inter_MSFontService,sans-serif" font-weight="400" font-size="50" transform="matrix(1 0 0 1 2503.87 1160)">TabFPN</text><text fill="#FFFFFF" font-family="Inter,Inter_MSFontService,sans-serif" font-weight="400" font-size="50" transform="matrix(1 0 0 1 2695.23 1160)"> </text><text fill="#FFFFFF" font-family="Arial,Arial_MSFontService,sans-serif" font-weight="400" font-size="50" transform="matrix(1 0 0 1 2442 1220)">•</text><text fill="#FFFFFF" font-family="Inter,Inter_MSFontService,sans-serif" font-weight="400" font-size="50" transform="matrix(1 0 0 1 2503.87 1220)">TiREX</text><text fill="#FFFFFF" font-family="Inter,Inter_MSFontService,sans-serif" font-weight="400" font-size="50" transform="matrix(1 0 0 1 2645.96 1220)"> </text><text fill="#FFFFFF" font-family="Arial,Arial_MSFontService,sans-serif" font-weight="400" font-size="50" transform="matrix(1 0 0 1 2442 1281)">•</text><text fill="#FFFFFF" font-family="Inter,Inter_MSFontService,sans-serif" font-weight="400" font-size="50" transform="matrix(1 0 0 1 2503.87 1281)">Toto</text><text fill="#FFFFFF" font-family="Inter,Inter_MSFontService,sans-serif" font-weight="400" font-size="50" transform="matrix(1 0 0 1 2613.87 1281)"> </text><text fill="#FFFFFF" font-family="Arial,Arial_MSFontService,sans-serif" font-weight="400" font-size="50" transform="matrix(1 0 0 1 2442 1341)">•</text><text fill="#FFFFFF" font-family="Inter,Inter_MSFontService,sans-serif" font-weight="400" font-size="50" transform="matrix(1 0 0 1 2503.87 1341)">LagLLama</text><text fill="#FFFFFF" font-family="Inter,Inter_MSFontService,sans-serif" font-weight="400" font-size="50" transform="matrix(1 0 0 1 2749.08 1341)"> </text><text fill="#FFFFFF" font-family="Arial,Arial_MSFontService,sans-serif" font-weight="400" font-size="50" transform="matrix(1 0 0 1 2442 1402)">•</text><text fill="#FFFFFF" font-family="Inter,Inter_MSFontService,sans-serif" font-weight="400" font-size="50" transform="matrix(1 0 0 1 2503.87 1402)">LLM Providers: Ollama</text><text fill="#FFFFFF" font-family="Inter,Inter_MSFontService,sans-serif" font-weight="400" font-size="50" transform="matrix(1 0 0 1 3038.98 1402)"> </text><path d="M3272.08 1485.5 3272.08 1528.58 3262.92 1528.58 3262.92 1485.5ZM3281.25 1524 3267.5 1551.5 3253.75 1524Z" fill="#4B5563"/><path d="M2343.5 1637.5C2343.5 1593.32 2379.32 1557.5 2423.5 1557.5L4111.5 1557.5C4155.68 1557.5 4191.5 1593.32 4191.5 1637.5L4191.5 1957.5C4191.5 2001.68 4155.68 2037.5 4111.5 2037.5L2423.5 2037.5C2379.32 2037.5 2343.5 2001.68 2343.5 1957.5Z" stroke="#E5E7EB" stroke-width="4.58333" stroke-linejoin="round" stroke-miterlimit="10" fill="#FFFFFF" fill-rule="evenodd"/><text fill="#111827" font-family="Inter,Inter_MSFontService,sans-serif" font-weight="400" font-size="60" transform="matrix(1 0 0 1 2993.72 1659)">Forecast evaluation</text><text fill="#111827" font-family="Inter,Inter_MSFontService,sans-serif" font-weight="400" font-size="60" transform="matrix(1 0 0 1 3540.28 1659)"> </text><text font-family="Inter,Inter_MSFontService,sans-serif" font-weight="400" font-size="60" transform="matrix(1 0 0 1 3267 1731)"> </text><text fill="#111827" font-family="Arial,Arial_MSFontService,sans-serif" font-weight="400" font-size="50" transform="matrix(1 0 0 1 2442 1793)">•</text><text fill="#111827" font-family="Inter,Inter_MSFontService,sans-serif" font-weight="400" font-size="50" transform="matrix(1 0 0 1 2503.87 1793)">Cross validation </text><text fill="#111827" font-family="Inter,Inter_MSFontService,sans-serif" font-weight="400" font-size="50" transform="matrix(1 0 0 1 2899.19 1793)">for 1 month ahead forecast horizon</text><text fill="#111827" font-family="Inter,Inter_MSFontService,sans-serif" font-weight="400" font-size="50" transform="matrix(1 0 0 1 3732.78 1793)"> </text><text fill="#111827" font-family="Arial,Arial_MSFontService,sans-serif" font-weight="400" font-size="50" transform="matrix(1 0 0 1 2442 1854)">•</text><text fill="#111827" font-family="Inter,Inter_MSFontService,sans-serif" font-weight="400" font-size="50" transform="matrix(1 0 0 1 2503.87 1854)">Cross validation for 3 months ahead forecast horizon</text><text font-family="Inter,Inter_MSFontService,sans-serif" font-weight="400" font-size="50" transform="matrix(1 0 0 1 3769.45 1854)"> </text><text fill="#111827" font-family="Arial,Arial_MSFontService,sans-serif" font-weight="400" font-size="50" transform="matrix(1 0 0 1 2442 1914)">•</text><text fill="#111827" font-family="Inter,Inter_MSFontService,sans-serif" font-weight="400" font-size="50" transform="matrix(1 0 0 1 2503.87 1914)">Cross </text><text fill="#111827" font-family="Inter,Inter_MSFontService,sans-serif" font-weight="400" font-size="50" transform="matrix(1 0 0 1 2656.84 1914)">validation </text><text fill="#111827" font-family="Inter,Inter_MSFontService,sans-serif" font-weight="400" font-size="50" transform="matrix(1 0 0 1 2899.19 1914)">for </text><text fill="#111827" font-family="Inter,Inter_MSFontService,sans-serif" font-weight="400" font-size="50" transform="matrix(1 0 0 1 2981.69 1914)">6 months </text><text fill="#111827" font-family="Inter,Inter_MSFontService,sans-serif" font-weight="400" font-size="50" transform="matrix(1 0 0 1 3218.87 1914)">ahead forecast horizon</text><text fill="#111827" font-family="Inter,Inter_MSFontService,sans-serif" font-weight="400" font-size="50" transform="matrix(1 0 0 1 3770.02 1914)"> </text><text font-family="Inter,Inter_MSFontService,sans-serif" font-weight="400" font-size="60" transform="matrix(1 0 0 1 3267 1984)"> </text><path d="M3272.08 2043.5 3272.08 2086.58 3262.92 2086.58 3262.92 2043.5ZM3281.25 2082 3267.5 2109.5 3253.75 2082Z" fill="#4B5563"/><path d="M2343.5 2163.17C2343.5 2137.39 2364.39 2116.5 2390.17 2116.5L4144.83 2116.5C4170.61 2116.5 4191.5 2137.39 4191.5 2163.17L4191.5 2349.83C4191.5 2375.61 4170.61 2396.5 4144.83 2396.5L2390.17 2396.5C2364.39 2396.5 2343.5 2375.61 2343.5 2349.83Z" stroke="#E5E7EB" stroke-width="4.58333" stroke-linejoin="round" stroke-miterlimit="10" fill="#242B4A" fill-rule="evenodd"/><text fill="#FFFFFF" font-family="Inter,Inter_MSFontService,sans-serif" font-weight="400" font-size="60" transform="matrix(1 0 0 1 3029.53 2206)">Portability matrix</text><text fill="#FFFFFF" font-family="Inter,Inter_MSFontService,sans-serif" font-weight="400" font-size="60" transform="matrix(1 0 0 1 3504.47 2206)"> </text><text fill="#FFFFFF" font-family="Inter,Inter_MSFontService,sans-serif" font-weight="400" font-size="60" transform="matrix(1 0 0 1 2642.81 2278)">(</text><text fill="#FFFFFF" font-family="Inter,Inter_MSFontService,sans-serif" font-weight="400" font-size="60" transform="matrix(1 0 0 1 2664.58 2278)">domain, data regime, model complexity and </text><text fill="#FFFFFF" font-family="Inter,Inter_MSFontService,sans-serif" font-weight="400" font-size="60" transform="matrix(1 0 0 1 2863.1 2349)">computational requirements</text><text fill="#FFFFFF" font-family="Inter,Inter_MSFontService,sans-serif" font-weight="400" font-size="60" transform="matrix(1 0 0 1 3649.15 2349)">)</text><text fill="#FFFFFF" font-family="Inter,Inter_MSFontService,sans-serif" font-weight="400" font-size="60" transform="matrix(1 0 0 1 3670.92 2349)"> </text><path d="M3476.5 699.5C3508.81 699.5 3535 703.865 3535 709.25L3535 1055.25C3535 1060.63 3561.19 1065 3593.5 1065 3561.19 1065 3535 1069.37 3535 1074.75L3535 1420.75C3535 1426.13 3508.81 1430.5 3476.5 1430.5" stroke="#FFFFFF" stroke-width="4.58333" stroke-miterlimit="8" fill="none" fill-rule="evenodd"/><text fill="#FFFFFF" font-family="Inter,Inter_MSFontService,sans-serif" font-weight="400" font-size="110" transform="matrix(1 0 0 1 3639.06 1037)">33 </text><text fill="#FFFFFF" font-family="Inter,Inter_MSFontService,sans-serif" font-weight="400" font-size="110" transform="matrix(1 0 0 1 3639.06 1169)">models</text><text fill="#FFFFFF" font-family="Inter,Inter_MSFontService,sans-serif" font-weight="400" font-size="110" transform="matrix(1 0 0 1 4017.75 1169)"> </text></g></svg>