<svg width="3962" height="1740" xmlns="http://www.w3.org/2000/svg" xmlns:xlink="http://www.w3.org/1999/xlink" xml:space="preserve" overflow="hidden"><defs><filter id="fx0" x="-10%" y="-10%" width="120%" height="120%" filterUnits="userSpaceOnUse" primitiveUnits="userSpaceOnUse"><feComponentTransfer color-interpolation-filters="sRGB"><feFuncR type="discrete" tableValues="0 0"/><feFuncG type="discrete" tableValues="0 0"/><feFuncB type="discrete" tableValues="0 0"/><feFuncA type="linear" slope="0.0784314" intercept="0"/></feComponentTransfer><feGaussianBlur stdDeviation="3.05556 3.05556"/></filter><filter id="fx1" x="-10%" y="-10%" width="120%" height="120%" filterUnits="userSpaceOnUse" primitiveUnits="userSpaceOnUse"><feComponentTransfer color-interpolation-filters="sRGB"><feFuncR type="discrete" tableValues="0 0"/><feFuncG type="discrete" tableValues="0 0"/><feFuncB type="discrete" tableValues="0 0"/><feFuncA type="linear" slope="0.0784314" intercept="0"/></feComponentTransfer><feGaussianBlur stdDeviation="3.05556 3.05556"/></filter><filter id="fx2" x="-10%" y="-10%" width="120%" height="120%" filterUnits="userSpaceOnUse" primitiveUnits="userSpaceOnUse"><feComponentTransfer color-interpolation-filters="sRGB"><feFuncR type="discrete" tableValues="0 0"/><feFuncG type="discrete" tableValues="0 0"/><feFuncB type="discrete" tableValues="0 0"/><feFuncA type="linear" slope="0.0784314" intercept="0"/></feComponentTransfer><feGaussianBlur stdDeviation="3.05556 3.05556"/></filter><filter id="fx3" x="-10%" y="-10%" width="120%" height="120%" filterUnits="userSpaceOnUse" primitiveUnits="userSpaceOnUse"><feComponentTransfer color-interpolation-filters="sRGB"><feFuncR type="discrete" tableValues="0 0"/><feFuncG type="discrete" tableValues="0 0"/><feFuncB type="discrete" tableValues="0 0"/><feFuncA type="linear" slope="0.0784314" intercept="0"/></feComponentTransfer><feGaussianBlur stdDeviation="3.05556 3.05556"/></filter><clipPath id="clip4"><rect x="223" y="504" width="3962" height="1740"/></clipPath><clipPath id="clip5"><path d="M231.5 512.5 231.5 1287.5 2142.5 1287.5 2142.5 512.5ZM223 504 4185 504 4185 2244 223 2244Z" fill-rule="evenodd" clip-rule="evenodd"/></clipPath><clipPath id="clip6"><rect x="1" y="1" width="1939" height="802"/></clipPath><clipPath id="clip7"><path d="M2258.5 521.5 2258.5 1297.5 4169.5 1297.5 4169.5 521.5ZM223 504 4185 504 4185 2244 223 2244Z" fill-rule="evenodd" clip-rule="evenodd"/></clipPath><clipPath id="clip8"><rect x="1" y="1" width="1939" height="802"/></clipPath><clipPath id="clip9"><path d="M231.5 1452.5 231.5 2228.5 2142.5 2228.5 2142.5 1452.5ZM223 504 4185 504 4185 2244 223 2244Z" fill-rule="evenodd" clip-rule="evenodd"/></clipPath><clipPath id="clip10"><rect x="1" y="1" width="1939" height="802"/></clipPath><clipPath id="clip11"><path d="M2258.5 1452.5 2258.5 2228.5 4169.5 2228.5 4169.5 1452.5ZM223 504 4185 504 4185 2244 223 2244Z" fill-rule="evenodd" clip-rule="evenodd"/></clipPath><clipPath id="clip12"><rect x="1" y="1" width="1939" height="802"/></clipPath></defs><g clip-path="url(#clip4)" transform="translate(-223 -504)"><g clip-path="url(#clip5)"><g clip-path="url(#clip6)" filter="url(#fx0)" transform="translate(221 502)"><g><rect x="13.7407" y="13.741" width="1911" height="775" stroke="#E5E7EB" stroke-width="5" stroke-linejoin="round" stroke-miterlimit="10" fill="#FFFFFF"/></g></g></g><rect x="231.5" y="512.5" width="1911" height="775" stroke="#E5E7EB" stroke-width="4.58333" stroke-linejoin="round" stroke-miterlimit="10" fill="#FFFFFF"/><rect x="231" y="512" width="39.9999" height="775" fill="#242B4A"/><text fill="#262626" font-family="Inter,Inter_MSFontService,sans-serif" font-weight="700" font-size="73" transform="matrix(1 0 0 1 363 634)">Project 1: Family planning demand forecasting </text><text fill="#262626" font-family="Inter,Inter_MSFontService,sans-serif" font-weight="700" font-size="73" transform="matrix(1 0 0 1 363 722)">(what works, and a hybrid approach)</text><text fill="#262626" font-family="Inter,Inter_MSFontService,sans-serif" font-weight="400" font-size="73" transform="matrix(1 0 0 1 1673.26 722)"> </text><text fill="#4B5563" font-family="Arial,Arial_MSFontService,sans-serif" font-weight="400" font-size="62" transform="matrix(1 0 0 1 363 856)">•</text><text fill="#4B5563" font-family="Inter,Inter_MSFontService,sans-serif" font-weight="400" font-size="62" transform="matrix(1 0 0 1 466.125 856)">Build a hybrid forecasting method with uncertainty</text><text fill="#4B5563" font-family="Inter,Inter_MSFontService,sans-serif" font-weight="400" font-size="62" transform="matrix(1 0 0 1 1940.81 856)"> </text><text fill="#4B5563" font-family="Arial,Arial_MSFontService,sans-serif" font-weight="400" font-size="62" transform="matrix(1 0 0 1 363 967)">•</text><text fill="#4B5563" font-family="Inter,Inter_MSFontService,sans-serif" font-weight="400" font-size="62" transform="matrix(1 0 0 1 466.125 967)">Combine system generated forecast with expert </text><text fill="#4B5563" font-family="Inter,Inter_MSFontService,sans-serif" font-weight="400" font-size="62" transform="matrix(1 0 0 1 466.125 1078)">forecast</text><text fill="#4B5563" font-family="Inter,Inter_MSFontService,sans-serif" font-weight="400" font-size="62" transform="matrix(1 0 0 1 706.75 1078)"> </text><text fill="#4B5563" font-family="Arial,Arial_MSFontService,sans-serif" font-weight="400" font-size="62" transform="matrix(1 0 0 1 363 1190)">•</text><text fill="#4B5563" font-family="Inter,Inter_MSFontService,sans-serif" font-weight="400" font-size="62" transform="matrix(1 0 0 1 466.125 1190)">Guidelines for method selection</text><text font-family="Inter,Inter_MSFontService,sans-serif" font-weight="400" font-size="62" transform="matrix(1 0 0 1 1393.1 1190)"> </text><g clip-path="url(#clip7)"><g clip-path="url(#clip8)" filter="url(#fx1)" transform="translate(2248 511)"><g><rect x="13.7407" y="13.7408" width="1911" height="776" stroke="#E5E7EB" stroke-width="5" stroke-linejoin="round" stroke-miterlimit="10" fill="#FFFFFF"/></g></g></g><rect x="2258.5" y="521.5" width="1911" height="776" stroke="#E5E7EB" stroke-width="4.58333" stroke-linejoin="round" stroke-miterlimit="10" fill="#FFFFFF"/><rect x="2258" y="520" width="38.9998" height="775" fill="#242B4A"/><text fill="#262626" font-family="Inter,Inter_MSFontService,sans-serif" font-weight="700" font-size="73" transform="matrix(1 0 0 1 2389.69 634)">Project 2: Estimating lost demand in family </text><text fill="#262626" font-family="Inter,Inter_MSFontService,sans-serif" font-weight="700" font-size="73" transform="matrix(1 0 0 1 2389.69 722)">planning supply chains</text><text fill="#262626" font-family="Inter,Inter_MSFontService,sans-serif" font-weight="400" font-size="73" transform="matrix(1 0 0 1 3219.85 722)"> </text><text fill="#4B5563" font-family="Arial,Arial_MSFontService,sans-serif" font-weight="400" font-size="62" transform="matrix(1 0 0 1 2389.7 856)">•</text><text fill="#4B5563" font-family="Inter,Inter_MSFontService,sans-serif" font-weight="400" font-size="62" transform="matrix(1 0 0 1 2492.82 856)">Recover hidden demand under </text><text fill="#4B5563" font-family="Inter,Inter_MSFontService,sans-serif" font-weight="400" font-size="62" transform="matrix(1 0 0 1 2492.82 967)">stockouts/interruptions</text><text fill="#4B5563" font-family="Inter,Inter_MSFontService,sans-serif" font-weight="400" font-size="62" transform="matrix(1 0 0 1 3169.43 967)"> </text><text fill="#4B5563" font-family="Arial,Arial_MSFontService,sans-serif" font-weight="400" font-size="62" transform="matrix(1 0 0 1 2389.7 1078)">•</text><text fill="#4B5563" font-family="Inter,Inter_MSFontService,sans-serif" font-weight="400" font-size="62" transform="matrix(1 0 0 1 2492.82 1078)">Link forecasts to inventory policies</text><text fill="#4B5563" font-family="Inter,Inter_MSFontService,sans-serif" font-weight="400" font-size="62" transform="matrix(1 0 0 1 3508.03 1078)"> </text><text fill="#4B5563" font-family="Arial,Arial_MSFontService,sans-serif" font-weight="400" font-size="62" transform="matrix(1 0 0 1 2389.7 1190)">•</text><text fill="#4B5563" font-family="Inter,Inter_MSFontService,sans-serif" font-weight="400" font-size="62" transform="matrix(1 0 0 1 2492.82 1190)">Evaluate public health outcomes</text><text font-family="Inter,Inter_MSFontService,sans-serif" font-weight="400" font-size="62" transform="matrix(1 0 0 1 3441 1190)"> </text><g clip-path="url(#clip9)"><g clip-path="url(#clip10)" filter="url(#fx2)" transform="translate(221 1442)"><g><rect x="13.7407" y="13.7407" width="1911" height="776" stroke="#E5E7EB" stroke-width="5" stroke-linejoin="round" stroke-miterlimit="10" fill="#FFFFFF"/></g></g></g><rect x="231.5" y="1452.5" width="1911" height="776" stroke="#E5E7EB" stroke-width="4.58333" stroke-linejoin="round" stroke-miterlimit="10" fill="#FFFFFF"/><rect x="231" y="1452" width="39.9999" height="776" fill="#242B4A"/><text fill="#262626" font-family="Inter,Inter_MSFontService,sans-serif" font-weight="700" font-size="73" transform="matrix(1 0 0 1 363 1574)">Project </text><text fill="#262626" font-family="Inter,Inter_MSFontService,sans-serif" font-weight="700" font-size="73" transform="matrix(1 0 0 1 634.562 1574)">3</text><text fill="#262626" font-family="Inter,Inter_MSFontService,sans-serif" font-weight="700" font-size="73" transform="matrix(1 0 0 1 682.115 1574)">:</text><text fill="#262626" font-family="Inter,Inter_MSFontService,sans-serif" font-weight="700" font-size="73" transform="matrix(1 0 0 1 706.75 1574)"> </text><text fill="#262626" font-family="Inter,Inter_MSFontService,sans-serif" font-weight="700" font-size="73" transform="matrix(1 0 0 1 723.937 1574)">DHIS2/CHAP deployment for supply </text><text fill="#262626" font-family="Inter,Inter_MSFontService,sans-serif" font-weight="700" font-size="73" transform="matrix(1 0 0 1 363 1662)">chain forecasting</text><text fill="#262626" font-family="Inter,Inter_MSFontService,sans-serif" font-weight="400" font-size="73" transform="matrix(1 0 0 1 988.052 1662)"> </text><text fill="#4B5563" font-family="Arial,Arial_MSFontService,sans-serif" font-weight="400" font-size="62" transform="matrix(1 0 0 1 363 1797)">•</text><text fill="#4B5563" font-family="Inter,Inter_MSFontService,sans-serif" font-weight="400" font-size="62" transform="matrix(1 0 0 1 466.125 1797)">Implement forecasting models in DHIS2 workflows</text><text fill="#4B5563" font-family="Inter,Inter_MSFontService,sans-serif" font-weight="400" font-size="62" transform="matrix(1 0 0 1 1939.67 1797)"> </text><text fill="#4B5563" font-family="Arial,Arial_MSFontService,sans-serif" font-weight="400" font-size="62" transform="matrix(1 0 0 1 363 1908)">•</text><text fill="#4B5563" font-family="Inter,Inter_MSFontService,sans-serif" font-weight="400" font-size="62" transform="matrix(1 0 0 1 466.125 1908)">Asses the portability and scalability of the </text><text fill="#4B5563" font-family="Inter,Inter_MSFontService,sans-serif" font-weight="400" font-size="62" transform="matrix(1 0 0 1 466.125 2019)">forecasting models</text><text fill="#4B5563" font-family="Inter,Inter_MSFontService,sans-serif" font-weight="400" font-size="62" transform="matrix(1 0 0 1 1026.44 2019)"> </text><text fill="#4B5563" font-family="Arial,Arial_MSFontService,sans-serif" font-weight="400" font-size="62" transform="matrix(1 0 0 1 363 2131)">•</text><text fill="#4B5563" font-family="Inter,Inter_MSFontService,sans-serif" font-weight="400" font-size="62" transform="matrix(1 0 0 1 466.125 2131)">Link forecasts to inventory policies </text><text fill="#4B5563" font-family="Inter,Inter_MSFontService,sans-serif" font-weight="400" font-size="62" transform="matrix(1 0 0 1 1498.52 2131)"> </text><g clip-path="url(#clip11)"><g clip-path="url(#clip12)" filter="url(#fx3)" transform="translate(2248 1442)"><g><rect x="13.7407" y="13.7407" width="1911" height="776" stroke="#E5E7EB" stroke-width="5" stroke-linejoin="round" stroke-miterlimit="10" fill="#FFFFFF"/></g></g></g><rect x="2258.5" y="1452.5" width="1911" height="776" stroke="#E5E7EB" stroke-width="4.58333" stroke-linejoin="round" stroke-miterlimit="10" fill="#FFFFFF"/><rect x="2258" y="1452" width="38.9998" height="776" fill="#70AD47"/><text fill="#262626" font-family="Inter,Inter_MSFontService,sans-serif" font-weight="700" font-size="73" transform="matrix(1 0 0 1 2389.7 1574)">Project 4:</text><text fill="#262626" font-family="Inter,Inter_MSFontService,sans-serif" font-weight="700" font-size="73" transform="matrix(1 0 0 1 2735.74 1574)"> </text><text fill="#262626" font-family="Inter,Inter_MSFontService,sans-serif" font-weight="700" font-size="73" transform="matrix(1 0 0 1 2752.92 1574)">Foundation/LLM models for public </text><text fill="#262626" font-family="Inter,Inter_MSFontService,sans-serif" font-weight="700" font-size="73" transform="matrix(1 0 0 1 2389.7 1662)">healthcare demand forecasting (Ongoing)</text><text fill="#262626" font-family="Inter,Inter_MSFontService,sans-serif" font-weight="400" font-size="73" transform="matrix(1 0 0 1 3889.59 1662)"> </text><text fill="#4B5563" font-family="Arial,Arial_MSFontService,sans-serif" font-weight="400" font-size="62" transform="matrix(1 0 0 1 2389.7 1797)">•</text><text fill="#4B5563" font-family="Inter,Inter_MSFontService,sans-serif" font-weight="400" font-size="62" transform="matrix(1 0 0 1 2492.82 1797)">Test whether foundation models can operate on </text><text fill="#4B5563" font-family="Inter,Inter_MSFontService,sans-serif" font-weight="400" font-size="62" transform="matrix(1 0 0 1 2492.82 1908)">LMIS data</text><text fill="#4B5563" font-family="Inter,Inter_MSFontService,sans-serif" font-weight="400" font-size="62" transform="matrix(1 0 0 1 2785.58 1908)"> </text><text fill="#4B5563" font-family="Arial,Arial_MSFontService,sans-serif" font-weight="400" font-size="62" transform="matrix(1 0 0 1 2389.7 2019)">•</text><text fill="#4B5563" font-family="Inter,Inter_MSFontService,sans-serif" font-weight="400" font-size="62" transform="matrix(1 0 0 1 2492.82 2019)">Define portability regimes &amp; evaluation plan</text><text fill="#4B5563" font-family="Inter,Inter_MSFontService,sans-serif" font-weight="400" font-size="62" transform="matrix(1 0 0 1 3761.83 2019)"> </text><text fill="#4B5563" font-family="Arial,Arial_MSFontService,sans-serif" font-weight="400" font-size="62" transform="matrix(1 0 0 1 2389.7 2131)">•</text><text fill="#4B5563" font-family="Inter,Inter_MSFontService,sans-serif" font-weight="400" font-size="62" transform="matrix(1 0 0 1 2492.82 2131)">Prepare a guideline for method selection</text><text font-family="Inter,Inter_MSFontService,sans-serif" font-weight="400" font-size="62" transform="matrix(1 0 0 1 3677.61 2131)"> </text></g></svg>