<svg width="1837" height="1902" xmlns="http://www.w3.org/2000/svg" xmlns:xlink="http://www.w3.org/1999/xlink" xml:space="preserve" overflow="hidden"><g transform="translate(-2341 -543)"><path d="M2343.5 585.001C2343.5 563.185 2361.19 545.5 2383 545.5L4136 545.5C4157.81 545.5 4175.5 563.185 4175.5 585.001L4175.5 742.999C4175.5 764.815 4157.81 782.5 4136 782.5L2383 782.5C2361.19 782.5 2343.5 764.815 2343.5 742.999Z" stroke="#E5E7EB" stroke-width="4.58333" stroke-linejoin="round" stroke-miterlimit="10" fill="#FFFFFF" fill-rule="evenodd"/><text fill="#111827" font-family="Inter,Inter_MSFontService,sans-serif" font-weight="400" font-size="60" transform="matrix(1 0 0 1 2565.23 649)">LMIS data </text><text fill="#111827" font-family="Inter,Inter_MSFontService,sans-serif" font-weight="400" font-size="60" transform="matrix(1 0 0 1 2863.72 649)">and</text><text fill="#111827" font-family="Inter,Inter_MSFontService,sans-serif" font-weight="400" font-size="60" transform="matrix(1 0 0 1 2968.57 649)"> </text><text fill="#111827" font-family="Inter,Inter_MSFontService,sans-serif" font-weight="400" font-size="60" transform="matrix(1 0 0 1 2985.18 649)">stock </text><text fill="#111827" font-family="Inter,Inter_MSFontService,sans-serif" font-weight="400" font-size="60" transform="matrix(1 0 0 1 3154.19 649)">indicators</text><text fill="#111827" font-family="Inter,Inter_MSFontService,sans-serif" font-weight="400" font-size="60" transform="matrix(1 0 0 1 3430.34 649)"> </text><text fill="#111827" font-family="Inter,Inter_MSFontService,sans-serif" font-weight="400" font-size="60" transform="matrix(1 0 0 1 3446.95 649)">from Côte d'Ivoire </text><text font-family="Inter,Inter_MSFontService,sans-serif" font-weight="400" font-size="60" transform="matrix(1 0 0 1 3968.88 649)"> </text><text fill="#111827" font-family="Inter,Inter_MSFontService,sans-serif" font-weight="400" font-size="60" transform="matrix(1 0 0 1 3071.39 721)">(facility level</text><text fill="#111827" font-family="Inter,Inter_MSFontService,sans-serif" font-weight="400" font-size="60" transform="matrix(1 0 0 1 3424.31 721)">)</text><text font-family="Inter,Inter_MSFontService,sans-serif" font-weight="400" font-size="60" transform="matrix(1 0 0 1 3446.08 721)"> </text><path d="M3264.08 782.5 3264.08 802.583 3254.92 802.583 3254.92 782.5ZM3273.25 798 3259.5 825.5 3245.75 798Z" fill="#4B5563"/><path d="M2343.5 876.119C2343.5 853.686 2361.69 835.5 2384.12 835.5L4134.88 835.5C4157.31 835.5 4175.5 853.686 4175.5 876.119L4175.5 1520.88C4175.5 1543.31 4157.31 1561.5 4134.88 1561.5L2384.12 1561.5C2361.69 1561.5 2343.5 1543.31 2343.5 1520.88Z" stroke="#E5E7EB" stroke-width="4.58333" stroke-linejoin="round" stroke-miterlimit="10" fill="#242B4A" fill-rule="evenodd"/><text fill="#FFFFFF" font-family="Inter,Inter_MSFontService,sans-serif" font-weight="400" font-size="64" transform="matrix(1 0 0 1 2662 950)">Demand </text><text fill="#FFFFFF" font-family="Inter,Inter_MSFontService,sans-serif" font-weight="400" font-size="64" transform="matrix(1 0 0 1 2932.99 950)">forecasting</text><text fill="#FFFFFF" font-family="Inter,Inter_MSFontService,sans-serif" font-weight="400" font-size="64" transform="matrix(1 0 0 1 3274.45 950)"> </text><text fill="#FFFFFF" font-family="Inter,Inter_MSFontService,sans-serif" font-weight="400" font-size="64" transform="matrix(1 0 0 1 3292.78 950)">(censoring</text><text fill="#FFFFFF" font-family="Inter,Inter_MSFontService,sans-serif" font-weight="400" font-size="64" transform="matrix(1 0 0 1 3617.05 950)">-</text><text fill="#FFFFFF" font-family="Inter,Inter_MSFontService,sans-serif" font-weight="400" font-size="64" transform="matrix(1 0 0 1 3646.84 950)">aware</text><text fill="#FFFFFF" font-family="Inter,Inter_MSFontService,sans-serif" font-weight="400" font-size="64" transform="matrix(1 0 0 1 3831.9 950)">)</text><text fill="#FFFFFF" font-family="Inter,Inter_MSFontService,sans-serif" font-weight="400" font-size="64" transform="matrix(1 0 0 1 3855.39 950)"> </text><text fill="#FFFFFF" font-family="Inter,Inter_MSFontService,sans-serif" font-weight="400" font-size="64" transform="matrix(1 0 0 1 3258.68 1027)"> </text><text fill="#FFFFFF" font-family="Arial,Arial_MSFontService,sans-serif" font-weight="400" font-size="50" transform="matrix(1 0 0 1 2442 1090)">•</text><text fill="#FFFFFF" font-family="Inter,Inter_MSFontService,sans-serif" font-weight="400" font-size="50" transform="matrix(1 0 0 1 2545.12 1090)">TCKF (proposed model)</text><text fill="#FFFFFF" font-family="Inter,Inter_MSFontService,sans-serif" font-weight="400" font-size="50" transform="matrix(1 0 0 1 3118.04 1090)"> </text><text fill="#FFFFFF" font-family="Arial,Arial_MSFontService,sans-serif" font-weight="400" font-size="50" transform="matrix(1 0 0 1 2442 1151)">•</text><text fill="#FFFFFF" font-family="Inter,Inter_MSFontService,sans-serif" font-weight="400" font-size="50" transform="matrix(1 0 0 1 2545.12 1151)">Statistical: Naive, Mean, ETS, ARIMA, SBA, Linear Regression</text><text fill="#FFFFFF" font-family="Inter,Inter_MSFontService,sans-serif" font-weight="400" font-size="50" transform="matrix(1 0 0 1 3998.04 1151)"> </text><text fill="#FFFFFF" font-family="Arial,Arial_MSFontService,sans-serif" font-weight="400" font-size="50" transform="matrix(1 0 0 1 2442 1211)">•</text><text fill="#FFFFFF" font-family="Inter,Inter_MSFontService,sans-serif" font-weight="400" font-size="50" transform="matrix(1 0 0 1 2545.12 1211)">Machine Learning: </text><text fill="#FFFFFF" font-family="Inter,Inter_MSFontService,sans-serif" font-weight="400" font-size="50" transform="matrix(1 0 0 1 2998.3 1211)">LightGBM</text><text fill="#FFFFFF" font-family="Inter,Inter_MSFontService,sans-serif" font-weight="400" font-size="50" transform="matrix(1 0 0 1 3233.2 1211)"> </text><text fill="#FFFFFF" font-family="Arial,Arial_MSFontService,sans-serif" font-weight="400" font-size="50" transform="matrix(1 0 0 1 2442 1272)">•</text><text fill="#FFFFFF" font-family="Inter,Inter_MSFontService,sans-serif" font-weight="400" font-size="50" transform="matrix(1 0 0 1 2545.12 1272)">Foundational: </text><text fill="#FFFFFF" font-family="Inter,Inter_MSFontService,sans-serif" font-weight="400" font-size="50" transform="matrix(1 0 0 1 2881.43 1272)">TimeGPT</text><text fill="#FFFFFF" font-family="Inter,Inter_MSFontService,sans-serif" font-weight="400" font-size="50" transform="matrix(1 0 0 1 3102 1272)"> </text><text fill="#FFFFFF" font-family="Arial,Arial_MSFontService,sans-serif" font-weight="400" font-size="50" transform="matrix(1 0 0 1 2442 1332)">•</text><text fill="#FFFFFF" font-family="Inter,Inter_MSFontService,sans-serif" font-weight="400" font-size="50" transform="matrix(1 0 0 1 2545.12 1332)">LMIS Forecast</text><text fill="#FFFFFF" font-family="Inter,Inter_MSFontService,sans-serif" font-weight="400" font-size="50" transform="matrix(1 0 0 1 2887.16 1332)"> </text><text fill="#FFFFFF" font-family="Arial,Arial_MSFontService,sans-serif" font-weight="400" font-size="50" transform="matrix(1 0 0 1 2442 1393)">•</text><text fill="#FFFFFF" font-family="Inter,Inter_MSFontService,sans-serif" font-weight="400" font-size="50" transform="matrix(1 0 0 1 2545.12 1393)">Expert Judgment</text><text fill="#FFFFFF" font-family="Inter,Inter_MSFontService,sans-serif" font-weight="400" font-size="50" transform="matrix(1 0 0 1 2953.04 1393)"> </text><path d="M3264.08 1571.5 3264.08 1591.58 3254.92 1591.58 3254.92 1571.5ZM3273.25 1587 3259.5 1614.5 3245.75 1587Z" fill="#4B5563"/><path d="M2343.5 1664C2343.5 1642.19 2361.19 1624.5 2383 1624.5L4136 1624.5C4157.81 1624.5 4175.5 1642.19 4175.5 1664L4175.5 1822C4175.5 1843.81 4157.81 1861.5 4136 1861.5L2383 1861.5C2361.19 1861.5 2343.5 1843.81 2343.5 1822Z" stroke="#E5E7EB" stroke-width="4.58333" stroke-linejoin="round" stroke-miterlimit="10" fill="#FFFFFF" fill-rule="evenodd"/><text fill="#111827" font-family="Inter,Inter_MSFontService,sans-serif" font-weight="400" font-size="60" transform="matrix(1 0 0 1 2669.79 1764)">Forecast quantiles &amp; </text><text fill="#111827" font-family="Inter,Inter_MSFontService,sans-serif" font-weight="400" font-size="60" transform="matrix(1 0 0 1 3255.89 1764)">intervals</text><text fill="#111827" font-family="Inter,Inter_MSFontService,sans-serif" font-weight="400" font-size="60" transform="matrix(1 0 0 1 3494.79 1764)"> </text><text fill="#111827" font-family="Inter,Inter_MSFontService,sans-serif" font-weight="400" font-size="60" transform="matrix(1 0 0 1 3511.41 1764)">(Conformal)</text><text font-family="Inter,Inter_MSFontService,sans-serif" font-weight="400" font-size="60" transform="matrix(1 0 0 1 3847.71 1764)"> </text><path d="M3264.08 1861.5 3264.08 1881.58 3254.92 1881.58 3254.92 1861.5ZM3273.25 1877 3259.5 1904.5 3245.75 1877Z" fill="#4B5563"/><path d="M2343.5 1954.17C2343.5 1932.26 2361.26 1914.5 2383.17 1914.5L4135.83 1914.5C4157.74 1914.5 4175.5 1932.26 4175.5 1954.17L4175.5 2112.83C4175.5 2134.74 4157.74 2152.5 4135.83 2152.5L2383.17 2152.5C2361.26 2152.5 2343.5 2134.74 2343.5 2112.83Z" stroke="#E5E7EB" stroke-width="4.58333" stroke-linejoin="round" stroke-miterlimit="10" fill="#242B4A" fill-rule="evenodd"/><text fill="#FFFFFF" font-family="Inter,Inter_MSFontService,sans-serif" font-weight="400" font-size="60" transform="matrix(1 0 0 1 2502.21 2054)">Ordering </text><text fill="#FFFFFF" font-family="Inter,Inter_MSFontService,sans-serif" font-weight="400" font-size="60" transform="matrix(1 0 0 1 2766.33 2054)">policy</text><text fill="#FFFFFF" font-family="Inter,Inter_MSFontService,sans-serif" font-weight="400" font-size="60" transform="matrix(1 0 0 1 2933.05 2054)">: </text><text fill="#FFFFFF" font-family="Inter,Inter_MSFontService,sans-serif" font-weight="400" font-size="60" transform="matrix(1 0 0 1 2966.85 2054)">Quantile</text><text fill="#FFFFFF" font-family="Inter,Inter_MSFontService,sans-serif" font-weight="400" font-size="60" transform="matrix(1 0 0 1 3198.88 2054)">-</text><text fill="#FFFFFF" font-family="Inter,Inter_MSFontService,sans-serif" font-weight="400" font-size="60" transform="matrix(1 0 0 1 3226.38 2054)">based (Order</text><text fill="#FFFFFF" font-family="Inter,Inter_MSFontService,sans-serif" font-weight="400" font-size="60" transform="matrix(1 0 0 1 3599.35 2054)">-</text><text fill="#FFFFFF" font-family="Inter,Inter_MSFontService,sans-serif" font-weight="400" font-size="60" transform="matrix(1 0 0 1 3626.85 2054)">up</text><text fill="#FFFFFF" font-family="Inter,Inter_MSFontService,sans-serif" font-weight="400" font-size="60" transform="matrix(1 0 0 1 3698.46 2054)">-</text><text fill="#FFFFFF" font-family="Inter,Inter_MSFontService,sans-serif" font-weight="400" font-size="60" transform="matrix(1 0 0 1 3725.96 2054)">to </text><text fill="#FFFFFF" font-family="Inter,Inter_MSFontService,sans-serif" font-style="italic" font-weight="400" font-size="60" transform="matrix(1 0 0 1 3797 2054)">α</text><text fill="#FFFFFF" font-family="Inter,Inter_MSFontService,sans-serif" font-weight="400" font-size="60" transform="matrix(1 0 0 1 3836.54 2054)">-</text><text fill="#FFFFFF" font-family="Inter,Inter_MSFontService,sans-serif" font-weight="400" font-size="60" transform="matrix(1 0 0 1 3864.04 2054)">level</text><text fill="#FFFFFF" font-family="Inter,Inter_MSFontService,sans-serif" font-weight="400" font-size="60" transform="matrix(1 0 0 1 3993.52 2054)">)</text><text fill="#FFFFFF" font-family="Inter,Inter_MSFontService,sans-serif" font-weight="400" font-size="60" transform="matrix(1 0 0 1 4015.29 2054)"> </text><path d="M3264.08 2152.5 3264.08 2172.58 3254.92 2172.58 3254.92 2152.5ZM3273.25 2168 3259.5 2195.5 3245.75 2168Z" fill="#4B5563"/><path d="M2343.5 2244.17C2343.5 2222.26 2361.26 2204.5 2383.17 2204.5L4135.83 2204.5C4157.74 2204.5 4175.5 2222.26 4175.5 2244.17L4175.5 2402.83C4175.5 2424.74 4157.74 2442.5 4135.83 2442.5L2383.17 2442.5C2361.26 2442.5 2343.5 2424.74 2343.5 2402.83Z" stroke="#E5E7EB" stroke-width="4.58333" stroke-linejoin="round" stroke-miterlimit="10" fill="#FFFFFF" fill-rule="evenodd"/><text fill="#111827" font-family="Inter,Inter_MSFontService,sans-serif" font-weight="400" font-size="60" transform="matrix(1 0 0 1 2486.46 2309)">Availability </text><text fill="#111827" font-family="Inter,Inter_MSFontService,sans-serif" font-weight="400" font-size="60" transform="matrix(1 0 0 1 2802.14 2309)">&amp;</text><text fill="#111827" font-family="Inter,Inter_MSFontService,sans-serif" font-weight="400" font-size="60" transform="matrix(1 0 0 1 2840.52 2309)"> </text><text fill="#111827" font-family="Inter,Inter_MSFontService,sans-serif" font-weight="400" font-size="60" transform="matrix(1 0 0 1 2857.14 2309)">public health</text><text fill="#111827" font-family="Inter,Inter_MSFontService,sans-serif" font-weight="400" font-size="60" transform="matrix(1 0 0 1 3219.22 2309)"> </text><text fill="#111827" font-family="Inter,Inter_MSFontService,sans-serif" font-weight="400" font-size="60" transform="matrix(1 0 0 1 3235.83 2309)">impact </text><text fill="#111827" font-family="Inter,Inter_MSFontService,sans-serif" font-weight="400" font-size="60" transform="matrix(1 0 0 1 3442.66 2309)">metrics</text><text fill="#111827" font-family="Inter,Inter_MSFontService,sans-serif" font-weight="400" font-size="60" transform="matrix(1 0 0 1 3651.77 2309)"> </text><text fill="#111827" font-family="Inter,Inter_MSFontService,sans-serif" font-weight="400" font-size="60" transform="matrix(1 0 0 1 3668.39 2309)">(</text><text font-family="Inter,Inter_MSFontService,sans-serif" font-weight="400" font-size="60" transform="matrix(1 0 0 1 3690.16 2309)">RH Supplies </text><text font-family="Inter,Inter_MSFontService,sans-serif" font-weight="400" font-size="60" transform="matrix(1 0 0 1 3001.24 2381)">Impact </text><text font-family="Inter,Inter_MSFontService,sans-serif" font-weight="400" font-size="60" transform="matrix(1 0 0 1 3209.78 2381)">Calculator</text><text fill="#111827" font-family="Inter,Inter_MSFontService,sans-serif" font-weight="400" font-size="60" transform="matrix(1 0 0 1 3494.52 2381)">)</text><text font-family="Inter,Inter_MSFontService,sans-serif" font-weight="400" font-size="60" transform="matrix(1 0 0 1 3516.29 2381)"> </text></g></svg>