<svg width="4170" height="1553" xmlns="http://www.w3.org/2000/svg" xmlns:xlink="http://www.w3.org/1999/xlink" xml:space="preserve" overflow="hidden"><g transform="translate(-231 -601)"><rect x="4001" y="685" width="7.00024" height="1469" fill="#B91C1C"/><rect x="379" y="700" width="3781" height="6.00018" fill="#CBD5E1"/><text fill="#404040" font-family="Inter,Inter_MSFontService,sans-serif" font-weight="400" font-size="46" transform="matrix(1 0 0 1 274.573 661)">Sep 2023</text><text fill="#404040" font-family="Inter,Inter_MSFontService,sans-serif" font-weight="400" font-size="46" transform="matrix(1 0 0 1 484.26 661)"> </text><text fill="#404040" font-family="Inter,Inter_MSFontService,sans-serif" font-weight="400" font-size="46" transform="matrix(1 0 0 1 1002.3 661)">Mar 2024</text><text fill="#404040" font-family="Inter,Inter_MSFontService,sans-serif" font-weight="400" font-size="46" transform="matrix(1 0 0 1 1213.71 661)"> </text><text fill="#404040" font-family="Inter,Inter_MSFontService,sans-serif" font-weight="400" font-size="46" transform="matrix(1 0 0 1 1733.73 661)">Sep 2024</text><text fill="#404040" font-family="Inter,Inter_MSFontService,sans-serif" font-weight="400" font-size="46" transform="matrix(1 0 0 1 1945.14 661)"> </text><text fill="#404040" font-family="Inter,Inter_MSFontService,sans-serif" font-weight="400" font-size="46" transform="matrix(1 0 0 1 2466.92 661)">Mar 2025</text><text fill="#404040" font-family="Inter,Inter_MSFontService,sans-serif" font-weight="400" font-size="46" transform="matrix(1 0 0 1 2675.46 661)"> </text><text fill="#404040" font-family="Inter,Inter_MSFontService,sans-serif" font-weight="400" font-size="46" transform="matrix(1 0 0 1 3199.11 661)">Sep 2025</text><text fill="#404040" font-family="Inter,Inter_MSFontService,sans-serif" font-weight="400" font-size="46" transform="matrix(1 0 0 1 3407.65 661)"> </text><text fill="#404040" font-family="Inter,Inter_MSFontService,sans-serif" font-weight="400" font-size="46" transform="matrix(1 0 0 1 3930.77 661)">Mar 2026</text><text fill="#404040" font-family="Inter,Inter_MSFontService,sans-serif" font-weight="400" font-size="46" transform="matrix(1 0 0 1 4141.03 661)"> </text><path d="M3284 1539C3284 1513.59 3304.59 1493 3330 1493L4354 1493C4379.41 1493 4400 1513.59 4400 1539L4400 1539C4400 1564.41 4379.41 1585 4354 1585L3330 1585C3304.59 1585 3284 1564.41 3284 1539Z" stroke="#E2E8F0" stroke-width="2.29167" stroke-miterlimit="8" fill="#F1F5F9" fill-rule="evenodd"/><text fill="#404040" font-family="Inter,Inter_MSFontService,sans-serif" font-weight="400" font-size="46" transform="matrix(1 0 0 1 3351.35 1556)">Collaborators: HISP Centre (Norway) • DHIS2</text><text fill="#404040" font-family="Inter,Inter_MSFontService,sans-serif" font-weight="400" font-size="46" transform="matrix(1 0 0 1 4332.76 1556)"> </text><text fill="#B91C1C" font-family="Inter,Inter_MSFontService,sans-serif" font-weight="700" font-size="46" transform="matrix(1 0 0 1 3894.16 772)">Now</text><text fill="#B91C1C" font-family="Inter,Inter_MSFontService,sans-serif" font-weight="700" font-size="46" transform="matrix(1 0 0 1 3996.14 772)"> </text><text fill="#404040" font-family="Inter,Inter_MSFontService,sans-serif" font-weight="700" font-size="55" transform="matrix(1 0 0 1 264 986)">P1</text><text fill="#404040" font-family="Inter,Inter_MSFontService,sans-serif" font-weight="700" font-size="55" transform="matrix(1 0 0 1 323.01 986)"> </text><path d="M379 967C379 941.595 399.595 921 425 921L1554 921C1579.41 921 1600 941.595 1600 967L1600 967C1600 992.405 1579.41 1013 1554 1013L425 1013C399.595 1013 379 992.405 379 967Z" fill="#203864" fill-rule="evenodd"/><path d="M1606 967C1606 957.059 1614.06 949 1624 949L3043 949C3052.94 949 3061 957.059 3061 967L3061 967C3061 976.941 3052.94 985 3043 985L1624 985C1614.06 985 1606 976.941 1606 967Z" fill="#0EA5A4" fill-rule="evenodd"/><path d="M379 854C379 828.595 399.595 808 425 808L897 808C922.406 808 943 828.595 943 854L943 854C943 879.406 922.405 900.001 897 900.001L425 900C399.595 900 379 879.405 379 854Z" stroke="#E2E8F0" stroke-width="2.29167" stroke-miterlimit="8" fill="#F1F5F9" fill-rule="evenodd"/><text fill="#404040" font-family="Inter,Inter_MSFontService,sans-serif" font-weight="400" font-size="46" transform="matrix(1 0 0 1 432.801 870)">Collaborators: USAID</text><text fill="#404040" font-family="Inter,Inter_MSFontService,sans-serif" font-weight="400" font-size="46" transform="matrix(1 0 0 1 889.989 870)"> </text><text fill="#FFFFFF" font-family="Inter,Inter_MSFontService,sans-serif" font-weight="700" font-size="50" transform="matrix(1 0 0 1 419.017 986)">Hybrid FP forecasting</text><text fill="#FFFFFF" font-family="Inter,Inter_MSFontService,sans-serif" font-weight="700" font-size="50" transform="matrix(1 0 0 1 955.267 986)"> </text><text fill="#404040" font-family="Inter,Inter_MSFontService,sans-serif" font-weight="700" font-size="46" transform="matrix(1 0 0 1 2854.86 905)">Published (IJPR)</text><text fill="#404040" font-family="Inter,Inter_MSFontService,sans-serif" font-weight="700" font-size="46" transform="matrix(1 0 0 1 3222.68 905)"> </text><path d="M3026 966C3026 958.82 3031.82 953 3039 953 3046.18 953 3052 958.82 3052 966 3052 973.18 3046.18 979 3039 979 3031.82 979 3026 973.18 3026 966Z" fill="#FFFFFF" fill-rule="evenodd"/><path d="M2561 966C2561 958.82 2566.82 953 2574 953 2581.18 953 2587 958.82 2587 966 2587 973.18 2581.18 979 2574 979 2566.82 979 2561 973.18 2561 966Z" fill="#FFFFFF" fill-rule="evenodd"/><text fill="#404040" font-family="Inter,Inter_MSFontService,sans-serif" font-weight="700" font-size="46" transform="matrix(1 0 0 1 2413.35 905)">EPSS Training</text><text fill="#404040" font-family="Inter,Inter_MSFontService,sans-serif" font-weight="700" font-size="46" transform="matrix(1 0 0 1 2729.03 905)"> </text><text fill="#404040" font-family="Inter,Inter_MSFontService,sans-serif" font-weight="700" font-size="55" transform="matrix(1 0 0 1 264 1325)">P2</text><text fill="#404040" font-family="Inter,Inter_MSFontService,sans-serif" font-weight="700" font-size="55" transform="matrix(1 0 0 1 333.896 1325)"> </text><path d="M1606 1306C1606 1280.59 1626.59 1260 1652 1260L3062 1260C3087.41 1260 3108 1280.59 3108 1306L3108 1306C3108 1331.41 3087.41 1352 3062 1352L1652 1352C1626.59 1352 1606 1331.41 1606 1306Z" fill="#203864" fill-rule="evenodd"/><path d="M3115 1306C3115 1275.07 3140.07 1250 3171 1250L4064 1250C4094.93 1250 4120 1275.07 4120 1306L4120 1306C4120 1336.93 4094.93 1362 4064 1362L3171 1362C3140.07 1362 3115 1336.93 3115 1306Z" stroke="#F59E0B" stroke-width="2.29167" stroke-miterlimit="8" fill="#FFFBEB" fill-rule="evenodd"/><text fill="#404040" font-family="Inter,Inter_MSFontService,sans-serif" font-weight="700" font-size="48" transform="matrix(1 0 0 1 3404.1 1323)">1st revision (POM)</text><text fill="#404040" font-family="Inter,Inter_MSFontService,sans-serif" font-weight="700" font-size="48" transform="matrix(1 0 0 1 3830.92 1323)"> </text><text fill="#FFFFFF" font-family="Inter,Inter_MSFontService,sans-serif" font-weight="700" font-size="50" transform="matrix(1 0 0 1 1639.34 1320)">Censored demand &amp; decisions</text><text fill="#FFFFFF" font-family="Inter,Inter_MSFontService,sans-serif" font-weight="700" font-size="50" transform="matrix(1 0 0 1 2385.28 1320)"> </text><path d="M0 0 1238.12 1.69078" stroke="#595959" stroke-width="2.29167" stroke-miterlimit="8" fill="none" fill-rule="evenodd" transform="matrix(1 0 0 -1 368 1304.69)"/><text fill="#404040" font-family="Inter,Inter_MSFontService,sans-serif" font-weight="700" font-size="55" transform="matrix(1 0 0 1 264 1671)">P3</text><text fill="#404040" font-family="Inter,Inter_MSFontService,sans-serif" font-weight="700" font-size="55" transform="matrix(1 0 0 1 335.042 1671)"> </text><path d="M3877 1653C3877 1622.07 3902.07 1597 3933 1597L4344 1597C4374.93 1597 4400 1622.07 4400 1653L4400 1653C4400 1683.93 4374.93 1709 4344 1709L3933 1709C3902.07 1709 3877 1683.93 3877 1653Z" stroke="#0EA5A4" stroke-width="2.29167" stroke-miterlimit="8" fill="#D9F7F6" fill-rule="evenodd"/><text fill="#0F172A" font-family="Inter,Inter_MSFontService,sans-serif" font-weight="700" font-size="46" transform="matrix(1 0 0 1 3932.17 1669)">Under review (IJF)</text><text fill="#0F172A" font-family="Inter,Inter_MSFontService,sans-serif" font-weight="700" font-size="46" transform="matrix(1 0 0 1 4345.24 1669)"> </text><path d="M3284 1650C3284 1624.59 3304.59 1604 3330 1604L3831 1604C3856.41 1604 3877 1624.59 3877 1650L3877 1650C3877 1675.41 3856.41 1696 3831 1696L3330 1696C3304.59 1696 3284 1675.4 3284 1650Z" fill="#203864" fill-rule="evenodd"/><text fill="#FFFFFF" font-family="Inter,Inter_MSFontService,sans-serif" font-weight="700" font-size="50" transform="matrix(1 0 0 1 3323.71 1669)">DHIS2/CHAP models</text><text fill="#FFFFFF" font-family="Inter,Inter_MSFontService,sans-serif" font-weight="700" font-size="50" transform="matrix(1 0 0 1 3834.18 1669)"> </text><path d="M0 0 2914.73 1.05272" stroke="#595959" stroke-width="2.29167" stroke-miterlimit="8" fill="none" fill-rule="evenodd" transform="matrix(1 0 0 -1 369 1651.05)"/><text fill="#404040" font-family="Inter,Inter_MSFontService,sans-serif" font-weight="700" font-size="55" transform="matrix(1 0 0 1 264 2014)">P4</text><text fill="#404040" font-family="Inter,Inter_MSFontService,sans-serif" font-weight="700" font-size="55" transform="matrix(1 0 0 1 336.76 2014)"> </text><path d="M3813 1995.5C3813 1969.82 3833.82 1949 3859.5 1949L4353.5 1949C4379.18 1949 4400 1969.82 4400 1995.5L4400 1995.5C4400 2021.18 4379.18 2042 4353.5 2042L3859.5 2042C3833.82 2042 3813 2021.18 3813 1995.5Z" fill="#203864" fill-rule="evenodd"/><text fill="#FFFFFF" font-family="Inter,Inter_MSFontService,sans-serif" font-weight="700" font-size="50" transform="matrix(1 0 0 1 3846.21 2009)">Foundation models </text><text fill="#FFFFFF" font-family="Inter,Inter_MSFontService,sans-serif" font-weight="700" font-size="50" transform="matrix(1 0 0 1 4329.18 2009)"> </text><path d="M0 0 3442.1 1.40387" stroke="#595959" stroke-width="2.29167" stroke-miterlimit="8" fill="none" fill-rule="evenodd" transform="matrix(1 0 0 -1 371 1993.4)"/><path d="M501.394 681.179 501.394 723.346" stroke="#7F7F7F" stroke-width="4.58333" stroke-linejoin="round" stroke-miterlimit="10" fill="none" fill-rule="evenodd"/><path d="M623.371 681.179 623.371 723.346" stroke="#7F7F7F" stroke-width="4.58333" stroke-linejoin="round" stroke-miterlimit="10" fill="none" fill-rule="evenodd"/><path d="M745.349 681.179 745.349 723.346" stroke="#7F7F7F" stroke-width="4.58333" stroke-linejoin="round" stroke-miterlimit="10" fill="none" fill-rule="evenodd"/><path d="M867.326 681.179 867.326 723.346" stroke="#7F7F7F" stroke-width="4.58333" stroke-linejoin="round" stroke-miterlimit="10" fill="none" fill-rule="evenodd"/><path d="M989.303 681.179 989.303 723.346" stroke="#7F7F7F" stroke-width="4.58333" stroke-linejoin="round" stroke-miterlimit="10" fill="none" fill-rule="evenodd"/><path d="M1111.28 681.179 1111.28 723.346" stroke="#7F7F7F" stroke-width="4.58333" stroke-linejoin="round" stroke-miterlimit="10" fill="none" fill-rule="evenodd"/><path d="M1233.26 681.179 1233.26 723.346" stroke="#7F7F7F" stroke-width="4.58333" stroke-linejoin="round" stroke-miterlimit="10" fill="none" fill-rule="evenodd"/><path d="M1355.23 681.179 1355.23 723.346" stroke="#7F7F7F" stroke-width="4.58333" stroke-linejoin="round" stroke-miterlimit="10" fill="none" fill-rule="evenodd"/><path d="M1477.21 681.179 1477.21 723.346" stroke="#7F7F7F" stroke-width="4.58333" stroke-linejoin="round" stroke-miterlimit="10" fill="none" fill-rule="evenodd"/><path d="M1599.19 681.179 1599.19 723.346" stroke="#7F7F7F" stroke-width="4.58333" stroke-linejoin="round" stroke-miterlimit="10" fill="none" fill-rule="evenodd"/><path d="M1721.17 681.179 1721.17 723.346" stroke="#7F7F7F" stroke-width="4.58333" stroke-linejoin="round" stroke-miterlimit="10" fill="none" fill-rule="evenodd"/><path d="M1843.14 681.179 1843.14 723.346" stroke="#7F7F7F" stroke-width="4.58333" stroke-linejoin="round" stroke-miterlimit="10" fill="none" fill-rule="evenodd"/><path d="M1965.12 681.179 1965.12 723.346" stroke="#7F7F7F" stroke-width="4.58333" stroke-linejoin="round" stroke-miterlimit="10" fill="none" fill-rule="evenodd"/><path d="M2087.1 681.179 2087.1 723.346" stroke="#7F7F7F" stroke-width="4.58333" stroke-linejoin="round" stroke-miterlimit="10" fill="none" fill-rule="evenodd"/><path d="M2209.08 681.179 2209.08 723.346" stroke="#7F7F7F" stroke-width="4.58333" stroke-linejoin="round" stroke-miterlimit="10" fill="none" fill-rule="evenodd"/><path d="M2331.05 681.179 2331.05 723.346" stroke="#7F7F7F" stroke-width="4.58333" stroke-linejoin="round" stroke-miterlimit="10" fill="none" fill-rule="evenodd"/><path d="M2453.03 681.179 2453.03 723.346" stroke="#7F7F7F" stroke-width="4.58333" stroke-linejoin="round" stroke-miterlimit="10" fill="none" fill-rule="evenodd"/><path d="M2575.01 681.179 2575.01 723.346" stroke="#7F7F7F" stroke-width="4.58333" stroke-linejoin="round" stroke-miterlimit="10" fill="none" fill-rule="evenodd"/><path d="M2696.99 681.179 2696.99 723.346" stroke="#7F7F7F" stroke-width="4.58333" stroke-linejoin="round" stroke-miterlimit="10" fill="none" fill-rule="evenodd"/><path d="M2818.96 681.179 2818.96 723.346" stroke="#7F7F7F" stroke-width="4.58333" stroke-linejoin="round" stroke-miterlimit="10" fill="none" fill-rule="evenodd"/><path d="M2940.94 681.179 2940.94 723.346" stroke="#7F7F7F" stroke-width="4.58333" stroke-linejoin="round" stroke-miterlimit="10" fill="none" fill-rule="evenodd"/><path d="M3062.92 681.179 3062.92 723.346" stroke="#7F7F7F" stroke-width="4.58333" stroke-linejoin="round" stroke-miterlimit="10" fill="none" fill-rule="evenodd"/><path d="M3184.89 681.179 3184.89 723.346" stroke="#7F7F7F" stroke-width="4.58333" stroke-linejoin="round" stroke-miterlimit="10" fill="none" fill-rule="evenodd"/><path d="M3306.87 681.179 3306.87 723.346" stroke="#7F7F7F" stroke-width="4.58333" stroke-linejoin="round" stroke-miterlimit="10" fill="none" fill-rule="evenodd"/><path d="M3428.85 681.179 3428.85 723.346" stroke="#7F7F7F" stroke-width="4.58333" stroke-linejoin="round" stroke-miterlimit="10" fill="none" fill-rule="evenodd"/><path d="M3550.83 681.179 3550.83 723.346" stroke="#7F7F7F" stroke-width="4.58333" stroke-linejoin="round" stroke-miterlimit="10" fill="none" fill-rule="evenodd"/><path d="M3672.8 681.179 3672.8 723.346" stroke="#7F7F7F" stroke-width="4.58333" stroke-linejoin="round" stroke-miterlimit="10" fill="none" fill-rule="evenodd"/><path d="M3794.78 681.179 3794.78 723.346" stroke="#7F7F7F" stroke-width="4.58333" stroke-linejoin="round" stroke-miterlimit="10" fill="none" fill-rule="evenodd"/><path d="M3916.76 681.179 3916.76 723.346" stroke="#7F7F7F" stroke-width="4.58333" stroke-linejoin="round" stroke-miterlimit="10" fill="none" fill-rule="evenodd"/><path d="M4038.74 681.179 4038.74 723.346" stroke="#7F7F7F" stroke-width="4.58333" stroke-linejoin="round" stroke-miterlimit="10" fill="none" fill-rule="evenodd"/><path d="M379.417 681.179 379.417 723.346" stroke="#7F7F7F" stroke-width="4.58333" stroke-linejoin="round" stroke-miterlimit="10" fill="none" fill-rule="evenodd"/></g></svg>