<svg width="4894" height="1960" xmlns="http://www.w3.org/2000/svg" xmlns:xlink="http://www.w3.org/1999/xlink" xml:space="preserve" overflow="hidden"><g transform="translate(-66 -312)"><path d="M3309 859 3678 1262 3309 1665Z" fill="#7F7F7F" fill-rule="evenodd"/><path d="M3570.42 859.222 4959.17 859.222 4959.17 1067.1 3570.42 1067.1Z" fill="#156082" fill-rule="evenodd"/><path d="M3570.42 1067.1 4959.17 1067.1 4959.17 1664.73 3570.42 1664.73Z" fill="#F2F2F2" fill-rule="evenodd"/><g><text fill="#FFFFFF" font-family="Inter,Inter_MSFontService,sans-serif" font-weight="700" font-size="83" transform="matrix(1 0 0 1 3603.42 993)">DHIS2</text></g><text fill="#FFFFFF" font-family="Inter,Inter_MSFontService,sans-serif" font-weight="700" font-size="83" transform="matrix(1 0 0 1 3853.78 993)"> </text><g><text font-family="Arial,Arial_MSFontService,sans-serif" font-weight="400" font-size="83" transform="matrix(1 0 0 1 3603.42 1296)">•</text></g><text font-family="Inter,Inter_MSFontService,sans-serif" font-weight="400" font-size="83" transform="matrix(1 0 0 1 3706.54 1296)">Forecasts and uncertainty</text><text font-family="Inter,Inter_MSFontService,sans-serif" font-weight="400" font-size="83" transform="matrix(1 0 0 1 4721.18 1296)"> </text><g><text font-family="Arial,Arial_MSFontService,sans-serif" font-weight="400" font-size="83" transform="matrix(1 0 0 1 3603.42 1395)">•</text></g><text font-family="Inter,Inter_MSFontService,sans-serif" font-weight="400" font-size="83" transform="matrix(1 0 0 1 3706.54 1395)">Decision support</text><text font-family="Inter,Inter_MSFontService,sans-serif" font-weight="400" font-size="83" transform="matrix(1 0 0 1 4367.69 1395)"> </text><g><text font-family="Arial,Arial_MSFontService,sans-serif" font-weight="400" font-size="83" transform="matrix(1 0 0 1 3603.42 1494)">•</text></g><text font-family="Inter,Inter_MSFontService,sans-serif" font-weight="400" font-size="83" transform="matrix(1 0 0 1 3706.54 1494)">(ordering, planning, allocation)</text><g><text font-family="Inter,Inter_MSFontService,sans-serif" font-weight="400" font-size="83" transform="matrix(1 0 0 1 4897.06 1494)"> </text></g><path d="M1650 315 2019 1277 1650 2239Z" fill="#7F7F7F" fill-rule="evenodd"/><path d="M1920.42 861.361 3309.17 861.361 3309.17 1069.23 1920.42 1069.23Z" fill="#156082" fill-rule="evenodd"/><path d="M1920.42 1069.23 3309.17 1069.23 3309.17 1666.87 1920.42 1666.87Z" fill="#F2F2F2" fill-rule="evenodd"/><g><text fill="#FFFFFF" font-family="Inter,Inter_MSFontService,sans-serif" font-weight="700" font-size="83" transform="matrix(1 0 0 1 1953.42 995)">CHAP</text></g><text fill="#FFFFFF" font-family="Inter,Inter_MSFontService,sans-serif" font-weight="700" font-size="83" transform="matrix(1 0 0 1 2191.18 995)"> </text><g><text font-family="Inter,Inter_MSFontService,sans-serif" font-weight="400" font-size="83" transform="matrix(1 0 0 1 1953.42 1200)">Model</text></g><text font-family="Inter,Inter_MSFontService,sans-serif" font-weight="400" font-size="83" transform="matrix(1 0 0 1 2195.76 1200)">-</text><text font-family="Inter,Inter_MSFontService,sans-serif" font-weight="400" font-size="83" transform="matrix(1 0 0 1 2233.57 1200)">agnostic execution layer</text><text font-family="Inter,Inter_MSFontService,sans-serif" font-weight="400" font-size="83" transform="matrix(1 0 0 1 3180.03 1200)"> </text><g><text font-family="Arial,Arial_MSFontService,sans-serif" font-weight="400" font-size="83" transform="matrix(1 0 0 1 1953.42 1299)">•</text></g><text font-family="Inter,Inter_MSFontService,sans-serif" font-weight="400" font-size="83" transform="matrix(1 0 0 1 2056.54 1299)">Run models</text><text font-family="Inter,Inter_MSFontService,sans-serif" font-weight="400" font-size="83" transform="matrix(1 0 0 1 2514.3 1299)"> </text><g><text font-family="Arial,Arial_MSFontService,sans-serif" font-weight="400" font-size="83" transform="matrix(1 0 0 1 1953.42 1398)">•</text></g><text font-family="Inter,Inter_MSFontService,sans-serif" font-weight="400" font-size="83" transform="matrix(1 0 0 1 2056.54 1398)">Compare performance</text><text font-family="Inter,Inter_MSFontService,sans-serif" font-weight="400" font-size="83" transform="matrix(1 0 0 1 2939.98 1398)"> </text><g><text font-family="Arial,Arial_MSFontService,sans-serif" font-weight="400" font-size="83" transform="matrix(1 0 0 1 1953.42 1497)">•</text></g><text font-family="Inter,Inter_MSFontService,sans-serif" font-weight="400" font-size="83" transform="matrix(1 0 0 1 2056.54 1497)">Select what works</text><text font-family="Inter,Inter_MSFontService,sans-serif" font-weight="400" font-size="83" transform="matrix(1 0 0 1 2771.54 1497)"> </text><g><text font-family="Arial,Arial_MSFontService,sans-serif" font-weight="400" font-size="83" transform="matrix(1 0 0 1 1953.42 1596)">•</text></g><text font-family="Inter,Inter_MSFontService,sans-serif" font-weight="400" font-size="83" transform="matrix(1 0 0 1 2056.54 1596)">Scale across locations</text><text font-family="Inter,Inter_MSFontService,sans-serif" font-weight="400" font-size="83" transform="matrix(1 0 0 1 2929.67 1596)"> </text><path d="M68.75 314.722 1650 314.722 1650 522.596 68.75 522.596Z" fill="#156082" fill-rule="evenodd"/><path d="M68.75 522.596 1650 522.596 1650 753.596 68.75 753.596Z" fill="#F2F2F2" fill-rule="evenodd"/><path d="M68.75 753.596 1650 753.596 1650 1083.6 68.75 1083.6Z" fill="#F2F2F2" fill-rule="evenodd"/><path d="M68.75 1083.6 1650 1083.6 1650 1314.6 68.75 1314.6Z" fill="#F2F2F2" fill-rule="evenodd"/><path d="M68.75 1314.6 1650 1314.6 1650 1578.6 68.75 1578.6Z" fill="#F2F2F2" fill-rule="evenodd"/><path d="M68.75 1578.6 1650 1578.6 1650 1908.6 68.75 1908.6Z" fill="#F2F2F2" fill-rule="evenodd"/><path d="M68.75 1908.6 1650 1908.6 1650 2238.6 68.75 2238.6Z" fill="#F2F2F2" fill-rule="evenodd"/><path d="M68.75 753.596 1650 753.596" stroke="#A6A6A6" stroke-width="3.4375" stroke-linejoin="round" stroke-miterlimit="10" fill="none" fill-rule="evenodd"/><path d="M68.75 1083.6 1650 1083.6" stroke="#A6A6A6" stroke-width="3.4375" stroke-linejoin="round" stroke-miterlimit="10" fill="none" fill-rule="evenodd"/><path d="M68.75 1314.6 1650 1314.6" stroke="#A6A6A6" stroke-width="3.4375" stroke-linejoin="round" stroke-miterlimit="10" fill="none" fill-rule="evenodd"/><path d="M68.75 1578.6 1650 1578.6" stroke="#A6A6A6" stroke-width="3.4375" stroke-linejoin="round" stroke-miterlimit="10" fill="none" fill-rule="evenodd"/><path d="M68.75 1908.6 1650 1908.6" stroke="#A6A6A6" stroke-width="3.4375" stroke-linejoin="round" stroke-miterlimit="10" fill="none" fill-rule="evenodd"/><path d="M68.75 312.43 68.75 522.596" stroke="#FFFFFF" stroke-width="4.58333" stroke-linejoin="round" stroke-miterlimit="10" fill="none" fill-rule="evenodd"/><path d="M1650 312.43 1650 522.596" stroke="#FFFFFF" stroke-width="4.58333" stroke-linejoin="round" stroke-miterlimit="10" fill="none" fill-rule="evenodd"/><path d="M66.4583 314.722 1652.29 314.722" stroke="#FFFFFF" stroke-width="4.58333" stroke-linejoin="round" stroke-miterlimit="10" fill="none" fill-rule="evenodd"/><g><text fill="#FFFFFF" font-family="Inter,Inter_MSFontService,sans-serif" font-weight="700" font-size="83" transform="matrix(1 0 0 1 101.75 448)">Forecasting methods</text></g><text fill="#FFFFFF" font-family="Inter,Inter_MSFontService,sans-serif" font-weight="700" font-size="83" transform="matrix(1 0 0 1 953.677 448)"> </text><g><text font-family="Inter,Inter_MSFontService,sans-serif" font-weight="400" font-size="83" transform="matrix(1 0 0 1 101.75 618)">Statistical</text></g><text font-family="Inter,Inter_MSFontService,sans-serif" font-weight="400" font-size="83" transform="matrix(1 0 0 1 480.448 618)"> </text><g><text font-family="Arial,Arial_MSFontService,sans-serif" font-weight="400" font-size="83" transform="matrix(1 0 0 1 101.75 717)">•</text></g><text font-family="Inter,Inter_MSFontService,sans-serif" font-weight="400" font-size="83" transform="matrix(1 0 0 1 204.875 717)">naïve, seasonal naïve, ARIMA, ETS</text><text font-family="Inter,Inter_MSFontService,sans-serif" font-weight="400" font-size="83" transform="matrix(1 0 0 1 1550.66 717)"> </text><g><text font-family="Inter,Inter_MSFontService,sans-serif" font-weight="400" font-size="83" transform="matrix(1 0 0 1 101.75 849)">Machine learning</text></g><text font-family="Inter,Inter_MSFontService,sans-serif" font-weight="400" font-size="83" transform="matrix(1 0 0 1 773.781 849)"> </text><g><text font-family="Arial,Arial_MSFontService,sans-serif" font-weight="400" font-size="83" transform="matrix(1 0 0 1 101.75 948)">•</text></g><text font-family="Inter,Inter_MSFontService,sans-serif" font-weight="400" font-size="83" transform="matrix(1 0 0 1 204.875 948)">decision trees, random forests, </text><text font-family="Inter,Inter_MSFontService,sans-serif" font-weight="400" font-size="83" transform="matrix(1 0 0 1 204.875 1047)">boosted trees</text><text font-family="Inter,Inter_MSFontService,sans-serif" font-weight="400" font-size="83" transform="matrix(1 0 0 1 742.271 1047)"> </text><g><text font-family="Inter,Inter_MSFontService,sans-serif" font-weight="400" font-size="83" transform="matrix(1 0 0 1 101.75 1179)">Neural network and deep learning </text></g><text font-family="Inter,Inter_MSFontService,sans-serif" font-weight="400" font-size="83" transform="matrix(1 0 0 1 1450.4 1179)"> </text><g><text font-family="Arial,Arial_MSFontService,sans-serif" font-weight="400" font-size="83" transform="matrix(1 0 0 1 101.75 1278)">•</text></g><text font-family="Inter,Inter_MSFontService,sans-serif" font-weight="400" font-size="83" transform="matrix(1 0 0 1 204.875 1278)">LSTM, </text><text font-family="Inter,Inter_MSFontService,sans-serif" font-weight="400" font-size="83" transform="matrix(1 0 0 1 478.156 1278)">DeepAR</text><text font-family="Inter,Inter_MSFontService,sans-serif" font-weight="400" font-size="83" transform="matrix(1 0 0 1 791.542 1278)">, </text><text font-family="Inter,Inter_MSFontService,sans-serif" font-weight="400" font-size="83" transform="matrix(1 0 0 1 838.521 1278)">WaveNet</text><text font-family="Inter,Inter_MSFontService,sans-serif" font-weight="400" font-size="83" transform="matrix(1 0 0 1 1190.86 1278)"> </text><g><text font-family="Inter,Inter_MSFontService,sans-serif" font-weight="700" font-size="64" transform="matrix(1 0 0 1 101.75 1393)">.</text></g><text font-family="Inter,Inter_MSFontService,sans-serif" font-weight="700" font-size="64" transform="matrix(1 0 0 1 122.948 1393)"> </text><g><text font-family="Inter,Inter_MSFontService,sans-serif" font-weight="700" font-size="64" transform="matrix(1 0 0 1 101.75 1470)">.</text></g><text font-family="Inter,Inter_MSFontService,sans-serif" font-weight="700" font-size="64" transform="matrix(1 0 0 1 122.948 1470)"> </text><g><text font-family="Inter,Inter_MSFontService,sans-serif" font-weight="700" font-size="64" transform="matrix(1 0 0 1 101.75 1547)">.</text></g><text font-family="Inter,Inter_MSFontService,sans-serif" font-weight="700" font-size="64" transform="matrix(1 0 0 1 122.948 1547)"> </text><g><text font-family="Inter,Inter_MSFontService,sans-serif" font-weight="400" font-size="83" transform="matrix(1 0 0 1 101.75 1674)">Foundational time series </text></g><text font-family="Inter,Inter_MSFontService,sans-serif" font-weight="400" font-size="83" transform="matrix(1 0 0 1 1073.99 1674)"> </text><g><text font-family="Arial,Arial_MSFontService,sans-serif" font-weight="400" font-size="83" transform="matrix(1 0 0 1 101.75 1773)">•</text></g><text font-family="Inter,Inter_MSFontService,sans-serif" font-weight="400" font-size="83" transform="matrix(1 0 0 1 204.875 1773)">TimeGPT</text><text font-family="Inter,Inter_MSFontService,sans-serif" font-weight="400" font-size="83" transform="matrix(1 0 0 1 565.812 1773)">, Chronos, Lag</text><text font-family="Inter,Inter_MSFontService,sans-serif" font-weight="400" font-size="83" transform="matrix(1 0 0 1 1131.85 1773)">-</text><text font-family="Inter,Inter_MSFontService,sans-serif" font-weight="400" font-size="83" transform="matrix(1 0 0 1 1169.67 1773)">LLaMA</text><text font-family="Inter,Inter_MSFontService,sans-serif" font-weight="400" font-size="83" transform="matrix(1 0 0 1 1440.08 1773)">, </text><text font-family="Inter,Inter_MSFontService,sans-serif" font-weight="400" font-size="83" transform="matrix(1 0 0 1 204.875 1872)">TimesFM</text><text font-family="Inter,Inter_MSFontService,sans-serif" font-weight="400" font-size="83" transform="matrix(1 0 0 1 565.24 1872)"> </text><g><text font-family="Inter,Inter_MSFontService,sans-serif" font-weight="400" font-size="83" transform="matrix(1 0 0 1 101.75 2004)">LLMs used as forecasting tools, </text></g><g><text font-family="Inter,Inter_MSFontService,sans-serif" font-weight="400" font-size="83" transform="matrix(1 0 0 1 101.75 2103)">treating time series as a language </text></g><g><text font-family="Inter,Inter_MSFontService,sans-serif" font-weight="400" font-size="83" transform="matrix(1 0 0 1 101.75 2202)">problem</text></g><text font-family="Inter,Inter_MSFontService,sans-serif" font-weight="400" font-size="83" transform="matrix(1 0 0 1 422.01 2202)"> </text></g></svg>