<svg width="1853" height="1839" xmlns="http://www.w3.org/2000/svg" xmlns:xlink="http://www.w3.org/1999/xlink" xml:space="preserve" overflow="hidden"><g transform="translate(-2341 -510)"><path d="M2343.5 552.001C2343.5 530.185 2361.18 512.5 2383 512.5L4152 512.5C4173.81 512.5 4191.5 530.185 4191.5 552.001L4191.5 709.999C4191.5 731.815 4173.81 749.5 4152 749.5L2383 749.5C2361.18 749.5 2343.5 731.815 2343.5 709.999Z" stroke="#E5E7EB" stroke-width="4.58333" stroke-linejoin="round" stroke-miterlimit="10" fill="#FFFFFF" fill-rule="evenodd"/><text fill="#111827" font-family="Inter,Inter_MSFontService,sans-serif" font-weight="400" font-size="62" transform="matrix(1 0 0 1 2848.48 615)">LMIS</text><text fill="#111827" font-family="Inter,Inter_MSFontService,sans-serif" font-weight="400" font-size="62" transform="matrix(1 0 0 1 2995.72 615)"> </text><text fill="#111827" font-family="Inter,Inter_MSFontService,sans-serif" font-weight="400" font-size="62" transform="matrix(1 0 0 1 3012.91 615)">data from Côte d'Ivoire </text><text font-family="Inter,Inter_MSFontService,sans-serif" font-weight="400" font-size="62" transform="matrix(1 0 0 1 3702.7 615)"> </text><text fill="#111827" font-family="Inter,Inter_MSFontService,sans-serif" font-weight="400" font-size="62" transform="matrix(1 0 0 1 3072.22 690)">(facility level)</text><text font-family="Inter,Inter_MSFontService,sans-serif" font-weight="400" font-size="62" transform="matrix(1 0 0 1 3461.8 690)"> </text><path d="M3272.08 749.5 3272.08 779.583 3262.92 779.584 3262.92 749.5ZM3281.25 775 3267.5 802.5 3253.75 775Z" fill="#4B5563"/><path d="M2343.5 855.882C2343.5 830.266 2364.27 809.5 2389.88 809.5L4145.12 809.5C4170.73 809.5 4191.5 830.266 4191.5 855.882L4191.5 1409.12C4191.5 1434.73 4170.73 1455.5 4145.12 1455.5L2389.88 1455.5C2364.27 1455.5 2343.5 1434.73 2343.5 1409.12Z" stroke="#E5E7EB" stroke-width="4.58333" stroke-linejoin="round" stroke-miterlimit="10" fill="#242B4A" fill-rule="evenodd"/><text fill="#FFFFFF" font-family="Inter,Inter_MSFontService,sans-serif" font-weight="400" font-size="62" transform="matrix(1 0 0 1 2851.34 917)">Probabilistic</text><text fill="#FFFFFF" font-family="Inter,Inter_MSFontService,sans-serif" font-weight="400" font-size="62" transform="matrix(1 0 0 1 3209.41 917)"> </text><text fill="#FFFFFF" font-family="Inter,Inter_MSFontService,sans-serif" font-weight="400" font-size="62" transform="matrix(1 0 0 1 3226.6 917)">forecast</text><text fill="#FFFFFF" font-family="Inter,Inter_MSFontService,sans-serif" font-weight="400" font-size="62" transform="matrix(1 0 0 1 3467.22 917)"> </text><text fill="#FFFFFF" font-family="Inter,Inter_MSFontService,sans-serif" font-weight="400" font-size="62" transform="matrix(1 0 0 1 3484.41 917)">engine</text><text fill="#FFFFFF" font-family="Inter,Inter_MSFontService,sans-serif" font-weight="400" font-size="62" transform="matrix(1 0 0 1 3682.64 917)"> </text><text fill="#FFFFFF" font-family="Inter,Inter_MSFontService,sans-serif" font-weight="400" font-size="62" transform="matrix(1 0 0 1 2931.27 992)">(distribution, quantiles</text><text fill="#FFFFFF" font-family="Inter,Inter_MSFontService,sans-serif" font-weight="400" font-size="62" transform="matrix(1 0 0 1 3580.39 992)">)</text><text fill="#FFFFFF" font-family="Inter,Inter_MSFontService,sans-serif" font-weight="400" font-size="62" transform="matrix(1 0 0 1 3602.73 992)"> </text><text fill="#FFFFFF" font-family="Inter,Inter_MSFontService,sans-serif" font-weight="400" font-size="62" transform="matrix(1 0 0 1 3267 1066)"> </text><text fill="#FFFFFF" font-family="Arial,Arial_MSFontService,sans-serif" font-weight="400" font-size="50" transform="matrix(1 0 0 1 2442 1129)">•</text><text fill="#FFFFFF" font-family="Inter,Inter_MSFontService,sans-serif" font-weight="400" font-size="50" transform="matrix(1 0 0 1 2503.87 1129)">Statistical: Naïve, Mean, ARIMA, ETS</text><text fill="#FFFFFF" font-family="Inter,Inter_MSFontService,sans-serif" font-weight="400" font-size="50" transform="matrix(1 0 0 1 3371.84 1129)"> </text><text fill="#FFFFFF" font-family="Arial,Arial_MSFontService,sans-serif" font-weight="400" font-size="50" transform="matrix(1 0 0 1 2442 1190)">•</text><text fill="#FFFFFF" font-family="Inter,Inter_MSFontService,sans-serif" font-weight="400" font-size="50" transform="matrix(1 0 0 1 2503.87 1190)">Machine Learning: Linear Regression, Tree/GBM </text><text fill="#FFFFFF" font-family="Inter,Inter_MSFontService,sans-serif" font-weight="400" font-size="50" transform="matrix(1 0 0 1 3671.48 1190)"> </text><text fill="#FFFFFF" font-family="Arial,Arial_MSFontService,sans-serif" font-weight="400" font-size="50" transform="matrix(1 0 0 1 2442 1250)">•</text><text fill="#FFFFFF" font-family="Inter,Inter_MSFontService,sans-serif" font-weight="400" font-size="50" transform="matrix(1 0 0 1 2503.87 1250)">Bayesian</text><text fill="#FFFFFF" font-family="Inter,Inter_MSFontService,sans-serif" font-weight="400" font-size="50" transform="matrix(1 0 0 1 2718.72 1250)"> </text><text fill="#FFFFFF" font-family="Inter,Inter_MSFontService,sans-serif" font-weight="400" font-size="50" transform="matrix(1 0 0 1 2733.04 1250)">Structural</text><text fill="#FFFFFF" font-family="Inter,Inter_MSFontService,sans-serif" font-weight="400" font-size="50" transform="matrix(1 0 0 1 2964.5 1250)"> </text><text fill="#FFFFFF" font-family="Inter,Inter_MSFontService,sans-serif" font-weight="400" font-size="50" transform="matrix(1 0 0 1 2978.82 1250)">Method</text><text fill="#FFFFFF" font-family="Inter,Inter_MSFontService,sans-serif" font-weight="400" font-size="50" transform="matrix(1 0 0 1 3161.01 1250)"> </text><text fill="#FFFFFF" font-family="Arial,Arial_MSFontService,sans-serif" font-weight="400" font-size="50" transform="matrix(1 0 0 1 2442 1311)">•</text><text fill="#FFFFFF" font-family="Inter,Inter_MSFontService,sans-serif" font-weight="400" font-size="50" transform="matrix(1 0 0 1 2503.87 1311)">Foundational</text><text fill="#FFFFFF" font-family="Inter,Inter_MSFontService,sans-serif" font-weight="400" font-size="50" transform="matrix(1 0 0 1 2811.53 1311)"> </text><text fill="#FFFFFF" font-family="Inter,Inter_MSFontService,sans-serif" font-weight="400" font-size="50" transform="matrix(1 0 0 1 2825.85 1311)">Models:</text><text fill="#FFFFFF" font-family="Inter,Inter_MSFontService,sans-serif" font-weight="400" font-size="50" transform="matrix(1 0 0 1 3014.34 1311)"> </text><text fill="#FFFFFF" font-family="Inter,Inter_MSFontService,sans-serif" font-weight="400" font-size="50" transform="matrix(1 0 0 1 3028.67 1311)">TimeGPT</text><text fill="#FFFFFF" font-family="Inter,Inter_MSFontService,sans-serif" font-weight="400" font-size="50" transform="matrix(1 0 0 1 3249.24 1311)">, Chronos, </text><text fill="#FFFFFF" font-family="Inter,Inter_MSFontService,sans-serif" font-weight="400" font-size="50" transform="matrix(1 0 0 1 3508.77 1311)">LagLlama</text><text fill="#FFFFFF" font-family="Inter,Inter_MSFontService,sans-serif" font-weight="400" font-size="50" transform="matrix(1 0 0 1 3737.36 1311)"> </text><path d="M3272.08 1455.5 3272.08 1485.58 3262.92 1485.58 3262.92 1455.5ZM3281.25 1481 3267.5 1508.5 3253.75 1481Z" fill="#4B5563"/><path d="M2343.5 1555C2343.5 1533.19 2361.18 1515.5 2383 1515.5L4152 1515.5C4173.81 1515.5 4191.5 1533.19 4191.5 1555L4191.5 1713C4191.5 1734.81 4173.81 1752.5 4152 1752.5L2383 1752.5C2361.18 1752.5 2343.5 1734.81 2343.5 1713Z" stroke="#E5E7EB" stroke-width="4.58333" stroke-linejoin="round" stroke-miterlimit="10" fill="#FFFFFF" fill-rule="evenodd"/><text fill="#111827" font-family="Inter,Inter_MSFontService,sans-serif" font-weight="400" font-size="62" transform="matrix(1 0 0 1 2965.36 1618)">Point </text><text fill="#111827" font-family="Inter,Inter_MSFontService,sans-serif" font-weight="400" font-size="62" transform="matrix(1 0 0 1 3130.36 1618)">forecast </text><text fill="#111827" font-family="Inter,Inter_MSFontService,sans-serif" font-weight="400" font-size="62" transform="matrix(1 0 0 1 3388.17 1618)">model</text><text font-family="Inter,Inter_MSFontService,sans-serif" font-weight="400" font-size="62" transform="matrix(1 0 0 1 3568.64 1618)"> </text><text fill="#111827" font-family="Inter,Inter_MSFontService,sans-serif" font-weight="400" font-size="62" transform="matrix(1 0 0 1 2757.39 1693)">(</text><text fill="#111827" font-family="Inter,Inter_MSFontService,sans-serif" font-weight="400" font-size="62" transform="matrix(1 0 0 1 2779.73 1693)">expert judgement/</text><text fill="#111827" font-family="Inter,Inter_MSFontService,sans-serif" font-weight="400" font-size="62" transform="matrix(1 0 0 1 3316.56 1693)">domain </text><text fill="#111827" font-family="Inter,Inter_MSFontService,sans-serif" font-weight="400" font-size="62" transform="matrix(1 0 0 1 3549.73 1693)">signals)</text><text font-family="Inter,Inter_MSFontService,sans-serif" font-weight="400" font-size="62" transform="matrix(1 0 0 1 3776.61 1693)"> </text><path d="M3272.08 1752.5 3272.08 1782.58 3262.92 1782.58 3262.92 1752.5ZM3281.25 1778 3267.5 1805.5 3253.75 1778Z" fill="#4B5563"/><path d="M2343.5 1852C2343.5 1830.19 2361.18 1812.5 2383 1812.5L4152 1812.5C4173.81 1812.5 4191.5 1830.19 4191.5 1852L4191.5 2010C4191.5 2031.81 4173.81 2049.5 4152 2049.5L2383 2049.5C2361.18 2049.5 2343.5 2031.81 2343.5 2010Z" stroke="#E5E7EB" stroke-width="4.58333" stroke-linejoin="round" stroke-miterlimit="10" fill="#242B4A" fill-rule="evenodd"/><text fill="#FFFFFF" font-family="Inter,Inter_MSFontService,sans-serif" font-weight="400" font-size="62" transform="matrix(1 0 0 1 2532.23 1915)">Adjust the system generated probabilistic forecast</text><text fill="#FFFFFF" font-family="Inter,Inter_MSFontService,sans-serif" font-weight="400" font-size="62" transform="matrix(1 0 0 1 4001.77 1915)"> </text><text fill="#FFFFFF" font-family="Inter,Inter_MSFontService,sans-serif" font-weight="400" font-size="62" transform="matrix(1 0 0 1 2610.45 1990)">(</text><text fill="#FFFFFF" font-family="Inter,Inter_MSFontService,sans-serif" font-weight="400" font-size="62" transform="matrix(1 0 0 1 2632.79 1990)">Constrained Quantile Regression Averaging</text><text fill="#FFFFFF" font-family="Inter,Inter_MSFontService,sans-serif" font-weight="400" font-size="62" transform="matrix(1 0 0 1 3901.23 1990)">)</text><text fill="#FFFFFF" font-family="Inter,Inter_MSFontService,sans-serif" font-weight="400" font-size="62" transform="matrix(1 0 0 1 3923.57 1990)"> </text><path d="M3272.08 2049.5 3272.08 2079.58 3262.92 2079.58 3262.92 2049.5ZM3281.25 2075 3267.5 2102.5 3253.75 2075Z" fill="#4B5563"/><path d="M2343.5 2149C2343.5 2127.19 2361.18 2109.5 2383 2109.5L4152 2109.5C4173.81 2109.5 4191.5 2127.19 4191.5 2149L4191.5 2307C4191.5 2328.81 4173.81 2346.5 4152 2346.5L2383 2346.5C2361.18 2346.5 2343.5 2328.81 2343.5 2307Z" stroke="#E5E7EB" stroke-width="4.58333" stroke-linejoin="round" stroke-miterlimit="10" fill="#FFFFFF" fill-rule="evenodd"/><text fill="#111827" font-family="Inter,Inter_MSFontService,sans-serif" font-weight="400" font-size="62" transform="matrix(1 0 0 1 3021.49 2212)">Forecast </text><text fill="#111827" font-family="Inter,Inter_MSFontService,sans-serif" font-weight="400" font-size="62" transform="matrix(1 0 0 1 3291.91 2212)">outputs</text><text font-family="Inter,Inter_MSFontService,sans-serif" font-weight="400" font-size="62" transform="matrix(1 0 0 1 3512.48 2212)"> </text><text fill="#111827" font-family="Inter,Inter_MSFontService,sans-serif" font-weight="400" font-size="62" transform="matrix(1 0 0 1 2792.05 2287)">(mean + quantiles + </text><text fill="#111827" font-family="Inter,Inter_MSFontService,sans-serif" font-weight="400" font-size="62" transform="matrix(1 0 0 1 3391.9 2287)">distribution</text><text fill="#111827" font-family="Inter,Inter_MSFontService,sans-serif" font-weight="400" font-size="62" transform="matrix(1 0 0 1 3719.6 2287)">)</text><text font-family="Inter,Inter_MSFontService,sans-serif" font-weight="400" font-size="62" transform="matrix(1 0 0 1 3741.95 2287)"> </text></g></svg>