<svg width="1853" height="1952" xmlns="http://www.w3.org/2000/svg" xmlns:xlink="http://www.w3.org/1999/xlink" xml:space="preserve" overflow="hidden"><g transform="translate(-2341 -543)"><path d="M2343.5 592.167C2343.5 566.394 2364.39 545.5 2390.17 545.5L4144.83 545.5C4170.61 545.5 4191.5 566.394 4191.5 592.167L4191.5 778.833C4191.5 804.606 4170.61 825.5 4144.83 825.5L2390.17 825.5C2364.39 825.5 2343.5 804.606 2343.5 778.833Z" stroke="#E5E7EB" stroke-width="4.58333" stroke-linejoin="round" stroke-miterlimit="10" fill="#FFFFFF" fill-rule="evenodd"/><text fill="#111827" font-family="Inter,Inter_MSFontService,sans-serif" font-weight="400" font-size="60" transform="matrix(1 0 0 1 2988 670)">DHIS2 </text><text fill="#111827" font-family="Inter,Inter_MSFontService,sans-serif" font-weight="400" font-size="60" transform="matrix(1 0 0 1 3182.22 670)">data</text><text fill="#111827" font-family="Inter,Inter_MSFontService,sans-serif" font-weight="400" font-size="60" transform="matrix(1 0 0 1 3305.4 670)"> </text><text fill="#111827" font-family="Inter,Inter_MSFontService,sans-serif" font-weight="400" font-size="60" transform="matrix(1 0 0 1 3322.01 670)">sources</text><text font-family="Inter,Inter_MSFontService,sans-serif" font-weight="400" font-size="60" transform="matrix(1 0 0 1 3546.02 670)"> </text><text fill="#111827" font-family="Inter,Inter_MSFontService,sans-serif" font-weight="400" font-size="60" transform="matrix(1 0 0 1 2860.52 742)">(</text><text fill="#111827" font-family="Inter,Inter_MSFontService,sans-serif" font-weight="400" font-size="60" transform="matrix(1 0 0 1 2882.29 742)">Morbidity</text><text fill="#111827" font-family="Inter,Inter_MSFontService,sans-serif" font-weight="400" font-size="60" transform="matrix(1 0 0 1 3150.98 742)">, </text><text fill="#111827" font-family="Inter,Inter_MSFontService,sans-serif" font-weight="400" font-size="60" transform="matrix(1 0 0 1 3184.79 742)">logistics</text><text fill="#111827" font-family="Inter,Inter_MSFontService,sans-serif" font-weight="400" font-size="60" transform="matrix(1 0 0 1 3416.24 742)">, </text><text fill="#111827" font-family="Inter,Inter_MSFontService,sans-serif" font-weight="400" font-size="60" transform="matrix(1 0 0 1 3450.05 742)">climate</text><text fill="#111827" font-family="Inter,Inter_MSFontService,sans-serif" font-weight="400" font-size="60" transform="matrix(1 0 0 1 3651.71 742)">)</text><text font-family="Inter,Inter_MSFontService,sans-serif" font-weight="400" font-size="60" transform="matrix(1 0 0 1 3673.48 742)"> </text><path d="M3272.08 825.5 3272.08 868.583 3262.92 868.583 3262.92 825.5ZM3281.25 864 3267.5 891.5 3253.75 864Z" fill="#4B5563"/><path d="M2343.5 944.152C2343.5 918.939 2363.94 898.5 2389.15 898.5L4145.85 898.5C4171.06 898.5 4191.5 918.939 4191.5 944.152L4191.5 1387.85C4191.5 1413.06 4171.06 1433.5 4145.85 1433.5L2389.15 1433.5C2363.94 1433.5 2343.5 1413.06 2343.5 1387.85Z" stroke="#E5E7EB" stroke-width="4.58333" stroke-linejoin="round" stroke-miterlimit="10" fill="#242B4A" fill-rule="evenodd"/><text fill="#FFFFFF" font-family="Inter,Inter_MSFontService,sans-serif" font-weight="400" font-size="60" transform="matrix(1 0 0 1 2694.08 999)">CHAP model </text><text fill="#FFFFFF" font-family="Inter,Inter_MSFontService,sans-serif" font-weight="400" font-size="60" transform="matrix(1 0 0 1 3067.62 999)">library</text><text fill="#FFFFFF" font-family="Inter,Inter_MSFontService,sans-serif" font-weight="400" font-size="60" transform="matrix(1 0 0 1 3245.23 999)"> </text><text fill="#FFFFFF" font-family="Inter,Inter_MSFontService,sans-serif" font-weight="400" font-size="60" transform="matrix(1 0 0 1 3261.84 999)">(</text><text fill="#FFFFFF" font-family="Inter,Inter_MSFontService,sans-serif" font-weight="400" font-size="60" transform="matrix(1 0 0 1 3283.61 999)">reusable templates</text><text fill="#FFFFFF" font-family="Inter,Inter_MSFontService,sans-serif" font-weight="400" font-size="60" transform="matrix(1 0 0 1 3818.15 999)">)</text><text fill="#FFFFFF" font-family="Inter,Inter_MSFontService,sans-serif" font-weight="400" font-size="60" transform="matrix(1 0 0 1 3839.92 999)"> </text><text fill="#FFFFFF" font-family="Inter,Inter_MSFontService,sans-serif" font-weight="400" font-size="60" transform="matrix(1 0 0 1 3267 1071)"> </text><text fill="#FFFFFF" font-family="Arial,Arial_MSFontService,sans-serif" font-weight="400" font-size="50" transform="matrix(1 0 0 1 2442 1133)">•</text><text fill="#FFFFFF" font-family="Inter,Inter_MSFontService,sans-serif" font-weight="400" font-size="50" transform="matrix(1 0 0 1 2503.87 1133)">AutoEWARS</text><text fill="#FFFFFF" font-family="Inter,Inter_MSFontService,sans-serif" font-weight="400" font-size="50" transform="matrix(1 0 0 1 2795.49 1133)"> </text><text fill="#FFFFFF" font-family="Arial,Arial_MSFontService,sans-serif" font-weight="400" font-size="50" transform="matrix(1 0 0 1 2442 1194)">•</text><text fill="#FFFFFF" font-family="Inter,Inter_MSFontService,sans-serif" font-weight="400" font-size="50" transform="matrix(1 0 0 1 2503.87 1194)">INLA</text><text fill="#FFFFFF" font-family="Inter,Inter_MSFontService,sans-serif" font-weight="400" font-size="50" transform="matrix(1 0 0 1 2619.03 1194)"> </text><text fill="#FFFFFF" font-family="Inter,Inter_MSFontService,sans-serif" font-weight="400" font-size="50" transform="matrix(1 0 0 1 2633.35 1194)">Baseline</text><text fill="#FFFFFF" font-family="Inter,Inter_MSFontService,sans-serif" font-weight="400" font-size="50" transform="matrix(1 0 0 1 2833.3 1194)"> </text><text fill="#FFFFFF" font-family="Arial,Arial_MSFontService,sans-serif" font-weight="400" font-size="50" transform="matrix(1 0 0 1 2442 1254)">•</text><text fill="#FFFFFF" font-family="Inter,Inter_MSFontService,sans-serif" font-weight="400" font-size="50" transform="matrix(1 0 0 1 2503.87 1254)">Statistical:</text><text fill="#FFFFFF" font-family="Inter,Inter_MSFontService,sans-serif" font-weight="400" font-size="50" transform="matrix(1 0 0 1 2747.36 1254)"> </text><text fill="#FFFFFF" font-family="Inter,Inter_MSFontService,sans-serif" font-weight="400" font-size="50" transform="matrix(1 0 0 1 2761.69 1254)">Naïve,</text><text fill="#FFFFFF" font-family="Inter,Inter_MSFontService,sans-serif" font-weight="400" font-size="50" transform="matrix(1 0 0 1 2911.22 1254)"> </text><text fill="#FFFFFF" font-family="Inter,Inter_MSFontService,sans-serif" font-weight="400" font-size="50" transform="matrix(1 0 0 1 2925.54 1254)">Mean,</text><text fill="#FFFFFF" font-family="Inter,Inter_MSFontService,sans-serif" font-weight="400" font-size="50" transform="matrix(1 0 0 1 3072.21 1254)"> </text><text fill="#FFFFFF" font-family="Inter,Inter_MSFontService,sans-serif" font-weight="400" font-size="50" transform="matrix(1 0 0 1 3086.53 1254)">ARIMA,</text><text fill="#FFFFFF" font-family="Inter,Inter_MSFontService,sans-serif" font-weight="400" font-size="50" transform="matrix(1 0 0 1 3262.42 1254)"> </text><text fill="#FFFFFF" font-family="Inter,Inter_MSFontService,sans-serif" font-weight="400" font-size="50" transform="matrix(1 0 0 1 3276.74 1254)">ETS</text><text fill="#FFFFFF" font-family="Inter,Inter_MSFontService,sans-serif" font-weight="400" font-size="50" transform="matrix(1 0 0 1 3371.84 1254)"> </text><text fill="#FFFFFF" font-family="Arial,Arial_MSFontService,sans-serif" font-weight="400" font-size="50" transform="matrix(1 0 0 1 2442 1315)">•</text><text fill="#FFFFFF" font-family="Inter,Inter_MSFontService,sans-serif" font-weight="400" font-size="50" transform="matrix(1 0 0 1 2503.87 1315)">Machine Learning: Linear Regression, Boosting Trees, Random </text><text fill="#FFFFFF" font-family="Inter,Inter_MSFontService,sans-serif" font-weight="400" font-size="50" transform="matrix(1 0 0 1 2503.87 1375)">Forest</text><text fill="#FFFFFF" font-family="Inter,Inter_MSFontService,sans-serif" font-weight="400" font-size="50" transform="matrix(1 0 0 1 2655.12 1375)"> </text><path d="M3272.08 1433.5 3272.08 1476.58 3262.92 1476.58 3262.92 1433.5ZM3281.25 1472 3267.5 1499.5 3253.75 1472Z" fill="#4B5563"/><path d="M2343.5 1553.17C2343.5 1527.39 2364.39 1506.5 2390.17 1506.5L4144.83 1506.5C4170.61 1506.5 4191.5 1527.39 4191.5 1553.17L4191.5 1739.83C4191.5 1765.61 4170.61 1786.5 4144.83 1786.5L2390.17 1786.5C2364.39 1786.5 2343.5 1765.61 2343.5 1739.83Z" stroke="#E5E7EB" stroke-width="4.58333" stroke-linejoin="round" stroke-miterlimit="10" fill="#FFFFFF" fill-rule="evenodd"/><text fill="#111827" font-family="Inter,Inter_MSFontService,sans-serif" font-weight="400" font-size="60" transform="matrix(1 0 0 1 2883.42 1631)">CHAP </text><text fill="#111827" font-family="Inter,Inter_MSFontService,sans-serif" font-weight="400" font-size="60" transform="matrix(1 0 0 1 3066.75 1631)">e</text><text fill="#111827" font-family="Inter,Inter_MSFontService,sans-serif" font-weight="400" font-size="60" transform="matrix(1 0 0 1 3101.7 1631)">valuation </text><text fill="#111827" font-family="Inter,Inter_MSFontService,sans-serif" font-weight="400" font-size="60" transform="matrix(1 0 0 1 3372.12 1631)">command</text><text font-family="Inter,Inter_MSFontService,sans-serif" font-weight="400" font-size="60" transform="matrix(1 0 0 1 3650.56 1631)"> </text><text fill="#111827" font-family="Inter,Inter_MSFontService,sans-serif" font-weight="400" font-size="60" transform="matrix(1 0 0 1 2546.27 1703)">(</text><text fill="#111827" font-family="Inter,Inter_MSFontService,sans-serif" font-weight="400" font-size="60" transform="matrix(1 0 0 1 2568.04 1703)">cross validation for point and probabilistic metrics</text><text fill="#111827" font-family="Inter,Inter_MSFontService,sans-serif" font-weight="400" font-size="60" transform="matrix(1 0 0 1 3965.96 1703)">)</text><text font-family="Inter,Inter_MSFontService,sans-serif" font-weight="400" font-size="60" transform="matrix(1 0 0 1 3987.73 1703)"> </text><path d="M3272.08 1786.5 3272.08 1829.58 3262.92 1829.58 3262.92 1786.5ZM3281.25 1825 3267.5 1852.5 3253.75 1825Z" fill="#4B5563"/><path d="M2343.5 1906.17C2343.5 1880.39 2364.39 1859.5 2390.17 1859.5L4144.83 1859.5C4170.61 1859.5 4191.5 1880.39 4191.5 1906.17L4191.5 2092.83C4191.5 2118.61 4170.61 2139.5 4144.83 2139.5L2390.17 2139.5C2364.39 2139.5 2343.5 2118.61 2343.5 2092.83Z" stroke="#E5E7EB" stroke-width="4.58333" stroke-linejoin="round" stroke-miterlimit="10" fill="#242B4A" fill-rule="evenodd"/><text fill="#FFFFFF" font-family="Inter,Inter_MSFontService,sans-serif" font-weight="400" font-size="60" transform="matrix(1 0 0 1 3034.4 1984)">Forecast objects</text><text fill="#FFFFFF" font-family="Inter,Inter_MSFontService,sans-serif" font-weight="400" font-size="60" transform="matrix(1 0 0 1 3499.6 1984)"> </text><text fill="#FFFFFF" font-family="Inter,Inter_MSFontService,sans-serif" font-weight="400" font-size="60" transform="matrix(1 0 0 1 2766.27 2056)">(</text><text fill="#FFFFFF" font-family="Inter,Inter_MSFontService,sans-serif" font-weight="400" font-size="60" transform="matrix(1 0 0 1 2788.04 2056)">mean</text><text fill="#FFFFFF" font-family="Inter,Inter_MSFontService,sans-serif" font-weight="400" font-size="60" transform="matrix(1 0 0 1 2943.87 2056)">,</text><text fill="#FFFFFF" font-family="Inter,Inter_MSFontService,sans-serif" font-weight="400" font-size="60" transform="matrix(1 0 0 1 2961.06 2056)"> </text><text fill="#FFFFFF" font-family="Inter,Inter_MSFontService,sans-serif" font-weight="400" font-size="60" transform="matrix(1 0 0 1 2977.68 2056)">quantiles</text><text fill="#FFFFFF" font-family="Inter,Inter_MSFontService,sans-serif" font-weight="400" font-size="60" transform="matrix(1 0 0 1 3232.05 2056)"> </text><text fill="#FFFFFF" font-family="Inter,Inter_MSFontService,sans-serif" font-weight="400" font-size="60" transform="matrix(1 0 0 1 3248.67 2056)">and sample paths</text><text fill="#FFFFFF" font-family="Inter,Inter_MSFontService,sans-serif" font-weight="400" font-size="60" transform="matrix(1 0 0 1 3745.96 2056)">)</text><text fill="#FFFFFF" font-family="Inter,Inter_MSFontService,sans-serif" font-weight="400" font-size="60" transform="matrix(1 0 0 1 3767.73 2056)"> </text><path d="M3272.08 2139.5 3272.08 2182.58 3262.92 2182.58 3262.92 2139.5ZM3281.25 2178 3267.5 2205.5 3253.75 2178Z" fill="#4B5563"/><path d="M2343.5 2259.17C2343.5 2233.39 2364.39 2212.5 2390.17 2212.5L4144.83 2212.5C4170.61 2212.5 4191.5 2233.39 4191.5 2259.17L4191.5 2445.83C4191.5 2471.61 4170.61 2492.5 4144.83 2492.5L2390.17 2492.5C2364.39 2492.5 2343.5 2471.61 2343.5 2445.83Z" stroke="#E5E7EB" stroke-width="4.58333" stroke-linejoin="round" stroke-miterlimit="10" fill="#FFFFFF" fill-rule="evenodd"/><text fill="#111827" font-family="Inter,Inter_MSFontService,sans-serif" font-weight="400" font-size="60" transform="matrix(1 0 0 1 3069.35 2337)">Decision layer</text><text font-family="Inter,Inter_MSFontService,sans-serif" font-weight="400" font-size="60" transform="matrix(1 0 0 1 3464.67 2337)"> </text><text fill="#111827" font-family="Inter,Inter_MSFontService,sans-serif" font-weight="400" font-size="60" transform="matrix(1 0 0 1 2496.14 2409)">(inventory </text><text fill="#111827" font-family="Inter,Inter_MSFontService,sans-serif" font-weight="400" font-size="60" transform="matrix(1 0 0 1 2796.35 2409)">policy simulation: order</text><text fill="#111827" font-family="Inter,Inter_MSFontService,sans-serif" font-weight="400" font-size="60" transform="matrix(1 0 0 1 3448.9 2409)">-</text><text fill="#111827" font-family="Inter,Inter_MSFontService,sans-serif" font-weight="400" font-size="60" transform="matrix(1 0 0 1 3476.4 2409)">up</text><text fill="#111827" font-family="Inter,Inter_MSFontService,sans-serif" font-weight="400" font-size="60" transform="matrix(1 0 0 1 3548.02 2409)">-</text><text fill="#111827" font-family="Inter,Inter_MSFontService,sans-serif" font-weight="400" font-size="60" transform="matrix(1 0 0 1 3575.52 2409)">to quantile level</text><text fill="#111827" font-family="Inter,Inter_MSFontService,sans-serif" font-weight="400" font-size="60" transform="matrix(1 0 0 1 4016.09 2409)">)</text><text font-family="Inter,Inter_MSFontService,sans-serif" font-weight="400" font-size="60" transform="matrix(1 0 0 1 4037.86 2409)"> </text></g></svg>