<svg width="4305" height="2384" xmlns="http://www.w3.org/2000/svg" xmlns:xlink="http://www.w3.org/1999/xlink" xml:space="preserve" overflow="hidden"><g transform="translate(-47 -205)"><rect x="267.5" y="207.5" width="4082" height="759" stroke="#000000" stroke-width="4.58333" stroke-miterlimit="8" stroke-dasharray="18.3333 13.75" fill="#F2F2F2"/><rect x="267.5" y="1075.5" width="4082" height="823" stroke="#000000" stroke-width="4.58333" stroke-miterlimit="8" stroke-dasharray="18.3333 13.75" fill="#F2F2F2"/><rect x="267.5" y="2030.5" width="4082" height="556" stroke="#000000" stroke-width="4.58333" stroke-miterlimit="8" stroke-dasharray="18.3333 13.75" fill="#F2F2F2"/><rect x="51.5002" y="207.5" width="146" height="759" stroke="#000000" stroke-width="4.58333" stroke-miterlimit="8" fill="none"/><text font-family="Garamond,Garamond_MSFontService,sans-serif" font-weight="700" font-size="64" transform="matrix(-1.83697e-16 -1 1 -1.83697e-16 126.209 747)">Input Layer</text><text font-family="Garamond,Garamond_MSFontService,sans-serif" font-weight="700" font-size="64" transform="matrix(-1.83697e-16 -1 1 -1.83697e-16 126.209 426)"> </text><path d="M1132.5 303.351C1132.5 282.446 1149.45 265.5 1170.35 265.5L1902.65 265.5C1923.55 265.5 1940.5 282.446 1940.5 303.351L1940.5 613.649C1940.5 634.554 1923.55 651.5 1902.65 651.5L1170.35 651.5C1149.45 651.5 1132.5 634.554 1132.5 613.649Z" stroke="#000000" stroke-width="4.58333" stroke-miterlimit="8" fill="#FFFFFF" fill-rule="evenodd"/><text font-family="Garamond,Garamond_MSFontService,sans-serif" font-weight="700" font-size="64" transform="matrix(1 0 0 1 1176.04 351)">DHIS2 Data Sources</text><text font-family="Garamond,Garamond_MSFontService,sans-serif" font-weight="700" font-size="64" transform="matrix(1 0 0 1 1744.38 351)"> </text><text font-family="Arial,Arial_MSFontService,sans-serif" font-weight="400" font-size="64" transform="matrix(1 0 0 1 1176.04 428)">•</text><text font-family="Garamond,Garamond_MSFontService,sans-serif" font-weight="400" font-size="64" transform="matrix(1 0 0 1 1237.92 428)">Morbidity</text><text font-family="Garamond,Garamond_MSFontService,sans-serif" font-weight="400" font-size="64" transform="matrix(1 0 0 1 1485.42 428)"> </text><text font-family="Arial,Arial_MSFontService,sans-serif" font-weight="400" font-size="64" transform="matrix(1 0 0 1 1176.04 505)">•</text><text font-family="Garamond,Garamond_MSFontService,sans-serif" font-weight="400" font-size="64" transform="matrix(1 0 0 1 1237.92 505)">Logistics</text><text font-family="Garamond,Garamond_MSFontService,sans-serif" font-weight="400" font-size="64" transform="matrix(1 0 0 1 1458.49 505)"> </text><text font-family="Arial,Arial_MSFontService,sans-serif" font-weight="400" font-size="64" transform="matrix(1 0 0 1 1176.04 582)">•</text><text font-family="Garamond,Garamond_MSFontService,sans-serif" font-weight="400" font-size="64" transform="matrix(1 0 0 1 1237.92 582)">Climate</text><text font-family="Garamond,Garamond_MSFontService,sans-serif" font-weight="400" font-size="64" transform="matrix(1 0 0 1 1429.27 582)"> </text><path d="M336.5 537.855C336.5 531.032 342.032 525.5 348.855 525.5L852.145 525.5C858.969 525.5 864.5 531.032 864.5 537.855L864.5 639.145C864.5 645.968 858.969 651.5 852.145 651.5L348.855 651.5C342.032 651.5 336.5 645.968 336.5 639.145Z" stroke="#000000" stroke-width="4.58333" stroke-miterlimit="8" fill="#FFFFFF" fill-rule="evenodd"/><text font-family="Garamond,Garamond_MSFontService,sans-serif" font-weight="700" font-size="64" transform="matrix(1 0 0 1 372.277 604)">Climate App</text><text font-family="Garamond,Garamond_MSFontService,sans-serif" font-weight="400" font-size="64" transform="matrix(1 0 0 1 714.881 604)"> </text><path d="M336.5 277.855C336.5 271.032 342.032 265.5 348.855 265.5L852.145 265.5C858.969 265.5 864.5 271.032 864.5 277.855L864.5 379.144C864.5 385.968 858.969 391.499 852.145 391.499L348.855 391.499C342.032 391.499 336.5 385.968 336.5 379.144Z" stroke="#000000" stroke-width="4.58333" stroke-miterlimit="8" fill="#FFFFFF" fill-rule="evenodd"/><text font-family="Garamond,Garamond_MSFontService,sans-serif" font-weight="700" font-size="64" transform="matrix(1 0 0 1 372.277 344)">Local LMIS</text><text font-family="Garamond,Garamond_MSFontService,sans-serif" font-weight="400" font-size="64" transform="matrix(1 0 0 1 697.121 344)"> </text><path d="M2097.5 315.173C2097.5 287.739 2119.74 265.5 2147.17 265.5L3382.83 265.5C3410.26 265.5 3432.5 287.739 3432.5 315.173L3432.5 844.827C3432.5 872.261 3410.26 894.5 3382.83 894.5L2147.17 894.5C2119.74 894.5 2097.5 872.261 2097.5 844.827Z" stroke="#000000" stroke-width="4.58333" stroke-miterlimit="8" fill="#FFFFFF" fill-rule="evenodd"/><text font-family="Garamond,Garamond_MSFontService,sans-serif" font-weight="700" font-size="64" transform="matrix(1 0 0 1 2144.96 355)">CHAP Model Library</text><text font-family="Garamond,Garamond_MSFontService,sans-serif" font-weight="700" font-size="64" transform="matrix(1 0 0 1 2731.05 355)"> </text><text font-family="Arial,Arial_MSFontService,sans-serif" font-weight="400" font-size="64" transform="matrix(1 0 0 1 2144.96 432)">•</text><text font-family="Garamond,Garamond_MSFontService,sans-serif" font-weight="400" font-size="64" transform="matrix(1 0 0 1 2206.83 432)">Auto EWARS</text><text font-family="Garamond,Garamond_MSFontService,sans-serif" font-weight="400" font-size="64" transform="matrix(1 0 0 1 2562.61 432)"> </text><text font-family="Arial,Arial_MSFontService,sans-serif" font-weight="400" font-size="64" transform="matrix(1 0 0 1 2144.96 509)">•</text><text font-family="Garamond,Garamond_MSFontService,sans-serif" font-weight="400" font-size="64" transform="matrix(1 0 0 1 2206.83 509)">INLA Baseline</text><text font-family="Garamond,Garamond_MSFontService,sans-serif" font-weight="400" font-size="64" transform="matrix(1 0 0 1 2580.95 509)"> </text><text font-family="Arial,Arial_MSFontService,sans-serif" font-weight="400" font-size="64" transform="matrix(1 0 0 1 2144.96 586)">•</text><text font-family="Garamond,Garamond_MSFontService,sans-serif" font-weight="400" font-size="64" transform="matrix(1 0 0 1 2206.83 586)">Statistical Methods</text><text font-family="Garamond,Garamond_MSFontService,sans-serif" font-weight="400" font-size="64" transform="matrix(1 0 0 1 2678.34 586)"> </text><text font-family="Arial,Arial_MSFontService,sans-serif" font-weight="400" font-size="64" transform="matrix(1 0 0 1 2144.96 663)">•</text><text font-family="Garamond,Garamond_MSFontService,sans-serif" font-weight="400" font-size="64" transform="matrix(1 0 0 1 2206.83 663)">Machine Learning Methods</text><text font-family="Garamond,Garamond_MSFontService,sans-serif" font-weight="400" font-size="64" transform="matrix(1 0 0 1 2892.04 663)"> </text><text font-family="Garamond,Garamond_MSFontService,sans-serif" font-weight="400" font-size="64" transform="matrix(1 0 0 1 2206.83 740)"> </text><text font-family="Garamond,Garamond_MSFontService,sans-serif" font-weight="400" font-size="64" transform="matrix(1 0 0 1 2144.96 817)">Variants: Core and Core + Covariates</text><text font-family="Garamond,Garamond_MSFontService,sans-serif" font-weight="400" font-size="64" transform="matrix(1 0 0 1 3083.39 817)"> </text><path d="M3664.5 780.856C3664.5 774.032 3670.03 768.5 3676.86 768.5L4285.14 768.5C4291.97 768.5 4297.5 774.032 4297.5 780.856L4297.5 882.144C4297.5 888.968 4291.97 894.5 4285.14 894.5L3676.86 894.5C3670.03 894.5 3664.5 888.968 3664.5 882.144Z" stroke="#000000" stroke-width="4.58333" stroke-miterlimit="8" fill="#FFFFFF" fill-rule="evenodd"/><text font-family="Garamond,Garamond_MSFontService,sans-serif" font-weight="700" font-size="64" transform="matrix(1 0 0 1 3701.05 847)">External Models</text><text font-family="Garamond,Garamond_MSFontService,sans-serif" font-weight="400" font-size="64" transform="matrix(1 0 0 1 4151.36 847)"> </text><path d="M3664.5 277.855C3664.5 271.032 3670.03 265.5 3676.86 265.5L4285.14 265.5C4291.97 265.5 4297.5 271.032 4297.5 277.855L4297.5 379.144C4297.5 385.968 4291.97 391.499 4285.14 391.499L3676.86 391.499C3670.03 391.499 3664.5 385.968 3664.5 379.144Z" stroke="#000000" stroke-width="4.58333" stroke-miterlimit="8" fill="#FFFFFF" fill-rule="evenodd"/><text font-family="Garamond,Garamond_MSFontService,sans-serif" font-weight="700" font-size="64" transform="matrix(1 0 0 1 3701.05 344)">Modelling App</text><text font-family="Garamond,Garamond_MSFontService,sans-serif" font-weight="400" font-size="64" transform="matrix(1 0 0 1 4110.68 344)"> </text><path d="M864.5 326.208 1000.85 326.208 1000.85 458.42 998.556 456.128 1109.7 456.128 1109.7 460.712 996.264 460.712 996.264 328.5 998.556 330.792 864.5 330.792ZM1105.11 444.67 1132.61 458.42 1105.11 472.17Z"/><path d="M0-2.29167 136.348-2.29167 136.348 129.92 134.056 127.628 245.195 127.628 245.195 132.212 131.764 132.212 131.764 0 134.056 2.29167 0 2.29167ZM240.612 116.17 268.112 129.92 240.612 143.67Z" transform="matrix(1 0 0 -1 864.5 588.421)"/><path d="M0-2.29167 118.602-2.29167 118.602 251.594 116.31 249.302 209.703 249.302 209.703 253.885 114.018 253.885 114.018 0 116.31 2.29167 0 2.29167ZM205.12 237.844 232.62 251.594 205.12 265.344Z" transform="matrix(-1 1.22465e-16 1.22465e-16 1 3665.12 328.5)"/><path d="M3665.12 833.386 3546.52 833.386 3546.52 579.5 3548.81 581.792 3455.42 581.792 3455.42 577.208 3551.1 577.208 3551.1 831.094 3548.81 828.802 3665.12 828.802ZM3460 593.25 3432.5 579.5 3460 565.75Z"/><rect x="51.5002" y="1075.5" width="146" height="823" stroke="#000000" stroke-width="4.58333" stroke-miterlimit="8" fill="none"/><text font-family="Garamond,Garamond_MSFontService,sans-serif" font-weight="700" font-size="64" transform="matrix(-1.83697e-16 -1 1 -1.83697e-16 126.209 1732)">CHAP Evaluation</text><text font-family="Garamond,Garamond_MSFontService,sans-serif" font-weight="700" font-size="64" transform="matrix(-1.83697e-16 -1 1 -1.83697e-16 126.209 1240)"> </text><path d="M336.5 1266.65C336.5 1234.53 362.535 1208.5 394.65 1208.5L1882.35 1208.5C1914.47 1208.5 1940.5 1234.53 1940.5 1266.65L1940.5 1743.35C1940.5 1775.47 1914.47 1801.5 1882.35 1801.5L394.65 1801.5C362.535 1801.5 336.5 1775.47 336.5 1743.35Z" stroke="#000000" stroke-width="4.58333" stroke-miterlimit="8" fill="#FFFFFF" fill-rule="evenodd"/><text font-family="Garamond,Garamond_MSFontService,sans-serif" font-weight="700" font-size="64" transform="matrix(1 0 0 1 385.695 1301)">CHAP Cross</text><text font-family="Garamond,Garamond_MSFontService,sans-serif" font-weight="700" font-size="64" transform="matrix(1 0 0 1 734.601 1301)">-</text><text font-family="Garamond,Garamond_MSFontService,sans-serif" font-weight="700" font-size="64" transform="matrix(1 0 0 1 755.799 1301)">Validation &amp; Probabilistic Forecast </text><text font-family="Garamond,Garamond_MSFontService,sans-serif" font-weight="700" font-size="64" transform="matrix(1 0 0 1 385.695 1378)">Engine</text><text font-family="Garamond,Garamond_MSFontService,sans-serif" font-weight="700" font-size="64" transform="matrix(1 0 0 1 585.643 1378)"> </text><text font-family="Arial,Arial_MSFontService,sans-serif" font-weight="400" font-size="64" transform="matrix(1 0 0 1 385.695 1455)">•</text><text font-family="Garamond,Garamond_MSFontService,sans-serif" font-weight="400" font-size="64" transform="matrix(1 0 0 1 447.57 1455)">Rolling</text><text font-family="Garamond,Garamond_MSFontService,sans-serif" font-weight="400" font-size="64" transform="matrix(1 0 0 1 626.32 1455)">-</text><text font-family="Garamond,Garamond_MSFontService,sans-serif" font-weight="400" font-size="64" transform="matrix(1 0 0 1 646.372 1455)">origin (7 windows, 6</text><text font-family="Garamond,Garamond_MSFontService,sans-serif" font-weight="400" font-size="64" transform="matrix(1 0 0 1 1153.98 1455)">-</text><text font-family="Garamond,Garamond_MSFontService,sans-serif" font-weight="400" font-size="64" transform="matrix(1 0 0 1 1174.03 1455)">month horizon)</text><text font-family="Garamond,Garamond_MSFontService,sans-serif" font-weight="400" font-size="64" transform="matrix(1 0 0 1 1569.34 1455)"> </text><text font-family="Arial,Arial_MSFontService,sans-serif" font-weight="400" font-size="64" transform="matrix(1 0 0 1 385.695 1532)">•</text><text font-family="Garamond,Garamond_MSFontService,sans-serif" font-weight="400" font-size="64" transform="matrix(1 0 0 1 447.57 1532)">Forecast distributions</text><text font-family="Garamond,Garamond_MSFontService,sans-serif" font-weight="400" font-size="64" transform="matrix(1 0 0 1 987.83 1532)"> </text><text font-family="Arial,Arial_MSFontService,sans-serif" font-weight="400" font-size="64" transform="matrix(1 0 0 1 385.695 1609)">•</text><text font-family="Garamond,Garamond_MSFontService,sans-serif" font-weight="400" font-size="64" transform="matrix(1 0 0 1 447.57 1609)">1000 sample paths </text><text font-family="Garamond,Garamond_MSFontService,sans-serif" font-weight="400" font-size="64" transform="matrix(1 0 0 1 923.664 1609)"> </text><path d="M2097.5 1266.65C2097.5 1234.53 2123.53 1208.5 2155.65 1208.5L3060.35 1208.5C3092.47 1208.5 3118.5 1234.53 3118.5 1266.65L3118.5 1743.35C3118.5 1775.47 3092.47 1801.5 3060.35 1801.5L2155.65 1801.5C2123.53 1801.5 2097.5 1775.47 2097.5 1743.35Z" stroke="#000000" stroke-width="4.58333" stroke-miterlimit="8" fill="#FFFFFF" fill-rule="evenodd"/><text font-family="Garamond,Garamond_MSFontService,sans-serif" font-weight="700" font-size="64" transform="matrix(1 0 0 1 2147.44 1301)">Forecast Output Objects </text><text font-family="Garamond,Garamond_MSFontService,sans-serif" font-weight="700" font-size="64" transform="matrix(1 0 0 1 2836.66 1301)"> </text><text font-family="Arial,Arial_MSFontService,sans-serif" font-weight="400" font-size="64" transform="matrix(1 0 0 1 2147.44 1378)">•</text><text font-family="Garamond,Garamond_MSFontService,sans-serif" font-weight="400" font-size="64" transform="matrix(1 0 0 1 2209.32 1378)">Mean forecast</text><text font-family="Garamond,Garamond_MSFontService,sans-serif" font-weight="400" font-size="64" transform="matrix(1 0 0 1 2561.09 1378)"> </text><text font-family="Arial,Arial_MSFontService,sans-serif" font-weight="400" font-size="64" transform="matrix(1 0 0 1 2147.44 1455)">•</text><text font-family="Garamond,Garamond_MSFontService,sans-serif" font-weight="400" font-size="64" transform="matrix(1 0 0 1 2209.32 1455)">Sample paths</text><text font-family="Garamond,Garamond_MSFontService,sans-serif" font-weight="400" font-size="64" transform="matrix(1 0 0 1 2540.46 1455)"> </text><text font-family="Arial,Arial_MSFontService,sans-serif" font-weight="400" font-size="64" transform="matrix(1 0 0 1 2147.44 1532)">•</text><text font-family="Garamond,Garamond_MSFontService,sans-serif" font-weight="400" font-size="64" transform="matrix(1 0 0 1 2209.32 1532)">Quantiles</text><text font-family="Garamond,Garamond_MSFontService,sans-serif" font-weight="400" font-size="64" transform="matrix(1 0 0 1 2448.22 1532)"> </text><text font-family="Arial,Arial_MSFontService,sans-serif" font-weight="400" font-size="64" transform="matrix(1 0 0 1 2147.44 1609)">•</text><text font-family="Garamond,Garamond_MSFontService,sans-serif" font-weight="400" font-size="64" transform="matrix(1 0 0 1 2209.32 1609)">(stored as CSV/JSON for </text><text font-family="Garamond,Garamond_MSFontService,sans-serif" font-weight="400" font-size="64" transform="matrix(1 0 0 1 2209.32 1686)">downstream use) </text><text font-family="Garamond,Garamond_MSFontService,sans-serif" font-weight="400" font-size="64" transform="matrix(1 0 0 1 2648.74 1686)"> </text><path d="M3276.5 1266.65C3276.5 1234.53 3302.53 1208.5 3334.65 1208.5L4239.35 1208.5C4271.47 1208.5 4297.5 1234.53 4297.5 1266.65L4297.5 1743.35C4297.5 1775.47 4271.47 1801.5 4239.35 1801.5L3334.65 1801.5C3302.53 1801.5 3276.5 1775.47 3276.5 1743.35Z" stroke="#000000" stroke-width="4.58333" stroke-miterlimit="8" fill="#FFFFFF" fill-rule="evenodd"/><text font-family="Garamond,Garamond_MSFontService,sans-serif" font-weight="700" font-size="64" transform="matrix(1 0 0 1 3326.09 1301)">Forecast Evaluation Objects </text><text font-family="Garamond,Garamond_MSFontService,sans-serif" font-weight="700" font-size="64" transform="matrix(1 0 0 1 4113.28 1301)"> </text><text font-family="Arial,Arial_MSFontService,sans-serif" font-weight="400" font-size="64" transform="matrix(1 0 0 1 3326.09 1378)">•</text><text font-family="Garamond,Garamond_MSFontService,sans-serif" font-weight="400" font-size="64" transform="matrix(1 0 0 1 3387.97 1378)">MASE</text><text font-family="Garamond,Garamond_MSFontService,sans-serif" font-weight="400" font-size="64" transform="matrix(1 0 0 1 3558.12 1378)"> </text><text font-family="Arial,Arial_MSFontService,sans-serif" font-weight="400" font-size="64" transform="matrix(1 0 0 1 3326.09 1455)">•</text><text font-family="Garamond,Garamond_MSFontService,sans-serif" font-weight="400" font-size="64" transform="matrix(1 0 0 1 3387.97 1455)">Quantile loss at q90</text><text font-family="Garamond,Garamond_MSFontService,sans-serif" font-weight="400" font-size="64" transform="matrix(1 0 0 1 3882.39 1455)"> </text><text font-family="Arial,Arial_MSFontService,sans-serif" font-weight="400" font-size="64" transform="matrix(1 0 0 1 3326.09 1532)">•</text><text font-family="Garamond,Garamond_MSFontService,sans-serif" font-weight="400" font-size="64" transform="matrix(1 0 0 1 3387.97 1532)">Coverage at q90</text><text font-family="Garamond,Garamond_MSFontService,sans-serif" font-weight="400" font-size="64" transform="matrix(1 0 0 1 3790.15 1532)"> </text><text font-family="Arial,Arial_MSFontService,sans-serif" font-weight="400" font-size="64" transform="matrix(1 0 0 1 3326.09 1609)">•</text><text font-family="Garamond,Garamond_MSFontService,sans-serif" font-weight="400" font-size="64" transform="matrix(1 0 0 1 3387.97 1609)">(stored as CSV/JSON for </text><text font-family="Garamond,Garamond_MSFontService,sans-serif" font-weight="400" font-size="64" transform="matrix(1 0 0 1 3387.97 1686)">downstream use) </text><text font-family="Garamond,Garamond_MSFontService,sans-serif" font-weight="400" font-size="64" transform="matrix(1 0 0 1 3827.39 1686)"> </text><text font-family="Garamond,Garamond_MSFontService,sans-serif" font-weight="400" font-size="64" transform="matrix(1 0 0 1 3387.97 1763)"> </text><path d="M1538.94 651.5 1538.94 1010.54 1138.5 1010.54 1140.79 1008.24 1140.79 1185.85 1136.21 1185.85 1136.21 1005.95 1536.65 1005.95 1534.36 1008.24 1534.36 651.5ZM1152.25 1181.27 1138.5 1208.77 1124.75 1181.27Z"/><path d="M2767.68 894.5 2767.68 1010.2 1138.5 1010.2 1140.79 1007.91 1140.79 1185.5 1136.21 1185.5 1136.21 1005.61 2765.39 1005.61 2763.09 1007.91 2763.09 894.5ZM1152.25 1180.92 1138.5 1208.42 1124.75 1180.92Z"/><path d="M1940.5 2306.21 2075.21 2306.21 2075.21 2310.79 1940.5 2310.79ZM2070.62 2294.75 2098.12 2308.5 2070.62 2322.25Z"/><path d="M0-2.29167 57.9719-2.29167 57.9719 364.193 55.6803 361.901 1846.79 361.901 1844.49 364.193 1844.49 319.604 1849.08 319.604 1849.08 366.485 53.3886 366.485 53.3886 0 55.6803 2.29167 0 2.29167ZM1833.04 324.187 1846.79 296.687 1860.54 324.187Z" transform="matrix(1 0 0 -1 1940.5 1505.19)"/><rect x="51.5001" y="2030.5" width="146" height="556" stroke="#000000" stroke-width="4.58333" stroke-miterlimit="8" fill="none"/><text font-family="Garamond,Garamond_MSFontService,sans-serif" font-weight="700" font-size="64" transform="matrix(-1.83697e-16 -1 1 -1.83697e-16 126.21 2531)">Inventory Policy</text><text font-family="Garamond,Garamond_MSFontService,sans-serif" font-weight="700" font-size="64" transform="matrix(-1.83697e-16 -1 1 -1.83697e-16 126.21 2086)"> </text><path d="M336.5 2131.65C336.5 2107.82 355.818 2088.5 379.647 2088.5L1897.35 2088.5C1921.18 2088.5 1940.5 2107.82 1940.5 2131.65L1940.5 2485.35C1940.5 2509.18 1921.18 2528.5 1897.35 2528.5L379.647 2528.5C355.818 2528.5 336.5 2509.18 336.5 2485.35Z" stroke="#000000" stroke-width="4.58333" stroke-miterlimit="8" fill="#FFFFFF" fill-rule="evenodd"/><text font-family="Garamond,Garamond_MSFontService,sans-serif" font-weight="700" font-size="64" transform="matrix(1 0 0 1 381.303 2176)">Inventory Policy Simulation (external) </text><text font-family="Garamond,Garamond_MSFontService,sans-serif" font-weight="700" font-size="64" transform="matrix(1 0 0 1 1432.03 2176)"> </text><text font-family="Arial,Arial_MSFontService,sans-serif" font-weight="400" font-size="64" transform="matrix(1 0 0 1 381.303 2253)">•</text><text font-family="Garamond,Garamond_MSFontService,sans-serif" font-weight="400" font-size="64" transform="matrix(1 0 0 1 443.178 2253)">Order</text><text font-family="Garamond,Garamond_MSFontService,sans-serif" font-weight="400" font-size="64" transform="matrix(1 0 0 1 595.001 2253)">-</text><text font-family="Garamond,Garamond_MSFontService,sans-serif" font-weight="400" font-size="64" transform="matrix(1 0 0 1 615.053 2253)">up</text><text font-family="Garamond,Garamond_MSFontService,sans-serif" font-weight="400" font-size="64" transform="matrix(1 0 0 1 679.22 2253)">-</text><text font-family="Garamond,Garamond_MSFontService,sans-serif" font-weight="400" font-size="64" transform="matrix(1 0 0 1 699.272 2253)">to quantile rule (q80</text><text font-family="Garamond,Garamond_MSFontService,sans-serif" font-weight="400" font-size="64" transform="matrix(1 0 0 1 1201.15 2253)">–</text><text font-family="Garamond,Garamond_MSFontService,sans-serif" font-weight="400" font-size="64" transform="matrix(1 0 0 1 1233.23 2253)">q97.5) </text><text font-family="Garamond,Garamond_MSFontService,sans-serif" font-weight="400" font-size="64" transform="matrix(1 0 0 1 1403.96 2253)"> </text><text font-family="Arial,Arial_MSFontService,sans-serif" font-weight="400" font-size="64" transform="matrix(1 0 0 1 381.303 2330)">•</text><text font-family="Garamond,Garamond_MSFontService,sans-serif" font-weight="400" font-size="64" transform="matrix(1 0 0 1 443.178 2330)">1</text><text font-family="Garamond,Garamond_MSFontService,sans-serif" font-weight="400" font-size="64" transform="matrix(1 0 0 1 473.543 2330)">-</text><text font-family="Garamond,Garamond_MSFontService,sans-serif" font-weight="400" font-size="64" transform="matrix(1 0 0 1 493.595 2330)">month lead time </text><text font-family="Garamond,Garamond_MSFontService,sans-serif" font-weight="400" font-size="64" transform="matrix(1 0 0 1 917.553 2330)"> </text><text font-family="Arial,Arial_MSFontService,sans-serif" font-weight="400" font-size="64" transform="matrix(1 0 0 1 381.303 2407)">•</text><text font-family="Garamond,Garamond_MSFontService,sans-serif" font-weight="400" font-size="64" transform="matrix(1 0 0 1 443.178 2407)">Lost</text><text font-family="Garamond,Garamond_MSFontService,sans-serif" font-weight="400" font-size="64" transform="matrix(1 0 0 1 554.897 2407)">-</text><text font-family="Garamond,Garamond_MSFontService,sans-serif" font-weight="400" font-size="64" transform="matrix(1 0 0 1 574.949 2407)">sales model </text><text font-family="Garamond,Garamond_MSFontService,sans-serif" font-weight="400" font-size="64" transform="matrix(1 0 0 1 878.022 2407)"> </text><path d="M2097.5 2131.65C2097.5 2107.82 2116.82 2088.5 2140.65 2088.5L3075.35 2088.5C3099.18 2088.5 3118.5 2107.82 3118.5 2131.65L3118.5 2485.35C3118.5 2509.18 3099.18 2528.5 3075.35 2528.5L2140.65 2528.5C2116.82 2528.5 2097.5 2509.18 2097.5 2485.35Z" stroke="#000000" stroke-width="4.58333" stroke-miterlimit="8" fill="#FFFFFF" fill-rule="evenodd"/><text font-family="Garamond,Garamond_MSFontService,sans-serif" font-weight="700" font-size="64" transform="matrix(1 0 0 1 2143.05 2176)">Inventory Performance</text><text font-family="Garamond,Garamond_MSFontService,sans-serif" font-weight="700" font-size="64" transform="matrix(1 0 0 1 2766.96 2176)"> </text><text font-family="Arial,Arial_MSFontService,sans-serif" font-weight="400" font-size="64" transform="matrix(1 0 0 1 2143.05 2253)">•</text><text font-family="Garamond,Garamond_MSFontService,sans-serif" font-weight="400" font-size="64" transform="matrix(1 0 0 1 2204.93 2253)">Cycle Service Level</text><text font-family="Garamond,Garamond_MSFontService,sans-serif" font-weight="400" font-size="64" transform="matrix(1 0 0 1 2686.18 2253)"> </text><text font-family="Arial,Arial_MSFontService,sans-serif" font-weight="400" font-size="64" transform="matrix(1 0 0 1 2143.05 2330)">•</text><text font-family="Garamond,Garamond_MSFontService,sans-serif" font-weight="400" font-size="64" transform="matrix(1 0 0 1 2204.93 2330)">Stockout Rate </text><text font-family="Garamond,Garamond_MSFontService,sans-serif" font-weight="400" font-size="64" transform="matrix(1 0 0 1 2572.16 2330)"> </text><text font-family="Arial,Arial_MSFontService,sans-serif" font-weight="400" font-size="64" transform="matrix(1 0 0 1 2143.05 2407)">•</text><text font-family="Garamond,Garamond_MSFontService,sans-serif" font-weight="400" font-size="64" transform="matrix(1 0 0 1 2204.93 2407)">Average Inventory </text><text font-family="Garamond,Garamond_MSFontService,sans-serif" font-weight="400" font-size="64" transform="matrix(1 0 0 1 2685.6 2407)"> </text><path d="M2610.99 1801.5 2610.99 1947.12 1138.5 1947.12 1140.79 1944.82 1140.79 2065.23 1136.21 2065.23 1136.21 1942.53 2608.7 1942.53 2606.41 1944.82 2606.41 1801.5ZM1152.25 2060.65 1138.5 2088.15 1124.75 2060.65Z"/><path d="M1940.5 1503.21 2075.21 1503.21 2075.21 1507.79 1940.5 1507.79ZM2070.63 1491.75 2098.13 1505.5 2070.63 1519.25Z"/></g></svg>