<svg width="176" height="53" xmlns="http://www.w3.org/2000/svg" xmlns:xlink="http://www.w3.org/1999/xlink" xml:space="preserve" overflow="hidden"><g transform="translate(-340 -269)"><path d="M55.8859 17.4725 31.7913 1.84626C29.9694 0.752584 27.6929 0.752584 25.871 1.84626L2.47236 17.0153C0.801452 17.9812 0.229863 20.1186 1.19568 21.7896 1.4877 22.2948 1.90158 22.7188 2.39956 23.023L25.8535 39.022C27.6585 40.1679 29.9558 40.196 31.7884 39.0948L55.8859 23.4714C57.5416 22.5212 58.1135 20.4086 57.1633 18.7528 56.8582 18.2213 56.4174 17.7805 55.8859 17.4754ZM29.3859 35.3673C29.0604 35.5067 28.691 35.5014 28.3696 35.3527L5.94648 20.0672 28.2851 5.57082C28.6329 5.42223 29.0264 5.42223 29.3742 5.57082L52.3535 20.4662Z" fill="#0080D4" transform="matrix(1.0073 0 0 1 340 269)"/><path d="M25.871 13.9256 13.1859 22.1493 17.1522 24.8663 28.2851 17.6502C28.6329 17.5016 29.0264 17.5016 29.3742 17.6502L40.8391 25.0818 44.916 22.4435 31.7913 13.9256C29.9688 12.8339 27.6934 12.8339 25.871 13.9256Z" fill="#0080D4" transform="matrix(1.0073 0 0 1 340 269)"/><path d="M55.8859 29.546 53.3757 27.9182 49.2987 30.5565 52.3623 32.5455 29.383 47.4408C29.0589 47.582 28.6907 47.582 28.3667 47.4408L5.94357 32.1524 8.85566 30.2682 4.87484 27.5396 2.47236 29.0947C0.801452 30.0605 0.229863 32.198 1.19568 33.8689 1.4877 34.3741 1.90158 34.7981 2.39956 35.1023L25.8535 51.0955C27.6584 52.2425 29.9569 52.2696 31.7884 51.1654L55.883 35.542C57.5387 34.5918 58.1106 32.4792 57.1604 30.8234 56.8553 30.2919 56.4145 29.8511 55.883 29.546Z" fill="#0080D4" transform="matrix(1.0073 0 0 1 340 269)"/><path d="M85.496 20.5943C84.1545 18.4588 82.1529 17.391 79.4913 17.391 76.9287 17.3481 74.4825 18.4589 72.8284 20.4166 71.0171 22.4959 70.1114 25.2032 70.1114 28.5385 70.1114 31.8738 71.0608 34.6208 72.9594 36.7797 74.6553 38.7888 77.1623 39.9322 79.7912 39.8956 82.5092 39.8956 84.5263 38.5958 85.8425 35.9963L86.4541 39.2841 90.7057 39.2841 90.7057 9.19929 85.496 9.19929ZM85.496 29.8431C85.5374 31.2857 84.9822 32.6815 83.9613 33.7016 82.1923 35.5969 79.2218 35.6992 77.3265 33.9302 77.1423 33.7583 76.9723 33.5718 76.818 33.3725 75.824 32.1611 75.327 30.5614 75.327 28.5734 75.327 26.5854 75.8123 25.0003 76.783 23.818 77.6565 22.6838 79.0121 22.026 80.4435 22.0416 81.9054 22.0416 83.0702 22.4794 83.938 23.3549 84.9248 24.3459 85.4841 25.684 85.496 27.0824Z" fill="#212225" transform="matrix(1.0073 0 0 1 340 269)"/><path d="M107.412 17.3939C104.609 17.3939 102.473 18.7383 101.006 21.4271L101.006 9.19637 95.8426 9.19637 95.8426 39.2695 101.015 39.2695 101.015 29.4121C101.073 26.9562 101.591 25.1119 102.57 23.8791 103.548 22.6463 104.725 22.0329 106.099 22.0387 107.472 22.0387 108.539 22.4405 109.302 23.2443 110.065 24.048 110.445 25.2391 110.441 26.8174L110.441 39.2666 115.61 39.2666 115.61 26.8203C115.61 23.984 114.945 21.7038 113.615 19.9798 112.285 18.2559 110.218 17.3939 107.412 17.3939Z" fill="#212225" transform="matrix(1.0073 0 0 1 340 269)"/><path d="M120.563 17.921 125.735 17.921 125.735 39.2695 120.563 39.2695Z" fill="#212225" transform="matrix(1.0073 0 0 1 340 269)"/><path d="M123.149 8.05775C122.128 8.05775 121.339 8.32857 120.782 8.87022 120.208 9.45992 119.906 10.2619 119.949 11.0834 119.906 11.905 120.208 12.7073 120.782 13.2966 121.338 13.8382 122.127 14.1062 123.149 14.1062 124.171 14.1062 124.926 13.8382 125.494 13.2966 126.08 12.7139 126.391 11.9092 126.35 11.0834 126.391 10.2576 126.08 9.45294 125.494 8.87022 124.929 8.32857 124.142 8.05775 123.149 8.05775Z" fill="#212225" transform="matrix(1.0073 0 0 1 340 269)"/><path d="M143.971 27.8279 138.93 25.9438C137.206 25.4449 136.344 24.6848 136.344 23.6636 136.344 23.0812 136.658 22.5619 137.287 22.1057 137.914 21.6543 138.799 21.4271 139.937 21.4271 141.076 21.4271 141.956 21.6339 142.558 22.0416 143.141 22.4042 143.515 23.0231 143.566 23.7073L148.432 23.7073C148.39 21.9302 147.542 20.2686 146.129 19.1907 144.653 17.9928 142.55 17.3939 139.818 17.3939 137.087 17.3939 134.909 17.9423 133.286 19.0392 131.663 20.1342 130.852 21.5902 130.852 23.4074 130.852 26.1253 132.576 28.0832 136.024 29.281L140.683 30.9438C141.421 31.1435 142.119 31.4707 142.745 31.9107 143.188 32.2747 143.432 32.8286 143.4 33.4016 143.4 34.0423 143.042 34.6073 142.328 35.0877 141.508 35.5987 140.553 35.8504 139.588 35.8099 136.697 35.8099 135.221 34.8024 135.159 32.7872L130.339 32.7872C130.368 35.0392 131.242 36.7865 132.96 38.029 134.678 39.2714 136.96 39.8937 139.806 39.8956 142.641 39.8956 144.92 39.2239 146.644 37.8804 148.31 36.5933 149.143 35.0742 149.143 33.323 149.19 32.0663 148.705 30.848 147.806 29.9683 146.921 29.0966 145.642 28.3832 143.971 27.8279Z" fill="#212225" transform="matrix(1.0073 0 0 1 340 269)"/><path d="M158.435 34.5345 158.435 33.489C158.42 32.7661 158.715 32.0713 159.248 31.5816 159.786 31.072 160.672 30.6526 161.9 30.3323L166.502 29.1908C169.072 28.5462 170.94 27.6318 172.104 26.4476 173.269 25.2633 173.847 23.5899 173.837 21.4271 173.837 19.2664 172.946 17.4551 171.164 15.9932 169.319 14.4731 166.967 13.713 164.105 13.713 161.039 13.713 158.585 14.3702 156.74 15.6845 154.803 17.0881 153.809 19.1052 153.758 21.7358L159.501 21.7358C159.792 19.4062 161.414 18.2413 164.367 18.2413 165.71 18.2413 166.762 18.5626 167.521 19.2052 168.254 19.7902 168.675 20.6814 168.662 21.6193 168.683 22.5314 168.326 23.4116 167.675 24.0509 167.017 24.7091 165.884 25.242 164.277 25.6497L160.104 26.6456C157.733 27.228 156.008 28.1337 154.929 29.3626 153.82 30.6769 153.265 32.5465 153.263 34.9713L153.263 39.2695 173.997 39.2695 173.997 34.5345Z" fill="#212225" transform="matrix(1.0073 0 0 1 340 269)"/></g></svg>