<svg width="4366" height="2694" xmlns="http://www.w3.org/2000/svg" xmlns:xlink="http://www.w3.org/1999/xlink" xml:space="preserve" overflow="hidden"><g transform="translate(-11 -49)"><path d="M3665.5 1307.29C3665.5 1293.6 3676.6 1282.5 3690.29 1282.5L4293.71 1282.5C4307.4 1282.5 4318.5 1293.6 4318.5 1307.29L4318.5 2523.71C4318.5 2537.4 4307.4 2548.5 4293.71 2548.5L3690.29 2548.5C3676.6 2548.5 3665.5 2537.4 3665.5 2523.71Z" stroke="#000000" stroke-width="4.58333" stroke-miterlimit="8" fill="#F2F2F2" fill-rule="evenodd"/><text font-family="Garamond,Garamond_MSFontService,sans-serif" font-weight="700" font-size="46" transform="matrix(1 0 0 1 3730.22 1348)">MODEL GOVERNANCE</text><text font-family="Garamond,Garamond_MSFontService,sans-serif" font-weight="700" font-size="46" transform="matrix(1 0 0 1 4252.72 1348)"> </text><path d="M598.5 97.1661C598.5 71.9454 618.945 51.5001 644.166 51.5001L2102.83 51.5001C2128.05 51.5001 2148.5 71.9454 2148.5 97.1661L2148.5 1208.83C2148.5 1234.05 2128.05 1254.5 2102.83 1254.5L644.166 1254.5C618.945 1254.5 598.5 1234.05 598.5 1208.83Z" stroke="#000000" stroke-width="4.58333" stroke-miterlimit="8" fill="#F2F2F2" fill-rule="evenodd"/><text font-family="Garamond,Garamond_MSFontService,sans-serif" font-weight="700" font-size="46" transform="matrix(1 0 0 1 1226.6 123)">DATA LAYER</text><text font-family="Garamond,Garamond_MSFontService,sans-serif" font-weight="700" font-size="46" transform="matrix(1 0 0 1 1519.93 123)"> </text><path d="M598.5 1435.67C598.5 1409.07 620.067 1387.5 646.671 1387.5L2100.33 1387.5C2126.93 1387.5 2148.5 1409.07 2148.5 1435.67L2148.5 2608.33C2148.5 2634.93 2126.93 2656.5 2100.33 2656.5L646.671 2656.5C620.067 2656.5 598.5 2634.93 598.5 2608.33Z" stroke="#000000" stroke-width="4.58333" stroke-miterlimit="8" fill="#F2F2F2" fill-rule="evenodd"/><text font-family="Garamond,Garamond_MSFontService,sans-serif" font-weight="700" font-size="46" transform="matrix(1 0 0 1 1102.56 1460)">FORECASTING ENGINE</text><text font-family="Garamond,Garamond_MSFontService,sans-serif" font-weight="700" font-size="46" transform="matrix(1 0 0 1 1643.96 1460)"> </text><path d="M2262.5 97.1665C2262.5 71.9456 2282.95 51.5001 2308.17 51.5001L3521.83 51.5001C3547.05 51.5001 3567.5 71.9456 3567.5 97.1665L3567.5 1208.83C3567.5 1234.05 3547.05 1254.5 3521.83 1254.5L2308.17 1254.5C2282.95 1254.5 2262.5 1234.05 2262.5 1208.83Z" stroke="#000000" stroke-width="4.58333" stroke-miterlimit="8" fill="#F2F2F2" fill-rule="evenodd"/><text font-family="Garamond,Garamond_MSFontService,sans-serif" font-weight="700" font-size="46" transform="matrix(1 0 0 1 2667.95 123)">INVENTORY ENGINE</text><text font-family="Garamond,Garamond_MSFontService,sans-serif" font-weight="700" font-size="46" transform="matrix(1 0 0 1 3161.8 123)"> </text><path d="M2262.5 1425.14C2262.5 1405.46 2278.46 1389.5 2298.14 1389.5L3531.85 1389.5C3551.54 1389.5 3567.5 1405.46 3567.5 1425.14L3567.5 2292.85C3567.5 2312.54 3551.54 2328.5 3531.85 2328.5L2298.14 2328.5C2278.46 2328.5 2262.5 2312.54 2262.5 2292.85Z" stroke="#000000" stroke-width="4.58333" stroke-miterlimit="8" fill="#F2F2F2" fill-rule="evenodd"/><text font-family="Garamond,Garamond_MSFontService,sans-serif" font-weight="700" font-size="46" transform="matrix(1 0 0 1 2403.83 1458)">DECISION SUPPORT &amp; DEPLOYMENT LAYER</text><text font-family="Garamond,Garamond_MSFontService,sans-serif" font-weight="700" font-size="46" transform="matrix(1 0 0 1 3425.91 1458)"> </text><path d="M1896.5 1903.21 1914.83 1903.21 1914.83 1907.79 1896.5 1907.79ZM1928.58 1903.21 1946.92 1903.21 1946.92 1907.79 1928.58 1907.79ZM1960.67 1903.21 1979 1903.21 1979 1907.79 1960.67 1907.79ZM1992.75 1903.21 2011.08 1903.21 2011.08 1907.79 1992.75 1907.79ZM2024.83 1903.21 2043.17 1903.21 2043.17 1907.79 2024.83 1907.79ZM2056.92 1903.21 2075.25 1903.21 2075.25 1907.79 2056.92 1907.79ZM2089 1903.21 2107.33 1903.21 2107.33 1907.79 2089 1907.79ZM2121.08 1903.21 2139.42 1903.21 2139.42 1907.79 2121.08 1907.79ZM2153.17 1903.21 2171.5 1903.21 2171.5 1907.79 2153.17 1907.79ZM2185.25 1903.21 2203.58 1903.21 2203.58 1907.79 2185.25 1907.79ZM2217.33 1903.21 2235.67 1903.21 2235.67 1907.79 2217.33 1907.79ZM2242.81 1914.39 2242.81 1932.73 2238.23 1932.73 2238.23 1914.39ZM2242.81 1946.48 2242.81 1964.81 2238.23 1964.81 2238.23 1946.48ZM2242.81 1978.56 2242.81 1996.89 2238.23 1996.89 2238.23 1978.56ZM2242.81 2010.64 2242.81 2028.98 2238.23 2028.98 2238.23 2010.64ZM2242.81 2042.73 2242.81 2061.06 2238.23 2061.06 2238.23 2042.73ZM2242.81 2074.81 2242.81 2093.14 2238.23 2093.14 2238.23 2074.81ZM2242.81 2106.89 2242.81 2125.23 2238.23 2125.23 2238.23 2106.89ZM2242.81 2138.98 2242.81 2157.31 2238.23 2157.31 2238.23 2138.98ZM2242.81 2171.06 2242.81 2189.39 2238.23 2189.39 2238.23 2171.06ZM2242.81 2203.14 2242.81 2221.48 2238.23 2221.48 2238.23 2203.14ZM2242.81 2235.23 2242.81 2253.56 2238.23 2253.56 2238.23 2235.23ZM2242.81 2267.31 2242.81 2285.64 2238.23 2285.64 2238.23 2267.31ZM2242.81 2299.39 2242.81 2317.73 2238.23 2317.73 2238.23 2299.39ZM2242.81 2331.48 2242.81 2349.81 2238.23 2349.81 2238.23 2331.48ZM2242.81 2363.56 2242.81 2381.89 2238.23 2381.89 2238.23 2363.56ZM2242.81 2395.64 2242.81 2413.98 2238.23 2413.98 2238.23 2395.64ZM2242.81 2427.73 2242.81 2446.06 2238.23 2446.06 2238.23 2427.73ZM2242.81 2459.81 2242.81 2478.14 2238.23 2478.14 2238.23 2459.81ZM2242.81 2491.89 2242.81 2504.37 2240.52 2502.08 2246.38 2502.08 2246.38 2506.66 2238.23 2506.66 2238.23 2491.89ZM2260.13 2502.08 2278.46 2502.08 2278.46 2506.66 2260.13 2506.66ZM2292.21 2502.08 2310.54 2502.08 2310.54 2506.66 2292.21 2506.66ZM2324.29 2502.08 2342.63 2502.08 2342.63 2506.66 2324.29 2506.66ZM2356.38 2502.08 2374.71 2502.08 2374.71 2506.66 2356.38 2506.66ZM2388.46 2502.08 2406.79 2502.08 2406.79 2506.66 2388.46 2506.66ZM2420.54 2502.08 2438.88 2502.08 2438.88 2506.66 2420.54 2506.66ZM2452.63 2502.08 2470.96 2502.08 2470.96 2506.66 2452.63 2506.66ZM2484.71 2502.08 2503.04 2502.08 2503.04 2506.66 2484.71 2506.66ZM2516.79 2502.08 2535.13 2502.08 2535.13 2506.66 2516.79 2506.66ZM2548.88 2502.08 2567.21 2502.08 2567.21 2506.66 2548.88 2506.66ZM2580.96 2502.08 2599.29 2502.08 2599.29 2506.66 2580.96 2506.66ZM2613.04 2502.08 2631.38 2502.08 2631.38 2506.66 2613.04 2506.66ZM2645.13 2502.08 2663.46 2502.08 2663.46 2506.66 2645.13 2506.66ZM2677.21 2502.08 2695.54 2502.08 2695.54 2506.66 2677.21 2506.66ZM2709.29 2502.08 2727.63 2502.08 2727.63 2506.66 2709.29 2506.66ZM2741.38 2502.08 2759.71 2502.08 2759.71 2506.66 2741.38 2506.66ZM2773.46 2502.08 2791.79 2502.08 2791.79 2506.66 2773.46 2506.66ZM2805.54 2502.08 2823.88 2502.08 2823.88 2506.66 2805.54 2506.66ZM2837.63 2502.08 2855.96 2502.08 2855.96 2506.66 2837.63 2506.66ZM2869.71 2502.08 2888.04 2502.08 2888.04 2506.66 2869.71 2506.66ZM2901.79 2502.08 2920.13 2502.08 2920.13 2506.66 2901.79 2506.66ZM2933.88 2502.08 2952.21 2502.08 2952.21 2506.66 2933.88 2506.66ZM2965.96 2502.08 2984.29 2502.08 2984.29 2506.66 2965.96 2506.66ZM2998.04 2502.08 3016.38 2502.08 3016.38 2506.66 2998.04 2506.66ZM3030.13 2502.08 3048.46 2502.08 3048.46 2506.66 3030.13 2506.66ZM3062.21 2502.08 3080.54 2502.08 3080.54 2506.66 3062.21 2506.66ZM3094.29 2502.08 3112.63 2502.08 3112.63 2506.66 3094.29 2506.66ZM3126.38 2502.08 3144.71 2502.08 3144.71 2506.66 3126.38 2506.66ZM3158.46 2502.08 3176.79 2502.08 3176.79 2506.66 3158.46 2506.66ZM3190.54 2502.08 3208.88 2502.08 3208.88 2506.66 3190.54 2506.66ZM3222.63 2502.08 3240.96 2502.08 3240.96 2506.66 3222.63 2506.66ZM3254.71 2502.08 3273.04 2502.08 3273.04 2506.66 3254.71 2506.66ZM3286.79 2502.08 3305.13 2502.08 3305.13 2506.66 3286.79 2506.66ZM3318.88 2502.08 3337.21 2502.08 3337.21 2506.66 3318.88 2506.66ZM3350.96 2502.08 3369.29 2502.08 3369.29 2506.66 3350.96 2506.66ZM3383.04 2502.08 3401.38 2502.08 3401.38 2506.66 3383.04 2506.66ZM3415.13 2502.08 3433.46 2502.08 3433.46 2506.66 3415.13 2506.66ZM3447.21 2502.08 3465.54 2502.08 3465.54 2506.66 3447.21 2506.66ZM3479.29 2502.08 3497.63 2502.08 3497.63 2506.66 3479.29 2506.66ZM3511.38 2502.08 3529.71 2502.08 3529.71 2506.66 3511.38 2506.66ZM3543.46 2502.08 3561.79 2502.08 3561.79 2506.66 3543.46 2506.66ZM3575.54 2502.08 3593.88 2502.08 3593.88 2506.66 3575.54 2506.66ZM3607.63 2502.08 3625.96 2502.08 3625.96 2506.66 3607.63 2506.66ZM3639.71 2502.08 3658.04 2502.08 3658.04 2506.66 3639.71 2506.66ZM3671.79 2502.08 3690.13 2502.08 3690.13 2506.66 3671.79 2506.66ZM3703.88 2502.08 3722.21 2502.08 3722.21 2506.66 3703.88 2506.66ZM3735.96 2502.08 3754.29 2502.08 3754.29 2506.66 3735.96 2506.66ZM3768.04 2502.08 3786.38 2502.08 3786.38 2506.66 3768.04 2506.66ZM3800.13 2502.08 3818.46 2502.08 3818.46 2506.66 3800.13 2506.66ZM3832.21 2502.08 3850.54 2502.08 3850.54 2506.66 3832.21 2506.66ZM3852.55 2494.92 3852.55 2476.59 3857.13 2476.59 3857.13 2494.92ZM3852.55 2462.84 3852.55 2450.9 3857.13 2450.9 3857.13 2462.84ZM3841.09 2455.48 3854.84 2427.98 3868.59 2455.48Z"/><path d="M2033.5 2206.21 2051.83 2206.21 2051.83 2210.79 2033.5 2210.79ZM2065.58 2206.21 2083.92 2206.21 2083.92 2210.79 2065.58 2210.79ZM2097.67 2206.21 2116 2206.21 2116 2210.79 2097.67 2210.79ZM2129.75 2206.21 2148.08 2206.21 2148.08 2210.79 2129.75 2210.79ZM2161.83 2206.21 2180.17 2206.21 2180.17 2210.79 2161.83 2210.79ZM2193.92 2206.21 2212.25 2206.21 2212.25 2210.79 2193.92 2210.79ZM2214.81 2221.98 2214.81 2240.31 2210.23 2240.31 2210.23 2221.98ZM2214.81 2254.06 2214.81 2272.39 2210.23 2272.39 2210.23 2254.06ZM2214.81 2286.14 2214.81 2304.48 2210.23 2304.48 2210.23 2286.14ZM2214.81 2318.23 2214.81 2336.56 2210.23 2336.56 2210.23 2318.23ZM2214.81 2350.31 2214.81 2368.64 2210.23 2368.64 2210.23 2350.31ZM2214.81 2382.39 2214.81 2400.73 2210.23 2400.73 2210.23 2382.39ZM2214.81 2414.48 2214.81 2432.81 2210.23 2432.81 2210.23 2414.48ZM2214.81 2446.56 2214.81 2464.89 2210.23 2464.89 2210.23 2446.56ZM2214.81 2478.64 2214.81 2496.98 2210.23 2496.98 2210.23 2478.64ZM2214.81 2510.73 2214.81 2529.06 2210.23 2529.06 2210.23 2510.73ZM2214.81 2542.81 2214.81 2561.14 2210.23 2561.14 2210.23 2542.81ZM2214.81 2574.89 2214.81 2593.23 2210.23 2593.23 2210.23 2574.89ZM2214.81 2606.98 2214.81 2625.31 2210.23 2625.31 2210.23 2606.98ZM2214.81 2639.06 2214.81 2645.2 2212.52 2642.91 2224.72 2642.91 2224.72 2647.49 2210.23 2647.49 2210.23 2639.06ZM2238.47 2642.91 2256.8 2642.91 2256.8 2647.49 2238.47 2647.49ZM2270.55 2642.91 2288.89 2642.91 2288.89 2647.49 2270.55 2647.49ZM2302.64 2642.91 2320.97 2642.91 2320.97 2647.49 2302.64 2647.49ZM2334.72 2642.91 2353.05 2642.91 2353.05 2647.49 2334.72 2647.49ZM2366.8 2642.91 2385.14 2642.91 2385.14 2647.49 2366.8 2647.49ZM2398.89 2642.91 2417.22 2642.91 2417.22 2647.49 2398.89 2647.49ZM2430.97 2642.91 2449.3 2642.91 2449.3 2647.49 2430.97 2647.49ZM2463.05 2642.91 2481.39 2642.91 2481.39 2647.49 2463.05 2647.49ZM2495.14 2642.91 2513.47 2642.91 2513.47 2647.49 2495.14 2647.49ZM2527.22 2642.91 2545.55 2642.91 2545.55 2647.49 2527.22 2647.49ZM2559.3 2642.91 2577.64 2642.91 2577.64 2647.49 2559.3 2647.49ZM2591.39 2642.91 2609.72 2642.91 2609.72 2647.49 2591.39 2647.49ZM2623.47 2642.91 2641.8 2642.91 2641.8 2647.49 2623.47 2647.49ZM2655.55 2642.91 2673.89 2642.91 2673.89 2647.49 2655.55 2647.49ZM2687.64 2642.91 2705.97 2642.91 2705.97 2647.49 2687.64 2647.49ZM2719.72 2642.91 2738.05 2642.91 2738.05 2647.49 2719.72 2647.49ZM2751.8 2642.91 2770.14 2642.91 2770.14 2647.49 2751.8 2647.49ZM2783.89 2642.91 2802.22 2642.91 2802.22 2647.49 2783.89 2647.49ZM2815.97 2642.91 2834.3 2642.91 2834.3 2647.49 2815.97 2647.49ZM2848.05 2642.91 2866.39 2642.91 2866.39 2647.49 2848.05 2647.49ZM2880.14 2642.91 2898.47 2642.91 2898.47 2647.49 2880.14 2647.49ZM2912.22 2642.91 2930.55 2642.91 2930.55 2647.49 2912.22 2647.49ZM2944.3 2642.91 2962.64 2642.91 2962.64 2647.49 2944.3 2647.49ZM2976.39 2642.91 2994.72 2642.91 2994.72 2647.49 2976.39 2647.49ZM3008.47 2642.91 3026.8 2642.91 3026.8 2647.49 3008.47 2647.49ZM3040.55 2642.91 3058.89 2642.91 3058.89 2647.49 3040.55 2647.49ZM3072.64 2642.91 3090.97 2642.91 3090.97 2647.49 3072.64 2647.49ZM3104.72 2642.91 3123.05 2642.91 3123.05 2647.49 3104.72 2647.49ZM3136.8 2642.91 3155.14 2642.91 3155.14 2647.49 3136.8 2647.49ZM3168.89 2642.91 3187.22 2642.91 3187.22 2647.49 3168.89 2647.49ZM3200.97 2642.91 3219.3 2642.91 3219.3 2647.49 3200.97 2647.49ZM3233.05 2642.91 3251.39 2642.91 3251.39 2647.49 3233.05 2647.49ZM3265.14 2642.91 3283.47 2642.91 3283.47 2647.49 3265.14 2647.49ZM3297.22 2642.91 3315.55 2642.91 3315.55 2647.49 3297.22 2647.49ZM3329.3 2642.91 3347.64 2642.91 3347.64 2647.49 3329.3 2647.49ZM3361.39 2642.91 3379.72 2642.91 3379.72 2647.49 3361.39 2647.49ZM3393.47 2642.91 3411.8 2642.91 3411.8 2647.49 3393.47 2647.49ZM3425.55 2642.91 3443.89 2642.91 3443.89 2647.49 3425.55 2647.49ZM3457.64 2642.91 3475.97 2642.91 3475.97 2647.49 3457.64 2647.49ZM3489.72 2642.91 3508.05 2642.91 3508.05 2647.49 3489.72 2647.49ZM3521.8 2642.91 3540.14 2642.91 3540.14 2647.49 3521.8 2647.49ZM3553.89 2642.91 3572.22 2642.91 3572.22 2647.49 3553.89 2647.49ZM3585.97 2642.91 3604.3 2642.91 3604.3 2647.49 3585.97 2647.49ZM3618.05 2642.91 3636.39 2642.91 3636.39 2647.49 3618.05 2647.49ZM3650.14 2642.91 3668.47 2642.91 3668.47 2647.49 3650.14 2647.49ZM3682.22 2642.91 3700.55 2642.91 3700.55 2647.49 3682.22 2647.49ZM3714.3 2642.91 3732.64 2642.91 3732.64 2647.49 3714.3 2647.49ZM3746.39 2642.91 3764.72 2642.91 3764.72 2647.49 3746.39 2647.49ZM3778.47 2642.91 3796.8 2642.91 3796.8 2647.49 3778.47 2647.49ZM3810.55 2642.91 3828.89 2642.91 3828.89 2647.49 3810.55 2647.49ZM3842.64 2642.91 3860.97 2642.91 3860.97 2647.49 3842.64 2647.49ZM3874.72 2642.91 3893.05 2642.91 3893.05 2647.49 3874.72 2647.49ZM3906.8 2642.91 3925.14 2642.91 3925.14 2647.49 3906.8 2647.49ZM3928.44 2637.04 3928.44 2618.71 3933.02 2618.71 3933.02 2637.04ZM3928.44 2604.96 3928.44 2586.63 3933.02 2586.63 3933.02 2604.96ZM3928.44 2572.88 3928.44 2554.54 3933.02 2554.54 3933.02 2572.88ZM3928.44 2540.79 3928.44 2522.46 3933.02 2522.46 3933.02 2540.79ZM3928.44 2508.71 3928.44 2490.38 3933.02 2490.38 3933.02 2508.71ZM3928.44 2476.63 3928.44 2458.29 3933.02 2458.29 3933.02 2476.63ZM3916.98 2455.75 3930.73 2428.25 3944.48 2455.75Z"/><path d="M1424.5 225.075C1424.5 206.532 1439.53 191.5 1458.07 191.5L2060.93 191.5C2079.47 191.5 2094.5 206.532 2094.5 225.075L2094.5 797.925C2094.5 816.468 2079.47 831.5 2060.93 831.5L1458.07 831.5C1439.53 831.5 1424.5 816.468 1424.5 797.925Z" stroke="#000000" stroke-width="4.58333" stroke-miterlimit="8" fill="#FFFFFF" fill-rule="evenodd"/><text font-family="Garamond,Garamond_MSFontService,sans-serif" font-weight="700" font-size="46" transform="matrix(1 0 0 1 1466.73 259)">DHIS2 Health Data </text><text font-family="Garamond,Garamond_MSFontService,sans-serif" font-weight="700" font-size="46" transform="matrix(1 0 0 1 1868.34 259)"> </text><text font-family="Arial,Arial_MSFontService,sans-serif" font-weight="400" font-size="46" transform="matrix(1 0 0 1 1466.73 314)">•</text><text font-family="Garamond,Garamond_MSFontService,sans-serif" font-weight="400" font-size="46" transform="matrix(1 0 0 1 1528.6 314)">Morbidity cases (e.g., dengue, </text><text font-family="Garamond,Garamond_MSFontService,sans-serif" font-weight="400" font-size="46" transform="matrix(1 0 0 1 1528.6 369)">malaria)</text><text font-family="Garamond,Garamond_MSFontService,sans-serif" font-weight="400" font-size="46" transform="matrix(1 0 0 1 1668.96 369)"> </text><text font-family="Arial,Arial_MSFontService,sans-serif" font-weight="400" font-size="46" transform="matrix(1 0 0 1 1466.73 424)">•</text><text font-family="Garamond,Garamond_MSFontService,sans-serif" font-weight="400" font-size="46" transform="matrix(1 0 0 1 1528.6 424)">Routine logistics data </text><text font-family="Garamond,Garamond_MSFontService,sans-serif" font-weight="400" font-size="46" transform="matrix(1 0 0 1 1528.6 479)">(dispensed, stock on hand, </text><text font-family="Garamond,Garamond_MSFontService,sans-serif" font-weight="400" font-size="46" transform="matrix(1 0 0 1 1528.6 534)">orders, stockouts)</text><text font-family="Garamond,Garamond_MSFontService,sans-serif" font-weight="400" font-size="46" transform="matrix(1 0 0 1 1844.85 534)"> </text><text font-family="Arial,Arial_MSFontService,sans-serif" font-weight="400" font-size="46" transform="matrix(1 0 0 1 1466.73 589)">•</text><text font-family="Garamond,Garamond_MSFontService,sans-serif" font-weight="400" font-size="46" transform="matrix(1 0 0 1 1528.6 589)">Facility metadata (location </text><text font-family="Garamond,Garamond_MSFontService,sans-serif" font-weight="400" font-size="46" transform="matrix(1 0 0 1 1528.6 644)">master, product master, </text><text font-family="Garamond,Garamond_MSFontService,sans-serif" font-weight="400" font-size="46" transform="matrix(1 0 0 1 1528.6 699)">event master)</text><text font-family="Garamond,Garamond_MSFontService,sans-serif" font-weight="400" font-size="46" transform="matrix(1 0 0 1 1768.08 699)"> </text><text font-family="Arial,Arial_MSFontService,sans-serif" font-weight="400" font-size="46" transform="matrix(1 0 0 1 1466.73 754)">•</text><text font-family="Garamond,Garamond_MSFontService,sans-serif" font-weight="400" font-size="46" transform="matrix(1 0 0 1 1528.6 754)">Patient registry/ </text><text font-family="Garamond,Garamond_MSFontService,sans-serif" font-weight="400" font-size="46" transform="matrix(1 0 0 1 1528.6 809)">demographic data</text><text font-family="Garamond,Garamond_MSFontService,sans-serif" font-weight="400" font-size="46" transform="matrix(1 0 0 1 1845.42 809)"> </text><path d="M13.4999 651.129C13.4999 646.363 17.3633 642.5 22.129 642.5L473.871 642.5C478.637 642.5 482.5 646.363 482.5 651.129L482.5 721.871C482.5 726.637 478.637 730.5 473.871 730.5L22.129 730.5C17.3633 730.5 13.4999 726.637 13.4999 721.871Z" stroke="#000000" stroke-width="4.58333" stroke-miterlimit="8" fill="none" fill-rule="evenodd"/><text font-family="Garamond,Garamond_MSFontService,sans-serif" font-weight="700" font-size="46" transform="matrix(1 0 0 1 48.6339 703)">Climate App</text><text font-family="Garamond,Garamond_MSFontService,sans-serif" font-weight="400" font-size="46" transform="matrix(1 0 0 1 292.696 703)"> </text><path d="M13.4999 289.129C13.4999 284.363 17.3633 280.5 22.129 280.5L473.871 280.5C478.637 280.5 482.5 284.363 482.5 289.129L482.5 359.871C482.5 364.637 478.637 368.5 473.871 368.5L22.129 368.5C17.3633 368.5 13.4999 364.637 13.4999 359.871Z" stroke="#000000" stroke-width="4.58333" stroke-miterlimit="8" fill="none" fill-rule="evenodd"/><text font-family="Garamond,Garamond_MSFontService,sans-serif" font-weight="700" font-size="46" transform="matrix(1 0 0 1 48.6335 341)">Local LMIS</text><text font-family="Garamond,Garamond_MSFontService,sans-serif" font-weight="400" font-size="46" transform="matrix(1 0 0 1 281.238 341)"> </text><path d="M660.5 795.126C660.5 776.555 675.555 761.5 694.126 761.5L1296.87 761.5C1315.45 761.5 1330.5 776.555 1330.5 795.126L1330.5 1187.87C1330.5 1206.44 1315.45 1221.5 1296.87 1221.5L694.126 1221.5C675.555 1221.5 660.5 1206.44 660.5 1187.87Z" stroke="#000000" stroke-width="4.58333" stroke-miterlimit="8" fill="#FFFFFF" fill-rule="evenodd"/><text font-family="Garamond,Garamond_MSFontService,sans-serif" font-weight="700" font-size="46" transform="matrix(1 0 0 1 702.93 830)">DHIS2 Climate App Inputs</text><text font-family="Garamond,Garamond_MSFontService,sans-serif" font-weight="700" font-size="46" transform="matrix(1 0 0 1 1236.31 830)"> </text><text font-family="Arial,Arial_MSFontService,sans-serif" font-weight="400" font-size="46" transform="matrix(1 0 0 1 702.93 885)">•</text><text font-family="Garamond,Garamond_MSFontService,sans-serif" font-weight="400" font-size="46" transform="matrix(1 0 0 1 764.805 885)">Rainfall (lagged)</text><text font-family="Garamond,Garamond_MSFontService,sans-serif" font-weight="400" font-size="46" transform="matrix(1 0 0 1 1050.12 885)"> </text><text font-family="Arial,Arial_MSFontService,sans-serif" font-weight="400" font-size="46" transform="matrix(1 0 0 1 702.93 940)">•</text><text font-family="Garamond,Garamond_MSFontService,sans-serif" font-weight="400" font-size="46" transform="matrix(1 0 0 1 764.805 940)">Temperature</text><text font-family="Garamond,Garamond_MSFontService,sans-serif" font-weight="400" font-size="46" transform="matrix(1 0 0 1 993.971 940)"> </text><text font-family="Arial,Arial_MSFontService,sans-serif" font-weight="400" font-size="46" transform="matrix(1 0 0 1 702.93 995)">•</text><text font-family="Garamond,Garamond_MSFontService,sans-serif" font-weight="400" font-size="46" transform="matrix(1 0 0 1 764.805 995)">Climate anomalies (ENSO, </text><text font-family="Garamond,Garamond_MSFontService,sans-serif" font-weight="400" font-size="46" transform="matrix(1 0 0 1 764.805 1050)">PDSI)</text><text font-family="Garamond,Garamond_MSFontService,sans-serif" font-weight="400" font-size="46" transform="matrix(1 0 0 1 877.096 1050)"> </text><text font-family="Arial,Arial_MSFontService,sans-serif" font-weight="400" font-size="46" transform="matrix(1 0 0 1 702.93 1105)">•</text><text font-family="Garamond,Garamond_MSFontService,sans-serif" font-weight="400" font-size="46" transform="matrix(1 0 0 1 764.805 1105)">Harmonisation with admin/ </text><text font-family="Garamond,Garamond_MSFontService,sans-serif" font-weight="400" font-size="46" transform="matrix(1 0 0 1 764.805 1160)">health facility boundaries</text><text font-family="Garamond,Garamond_MSFontService,sans-serif" font-weight="400" font-size="46" transform="matrix(1 0 0 1 1206.52 1160)"> </text><path d="M13.4999 70.1701C13.4999 60.9635 20.9633 53.5001 30.1698 53.5001L465.83 53.5001C475.037 53.5001 482.5 60.9635 482.5 70.1701L482.5 206.83C482.5 216.037 475.037 223.5 465.83 223.5L30.1698 223.5C20.9633 223.5 13.4999 216.037 13.4999 206.83Z" stroke="#000000" stroke-width="4.58333" stroke-miterlimit="8" fill="none" fill-rule="evenodd"/><text font-family="Garamond,Garamond_MSFontService,sans-serif" font-weight="700" font-size="46" transform="matrix(1 0 0 1 51.0071 116)">Local Stakeholder </text><text font-family="Garamond,Garamond_MSFontService,sans-serif" font-weight="700" font-size="46" transform="matrix(1 0 0 1 51.0071 171)">Inputs</text><text font-family="Garamond,Garamond_MSFontService,sans-serif" font-weight="700" font-size="46" transform="matrix(1 0 0 1 178.195 171)"> </text><path d="M0.00745833-2.29165 155.177-1.78664 155.162 2.79666-0.00745833 2.29165ZM150.631-13.2598 178.086 0.579593 150.542 14.24Z" transform="matrix(1 0 0 -1 482.5 1690.08)"/><path d="M660.5 222.501C660.5 205.379 674.379 191.5 691.5 191.5L1299.5 191.5C1316.62 191.5 1330.5 205.379 1330.5 222.501L1330.5 652.499C1330.5 669.62 1316.62 683.5 1299.5 683.5L691.5 683.5C674.379 683.5 660.5 669.62 660.5 652.499Z" stroke="#000000" stroke-width="4.58333" stroke-miterlimit="8" fill="#FFFFFF" fill-rule="evenodd"/><text font-family="Garamond,Garamond_MSFontService,sans-serif" font-weight="700" font-size="46" transform="matrix(1 0 0 1 702.175 258)">Pre</text><text font-family="Garamond,Garamond_MSFontService,sans-serif" font-weight="700" font-size="46" transform="matrix(1 0 0 1 767.488 258)">-</text><text font-family="Garamond,Garamond_MSFontService,sans-serif" font-weight="700" font-size="46" transform="matrix(1 0 0 1 782.957 258)">processing</text><text font-family="Garamond,Garamond_MSFontService,sans-serif" font-weight="700" font-size="46" transform="matrix(1 0 0 1 992.071 258)"> </text><text font-family="Arial,Arial_MSFontService,sans-serif" font-weight="400" font-size="46" transform="matrix(1 0 0 1 702.175 313)">•</text><text font-family="Garamond,Garamond_MSFontService,sans-serif" font-weight="400" font-size="46" transform="matrix(1 0 0 1 764.05 313)">Fill gaps using 0 or NA </text><text font-family="Garamond,Garamond_MSFontService,sans-serif" font-weight="400" font-size="46" transform="matrix(1 0 0 1 764.05 368)">depending on domain</text><text font-family="Garamond,Garamond_MSFontService,sans-serif" font-weight="400" font-size="46" transform="matrix(1 0 0 1 1153.06 368)"> </text><text font-family="Arial,Arial_MSFontService,sans-serif" font-weight="400" font-size="46" transform="matrix(1 0 0 1 702.175 423)">•</text><text font-family="Garamond,Garamond_MSFontService,sans-serif" font-weight="400" font-size="46" transform="matrix(1 0 0 1 764.05 423)">Detect structural zeros (e.g., </text><text font-family="Garamond,Garamond_MSFontService,sans-serif" font-weight="400" font-size="46" transform="matrix(1 0 0 1 764.05 478)">service interruptions)</text><text font-family="Garamond,Garamond_MSFontService,sans-serif" font-weight="400" font-size="46" transform="matrix(1 0 0 1 1139.31 478)"> </text><text font-family="Arial,Arial_MSFontService,sans-serif" font-weight="400" font-size="46" transform="matrix(1 0 0 1 702.175 533)">•</text><text font-family="Garamond,Garamond_MSFontService,sans-serif" font-weight="400" font-size="46" transform="matrix(1 0 0 1 764.05 533)">Define supply chain </text><text font-family="Garamond,Garamond_MSFontService,sans-serif" font-weight="400" font-size="46" transform="matrix(1 0 0 1 764.05 588)">covariates</text><text font-family="Garamond,Garamond_MSFontService,sans-serif" font-weight="400" font-size="46" transform="matrix(1 0 0 1 939.363 588)"> </text><path d="M482.5 322.208 573.835 322.208 573.835 436.896 571.543 434.604 637.67 434.604 637.67 439.188 569.252 439.188 569.252 324.5 571.543 326.792 482.5 326.792ZM633.086 423.146 660.586 436.896 633.086 450.646Z"/><path d="M482.5 684.208 573.835 684.208 573.835 991.298 571.543 989.007 637.67 989.007 637.67 993.59 569.252 993.59 569.252 686.5 571.543 688.792 482.5 688.792ZM633.086 977.548 660.586 991.298 633.086 1005.05Z"/><path d="M1424.5 928.763C1424.5 919.781 1431.78 912.5 1440.76 912.5L2078.24 912.5C2087.22 912.5 2094.5 919.781 2094.5 928.763L2094.5 1206.24C2094.5 1215.22 2087.22 1222.5 2078.24 1222.5L1440.76 1222.5C1431.78 1222.5 1424.5 1215.22 1424.5 1206.24Z" stroke="#000000" stroke-width="4.58333" stroke-miterlimit="8" fill="#FFFFFF" fill-rule="evenodd"/><text font-family="Garamond,Garamond_MSFontService,sans-serif" font-weight="700" font-size="46" transform="matrix(1 0 0 1 1461.65 975)">Data Harmonization</text><text font-family="Garamond,Garamond_MSFontService,sans-serif" font-weight="700" font-size="46" transform="matrix(1 0 0 1 1864.41 975)"> </text><text font-family="Arial,Arial_MSFontService,sans-serif" font-weight="400" font-size="46" transform="matrix(1 0 0 1 1461.65 1030)">•</text><text font-family="Garamond,Garamond_MSFontService,sans-serif" font-weight="400" font-size="46" transform="matrix(1 0 0 1 1523.52 1030)">Harmonised covariates</text><text font-family="Garamond,Garamond_MSFontService,sans-serif" font-weight="400" font-size="46" transform="matrix(1 0 0 1 1930.87 1030)"> </text><text font-family="Arial,Arial_MSFontService,sans-serif" font-weight="400" font-size="46" transform="matrix(1 0 0 1 1461.65 1085)">•</text><text font-family="Garamond,Garamond_MSFontService,sans-serif" font-weight="400" font-size="46" transform="matrix(1 0 0 1 1523.52 1085)">Metadata JSON per series </text><text font-family="Garamond,Garamond_MSFontService,sans-serif" font-weight="400" font-size="46" transform="matrix(1 0 0 1 1523.52 1140)">(product master and location </text><text font-family="Garamond,Garamond_MSFontService,sans-serif" font-weight="400" font-size="46" transform="matrix(1 0 0 1 1523.52 1195)">master)</text><text font-family="Garamond,Garamond_MSFontService,sans-serif" font-weight="400" font-size="46" transform="matrix(1 0 0 1 1654.72 1195)"> </text><path d="M1330.5 1060.21 1401.02 1060.21 1401.02 1064.79 1330.5 1064.79ZM1396.44 1048.75 1423.94 1062.5 1396.44 1076.25Z"/><path d="M1761.79 831.5 1761.79 889.703 1757.21 889.703 1757.21 831.5ZM1773.25 885.119 1759.5 912.619 1745.75 885.119Z"/><path d="M660.5 1546.98C660.5 1535.67 669.668 1526.5 680.978 1526.5L1310.02 1526.5C1321.33 1526.5 1330.5 1535.67 1330.5 1546.98L1330.5 1831.02C1330.5 1842.33 1321.33 1851.5 1310.02 1851.5L680.978 1851.5C669.668 1851.5 660.5 1842.33 660.5 1831.02Z" stroke="#000000" stroke-width="4.58333" stroke-miterlimit="8" fill="#FFFFFF" fill-rule="evenodd"/><text font-family="Garamond,Garamond_MSFontService,sans-serif" font-weight="700" font-size="46" transform="matrix(1 0 0 1 699.094 1591)">Model Registry</text><text font-family="Garamond,Garamond_MSFontService,sans-serif" font-weight="700" font-size="46" transform="matrix(1 0 0 1 997.011 1591)"> </text><text font-family="Arial,Arial_MSFontService,sans-serif" font-weight="400" font-size="46" transform="matrix(1 0 0 1 699.094 1646)">•</text><text font-family="Garamond,Garamond_MSFontService,sans-serif" font-weight="400" font-size="46" transform="matrix(1 0 0 1 760.969 1646)">Model components</text><text font-family="Garamond,Garamond_MSFontService,sans-serif" font-weight="400" font-size="46" transform="matrix(1 0 0 1 1107.01 1646)"> </text><text font-family="Arial,Arial_MSFontService,sans-serif" font-weight="400" font-size="46" transform="matrix(1 0 0 1 699.094 1701)">•</text><text font-family="Garamond,Garamond_MSFontService,sans-serif" font-weight="400" font-size="46" transform="matrix(1 0 0 1 760.969 1701)">Model configuration (YAML)</text><text font-family="Garamond,Garamond_MSFontService,sans-serif" font-weight="400" font-size="46" transform="matrix(1 0 0 1 1288.63 1701)"> </text><text font-family="Arial,Arial_MSFontService,sans-serif" font-weight="400" font-size="46" transform="matrix(1 0 0 1 699.094 1756)">•</text><text font-family="Garamond,Garamond_MSFontService,sans-serif" font-weight="400" font-size="46" transform="matrix(1 0 0 1 760.969 1756)">Define adopters for </text><text font-family="Garamond,Garamond_MSFontService,sans-serif" font-weight="400" font-size="46" transform="matrix(1 0 0 1 760.969 1811)">covariates</text><text font-family="Garamond,Garamond_MSFontService,sans-serif" font-weight="400" font-size="46" transform="matrix(1 0 0 1 936.281 1811)"> </text><path d="M13.4999 1549.3C13.4999 1536.71 23.7081 1526.5 36.3006 1526.5L459.699 1526.5C472.292 1526.5 482.5 1536.71 482.5 1549.3L482.5 1829.7C482.5 1842.29 472.292 1852.5 459.699 1852.5L36.3006 1852.5C23.7081 1852.5 13.4999 1842.29 13.4999 1829.7Z" stroke="#000000" stroke-width="4.58333" stroke-miterlimit="8" fill="none" fill-rule="evenodd"/><text font-family="Garamond,Garamond_MSFontService,sans-serif" font-weight="700" font-size="46" transform="matrix(1 0 0 1 52.7838 1592)">Modelling App</text><text font-family="Garamond,Garamond_MSFontService,sans-serif" font-weight="700" font-size="46" transform="matrix(1 0 0 1 344.971 1592)"> </text><text font-family="Arial,Arial_MSFontService,sans-serif" font-weight="400" font-size="46" transform="matrix(1 0 0 1 52.7838 1647)">•</text><text font-family="Garamond,Garamond_MSFontService,sans-serif" font-weight="400" font-size="46" transform="matrix(1 0 0 1 114.659 1647)">Internal model </text><text font-family="Garamond,Garamond_MSFontService,sans-serif" font-weight="400" font-size="46" transform="matrix(1 0 0 1 114.659 1702)">developers</text><text font-family="Garamond,Garamond_MSFontService,sans-serif" font-weight="400" font-size="46" transform="matrix(1 0 0 1 305.44 1702)"> </text><text font-family="Arial,Arial_MSFontService,sans-serif" font-weight="400" font-size="46" transform="matrix(1 0 0 1 52.7838 1757)">•</text><text font-family="Garamond,Garamond_MSFontService,sans-serif" font-weight="400" font-size="46" transform="matrix(1 0 0 1 114.659 1757)">Local/ external </text><text font-family="Garamond,Garamond_MSFontService,sans-serif" font-weight="400" font-size="46" transform="matrix(1 0 0 1 114.659 1812)">model developers</text><text font-family="Garamond,Garamond_MSFontService,sans-serif" font-weight="400" font-size="46" transform="matrix(1 0 0 1 427.471 1812)"> </text><path d="M660.5 1947.92C660.5 1936.64 669.64 1927.5 680.915 1927.5L1310.08 1927.5C1321.36 1927.5 1330.5 1936.64 1330.5 1947.92L1330.5 2231.08C1330.5 2242.36 1321.36 2251.5 1310.08 2251.5L680.915 2251.5C669.64 2251.5 660.5 2242.36 660.5 2231.08Z" stroke="#000000" stroke-width="4.58333" stroke-miterlimit="8" fill="#FFFFFF" fill-rule="evenodd"/><text font-family="Garamond,Garamond_MSFontService,sans-serif" font-weight="700" font-size="46" transform="matrix(1 0 0 1 699.094 1991)">Model Training/ Initialisation</text><text font-family="Garamond,Garamond_MSFontService,sans-serif" font-weight="700" font-size="46" transform="matrix(1 0 0 1 1290.34 1991)"> </text><text font-family="Arial,Arial_MSFontService,sans-serif" font-weight="400" font-size="46" transform="matrix(1 0 0 1 699.094 2046)">•</text><text font-family="Garamond,Garamond_MSFontService,sans-serif" font-weight="400" font-size="46" transform="matrix(1 0 0 1 760.969 2046)">Load configuration</text><text font-family="Garamond,Garamond_MSFontService,sans-serif" font-weight="400" font-size="46" transform="matrix(1 0 0 1 1103 2046)"> </text><text font-family="Arial,Arial_MSFontService,sans-serif" font-weight="400" font-size="46" transform="matrix(1 0 0 1 699.094 2101)">•</text><text font-family="Garamond,Garamond_MSFontService,sans-serif" font-weight="400" font-size="46" transform="matrix(1 0 0 1 760.969 2101)">Check covariate availability</text><text font-family="Garamond,Garamond_MSFontService,sans-serif" font-weight="400" font-size="46" transform="matrix(1 0 0 1 1239.93 2101)"> </text><text font-family="Arial,Arial_MSFontService,sans-serif" font-weight="400" font-size="46" transform="matrix(1 0 0 1 699.094 2156)">•</text><text font-family="Garamond,Garamond_MSFontService,sans-serif" font-weight="400" font-size="46" transform="matrix(1 0 0 1 760.969 2156)">Auto</text><text font-family="Garamond,Garamond_MSFontService,sans-serif" font-weight="400" font-size="46" transform="matrix(1 0 0 1 850.917 2156)">-</text><text font-family="Garamond,Garamond_MSFontService,sans-serif" font-weight="400" font-size="46" transform="matrix(1 0 0 1 865.24 2156)">detect failure risk </text><text font-family="Garamond,Garamond_MSFontService,sans-serif" font-weight="400" font-size="46" transform="matrix(1 0 0 1 760.969 2211)">(model failures)</text><text font-family="Garamond,Garamond_MSFontService,sans-serif" font-weight="400" font-size="46" transform="matrix(1 0 0 1 1037.69 2211)"> </text><path d="M0-2.29167 238.922-2.29167 238.922 389.623 234.339 389.623 234.339 0 236.631 2.29167 0 2.29167ZM250.381 385.04 236.631 412.54 222.881 385.04Z" transform="matrix(1.83697e-16 1 1 -1.83697e-16 248.5 1852.5)"/><path d="M997.792 1851.5 997.792 1903.94 993.209 1903.94 993.208 1851.5ZM1009.25 1899.35 995.5 1926.85 981.75 1899.35Z"/><path d="M1493.5 2136.1C1493.5 2131.35 1497.35 2127.5 1502.1 2127.5L2085.9 2127.5C2090.65 2127.5 2094.5 2131.35 2094.5 2136.1L2094.5 2241.9C2094.5 2246.65 2090.65 2250.5 2085.9 2250.5L1502.1 2250.5C1497.35 2250.5 1493.5 2246.65 1493.5 2241.9Z" stroke="#000000" stroke-width="4.58333" stroke-miterlimit="8" fill="#FFFFFF" fill-rule="evenodd"/><text font-family="Garamond,Garamond_MSFontService,sans-serif" font-weight="700" font-size="46" transform="matrix(1 0 0 1 1528.33 2188)">Climate</text><text font-family="Garamond,Garamond_MSFontService,sans-serif" font-weight="700" font-size="46" transform="matrix(1 0 0 1 1680.72 2188)">-</text><text font-family="Garamond,Garamond_MSFontService,sans-serif" font-weight="700" font-size="46" transform="matrix(1 0 0 1 1696.19 2188)">disease Models</text><text font-family="Garamond,Garamond_MSFontService,sans-serif" font-weight="700" font-size="46" transform="matrix(1 0 0 1 1991.82 2188)"> </text><path d="M1493.5 1693.09C1493.5 1680.61 1503.61 1670.5 1516.09 1670.5L2071.91 1670.5C2084.39 1670.5 2094.5 1680.61 2094.5 1693.09L2094.5 1970.91C2094.5 1983.39 2084.39 1993.5 2071.91 1993.5L1516.09 1993.5C1503.61 1993.5 1493.5 1983.39 1493.5 1970.91Z" stroke="#000000" stroke-width="4.58333" stroke-miterlimit="8" fill="#FFFFFF" fill-rule="evenodd"/><text font-family="Garamond,Garamond_MSFontService,sans-serif" font-weight="700" font-size="46" transform="matrix(1 0 0 1 1532.42 1735)">Supply Chain Demand </text><text font-family="Garamond,Garamond_MSFontService,sans-serif" font-weight="700" font-size="46" transform="matrix(1 0 0 1 1532.42 1790)">Forecasting Models</text><text font-family="Garamond,Garamond_MSFontService,sans-serif" font-weight="700" font-size="46" transform="matrix(1 0 0 1 1916.85 1790)"> </text><text font-family="Arial,Arial_MSFontService,sans-serif" font-weight="400" font-size="46" transform="matrix(1 0 0 1 1532.42 1845)">•</text><text font-family="Garamond,Garamond_MSFontService,sans-serif" font-weight="400" font-size="46" transform="matrix(1 0 0 1 1594.3 1845)">Point forecast evaluation</text><text font-family="Garamond,Garamond_MSFontService,sans-serif" font-weight="400" font-size="46" transform="matrix(1 0 0 1 2034.3 1845)"> </text><text font-family="Arial,Arial_MSFontService,sans-serif" font-weight="400" font-size="46" transform="matrix(1 0 0 1 1532.42 1900)">•</text><text font-family="Garamond,Garamond_MSFontService,sans-serif" font-weight="400" font-size="46" transform="matrix(1 0 0 1 1594.3 1900)">Probabilistic forecast </text><text font-family="Garamond,Garamond_MSFontService,sans-serif" font-weight="400" font-size="46" transform="matrix(1 0 0 1 1594.3 1955)">evaluation</text><text font-family="Garamond,Garamond_MSFontService,sans-serif" font-weight="400" font-size="46" transform="matrix(1 0 0 1 1774.77 1955)"> </text><path d="M0-2.29167 769.838-2.29167 769.838 1548.25 420.739 1548.25 420.739 1543.67 767.547 1543.67 765.255 1545.96 765.255 0 767.547 2.29167 0 2.29167ZM425.322 1559.71 397.822 1545.96 425.322 1532.21Z" transform="matrix(1.83697e-16 1 1 -1.83697e-16 248.5 1852.5)"/><rect x="1523.5" y="2401.5" width="535" height="162" stroke="#000000" stroke-width="6.875" stroke-miterlimit="8" stroke-dasharray="27.5 20.625" fill="#F2F2F2"/><text font-family="Garamond,Garamond_MSFontService,sans-serif" font-weight="400" font-size="48" transform="matrix(1 0 0 1 1572.23 2469)">Automated and manual </text><text font-family="Garamond,Garamond_MSFontService,sans-serif" font-weight="400" font-size="48" transform="matrix(1 0 0 1 1631.54 2527)">parameter tuning</text><rect x="2656.5" y="2571.5" width="734" height="130" stroke="#000000" stroke-width="6.875" stroke-miterlimit="8" stroke-dasharray="27.5 20.625" fill="#FFFFFF"/><text font-family="Garamond,Garamond_MSFontService,sans-serif" font-weight="400" font-size="48" transform="matrix(1 0 0 1 2704.7 2622)">Preference learning for automated </text><text font-family="Garamond,Garamond_MSFontService,sans-serif" font-weight="400" font-size="48" transform="matrix(1 0 0 1 2806.68 2680)">parameter optimisation</text><path d="M0-2.29167 83.4673-2.29167 83.4673 257.776 81.1757 255.484 139.434 255.484 139.434 260.067 78.884 260.067 78.884 0 81.1757 2.29167 0 2.29167ZM134.851 244.026 162.351 257.776 134.851 271.526Z" transform="matrix(1 0 0 -1 1330.5 2089.28)"/><path d="M1330.5 2087.21 1413.97 2087.21 1413.97 2189 1411.68 2186.71 1469.93 2186.71 1469.93 2191.29 1409.38 2191.29 1409.38 2089.5 1411.68 2091.79 1330.5 2091.79ZM1465.35 2175.25 1492.85 2189 1465.35 2202.75Z"/><path d="M2933.5 584.944C2933.5 574.206 2942.21 565.5 2952.94 565.5L3502.06 565.5C3512.79 565.5 3521.5 574.206 3521.5 584.944L3521.5 812.056C3521.5 822.794 3512.79 831.5 3502.06 831.5L2952.94 831.5C2942.21 831.5 2933.5 822.794 2933.5 812.056Z" stroke="#000000" stroke-width="4.58333" stroke-miterlimit="8" fill="#FFFFFF" fill-rule="evenodd"/><text font-family="Garamond,Garamond_MSFontService,sans-serif" font-weight="700" font-size="46" transform="matrix(1 0 0 1 2971.42 629)">Inventory Policy Registry</text><text font-family="Garamond,Garamond_MSFontService,sans-serif" font-weight="700" font-size="46" transform="matrix(1 0 0 1 3463.56 629)"> </text><text font-family="Arial,Arial_MSFontService,sans-serif" font-weight="400" font-size="46" transform="matrix(1 0 0 1 2971.42 684)">•</text><text font-family="Garamond,Garamond_MSFontService,sans-serif" font-weight="400" font-size="46" transform="matrix(1 0 0 1 3033.3 684)">Order</text><text font-family="Garamond,Garamond_MSFontService,sans-serif" font-weight="400" font-size="46" transform="matrix(1 0 0 1 3142.15 684)">-</text><text font-family="Garamond,Garamond_MSFontService,sans-serif" font-weight="400" font-size="46" transform="matrix(1 0 0 1 3156.48 684)">up</text><text font-family="Garamond,Garamond_MSFontService,sans-serif" font-weight="400" font-size="46" transform="matrix(1 0 0 1 3202.31 684)">-</text><text font-family="Garamond,Garamond_MSFontService,sans-serif" font-weight="400" font-size="46" transform="matrix(1 0 0 1 3216.63 684)">to</text><text font-family="Garamond,Garamond_MSFontService,sans-serif" font-weight="400" font-size="46" transform="matrix(1 0 0 1 3253.3 684)"> </text><text font-family="Arial,Arial_MSFontService,sans-serif" font-weight="400" font-size="46" transform="matrix(1 0 0 1 2971.42 739)">•</text><text font-family="Garamond,Garamond_MSFontService,sans-serif" font-weight="400" font-size="46" transform="matrix(1 0 0 1 3033.3 739)">Periodic review</text><text font-family="Garamond,Garamond_MSFontService,sans-serif" font-weight="400" font-size="46" transform="matrix(1 0 0 1 3306.01 739)"> </text><text font-family="Arial,Arial_MSFontService,sans-serif" font-weight="400" font-size="46" transform="matrix(1 0 0 1 2971.42 794)">•</text><text font-family="Garamond,Garamond_MSFontService,sans-serif" font-weight="400" font-size="46" transform="matrix(1 0 0 1 3033.3 794)">News vendor policy, etc.</text><text font-family="Garamond,Garamond_MSFontService,sans-serif" font-weight="400" font-size="46" transform="matrix(1 0 0 1 3471.01 794)"> </text><path d="M2309.5 193.727C2309.5 182.556 2318.56 173.5 2329.73 173.5L3501.27 173.5C3512.44 173.5 3521.5 182.556 3521.5 193.727L3521.5 474.274C3521.5 485.444 3512.44 494.5 3501.27 494.5L2329.73 494.5C2318.56 494.5 2309.5 485.444 2309.5 474.274Z" stroke="#000000" stroke-width="4.58333" stroke-miterlimit="8" fill="#FFFFFF" fill-rule="evenodd"/><text font-family="Garamond,Garamond_MSFontService,sans-serif" font-weight="700" font-size="46" transform="matrix(1 0 0 1 2347.97 237)">Inputs</text><text font-family="Garamond,Garamond_MSFontService,sans-serif" font-weight="700" font-size="46" transform="matrix(1 0 0 1 2475.16 237)"> </text><text font-family="Arial,Arial_MSFontService,sans-serif" font-weight="400" font-size="46" transform="matrix(1 0 0 1 2347.97 292)">•</text><text font-family="Garamond,Garamond_MSFontService,sans-serif" font-weight="400" font-size="46" transform="matrix(1 0 0 1 2409.85 292)">Predictive sample paths</text><text font-family="Garamond,Garamond_MSFontService,sans-serif" font-weight="400" font-size="46" transform="matrix(1 0 0 1 2828.08 292)"> </text><text font-family="Arial,Arial_MSFontService,sans-serif" font-weight="400" font-size="46" transform="matrix(1 0 0 1 2347.97 347)">•</text><text font-family="Garamond,Garamond_MSFontService,sans-serif" font-weight="400" font-size="46" transform="matrix(1 0 0 1 2409.85 347)">Quantile thresholds (e.g., q </text><text font-family="Cambria Math,Cambria Math_MSFontService,sans-serif" font-weight="400" font-size="46" transform="matrix(1 0 0 1 2898.55 347)">∈</text><text font-family="Garamond,Garamond_MSFontService,sans-serif" font-weight="400" font-size="46" transform="matrix(1 0 0 1 2927.19 347)"> </text><text font-family="Garamond,Garamond_MSFontService,sans-serif" font-weight="400" font-size="46" transform="matrix(1 0 0 1 2938.65 347)">{0.80, 0.85, 0.90, 0.95, 0.975})</text><text font-family="Garamond,Garamond_MSFontService,sans-serif" font-weight="400" font-size="46" transform="matrix(1 0 0 1 3475.47 347)"> </text><text font-family="Arial,Arial_MSFontService,sans-serif" font-weight="400" font-size="46" transform="matrix(1 0 0 1 2347.97 402)">•</text><text font-family="Garamond,Garamond_MSFontService,sans-serif" font-weight="400" font-size="46" transform="matrix(1 0 0 1 2409.85 402)">Lead time (e.g., L = 1)</text><text font-family="Garamond,Garamond_MSFontService,sans-serif" font-weight="400" font-size="46" transform="matrix(1 0 0 1 2805.73 402)"> </text><text font-family="Arial,Arial_MSFontService,sans-serif" font-weight="400" font-size="46" transform="matrix(1 0 0 1 2347.97 457)">•</text><text font-family="Garamond,Garamond_MSFontService,sans-serif" font-weight="400" font-size="46" transform="matrix(1 0 0 1 2409.85 457)">Review cycle (e.g., monthly)</text><text font-family="Garamond,Garamond_MSFontService,sans-serif" font-weight="400" font-size="46" transform="matrix(1 0 0 1 2903.13 457)"> </text><path d="M5.72161e-06-2.29167 18.3333-2.29162 18.3333 2.29171-5.72161e-06 2.29167ZM32.0833-2.29159 50.4167-2.29154 50.4167 2.29179 32.0833 2.29175ZM64.1667-2.29151 82.5-2.29146 82.5 2.29187 64.1667 2.29183ZM96.25-2.29143 114.583-2.29138 114.583 2.29195 96.25 2.29191ZM117.048-13.7497 144.548 0.000360892 117.047 13.7503Z" transform="matrix(-1 0 0 1 3666.05 333.5)"/><path d="M3665.5 68.5243C3665.5 59.1221 3673.12 51.5001 3682.52 51.5001L4329.48 51.5001C4338.88 51.5001 4346.5 59.1221 4346.5 68.5243L4346.5 477.476C4346.5 486.878 4338.88 494.5 4329.48 494.5L3682.52 494.5C3673.12 494.5 3665.5 486.878 3665.5 477.476Z" stroke="#000000" stroke-width="4.58333" stroke-miterlimit="8" fill="none" fill-rule="evenodd"/><text font-family="Garamond,Garamond_MSFontService,sans-serif" font-weight="700" font-size="46" transform="matrix(1 0 0 1 3703.23 115)">Local Stakeholder/ </text><text font-family="Garamond,Garamond_MSFontService,sans-serif" font-weight="700" font-size="46" transform="matrix(1 0 0 1 3703.23 170)">Implementation Team Inputs</text><text font-family="Garamond,Garamond_MSFontService,sans-serif" font-weight="700" font-size="46" transform="matrix(1 0 0 1 4280.73 170)"> </text><text font-family="Arial,Arial_MSFontService,sans-serif" font-weight="400" font-size="46" transform="matrix(1 0 0 1 3703.23 225)">•</text><text font-family="Garamond,Garamond_MSFontService,sans-serif" font-weight="400" font-size="46" transform="matrix(1 0 0 1 3765.1 225)">Inventory policy</text><text font-family="Garamond,Garamond_MSFontService,sans-serif" font-weight="400" font-size="46" transform="matrix(1 0 0 1 4056.14 225)"> </text><text font-family="Arial,Arial_MSFontService,sans-serif" font-weight="400" font-size="46" transform="matrix(1 0 0 1 3703.23 280)">•</text><text font-family="Garamond,Garamond_MSFontService,sans-serif" font-weight="400" font-size="46" transform="matrix(1 0 0 1 3765.1 280)">Constraints (e.g., lead time </text><text font-family="Garamond,Garamond_MSFontService,sans-serif" font-weight="400" font-size="46" transform="matrix(1 0 0 1 3765.1 335)">variability, capacity, resource </text><text font-family="Garamond,Garamond_MSFontService,sans-serif" font-weight="400" font-size="46" transform="matrix(1 0 0 1 3765.1 390)">limitations, budget, etc.)</text><text font-family="Garamond,Garamond_MSFontService,sans-serif" font-weight="400" font-size="46" transform="matrix(1 0 0 1 4189.63 390)"> </text><path d="M4008.73 494.5 4008.73 700.778 3544.42 700.778 3544.42 696.195 4006.44 696.195 4004.15 698.486 4004.15 494.5ZM3549 712.236 3521.5 698.486 3549 684.736Z"/><path d="M2933.5 977.559C2933.5 969.242 2940.24 962.5 2948.56 962.5L3506.44 962.5C3514.76 962.5 3521.5 969.242 3521.5 977.559L3521.5 1153.44C3521.5 1161.76 3514.76 1168.5 3506.44 1168.5L2948.56 1168.5C2940.24 1168.5 2933.5 1161.76 2933.5 1153.44Z" stroke="#000000" stroke-width="4.58333" stroke-miterlimit="8" fill="#FFFFFF" fill-rule="evenodd"/><text font-family="Garamond,Garamond_MSFontService,sans-serif" font-weight="700" font-size="46" transform="matrix(1 0 0 1 2970.13 1025)">Output</text><text font-family="Garamond,Garamond_MSFontService,sans-serif" font-weight="700" font-size="46" transform="matrix(1 0 0 1 3110.5 1025)"> </text><text font-family="Arial,Arial_MSFontService,sans-serif" font-weight="400" font-size="46" transform="matrix(1 0 0 1 2970.13 1080)">•</text><text font-family="Garamond,Garamond_MSFontService,sans-serif" font-weight="400" font-size="46" transform="matrix(1 0 0 1 3032.01 1080)">Inventory replenishment </text><text font-family="Garamond,Garamond_MSFontService,sans-serif" font-weight="400" font-size="46" transform="matrix(1 0 0 1 3032.01 1135)">order quantity</text><text font-family="Garamond,Garamond_MSFontService,sans-serif" font-weight="400" font-size="46" transform="matrix(1 0 0 1 3282.37 1135)"> </text><path d="M3665.5 765.059C3665.5 749.838 3677.84 737.5 3693.06 737.5L4318.94 737.5C4334.16 737.5 4346.5 749.838 4346.5 765.059L4346.5 1086.94C4346.5 1102.16 4334.16 1114.5 4318.94 1114.5L3693.06 1114.5C3677.84 1114.5 3665.5 1102.16 3665.5 1086.94Z" stroke="#000000" stroke-width="4.58333" stroke-miterlimit="8" fill="none" fill-rule="evenodd"/><text font-family="Garamond,Garamond_MSFontService,sans-serif" font-weight="700" font-size="46" transform="matrix(1 0 0 1 3706.32 804)">Decision</text><text font-family="Garamond,Garamond_MSFontService,sans-serif" font-weight="700" font-size="46" transform="matrix(1 0 0 1 3879.34 804)"> </text><text font-family="Arial,Arial_MSFontService,sans-serif" font-weight="400" font-size="46" transform="matrix(1 0 0 1 3706.32 859)">•</text><text font-family="Garamond,Garamond_MSFontService,sans-serif" font-weight="400" font-size="46" transform="matrix(1 0 0 1 3768.19 859)">Inventory replenishment </text><text font-family="Garamond,Garamond_MSFontService,sans-serif" font-weight="400" font-size="46" transform="matrix(1 0 0 1 3768.19 914)">order quantity</text><text font-family="Garamond,Garamond_MSFontService,sans-serif" font-weight="400" font-size="46" transform="matrix(1 0 0 1 4018.56 914)"> </text><text font-family="Arial,Arial_MSFontService,sans-serif" font-weight="400" font-size="46" transform="matrix(1 0 0 1 3706.32 969)">•</text><text font-family="Garamond,Garamond_MSFontService,sans-serif" font-weight="400" font-size="46" transform="matrix(1 0 0 1 3768.19 969)">Feedback/ comments on </text><text font-family="Garamond,Garamond_MSFontService,sans-serif" font-weight="400" font-size="46" transform="matrix(1 0 0 1 3768.19 1024)">emergency over</text><text font-family="Garamond,Garamond_MSFontService,sans-serif" font-weight="400" font-size="46" transform="matrix(1 0 0 1 4048.35 1024)">-</text><text font-family="Garamond,Garamond_MSFontService,sans-serif" font-weight="400" font-size="46" transform="matrix(1 0 0 1 4062.67 1024)">rides</text><text font-family="Garamond,Garamond_MSFontService,sans-serif" font-weight="400" font-size="46" transform="matrix(1 0 0 1 4146.89 1024)"> </text><path d="M2.29167-3.49872e-06 2.29169 18.3333-2.29164 18.3333-2.29167 3.49872e-06ZM2.29172 32.0833 2.29174 50.4167-2.29159 50.4167-2.29162 32.0833ZM2.29176 64.1667 2.29179 82.5-2.29154 82.5-2.29157 64.1667ZM2.29181 96.25 2.29184 114.583-2.29149 114.583-2.29152 96.25ZM2.29186 128.333 2.29189 146.667-2.29144 146.667-2.29147 128.333ZM2.29191 160.417 2.29194 178.75-2.29139 178.75-2.29142 160.417ZM2.29196 192.5 2.29199 210.833-2.29134 210.833-2.29137 192.5ZM13.7503 208.885 0.000360892 236.385-13.7497 208.885Z" transform="matrix(1 0 0 -1 4096.5 730.885)"/><path d="M2311.5 594.301C2311.5 578.395 2324.39 565.5 2340.3 565.5L2788.7 565.5C2804.6 565.5 2817.5 578.395 2817.5 594.301L2817.5 930.699C2817.5 946.605 2804.6 959.5 2788.7 959.5L2340.3 959.5C2324.39 959.5 2311.5 946.605 2311.5 930.699Z" stroke="#000000" stroke-width="4.58333" stroke-miterlimit="8" fill="#FFFFFF" fill-rule="evenodd"/><text font-family="Garamond,Garamond_MSFontService,sans-serif" font-weight="700" font-size="46" transform="matrix(1 0 0 1 2352.13 632)">KPIs</text><text font-family="Garamond,Garamond_MSFontService,sans-serif" font-weight="700" font-size="46" transform="matrix(1 0 0 1 2448.38 632)"> </text><text font-family="Arial,Arial_MSFontService,sans-serif" font-weight="400" font-size="46" transform="matrix(1 0 0 1 2352.13 687)">•</text><text font-family="Garamond,Garamond_MSFontService,sans-serif" font-weight="400" font-size="46" transform="matrix(1 0 0 1 2414.01 687)">Cycle service level</text><text font-family="Garamond,Garamond_MSFontService,sans-serif" font-weight="400" font-size="46" transform="matrix(1 0 0 1 2733.7 687)"> </text><text font-family="Arial,Arial_MSFontService,sans-serif" font-weight="400" font-size="46" transform="matrix(1 0 0 1 2352.13 742)">•</text><text font-family="Garamond,Garamond_MSFontService,sans-serif" font-weight="400" font-size="46" transform="matrix(1 0 0 1 2414.01 742)">Stockout rate</text><text font-family="Garamond,Garamond_MSFontService,sans-serif" font-weight="400" font-size="46" transform="matrix(1 0 0 1 2649.48 742)"> </text><text font-family="Arial,Arial_MSFontService,sans-serif" font-weight="400" font-size="46" transform="matrix(1 0 0 1 2352.13 797)">•</text><text font-family="Garamond,Garamond_MSFontService,sans-serif" font-weight="400" font-size="46" transform="matrix(1 0 0 1 2414.01 797)">Average inventory</text><text font-family="Garamond,Garamond_MSFontService,sans-serif" font-weight="400" font-size="46" transform="matrix(1 0 0 1 2738.85 797)"> </text><text font-family="Arial,Arial_MSFontService,sans-serif" font-weight="400" font-size="46" transform="matrix(1 0 0 1 2352.13 852)">•</text><text font-family="Garamond,Garamond_MSFontService,sans-serif" font-weight="400" font-size="46" transform="matrix(1 0 0 1 2414.01 852)">Inventory </text><text font-family="Garamond,Garamond_MSFontService,sans-serif" font-weight="400" font-size="46" transform="matrix(1 0 0 1 2414.01 907)">investment ratio</text><text font-family="Garamond,Garamond_MSFontService,sans-serif" font-weight="400" font-size="46" transform="matrix(1 0 0 1 2701.61 907)"> </text><path d="M3229.79 831.5 3229.79 939.64 3225.21 939.64 3225.21 831.5ZM3241.25 935.056 3227.5 962.556 3213.75 935.056Z"/><path d="M3229.79 494.5 3229.79 542.485 3225.21 542.485 3225.21 494.5ZM3241.25 537.902 3227.5 565.402 3213.75 537.902Z"/><path d="M2933.24 1067.79 2562.21 1067.79 2562.21 982.417 2566.79 982.417 2566.79 1065.49 2564.5 1063.2 2933.24 1063.2ZM2550.75 987 2564.5 959.5 2578.25 987Z"/><path d="M7.1641e-06-2.29167 92.5263-2.29138 92.5263 2.29196-7.1641e-06 2.29167ZM87.943-13.7497 115.443 0.000360892 87.9429 13.7503Z" transform="matrix(-1 0 0 1 2932.94 698.5)"/><path d="M2311.5 1537.19C2311.5 1531.29 2316.29 1526.5 2322.19 1526.5L3510.81 1526.5C3516.71 1526.5 3521.5 1531.29 3521.5 1537.19L3521.5 1921.81C3521.5 1927.71 3516.71 1932.5 3510.81 1932.5L2322.19 1932.5C2316.29 1932.5 2311.5 1927.71 2311.5 1921.81Z" stroke="#000000" stroke-width="4.58333" stroke-miterlimit="8" fill="#FFFFFF" fill-rule="evenodd"/><text font-family="Garamond,Garamond_MSFontService,sans-serif" font-weight="700" font-size="46" transform="matrix(1 0 0 1 2346.83 1588)">DHIS2 Integration</text><text font-family="Garamond,Garamond_MSFontService,sans-serif" font-weight="700" font-size="46" transform="matrix(1 0 0 1 2715.79 1588)"> </text><text font-family="Arial,Arial_MSFontService,sans-serif" font-weight="400" font-size="46" transform="matrix(1 0 0 1 2346.83 1643)">•</text><text font-family="Garamond,Garamond_MSFontService,sans-serif" font-weight="400" font-size="46" transform="matrix(1 0 0 1 2408.7 1643)">Access forecasts and inventory replenishment quantities via </text><text font-family="Garamond,Garamond_MSFontService,sans-serif" font-weight="400" font-size="46" transform="matrix(1 0 0 1 2408.7 1698)">Modelling App</text><text font-family="Garamond,Garamond_MSFontService,sans-serif" font-weight="400" font-size="46" transform="matrix(1 0 0 1 2676.83 1698)"> </text><text font-family="Arial,Arial_MSFontService,sans-serif" font-weight="400" font-size="46" transform="matrix(1 0 0 1 2346.83 1753)">•</text><text font-family="Garamond,Garamond_MSFontService,sans-serif" font-weight="400" font-size="46" transform="matrix(1 0 0 1 2408.7 1753)">Store sample paths, quantiles and inventory data</text><text font-family="Garamond,Garamond_MSFontService,sans-serif" font-weight="400" font-size="46" transform="matrix(1 0 0 1 3262.35 1753)"> </text><text font-family="Arial,Arial_MSFontService,sans-serif" font-weight="400" font-size="46" transform="matrix(1 0 0 1 2346.83 1808)">•</text><text font-family="Garamond,Garamond_MSFontService,sans-serif" font-weight="400" font-size="46" transform="matrix(1 0 0 1 2408.7 1808)">Facility</text><text font-family="Garamond,Garamond_MSFontService,sans-serif" font-weight="400" font-size="46" transform="matrix(1 0 0 1 2535.32 1808)">-</text><text font-family="Garamond,Garamond_MSFontService,sans-serif" font-weight="400" font-size="46" transform="matrix(1 0 0 1 2549.64 1808)">level dashboards</text><text font-family="Garamond,Garamond_MSFontService,sans-serif" font-weight="400" font-size="46" transform="matrix(1 0 0 1 2843.55 1808)"> </text><text font-family="Arial,Arial_MSFontService,sans-serif" font-weight="400" font-size="46" transform="matrix(1 0 0 1 2346.83 1863)">•</text><text font-family="Garamond,Garamond_MSFontService,sans-serif" font-weight="400" font-size="46" transform="matrix(1 0 0 1 2408.7 1863)">Red</text><text font-family="Garamond,Garamond_MSFontService,sans-serif" font-weight="400" font-size="46" transform="matrix(1 0 0 1 2479.17 1863)">-</text><text font-family="Garamond,Garamond_MSFontService,sans-serif" font-weight="400" font-size="46" transform="matrix(1 0 0 1 2493.49 1863)">green stock risk classification</text><text font-family="Garamond,Garamond_MSFontService,sans-serif" font-weight="400" font-size="46" transform="matrix(1 0 0 1 3007.4 1863)"> </text><path d="M2311.5 2010.01C2311.5 2006.41 2314.41 2003.5 2318.01 2003.5L3514.99 2003.5C3518.59 2003.5 3521.5 2006.41 3521.5 2010.01L3521.5 2243.99C3521.5 2247.59 3518.59 2250.5 3514.99 2250.5L2318.01 2250.5C2314.41 2250.5 2311.5 2247.59 2311.5 2243.99Z" stroke="#000000" stroke-width="4.58333" stroke-miterlimit="8" fill="#FFFFFF" fill-rule="evenodd"/><text font-family="Garamond,Garamond_MSFontService,sans-serif" font-weight="700" font-size="46" transform="matrix(1 0 0 1 2345.6 2064)">District/National Aggregation</text><text font-family="Garamond,Garamond_MSFontService,sans-serif" font-weight="700" font-size="46" transform="matrix(1 0 0 1 2939.14 2064)"> </text><text font-family="Arial,Arial_MSFontService,sans-serif" font-weight="400" font-size="46" transform="matrix(1 0 0 1 2345.6 2119)">•</text><text font-family="Garamond,Garamond_MSFontService,sans-serif" font-weight="400" font-size="46" transform="matrix(1 0 0 1 2407.47 2119)">Aggregated forecast dashboards</text><text font-family="Garamond,Garamond_MSFontService,sans-serif" font-weight="400" font-size="46" transform="matrix(1 0 0 1 2973.51 2119)"> </text><text font-family="Arial,Arial_MSFontService,sans-serif" font-weight="400" font-size="46" transform="matrix(1 0 0 1 2345.6 2174)">•</text><text font-family="Garamond,Garamond_MSFontService,sans-serif" font-weight="400" font-size="46" transform="matrix(1 0 0 1 2407.47 2174)">Inventory forward requirements</text><text font-family="Garamond,Garamond_MSFontService,sans-serif" font-weight="400" font-size="46" transform="matrix(1 0 0 1 2977.52 2174)"> </text><text font-family="Arial,Arial_MSFontService,sans-serif" font-weight="400" font-size="46" transform="matrix(1 0 0 1 2345.6 2229)">•</text><text font-family="Garamond,Garamond_MSFontService,sans-serif" font-weight="400" font-size="46" transform="matrix(1 0 0 1 2407.47 2229)">Stock redistribution alerts</text><text font-family="Garamond,Garamond_MSFontService,sans-serif" font-weight="400" font-size="46" transform="matrix(1 0 0 1 2861.22 2229)"> </text><path d="M3723.5 1408.32C3723.5 1403.45 3727.45 1399.5 3732.32 1399.5L4251.68 1399.5C4256.55 1399.5 4260.5 1403.45 4260.5 1408.32L4260.5 1725.68C4260.5 1730.55 4256.55 1734.5 4251.68 1734.5L3732.32 1734.5C3727.45 1734.5 3723.5 1730.55 3723.5 1725.68Z" stroke="#000000" stroke-width="4.58333" stroke-miterlimit="8" fill="#FFFFFF" fill-rule="evenodd"/><text font-family="Garamond,Garamond_MSFontService,sans-serif" font-weight="700" font-size="46" transform="matrix(1 0 0 1 3758.98 1460)">Automated Triggers</text><text font-family="Garamond,Garamond_MSFontService,sans-serif" font-weight="700" font-size="46" transform="matrix(1 0 0 1 4151.43 1460)"> </text><text font-family="Arial,Arial_MSFontService,sans-serif" font-weight="400" font-size="46" transform="matrix(1 0 0 1 3758.98 1515)">•</text><text font-family="Garamond,Garamond_MSFontService,sans-serif" font-weight="400" font-size="46" transform="matrix(1 0 0 1 3820.86 1515)">Monthly job scheduler</text><text font-family="Garamond,Garamond_MSFontService,sans-serif" font-weight="400" font-size="46" transform="matrix(1 0 0 1 4220.18 1515)"> </text><text font-family="Arial,Arial_MSFontService,sans-serif" font-weight="400" font-size="46" transform="matrix(1 0 0 1 3758.98 1570)">•</text><text font-family="Garamond,Garamond_MSFontService,sans-serif" font-weight="400" font-size="46" transform="matrix(1 0 0 1 3820.86 1570)">Auto</text><text font-family="Garamond,Garamond_MSFontService,sans-serif" font-weight="400" font-size="46" transform="matrix(1 0 0 1 3910.81 1570)">-</text><text font-family="Garamond,Garamond_MSFontService,sans-serif" font-weight="400" font-size="46" transform="matrix(1 0 0 1 3925.13 1570)">detection of new </text><text font-family="Garamond,Garamond_MSFontService,sans-serif" font-weight="400" font-size="46" transform="matrix(1 0 0 1 3820.86 1625)">time series</text><text font-family="Garamond,Garamond_MSFontService,sans-serif" font-weight="400" font-size="46" transform="matrix(1 0 0 1 4007.06 1625)"> </text><text font-family="Arial,Arial_MSFontService,sans-serif" font-weight="400" font-size="46" transform="matrix(1 0 0 1 3758.98 1680)">•</text><text font-family="Garamond,Garamond_MSFontService,sans-serif" font-weight="400" font-size="46" transform="matrix(1 0 0 1 3820.86 1680)">Auto</text><text font-family="Garamond,Garamond_MSFontService,sans-serif" font-weight="400" font-size="46" transform="matrix(1 0 0 1 3910.81 1680)">-</text><text font-family="Garamond,Garamond_MSFontService,sans-serif" font-weight="400" font-size="46" transform="matrix(1 0 0 1 3925.13 1680)">refresh of data</text><text font-family="Garamond,Garamond_MSFontService,sans-serif" font-weight="400" font-size="46" transform="matrix(1 0 0 1 4183.52 1680)"> </text><path d="M0-2.29167 109.695-2.29167 109.695 1497.93 107.404 1495.63 191.891 1495.63 191.891 1500.22 105.112 1500.22 105.112 0 107.404 2.29167 0 2.29167ZM187.307 1484.18 214.807 1497.93 187.307 1511.68Z" transform="matrix(1 0 0 -1 2094.5 1831.43)"/><path d="M3723.5 1840.64C3723.5 1832.83 3729.83 1826.5 3737.64 1826.5L4246.35 1826.5C4254.17 1826.5 4260.5 1832.83 4260.5 1840.64L4260.5 2414.36C4260.5 2422.17 4254.17 2428.5 4246.35 2428.5L3737.64 2428.5C3729.83 2428.5 3723.5 2422.17 3723.5 2414.36Z" stroke="#000000" stroke-width="4.58333" stroke-miterlimit="8" fill="#FFFFFF" fill-rule="evenodd"/><text font-family="Garamond,Garamond_MSFontService,sans-serif" font-weight="700" font-size="46" transform="matrix(1 0 0 1 3760.53 1889)">Meta Learner</text><text font-family="Garamond,Garamond_MSFontService,sans-serif" font-weight="700" font-size="46" transform="matrix(1 0 0 1 4022.36 1889)"> </text><text font-family="Arial,Arial_MSFontService,sans-serif" font-weight="400" font-size="46" transform="matrix(1 0 0 1 3760.53 1944)">•</text><text font-family="Garamond,Garamond_MSFontService,sans-serif" font-weight="400" font-size="46" transform="matrix(1 0 0 1 3822.41 1944)">Fallback model </text><text font-family="Garamond,Garamond_MSFontService,sans-serif" font-weight="400" font-size="46" transform="matrix(1 0 0 1 3822.41 1999)">selection if null model </text><text font-family="Garamond,Garamond_MSFontService,sans-serif" font-weight="400" font-size="46" transform="matrix(1 0 0 1 3822.41 2054)">returns</text><text font-family="Garamond,Garamond_MSFontService,sans-serif" font-weight="400" font-size="46" transform="matrix(1 0 0 1 3947.88 2054)"> </text><text font-family="Arial,Arial_MSFontService,sans-serif" font-weight="400" font-size="46" transform="matrix(1 0 0 1 3760.53 2109)">•</text><text font-family="Garamond,Garamond_MSFontService,sans-serif" font-weight="400" font-size="46" transform="matrix(1 0 0 1 3822.41 2109)">Learn automated </text><text font-family="Garamond,Garamond_MSFontService,sans-serif" font-weight="400" font-size="46" transform="matrix(1 0 0 1 3822.41 2164)">parameter selection</text><text font-family="Garamond,Garamond_MSFontService,sans-serif" font-weight="400" font-size="46" transform="matrix(1 0 0 1 4166.16 2164)"> </text><text font-family="Arial,Arial_MSFontService,sans-serif" font-weight="400" font-size="46" transform="matrix(1 0 0 1 3760.53 2219)">•</text><text font-family="Garamond,Garamond_MSFontService,sans-serif" font-weight="400" font-size="46" transform="matrix(1 0 0 1 3822.41 2219)">Forecast model </text><text font-family="Garamond,Garamond_MSFontService,sans-serif" font-weight="400" font-size="46" transform="matrix(1 0 0 1 3822.41 2274)">classification based on </text><text font-family="Garamond,Garamond_MSFontService,sans-serif" font-weight="400" font-size="46" transform="matrix(1 0 0 1 3822.41 2329)">forecast and inventory </text><text font-family="Garamond,Garamond_MSFontService,sans-serif" font-weight="400" font-size="46" transform="matrix(1 0 0 1 3822.41 2384)">performance</text><text font-family="Garamond,Garamond_MSFontService,sans-serif" font-weight="400" font-size="46" transform="matrix(1 0 0 1 4049.28 2384)"> </text><path d="M0-2.29167 74.5656-2.29167 74.5656 139.252 72.2739 136.96 121.631 136.96 121.631 141.543 69.9823 141.543 69.9823 0 72.2739 2.29167 0 2.29167ZM117.048 125.502 144.548 139.252 117.048 153.002Z" transform="matrix(1 0 0 -1 3521.5 1065.75)"/><path d="M0-2.29167 110.519-2.29167 110.519 102.218 108.227 99.9268 193.538 99.9268 193.538 104.51 105.936 104.51 105.936 0 108.227 2.29167 0 2.29167ZM188.955 88.4684 216.455 102.218 188.955 115.968Z" transform="matrix(1 0 0 -1 2094.5 1831.72)"/><path d="M0-2.29167 153.809-2.29167 153.809 376.487 151.518 374.195 561.092 374.195 558.8 376.487 558.8 316.902 563.384 316.902 563.384 378.778 149.226 378.778 149.226 0 151.518 2.29167 0 2.29167ZM547.342 321.486 561.092 293.986 574.842 321.486Z" transform="matrix(1.83697e-16 1 1 -1.83697e-16 3227.5 1168.5)"/><path d="M0 2.29167-18.3333 2.29167-18.3333-2.29167 0-2.29167ZM-32.0833 2.29167-50.4167 2.29167-50.4167-2.29167-32.0833-2.29167ZM-64.1667 2.29167-82.5 2.29167-82.5-2.29167-64.1667-2.29167ZM-96.25 2.29167-114.583 2.29167-114.583-2.29167-96.25-2.29167ZM-128.333 2.29167-146.667 2.29167-146.667-2.29167-128.333-2.29167ZM-160.417 2.29167-178.75 2.29167-178.75-2.29167-160.417-2.29167ZM-192.5 2.29167-210.833 2.29167-210.833-2.29167-192.5-2.29167ZM-224.583 2.29167-242.917 2.29167-242.917-2.29167-224.583-2.29167ZM-256.667 2.29167-275 2.29167-275-2.29167-256.667-2.29167ZM-288.75 2.29167-307.083 2.29167-307.083-2.29167-288.75-2.29167ZM-309.376 9.1657-309.376 27.499-313.959 27.499-313.959 9.1657ZM-309.376 41.249-309.376 59.5824-313.959 59.5824-313.959 41.249ZM-309.376 73.3324-309.376 91.6657-313.959 91.6657-313.959 73.3324ZM-309.376 105.416-309.376 123.749-313.959 123.749-313.959 105.416ZM-309.376 137.499-309.376 155.832-313.959 155.832-313.959 137.499ZM-309.376 169.582-309.376 187.916-313.959 187.916-313.959 169.582ZM-309.376 201.666-309.376 219.999-313.959 219.999-313.959 201.666ZM-309.376 233.749-309.376 252.082-313.959 252.082-313.959 233.749ZM-309.376 265.832-309.376 284.166-313.959 284.166-313.959 265.832ZM-309.376 297.916-309.376 316.249-313.959 316.249-313.959 297.916ZM-309.376 329.999-309.376 348.332-313.959 348.332-313.959 329.999ZM-309.376 362.082-309.376 380.416-313.959 380.416-313.959 362.082ZM-309.376 394.166-309.376 412.499-313.959 412.499-313.959 394.166ZM-309.376 426.249-309.376 444.582-313.959 444.582-313.959 426.249ZM-309.376 458.332-309.376 476.666-313.959 476.666-313.959 458.332ZM-309.376 490.416-309.376 508.749-313.959 508.749-313.959 490.416ZM-309.376 522.499-309.376 540.832-313.959 540.832-313.959 522.499ZM-309.376 554.582-309.376 572.916-313.959 572.916-313.959 554.582ZM-309.376 586.666-309.376 604.999-313.959 604.999-313.959 586.666ZM-309.376 618.749-309.376 637.082-313.959 637.082-313.959 618.749ZM-309.376 650.832-309.376 669.166-313.959 669.166-313.959 650.832ZM-309.376 682.916-309.376 701.249-313.959 701.249-313.959 682.916ZM-309.376 714.999-309.376 733.332-313.959 733.332-313.959 714.999ZM-309.376 747.082-309.376 765.416-313.959 765.416-313.959 747.082ZM-309.376 779.166-309.376 797.499-313.959 797.499-313.959 779.166ZM-309.376 811.249-309.376 829.582-313.959 829.582-313.959 811.249ZM-309.376 843.332-309.376 861.666-313.959 861.666-313.959 843.332ZM-309.376 875.416-309.376 893.749-313.959 893.749-313.959 875.416ZM-309.376 907.499-309.376 925.832-313.959 925.832-313.959 907.499ZM-309.376 939.582-309.376 957.916-313.959 957.916-313.959 939.582ZM-309.376 971.666-309.376 989.999-313.959 989.999-313.959 971.666ZM-309.376 1003.75-309.376 1022.08-313.959 1022.08-313.959 1003.75ZM-309.376 1035.83-309.376 1054.17-313.959 1054.17-313.959 1035.83ZM-309.376 1067.92-309.376 1086.25-313.959 1086.25-313.959 1067.92ZM-309.376 1100-309.376 1118.33-313.959 1118.33-313.959 1100ZM-309.376 1132.08-309.376 1150.42-313.959 1150.42-313.959 1132.08ZM-309.376 1164.17-309.376 1182.5-313.959 1182.5-313.959 1164.17ZM-309.376 1196.25-309.376 1214.58-313.959 1214.58-313.959 1196.25ZM-309.376 1228.33-309.376 1246.67-313.959 1246.67-313.959 1228.33ZM-309.376 1260.42-309.376 1278.75-313.959 1278.75-313.959 1260.42ZM-309.376 1292.5-309.376 1310.83-313.959 1310.83-313.959 1292.5ZM-309.376 1324.58-309.376 1342.92-313.959 1342.92-313.959 1324.58ZM-309.376 1356.67-309.376 1375-313.959 1375-313.959 1356.67ZM-309.376 1388.75-309.376 1407.08-313.959 1407.08-313.959 1388.75ZM-309.376 1420.83-309.376 1439.17-313.959 1439.17-313.959 1420.83ZM-309.376 1452.92-309.376 1471.25-313.959 1471.25-313.959 1452.92ZM-309.376 1485-309.376 1503.33-313.959 1503.33-313.959 1485ZM-309.376 1517.08-309.376 1535.42-313.959 1535.42-313.959 1517.08ZM-309.376 1549.17-309.376 1567.5-313.959 1567.5-313.959 1549.17ZM-309.376 1581.25-309.376 1599.58-313.959 1599.58-313.959 1581.25ZM-309.376 1613.33-309.376 1631.67-313.959 1631.67-313.959 1613.33ZM-309.376 1645.42-309.376 1663.75-313.959 1663.75-313.959 1645.42ZM-309.376 1677.5-309.376 1695.83-313.959 1695.83-313.959 1677.5ZM-309.376 1709.58-309.376 1727.92-313.959 1727.92-313.959 1709.58ZM-309.376 1741.67-309.376 1760-313.959 1760-313.959 1741.67ZM-309.376 1773.75-309.376 1792.08-313.959 1792.08-313.959 1773.75ZM-309.376 1805.83-309.376 1824.17-313.959 1824.17-313.959 1805.83ZM-309.376 1837.92-309.376 1856.25-313.959 1856.25-313.959 1837.92ZM-309.376 1870-309.376 1888.33-313.959 1888.33-313.959 1870ZM-309.376 1902.08-309.376 1920.42-313.959 1920.42-313.959 1902.08ZM-309.376 1934.17-309.376 1952.5-313.959 1952.5-313.959 1934.17ZM-309.376 1966.25-309.376 1984.58-313.959 1984.58-313.959 1966.25ZM-309.376 1998.33-309.376 2016.67-313.959 2016.67-313.959 1998.33ZM-309.376 2030.42-309.376 2048.75-313.959 2048.75-313.959 2030.42ZM-309.376 2062.5-309.376 2080.83-313.959 2080.83-313.959 2062.5ZM-309.376 2094.58-309.376 2112.92-313.959 2112.92-313.959 2094.58ZM-309.376 2126.67-309.376 2145-313.959 2145-313.959 2126.67ZM-309.376 2158.75-309.376 2177.08-313.959 2177.08-313.959 2158.75ZM-309.376 2190.83-309.376 2209.17-313.959 2209.17-313.959 2190.83ZM-309.376 2222.92-309.376 2241.25-313.959 2241.25-313.959 2222.92ZM-309.376 2255-309.376 2273.33-313.959 2273.33-313.959 2255ZM-309.376 2287.08-309.376 2305.42-313.959 2305.42-313.959 2287.08ZM-309.376 2319.17-309.376 2337.5-313.959 2337.5-313.959 2319.17ZM-309.376 2351.25-309.376 2369.58-313.959 2369.58-313.959 2351.25ZM-309.376 2383.33-309.376 2401.67-313.959 2401.67-313.959 2383.33ZM-309.376 2415.42-309.376 2433.75-313.959 2433.75-313.959 2415.42ZM-309.376 2447.5-309.376 2465.83-313.959 2465.83-313.959 2447.5ZM-309.376 2479.58-309.376 2497.92-313.959 2497.92-313.959 2479.58ZM-309.376 2511.67-309.376 2530-313.959 2530-313.959 2511.67ZM-309.376 2543.75-309.376 2562.08-313.959 2562.08-313.959 2543.75ZM-309.376 2575.83-309.376 2594.17-313.959 2594.17-313.959 2575.83ZM-309.376 2607.92-309.376 2626.25-313.959 2626.25-313.959 2607.92ZM-309.376 2640-309.376 2658.33-313.959 2658.33-313.959 2640ZM-309.376 2672.08-309.376 2690.42-313.959 2690.42-313.959 2672.08ZM-309.376 2704.17-309.376 2722.5-313.959 2722.5-313.959 2704.17ZM-309.376 2736.25-309.376 2754.58-313.959 2754.58-313.959 2736.25ZM-309.376 2768.33-309.376 2786.67-313.959 2786.67-313.959 2768.33ZM-309.376 2800.42-309.376 2818.75-313.959 2818.75-313.959 2800.42ZM-309.376 2832.5-309.376 2850.83-313.959 2850.83-313.959 2832.5ZM-309.376 2864.58-309.376 2882.92-313.959 2882.92-313.959 2864.58ZM-309.376 2896.67-309.376 2915-313.959 2915-313.959 2896.67ZM-309.376 2928.75-309.376 2947.08-313.959 2947.08-313.959 2928.75ZM-309.376 2960.83-309.376 2979.17-313.959 2979.17-313.959 2960.83ZM-309.376 2992.92-309.376 3011.25-313.959 3011.25-313.959 2992.92ZM-309.376 3025-309.376 3043.33-313.959 3043.33-313.959 3025ZM-309.376 3057.08-309.376 3075.42-313.959 3075.42-313.959 3057.08ZM-309.376 3089.17-309.376 3107.5-313.959 3107.5-313.959 3089.17ZM-309.376 3121.25-309.376 3139.58-313.959 3139.58-313.959 3121.25ZM-309.376 3153.33-309.376 3171.67-313.959 3171.67-313.959 3153.33ZM-309.376 3185.42-309.376 3203.75-313.959 3203.75-313.959 3185.42ZM-309.376 3217.5-309.376 3235.83-313.959 3235.83-313.959 3217.5ZM-309.376 3249.58-309.376 3267.92-313.959 3267.92-313.959 3249.58ZM-309.376 3281.67-309.376 3300-313.959 3300-313.959 3281.67ZM-309.376 3313.75-309.376 3332.08-313.959 3332.08-313.959 3313.75ZM-309.376 3345.83-309.376 3364.17-313.959 3364.17-313.959 3345.83ZM-309.376 3377.92-309.376 3396.25-313.959 3396.25-313.959 3377.92ZM-309.376 3410-309.376 3428.33-313.959 3428.33-313.959 3410ZM-307.06 3435.18-288.727 3435.18-288.727 3439.77-307.06 3439.77ZM-274.977 3435.18-256.643 3435.18-256.643 3439.77-274.977 3439.77ZM-242.893 3435.18-224.56 3435.18-224.56 3439.77-242.893 3439.77ZM-210.81 3435.18-192.477 3435.18-192.477 3439.77-210.81 3439.77ZM-178.727 3435.18-160.393 3435.18-160.393 3439.77-178.727 3439.77ZM-146.643 3435.18-128.31 3435.18-128.31 3439.77-146.643 3439.77ZM-114.56 3435.18-96.2268 3435.18-96.2268 3439.77-114.56 3439.77ZM-82.4768 3435.18-64.1435 3435.18-64.1435 3439.77-82.4768 3439.77ZM-50.3935 3435.18-32.0601 3435.18-32.0601 3439.77-50.3935 3439.77ZM-18.3101 3435.18 0.0232099 3435.18 0.0232099 3439.77-18.3101 3439.77ZM13.7732 3435.18 32.1065 3435.18 32.1065 3439.77 13.7732 3439.77ZM45.8565 3435.18 64.1899 3435.18 64.1899 3439.77 45.8565 3439.77ZM77.9399 3435.18 96.2732 3435.18 96.2732 3439.77 77.9399 3439.77ZM110.023 3435.18 128.357 3435.18 128.357 3439.77 110.023 3439.77ZM142.107 3435.18 160.44 3435.18 160.44 3439.77 142.107 3439.77ZM174.19 3435.18 192.523 3435.18 192.523 3439.77 174.19 3439.77ZM206.273 3435.18 224.607 3435.18 224.607 3439.77 206.273 3439.77ZM238.357 3435.18 256.69 3435.18 256.69 3439.77 238.357 3439.77ZM270.44 3435.18 288.773 3435.18 288.773 3439.77 270.44 3439.77ZM302.523 3435.18 320.857 3435.18 320.857 3439.77 302.523 3439.77ZM334.607 3435.18 352.94 3435.18 352.94 3439.77 334.607 3439.77ZM366.69 3435.18 385.023 3435.18 385.023 3439.77 366.69 3439.77ZM398.773 3435.18 417.107 3435.18 417.107 3439.77 398.773 3439.77ZM430.857 3435.18 449.19 3435.18 449.19 3439.77 430.857 3439.77ZM462.94 3435.18 481.273 3435.18 481.273 3439.77 462.94 3439.77ZM495.023 3435.18 513.357 3435.18 513.357 3439.77 495.023 3439.77ZM527.107 3435.18 545.44 3435.18 545.44 3439.77 527.107 3439.77ZM559.19 3435.18 577.523 3435.18 577.523 3439.77 559.19 3439.77ZM591.273 3435.18 609.607 3435.18 609.607 3439.77 591.273 3439.77ZM623.357 3435.18 641.69 3435.18 641.69 3439.77 623.357 3439.77ZM655.44 3435.18 673.773 3435.18 673.773 3439.77 655.44 3439.77ZM687.523 3435.18 705.857 3435.18 705.857 3439.77 687.523 3439.77ZM719.607 3435.18 737.94 3435.18 737.94 3439.77 719.607 3439.77ZM751.69 3435.18 770.023 3435.18 770.023 3439.77 751.69 3439.77ZM783.773 3435.18 802.107 3435.18 802.107 3439.77 783.773 3439.77ZM815.857 3435.18 826.088 3435.18 823.797 3437.47 823.797 3429.37 828.38 3429.37 828.38 3439.77 815.857 3439.77ZM823.797 3415.62 823.797 3397.29 828.38 3397.29 828.38 3415.62ZM823.797 3383.54 823.797 3365.21 828.38 3365.21 828.38 3383.54ZM812.338 3358.87 826.088 3331.37 839.838 3358.87Z" transform="matrix(-6.12323e-17 -1 -1 6.12323e-17 3991.87 2428.59)"/><path d="M0-2.29167 122.497-2.29167 122.497 162.52 120.205 160.229 179.783 160.229 179.783 164.812 117.913 164.812 117.913 0 120.205 2.29167 0 2.29167ZM175.2 148.77 202.7 162.52 175.2 176.27Z" transform="matrix(-1 1.22465e-16 1.22465e-16 1 3724.2 1646.5)"/><path d="M482.5 136.208 500.833 136.208 500.833 140.792 482.5 140.792ZM514.583 136.208 532.917 136.208 532.917 140.792 514.583 140.792ZM546.667 136.208 565 136.208 565 140.792 546.667 140.792ZM578.75 136.208 597.083 136.208 597.083 140.792 578.75 140.792ZM610.833 136.208 629.167 136.208 629.167 140.792 610.833 140.792ZM642.917 136.208 661.25 136.208 661.25 140.792 642.917 140.792ZM675 136.208 693.333 136.208 693.333 140.792 675 140.792ZM707.083 136.208 725.417 136.208 725.417 140.792 707.083 140.792ZM739.167 136.208 757.5 136.208 757.5 140.792 739.167 140.792ZM771.25 136.208 789.583 136.208 789.583 140.792 771.25 140.792ZM803.333 136.208 821.667 136.208 821.667 140.792 803.333 140.792ZM835.417 136.208 853.75 136.208 853.75 140.792 835.417 140.792ZM867.5 136.208 885.833 136.208 885.833 140.792 867.5 140.792ZM899.583 136.208 917.917 136.208 917.917 140.792 899.583 140.792ZM931.667 136.208 950 136.208 950 140.792 931.667 140.792ZM963.75 136.208 982.083 136.208 982.083 140.792 963.75 140.792ZM998.054 138.571 998.054 156.904 993.471 156.904 993.471 138.571ZM1009.51 163.77 995.763 191.27 982.013 163.77Z"/><path d="M0 2.29167-18.3333 2.29167-18.3333-2.29167 0-2.29167ZM-25.2078 4.58389-25.2078 22.9172-29.7911 22.9172-29.7911 4.58389ZM-25.2078 36.6672-25.2078 55.0006-29.7911 55.0006-29.7911 36.6672ZM-25.2078 68.7505-25.2078 87.0839-29.7911 87.0839-29.7911 68.7505ZM-25.2078 100.834-25.2078 119.167-29.7911 119.167-29.7911 100.834ZM-25.2078 132.917-25.2078 151.251-29.7911 151.251-29.7911 132.917ZM-25.2078 165.001-25.2078 183.334-29.7911 183.334-29.7911 165.001ZM-25.2078 197.084-25.2078 215.417-29.7911 215.417-29.7911 197.084ZM-25.2078 229.167-25.2078 247.501-29.7911 247.501-29.7911 229.167ZM-25.2078 261.251-25.2078 279.584-29.7911 279.584-29.7911 261.251ZM-25.2078 293.334-25.2078 311.667-29.7911 311.667-29.7911 293.334ZM-25.2078 325.417-25.2078 343.751-29.7911 343.751-29.7911 325.417ZM-25.2078 357.501-25.2078 375.834-29.7911 375.834-29.7911 357.501ZM-25.2078 389.584-25.2078 407.917-29.7911 407.917-29.7911 389.584ZM-25.2078 421.667-25.2078 440.001-29.7911 440.001-29.7911 421.667ZM-25.2078 453.751-25.2078 472.084-29.7911 472.084-29.7911 453.751ZM-25.2078 485.834-25.2078 504.167-29.7911 504.167-29.7911 485.834ZM-25.2078 517.917-25.2078 536.251-29.7911 536.251-29.7911 517.917ZM-25.2078 550.001-25.2078 568.334-29.7911 568.334-29.7911 550.001ZM-25.2078 582.084-25.2078 600.417-29.7911 600.417-29.7911 582.084ZM-25.2078 614.167-25.2078 632.501-29.7911 632.501-29.7911 614.167ZM-25.2078 646.251-25.2078 664.584-29.7911 664.584-29.7911 646.251ZM-25.2078 678.334-25.2078 696.667-29.7911 696.667-29.7911 678.334ZM-25.2078 710.417-25.2078 728.751-29.7911 728.751-29.7911 710.417ZM-25.2078 742.501-25.2078 760.834-29.7911 760.834-29.7911 742.501ZM-25.2078 774.584-25.2078 792.917-29.7911 792.917-29.7911 774.584ZM-25.2078 806.667-25.2078 825.001-29.7911 825.001-29.7911 806.667ZM-25.2078 838.751-25.2078 857.084-29.7911 857.084-29.7911 838.751ZM-25.2078 870.834-25.2078 889.167-29.7911 889.167-29.7911 870.834ZM-25.2078 902.917-25.2078 921.251-29.7911 921.251-29.7911 902.917ZM-25.2078 935.001-25.2078 953.334-29.7911 953.334-29.7911 935.001ZM-25.2078 967.084-25.2078 985.417-29.7911 985.417-29.7911 967.084ZM-25.2078 999.167-25.2078 1017.5-29.7911 1017.5-29.7911 999.167ZM-25.2078 1031.25-25.2078 1049.58-29.7911 1049.58-29.7911 1031.25ZM-25.2078 1063.33-25.2078 1081.67-29.7911 1081.67-29.7911 1063.33ZM-25.2078 1095.42-25.2078 1113.75-29.7911 1113.75-29.7911 1095.42ZM-25.2078 1127.5-25.2078 1145.83-29.7911 1145.83-29.7911 1127.5ZM-25.2078 1159.58-25.2078 1177.92-29.7911 1177.92-29.7911 1159.58ZM-25.2078 1191.67-25.2078 1201.11-27.4994 1198.82-18.6137 1198.82-18.6137 1203.41-29.7911 1203.41-29.7911 1191.67ZM-4.86374 1198.82 13.4696 1198.82 13.4696 1203.41-4.86374 1203.41ZM27.2196 1198.82 45.5529 1198.82 45.5529 1203.41 27.2196 1203.41ZM59.3029 1198.82 63.5723 1198.82 63.5723 1203.41 59.3029 1203.41ZM58.9889 1187.36 86.4889 1201.11 58.9889 1214.86Z" transform="matrix(-1 0 0 1 4346.99 926.5)"/><path d="M1761.58 1222.5 1761.58 1325.03 995.5 1325.03 997.791 1322.74 997.791 1503.95 993.208 1503.95 993.208 1320.44 1759.29 1320.44 1757 1322.74 1757 1222.5ZM1009.25 1499.36 995.5 1526.86 981.75 1499.36Z"/><path d="M660.5 2342.13C660.5 2333.5 667.496 2326.5 676.127 2326.5L1314.87 2326.5C1323.5 2326.5 1330.5 2333.5 1330.5 2342.13L1330.5 2558.87C1330.5 2567.5 1323.5 2574.5 1314.87 2574.5L676.127 2574.5C667.496 2574.5 660.5 2567.5 660.5 2558.87Z" stroke="#000000" stroke-width="4.58333" stroke-miterlimit="8" fill="#FFFFFF" fill-rule="evenodd"/><text font-family="Garamond,Garamond_MSFontService,sans-serif" font-weight="700" font-size="46" transform="matrix(1 0 0 1 697.683 2389)">Model Scalability</text><text font-family="Garamond,Garamond_MSFontService,sans-serif" font-weight="700" font-size="46" transform="matrix(1 0 0 1 1033.41 2389)"> </text><text font-family="Arial,Arial_MSFontService,sans-serif" font-weight="400" font-size="46" transform="matrix(1 0 0 1 697.683 2444)">•</text><text font-family="Garamond,Garamond_MSFontService,sans-serif" font-weight="400" font-size="46" transform="matrix(1 0 0 1 759.558 2444)">Parallel execution</text><text font-family="Garamond,Garamond_MSFontService,sans-serif" font-weight="400" font-size="46" transform="matrix(1 0 0 1 1070.65 2444)"> </text><text font-family="Arial,Arial_MSFontService,sans-serif" font-weight="400" font-size="46" transform="matrix(1 0 0 1 697.683 2499)">•</text><text font-family="Garamond,Garamond_MSFontService,sans-serif" font-weight="400" font-size="46" transform="matrix(1 0 0 1 759.558 2499)">Distributed processing</text><text font-family="Garamond,Garamond_MSFontService,sans-serif" font-weight="400" font-size="46" transform="matrix(1 0 0 1 1161.17 2499)"> </text><text font-family="Arial,Arial_MSFontService,sans-serif" font-weight="400" font-size="46" transform="matrix(1 0 0 1 697.683 2554)">•</text><text font-family="Garamond,Garamond_MSFontService,sans-serif" font-weight="400" font-size="46" transform="matrix(1 0 0 1 759.558 2554)">Memory</text><text font-family="Garamond,Garamond_MSFontService,sans-serif" font-weight="400" font-size="46" transform="matrix(1 0 0 1 910.235 2554)">-</text><text font-family="Garamond,Garamond_MSFontService,sans-serif" font-weight="400" font-size="46" transform="matrix(1 0 0 1 924.558 2554)">efficient sampling</text><text font-family="Garamond,Garamond_MSFontService,sans-serif" font-weight="400" font-size="46" transform="matrix(1 0 0 1 1239.09 2554)"> </text><path d="M2.29167-1.24426e-05 2.2919 43.5521-2.29143 43.5521-2.29167 1.24426e-05ZM13.7502 38.9687 0.000360892 66.4688-13.7498 38.9689Z" transform="matrix(1 0 0 -1 995.5 2317.97)"/><path d="M1330.5 442.208 1401.02 442.209 1401.02 446.792 1330.5 446.792ZM1396.44 430.75 1423.94 444.5 1396.44 458.25Z"/></g></svg>