<svg width="3380" height="1175" xmlns="http://www.w3.org/2000/svg" xmlns:xlink="http://www.w3.org/1999/xlink" xml:space="preserve" overflow="hidden"><g transform="translate(-508 -547)"><path d="M510.5 884.5C510.5 774.043 600.043 684.5 710.5 684.5 820.957 684.5 910.5 774.043 910.5 884.5 910.5 994.957 820.957 1084.5 710.5 1084.5 600.043 1084.5 510.5 994.957 510.5 884.5Z" stroke="#262626" stroke-width="4.58333" stroke-miterlimit="8" fill="#104862" fill-rule="evenodd"/><path d="M1302.5 745.668C1302.5 727.35 1317.35 712.5 1335.67 712.5L2554.33 712.5C2572.65 712.5 2587.5 727.35 2587.5 745.668L2587.5 878.332C2587.5 896.65 2572.65 911.5 2554.33 911.5L1335.67 911.5C1317.35 911.5 1302.5 896.65 1302.5 878.332Z" stroke="#2E73B3" stroke-width="4.58333" stroke-miterlimit="8" fill="#2E73B3" fill-rule="evenodd"/><path d="M1302.5 1047C1302.5 1031.26 1315.26 1018.5 1331 1018.5L2559 1018.5C2574.74 1018.5 2587.5 1031.26 2587.5 1047L2587.5 1161C2587.5 1176.74 2574.74 1189.5 2559 1189.5L1331 1189.5C1315.26 1189.5 1302.5 1176.74 1302.5 1161Z" stroke="#DD9F00" stroke-width="4.58333" stroke-miterlimit="8" fill="#DD9F00" fill-rule="evenodd"/><path d="M1302.5 1303.83C1302.5 1288.19 1315.19 1275.5 1330.83 1275.5L2559.17 1275.5C2574.81 1275.5 2587.5 1288.19 2587.5 1303.83L2587.5 1417.17C2587.5 1432.81 2574.81 1445.5 2559.17 1445.5L1330.83 1445.5C1315.19 1445.5 1302.5 1432.81 1302.5 1417.17Z" stroke="#389E72" stroke-width="4.58333" stroke-miterlimit="8" fill="#389E72" fill-rule="evenodd"/><path d="M1302.5 1570C1302.5 1554.26 1315.26 1541.5 1331 1541.5L2559 1541.5C2574.74 1541.5 2587.5 1554.26 2587.5 1570L2587.5 1684C2587.5 1699.74 2574.74 1712.5 2559 1712.5L1331 1712.5C1315.26 1712.5 1302.5 1699.74 1302.5 1684Z" stroke="#389E72" stroke-width="4.58333" stroke-miterlimit="8" fill="#389E72" fill-rule="evenodd"/><rect x="2888.5" y="731.5" width="997" height="166" stroke="#2E73B3" stroke-width="4.58333" stroke-miterlimit="8" stroke-dasharray="18.3333 13.75" fill="none"/><rect x="2888.5" y="1009.5" width="997" height="246" stroke="#DD9F00" stroke-width="4.58333" stroke-miterlimit="8" stroke-dasharray="18.3333 13.75" fill="none"/><rect x="2888.5" y="1396.5" width="997" height="189" stroke="#389E72" stroke-width="4.58333" stroke-miterlimit="8" stroke-dasharray="18.3333 13.75" fill="none"/><path d="M2587.5 809.208 2605.83 809.21 2605.83 813.794 2587.5 813.792ZM2619.58 809.211 2637.92 809.213 2637.92 813.797 2619.58 813.795ZM2651.67 809.214 2670 809.216 2670 813.799 2651.67 813.798ZM2683.75 809.217 2702.08 809.219 2702.08 813.802 2683.75 813.801ZM2715.83 809.22 2734.17 809.222 2734.17 813.806 2715.83 813.804ZM2747.92 809.223 2766.25 809.225 2766.25 813.809 2747.92 813.807ZM2780 809.227 2798.33 809.228 2798.33 813.812 2780 813.81ZM2812.08 809.229 2830.42 809.231 2830.42 813.815 2812.08 813.813ZM2844.17 809.232 2862.5 809.234 2862.5 813.818 2844.17 813.816ZM2860.73 797.776 2888.23 811.528 2860.73 825.276Z" fill="#2E73B3"/><path d="M0-2.29167 198.361-2.29167 198.361 79.383 196.069 77.0913 369.222 77.0913 369.222 81.6746 193.778 81.6746 193.778 0 196.069 2.29167 0 2.29167ZM364.639 65.633 392.139 79.383 364.639 93.133Z" fill="#262626" transform="matrix(1 0 0 -1 910.5 884.883)"/><path d="M1946.79 911.5 1946.79 995.927 1942.21 995.927 1942.21 911.5ZM1958.25 991.343 1944.5 1018.84 1930.75 991.343Z" fill="#262626"/><path d="M1946.79 1189.5 1946.79 1252.49 1942.21 1252.49 1942.21 1189.5ZM1958.25 1247.91 1944.5 1275.41 1930.75 1247.91Z" fill="#262626"/><path d="M1946.79 1445.5 1946.79 1519.21 1942.21 1519.21 1942.21 1445.5ZM1958.25 1514.63 1944.5 1542.13 1930.75 1514.63Z"/><rect x="515" y="562" width="2176" height="69.0001" fill="#262626"/><text fill="#FFFFFF" font-family="Assistant,Assistant_MSFontService,sans-serif" font-weight="700" font-size="55" transform="matrix(1 0 0 1 1429 615)">Proposed plan</text><rect x="2888" y="562" width="997" height="69.0001" fill="#262626"/><text fill="#FFFFFF" font-family="Assistant,Assistant_MSFontService,sans-serif" font-weight="700" font-size="55" transform="matrix(1 0 0 1 3256.91 615)">Evaluation</text><path d="M2587.5 809.208 2605.83 809.208 2605.83 813.792 2587.5 813.792ZM2619.58 809.208 2637.92 809.208 2637.92 813.792 2619.58 813.792ZM2651.67 809.208 2670 809.208 2670 813.792 2651.67 813.792ZM2683.75 809.208 2702.08 809.208 2702.08 813.792 2683.75 813.792ZM2715.83 809.208 2734.17 809.208 2734.17 813.792 2715.83 813.792ZM2740.16 821.55 2740.16 839.884 2735.57 839.884 2735.57 821.55ZM2740.16 853.634 2740.16 871.967 2735.57 871.967 2735.57 853.634ZM2740.16 885.717 2740.16 904.05 2735.57 904.05 2735.57 885.717ZM2740.16 917.8 2740.16 936.134 2735.57 936.134 2735.57 917.8ZM2740.16 949.884 2740.16 968.217 2735.57 968.217 2735.57 949.884ZM2740.16 981.967 2740.16 1000.3 2735.57 1000.3 2735.57 981.967ZM2740.16 1014.05 2740.16 1032.38 2735.57 1032.38 2735.57 1014.05ZM2740.16 1046.13 2740.16 1064.47 2735.57 1064.47 2735.57 1046.13ZM2745.58 1068.21 2763.91 1068.21 2763.91 1072.8 2745.58 1072.8ZM2777.66 1068.21 2796 1068.21 2796 1072.8 2777.66 1072.8ZM2809.75 1068.21 2828.08 1068.21 2828.08 1072.8 2809.75 1072.8ZM2841.83 1068.21 2860.16 1068.21 2860.16 1072.8 2841.83 1072.8ZM2860.73 1056.75 2888.23 1070.5 2860.73 1084.25Z" fill="#2E73B3"/><path d="M2587.5 1119.21 2605.83 1119.21 2605.83 1123.79 2587.5 1123.79ZM2619.58 1119.21 2637.92 1119.21 2637.92 1123.79 2619.58 1123.79ZM2651.67 1119.21 2670 1119.21 2670 1123.79 2651.67 1123.79ZM2683.75 1119.21 2702.08 1119.21 2702.08 1123.79 2683.75 1123.79ZM2715.83 1119.21 2734.17 1119.21 2734.17 1123.79 2715.83 1123.79ZM2747.92 1119.21 2766.25 1119.21 2766.25 1123.79 2747.92 1123.79ZM2780 1119.21 2798.33 1119.21 2798.33 1123.79 2780 1123.79ZM2812.08 1119.21 2830.42 1119.21 2830.42 1123.79 2812.08 1123.79ZM2844.17 1119.21 2862.5 1119.21 2862.5 1123.79 2844.17 1123.79ZM2860.73 1107.75 2888.23 1121.5 2860.73 1135.25Z" fill="#DD9F00"/><path d="M2587.5 1358.21 2605.83 1358.21 2605.83 1362.79 2587.5 1362.79ZM2619.58 1358.21 2637.92 1358.21 2637.92 1362.79 2619.58 1362.79ZM2651.67 1358.21 2670 1358.21 2670 1362.79 2651.67 1362.79ZM2683.75 1358.21 2702.08 1358.21 2702.08 1362.79 2683.75 1362.79ZM2715.83 1358.21 2734.17 1358.21 2734.17 1362.79 2715.83 1362.79ZM2740.16 1370.55 2740.16 1388.88 2735.57 1388.88 2735.57 1370.55ZM2740.16 1402.63 2740.16 1420.97 2735.57 1420.97 2735.57 1402.63ZM2740.16 1434.72 2740.16 1453.05 2735.57 1453.05 2735.57 1434.72ZM2740.16 1466.8 2740.16 1485.13 2735.57 1485.13 2735.57 1466.8ZM2745.26 1489.2 2763.59 1489.2 2763.59 1493.78 2745.26 1493.78ZM2777.34 1489.2 2795.68 1489.2 2795.68 1493.78 2777.34 1493.78ZM2809.43 1489.2 2827.76 1489.2 2827.76 1493.78 2809.43 1493.78ZM2841.51 1489.2 2859.84 1489.2 2859.84 1493.78 2841.51 1493.78ZM2860.73 1477.74 2888.23 1491.49 2860.73 1505.24Z" fill="#389E72"/><path d="M0-2.29167 18.3333-2.29167 18.3333 2.29167 0 2.29167ZM32.0833-2.29167 50.4167-2.29167 50.4167 2.29167 32.0833 2.29167ZM64.1667-2.29167 82.5-2.29167 82.5 2.29167 64.1667 2.29167ZM96.25-2.29167 114.583-2.29167 114.583 2.29167 96.25 2.29167ZM128.333-2.29167 146.667-2.29167 146.667 2.29167 128.333 2.29167ZM152.658 10.05 152.658 28.3833 148.075 28.3833 148.075 10.05ZM152.658 42.1333 152.658 60.4666 148.075 60.4666 148.075 42.1333ZM152.658 74.2166 152.658 92.5499 148.075 92.5499 148.075 74.2166ZM152.658 106.3 152.658 124.633 148.075 124.633 148.075 106.3ZM152.803 133.655 171.136 133.655 171.136 138.239 152.803 138.239ZM184.886 133.655 203.22 133.655 203.22 138.239 184.886 138.239ZM216.97 133.655 235.303 133.655 235.303 138.239 216.97 138.239ZM249.053 133.655 267.386 133.655 267.386 138.239 249.053 138.239ZM273.233 122.197 300.733 135.947 273.233 149.697Z" fill="#389E72" transform="matrix(1 0 0 -1 2587.5 1627.45)"/><text fill="#FFFFFF" font-family="Assistant,Assistant_MSFontService,sans-serif" font-weight="700" font-size="55" transform="matrix(1 0 0 1 594.944 836)">Observed </text><text fill="#FFFFFF" font-family="Assistant,Assistant_MSFontService,sans-serif" font-weight="700" font-size="55" transform="matrix(1 0 0 1 608.992 902)">Demand </text><text fill="#FFFFFF" font-family="Assistant,Assistant_MSFontService,sans-serif" font-weight="700" font-size="55" transform="matrix(1 0 0 1 655.101 968)">data</text><text fill="#FFFFFF" font-family="Assistant,Assistant_MSFontService,sans-serif" font-weight="700" font-size="55" transform="matrix(1 0 0 1 1648.78 796)">True demand estimation </text><text fill="#FFFFFF" font-family="Assistant,Assistant_MSFontService,sans-serif" font-weight="700" font-size="55" transform="matrix(1 0 0 1 1501.26 862)">(Truncated Conformal Kalman Filter)</text><text fill="#FFFFFF" font-family="Assistant,Assistant_MSFontService,sans-serif" font-weight="700" font-size="55" transform="matrix(1 0 0 1 1666.55 1087)">Inventory optimisation </text><text fill="#FFFFFF" font-family="Assistant,Assistant_MSFontService,sans-serif" font-weight="700" font-size="55" transform="matrix(1 0 0 1 1605.82 1153)">(with contextual covariates)</text><text fill="#FFFFFF" font-family="Assistant,Assistant_MSFontService,sans-serif" font-weight="700" font-size="55" transform="matrix(1 0 0 1 1450.56 1378)">Model based order qty recommendations</text><text fill="#FFFFFF" font-family="Assistant,Assistant_MSFontService,sans-serif" font-weight="700" font-size="55" transform="matrix(1 0 0 1 1370.93 1608)">Lab experiment feedback (measuring impact on </text><text fill="#FFFFFF" font-family="Assistant,Assistant_MSFontService,sans-serif" font-weight="700" font-size="55" transform="matrix(1 0 0 1 1738.74 1674)">decision making)</text><text font-family="Assistant,Assistant_MSFontService,sans-serif" font-weight="700" font-size="55" transform="matrix(1 0 0 1 3117.41 799)">Numerical experiment</text><text font-family="Assistant,Assistant_MSFontService,sans-serif" font-weight="400" font-size="55" transform="matrix(1 0 0 1 3207.63 865)">(synthetic data)</text><text font-family="Assistant,Assistant_MSFontService,sans-serif" font-weight="700" font-size="55" transform="matrix(1 0 0 1 3127.15 1091)">Empirical experiment</text><text font-family="Assistant,Assistant_MSFontService,sans-serif" font-weight="400" font-size="55" transform="matrix(1 0 0 1 3205.91 1157)">(LMIS data from</text><text font-family="Assistant,Assistant_MSFontService,sans-serif" font-weight="400" font-size="55" transform="matrix(1 0 0 1 3117.41 1223)">Côte d'Ivoire/  Ethiopia)</text><text font-family="Assistant,Assistant_MSFontService,sans-serif" font-weight="700" font-size="55" transform="matrix(1 0 0 1 3197.63 1476)">Lab experiment</text><text font-family="Assistant,Assistant_MSFontService,sans-serif" font-weight="400" font-size="55" transform="matrix(1 0 0 1 2948.69 1542)">(Planners from Côte d'Ivoire/ Ethiopia)</text></g></svg>