<svg xmlns="http://www.w3.org/2000/svg" xmlns:xlink="http://www.w3.org/1999/xlink" xmlns:inkscape="http://www.inkscape.org/namespaces/inkscape" version="1.1" width="864" height="360" viewBox="0 0 864 360">
<path transform="matrix(1,0,0,-1,82.946,37.955)" stroke-width=".3985" stroke-linecap="butt" stroke-miterlimit="10" stroke-linejoin="miter" fill="none" stroke="#000000" d="M53.97386 13.99718H-53.97383C-56.17477 13.99718-57.95894 12.21301-57.95894 10.01207V-10.01207C-57.95894-12.21301-56.17477-13.99718-53.97383-13.99718H53.97386C56.1748-13.99718 57.95897-12.21301 57.95897-10.01207V10.01207C57.95897 12.21301 56.1748 13.99718 53.97386 13.99718ZM57.95897 .102H-57.95894"/>
<text xml:space="preserve" transform="matrix(.85 0 -0 .85 18.223 62.264)" font-size="10.9091" font-family="Assistant" font-weight="bold"><tspan y="-34.045" x="10.946 16.967823 22.564192 28.760561 32.86238 39.04784 44.546026 48.647848 51.61512 60.33149 67.22604 72.83332 82.13879 87.855159 94.05152">SyntheticDemand</tspan></text>
<text xml:space="preserve" transform="matrix(.85 0 -0 .85 18.223 76.289)" font-size="10.9091" font-family="Assistant"><tspan y="-34.045" x="10.608 13.946184 21.015282 26.97165 36.03711 41.45893 45.288026 47.99348 52.858938 58.37894 64.81531 70.23713 75.157138 81.222599 86.64442 90.47351 93.17897 102.24443 107.66625 113.64444 117.36444">(NumericalExperiment)</tspan></text>
<path transform="matrix(1,0,0,-1,82.946,37.955)" stroke-width=".3985" stroke-linecap="butt" stroke-miterlimit="10" stroke-linejoin="miter" fill="none" stroke="#000000" d="M237.69516 13.07452H129.74747C127.54652 13.07452 125.76236 11.29036 125.76236 9.08942V-9.08943C125.76236-11.29037 127.54652-13.07454 129.74747-13.07454H237.69516C239.8961-13.07454 241.68027-11.29037 241.68027-9.08943V9.08942C241.68027 11.29036 239.8961 13.07452 237.69516 13.07452ZM241.68027 1.02466H125.76236"/>
<text xml:space="preserve" transform="matrix(.85 0 -0 .85 201.945 63.047)" font-size="10.9091" font-family="Assistant" font-weight="bold"><tspan y="-34.045" x="10.946 16.542368 24.800557 28.018742 37.673295 45.10239 51.287855 56.07695 61.684228 66.03696 71.57878 77.18606 87.02606 93.920619 99.52789 108.83336 114.54973 120.74609">LMISObservedDemand</tspan></text>
<text xml:space="preserve" transform="matrix(.85 0 -0 .85 201.945 75.366)" font-size="10.9091" font-family="Assistant"><tspan y="-34.045" x="10.608 13.946184 19.706189 28.77165 34.83711 37.542566 41.37166 44.077116 48.94257 54.462575 60.89894 66.32076 71.24077 77.30623 82.72805 86.557147 89.2626 94.684429 103.749889 107.46989">(EmpiricalExperiemt)</tspan></text>
<path transform="matrix(1,0,0,-1,82.946,37.955)" stroke-width=".3985" stroke-linecap="butt" stroke-miterlimit="10" stroke-linejoin="miter" fill="none" stroke="#000000" d="M162.69707-52.42593H21.01642C18.81548-52.42593 17.03131-54.2101 17.03131-56.41104V-88.2119C17.03131-90.41284 18.81548-92.197 21.01642-92.197H162.69707C164.89801-92.197 166.68218-90.41284 166.68218-88.2119V-56.41104C166.68218-54.2101 164.89801-52.42593 162.69707-52.42593ZM166.68218-66.47876H17.03131"/>
<text xml:space="preserve" transform="matrix(.85 0 -0 .85 93.214008 128.687)" font-size="10.9091" font-family="Assistant" font-weight="bold"><tspan y="-34.045" x="10.946 17.840552 23.371464 27.255105 36.604204 43.06239 47.218759 52.826036 59.04422 63.189676 69.222408 74.02241 79.629688 84.41878 89.20787 92.17515 98.37151">DataPreprocessing</tspan></text>
<text xml:space="preserve" transform="matrix(.85 0 -0 .85 93.214008 142.795)" font-size="10.9091" font-family="Assistant"><tspan y="-34.045" x="9.899 18.768099 21.66992 27.73538 33.157205 39.13539 42.855394 45.56085 48.779035 57.54995 63.789957 69.21178 75.189968 79.7827 85.706348 89.50271 94.09544 100.05181 102.75727">&#x2013;IdentifyCensorship</tspan><tspan y="-20.495999" x="9.899 18.768099 24.724469 30.789929 40.48812 46.629945 52.051767 57.57177 61.29177 66.71359 71.30632 75.89905 81.82269 85.60815">&#x2013;AddRegressors</tspan></text>
<path transform="matrix(1,0,0,-1,82.946,37.955)" stroke-width=".3985" stroke-linecap="butt" stroke-miterlimit="10" stroke-linejoin="miter" fill="none" stroke="#000000" d="M234.98006-126.26672H-51.27042C-53.47136-126.26672-55.25552-128.05089-55.25552-130.25183V-208.19509C-55.25552-210.39603-53.47136-212.18019-51.27042-212.18019H234.98006C237.181-212.18019 238.96517-210.39603 238.96517-208.19509V-130.25183C238.96517-128.05089 237.181-126.26672 234.98006-126.26672ZM238.96517-140.31957H-55.25552"/>
<text xml:space="preserve" transform="matrix(.85 0 -0 .85 20.926999 202.528)" font-size="10.9091" font-family="Assistant" font-weight="bold"><tspan y="-34.045" x="10.946 16.433278 22.46601 26.611468 32.218748 37.193296 42.909666 47.58967 51.69149 54.658765 60.855134 70.269687 78.52787 84.036968 88.13879 94.32425 100.35698 106.575168">ForecastingMethods</tspan></text>
<text xml:space="preserve" transform="matrix(.85 0 -0 .85 20.926999 216.71)" font-size="10.9091" font-family="Assistant"><tspan y="-34.045" x="9.899">&#x2013;</tspan></text>
<text xml:space="preserve" transform="matrix(.85 0 -0 .85 20.926999 216.71)" font-size="10.9091" font-family="Assistant" font-weight="bold"><tspan y="-34.045" x="18.771 24.509186 30.836464 37.480108">TCKF</tspan></text>
<text xml:space="preserve" transform="matrix(.85 0 -0 .85 20.926999 216.71)" font-size="10.9091" font-family="Assistant"><tspan y="-34.045" x="46.789 50.127187 56.192647 59.912649 65.83629 71.90175 77.80357 82.3963 87.81812 97.51631 106.58177 112.50542 118.57088 123.9927 126.79634">(proposedmodel)</tspan><tspan y="-20.495999" x="9.899002 18.7681 24.35356 27.844471 33.211748 36.931749 39.637205 44.120843 47.840845 50.5463 55.411756 60.93176 63.735399 71.93904 79.00814 84.528148 87.233608 92.33906 97.76088 104.1427 112.095439 117.37544 122.89545 128.87363 135.25547 141.01548 146.48093 152.31729 158.71004 164.66641 170.90642 173.80825 181.76097 187.71735 194.11009 199.94646 206.37192 212.3283 218.72104 224.04468 226.75014 232.72832 238.00833 243.52834 250.99018 257.132 262.5538 268.07383 271.79383 277.21565 281.80839 286.40113 289.10658 295.0302">&#x2013;Statistical:Naive,Mean,ETS,ARIMA,SBA,LinearRegression</tspan><tspan y="-6.9469988" x="9.899002 18.7681 26.720835 32.24084 37.21539 43.171758 45.877214 51.8554 60.90995 66.11359 71.38268 76.90269 80.73178 86.70997 89.41543 95.393619 100.91362 109.11726 114.4409 117.14636 122.66637 128.62274 132.34275 139.08457 145.51003">&#x2013;MachineLearning:LightGBM</tspan><tspan y="6.602001" x="9.899002 18.7681 24.037196 29.960837 35.917207 41.895395 47.960855 53.32813 57.048135 59.75359 65.67723 71.65542 77.17542 79.979068 88.18271 94.0518 96.75726 105.82272 111.244548 117.98637 123.94273">&#x2013;Foundational:TimeGPT</tspan><tspan y="20.152" x="9.899002 18.7681 24.091742 32.044477 34.946298 44.415399 49.68449 55.60813 59.328134 64.749958 69.61541 75.135417 79.61906 86.96088 90.299068 96.05907 105.12453 111.18999 113.89545 117.72454 120.43 125.306369 130.82637 137.26274 143.18639 149.16457 151.9682 157.10639">&#x2013;LMISForecast(Empiricalonly)</tspan><tspan y="33.701" x="9.899002 18.7681 24.189923 29.109927 35.175386 40.597208 44.4263 51.768125 57.02631 62.982679 69.048137 74.56814 83.6336 89.05542 95.03361 102.38634 105.724529 111.48453 120.54999 126.61545 129.3209 133.15001 135.85547 140.73184 146.25185 152.68822 158.61186 164.59004 167.39368 172.53186">&#x2013;ExpertJudgment(Empiricalonly)</tspan></text>
<path transform="matrix(1,0,0,-1,82.946,37.955)" stroke-width=".3985" stroke-linecap="butt" stroke-miterlimit="10" stroke-linejoin="miter" fill="none" stroke="#000000" d="M162.69318-241.42839H21.01253C18.81158-241.42839 17.02742-243.21256 17.02742-245.4135V-275.78636C17.02742-277.9873 18.81158-279.77149 21.01253-279.77149H162.69318C164.89412-279.77149 166.67829-277.9873 166.67829-275.78636V-245.4135C166.67829-243.21256 164.89412-241.42839 162.69318-241.42839ZM166.67829-254.74868H17.02742"/>
<text xml:space="preserve" transform="matrix(.85 0 -0 .85 93.21 317.198)" font-size="10.9091" font-family="Assistant" font-weight="bold"><tspan y="-34.045" x="10.946 16.433278 22.46601 26.611468 32.218748 37.193296 42.909666 47.58967 55.32422 62.753316 68.916957 73.018779 79.23696 85.400608 89.43697">ForecastOutputs</tspan></text>
<text xml:space="preserve" transform="matrix(.85 0 -0 .85 93.21 330.806)" font-size="10.9091" font-family="Assistant"><tspan y="-34.045" x="9.899 18.768099 24.713559 30.6372 33.342657 39.320844 46.66267 51.931768 57.855409 61.57541 66.99723 71.862689 77.38269 81.866329">&#x2013;PointForecast</tspan><tspan y="-20.495999" x="9.899 18.768099 24.964468 28.69538 34.117204 40.182664 42.88812 47.753576 51.47358 54.179037 60.102678 69.70268 72.6045 78.58269 82.16087 87.582698 91.6627 96.593608 102.11361 108.53907 111.87726 118.11726 124.04091 130.01909 133.1391 139.06275 142.89185 151.9573 157.47731 160.28095">&#x2013;PredictionInterval(Conformal)</tspan></text>
<path transform="matrix(1,0,0,-1,82.946,37.955)" stroke-width=".3985" stroke-linecap="butt" stroke-miterlimit="10" stroke-linejoin="miter" fill="none" stroke="#000000" d="M592.4869 19.7557H426.7113C424.51036 19.7557 422.72618 17.97154 422.72618 15.7706V-15.7706C422.72618-17.97154 424.51036-19.7557 426.7113-19.7557H592.4869C594.68789-19.7557 596.472-17.97154 596.472-15.7706V15.7706C596.472 17.97154 594.68789 19.7557 592.4869 19.7557ZM596.472 5.86052H422.72618"/>
<text xml:space="preserve" transform="matrix(.85 0 -0 .85 498.909 56.505)" font-size="10.9091" font-family="Assistant" font-weight="bold"><tspan y="-34.045" x="10.946 14.164185 20.360554 25.891467 31.498744 37.69511 41.611478 47.64421 51.99694 61.236948 67.476947 73.509677 76.575138 79.54241 84.62605 87.59333 93.20061">InventoryPolicies</tspan></text>
<text xml:space="preserve" transform="matrix(.85 0 -0 .85 498.909 70.53)" font-size="10.9091" font-family="Assistant"><tspan y="-34.045" x="10.695 15.680458 23.884102 30.625927 35.949567 39.51684 44.938665 48.767759 57.83322 60.538679 66.51686 69.22232 73.705959 77.42596 80.13142 88.72778 92.06597 99.33143 103.06234 109.1278 114.54962 118.1169 121.52054 127.476909 133.59691 136.72783 140.2951 149.84058 158.90604 164.18605 169.70606 175.68424">1.Deterministic(Order-up-tomean)</tspan><tspan y="-20.495999" x="10.946 16.38964 24.593285 31.858746 37.815114 43.335119 49.313306 53.03331 55.738767 58.542406 64.07332 67.47696 73.389698 78.9097 83.502429 88.92425 98.62244 101.960628 109.22608 112.95699 119.02245 124.444278 128.01155 131.41519 137.37157 143.49158 146.6225 150.18978">2.Quantile-based(Order-up-to</tspan></text>
<text xml:space="preserve" transform="matrix(.85 0 -0 .85 498.909 70.53)" font-size="12.6556" font-family="LatinModernMath"><tspan y="-20.495999" x="159.741">&#x1d6fc;</tspan></text>
<text xml:space="preserve" transform="matrix(.85 0 -0 .85 498.909 70.53)" font-size="10.9091" font-family="Assistant"><tspan y="-20.495999" x="167.841 171.24465 174.04828 179.50284 184.60829 190.03012 192.83376">-level)</tspan></text>
<path transform="matrix(1,0,0,-1,82.946,37.955)" stroke-width=".3985" stroke-linecap="butt" stroke-miterlimit="10" stroke-linejoin="miter" fill="none" stroke="#000000" d="M592.47616-49.00795H426.70054C424.4996-49.00795 422.71543-50.79211 422.71543-52.99306V-107.57765C422.71543-109.7786 424.4996-111.56276 426.70054-111.56276H592.47616C594.6771-111.56276 596.46127-109.7786 596.46127-107.57765V-52.99306C596.46127-50.79211 594.6771-49.00795 592.47616-49.00795ZM596.46127-63.06078H422.71543"/>
<text xml:space="preserve" transform="matrix(.85 0 -0 .85 498.898 125.269)" font-size="10.9091" font-family="Assistant" font-weight="bold"><tspan y="-34.045" x="10.946 14.164185 20.360554 25.891467 31.498744 37.69511 41.611478 47.64421 51.99694 61.236948 67.258769 70.22604 79.53151 85.69515 88.76061 94.30244 98.40426 101.37154 107.40427 117.22245 123.16791 129.36428 135.1461 138.11338 144.30974">InventorySimulationEngine</tspan></text>
<text xml:space="preserve" transform="matrix(.85 0 -0 .85 498.898 139.26599)" font-size="10.9091" font-family="Assistant"><tspan y="-34.045" x="9.899 18.768099 25.826287 31.891747 37.957208 43.335393 46.902669 55.946313 60.44086 64.00814 69.931789 74.906337 83.960887 86.76453 92.22999 97.33544 102.75726 105.560909">&#x2013;Updatestocklevels</tspan><tspan y="-20.495999" x="9.899 18.768099 24.724469 30.789929 36.85539 39.659029 48.429948 51.233587 56.513589 62.033594 71.72087 75.44087 78.14633 87.21179 92.63361">&#x2013;Applyleadtimes</tspan><tspan y="-6.9469988" x="9.899 18.768099 24.909922 30.331746 35.06629 40.989934 44.709936 54.397218 57.200857 63.113588 67.59722 74.93904 79.53177 85.05177 87.855419 93.27724">&#x2013;Recordlostsales</tspan><tspan y="6.602001" x="9.899 18.768099 24.724469 30.789929 36.85539 39.659029 48.429948 52.16086 57.58268 63.50632 67.226329 73.29179 78.71361 86.16452 89.993618 95.94998 98.753627 104.175449">&#x2013;Applyreorderrules</tspan></text>
<path transform="matrix(1,0,0,-1,82.946,37.955)" stroke-width=".3985" stroke-linecap="butt" stroke-miterlimit="10" stroke-linejoin="miter" fill="none" stroke="#000000" d="M408.74473-121.5371H267.06407C264.86314-121.5371 263.07896-123.32126 263.07896-125.5222V-177.52893C263.07896-179.72988 264.86314-181.51404 267.06407-181.51404H408.74473C410.94566-181.51404 412.72984-179.72988 412.72984-177.52893V-125.5222C412.72984-123.32126 410.94566-121.5371 408.74473-121.5371ZM412.72984-134.82955H263.07896"/>
<text xml:space="preserve" transform="matrix(.85 0 -0 .85 339.261 197.195)" font-size="10.9091" font-family="Assistant" font-weight="bold"><tspan y="-34.045" x="10.946 16.433278 22.46601 26.611468 32.218748 37.193296 42.909666 47.58967 55.32422 61.520589 66.3315 71.41514 77.57878 81.53878 87.25515 92.36061">ForecastAccuracy</tspan></text>
<text xml:space="preserve" transform="matrix(.85 0 -0 .85 339.261 211.035)" font-size="10.9091" font-family="Assistant"><tspan y="-34.045" x="9.899 18.768099 24.909922 30.331746 36.757207 42.99721 50.949945 56.786314">&#x2013;RelRMSE</tspan><tspan y="-20.495999" x="9.899 18.768099 24.037194 29.960835 33.680837 39.102659 43.968114 49.488119 53.971757 61.31358 66.724498 72.2445 75.04814 81.00451 90.04815 96.00452 102.06998 108.13544 113.55726 123.26636 126.604549 132.04819 137.55728 143.51366">&#x2013;ForecastValueAdded(FVA)</tspan><tspan y="-6.9469988" x="9.899 18.768099 24.964468 27.669926 33.648115 39.560846 45.08085 47.884489 54.309949 59.51359 65.41541 70.00815">&#x2013;PinballLoss</tspan><tspan y="6.602001" x="9.899 18.768099 24.604468 30.037199 32.742658 35.546297 41.982667 47.819036 52.56449 58.488134 62.208135">&#x2013;SkillScore</tspan></text>
<path transform="matrix(1,0,0,-1,82.946,37.955)" stroke-width=".3985" stroke-linecap="butt" stroke-miterlimit="10" stroke-linejoin="miter" fill="none" stroke="#000000" d="M752.0911-121.5371H610.41049C608.20956-121.5371 606.42538-123.32126 606.42538-125.5222V-214.0645C606.42538-216.26544 608.20956-218.0496 610.41049-218.0496H752.0911C754.29208-218.0496 756.07626-216.26544 756.07626-214.0645V-125.5222C756.07626-123.32126 754.29208-121.5371 752.0911-121.5371ZM756.07626-135.40447H606.42538"/>
<text xml:space="preserve" transform="matrix(.85 0 -0 .85 682.608 197.76999)" font-size="10.9091" font-family="Assistant" font-weight="bold"><tspan y="-34.045" x="10.946 14.164185 20.360554 25.891467 31.498744 37.69511 41.611478 47.64421 51.99694 61.236948 67.476947 73.08422 77.33877 80.862407 86.895137 91.14968 100.45515 106.17152 112.36788 117.167888">InventoryPerformance</tspan></text>
<text xml:space="preserve" transform="matrix(.85 0 -0 .85 682.608 211.202)" font-size="10.9091" font-family="Assistant"><tspan y="-34.045" x="9.899 18.768099 24.757195 30.593564">&#x2013;CSL</tspan><tspan y="-20.495999" x="9.899 18.768099 24.353558 27.920834 33.844476 38.819025 43.73903 47.14267 54.40813 60.3645 67.70632 73.9136 79.280879 82.84815">&#x2013;Stock-OutRate</tspan><tspan y="-6.9469988" x="9.899 18.768099 21.66992 27.648108 32.753568 38.17539 44.153577 47.72085 53.644495 57.724496 66.495418 71.873607 77.82997 81.659069 87.63725 93.51726 98.6118 104.03362">&#x2013;InventoryTurnover</tspan><tspan y="6.602001" x="9.899 18.768099 24.909922 30.331746 36.757207 42.746305 48.582674">&#x2013;RelCSL</tspan><tspan y="20.152" x="9.899 18.768099 24.909922 30.331746 36.757207 42.342668 45.90994 51.83358 56.80813 61.728136 65.131778 71.05542 77.01179 84.35361 90.56088 95.92816 99.49544">&#x2013;RelStock-outRate</tspan><tspan y="33.701" x="9.899 18.768099 24.909922 30.331746 36.757207 39.659029 45.637216 50.742677 56.164499 62.142686 65.70996 71.633609 75.71361 84.48452 89.86271 95.81908 99.64817 105.62636 111.50636 116.60091 122.02273">&#x2013;RelInventoryTurnover</tspan><tspan y="47.25" x="9.899 18.768099 21.66992 27.648108 32.753568 38.17539 44.153577 47.72085 53.644495 57.724496 66.495418 71.906337 77.42634 80.22998 86.18635 95.22999 101.186359 107.251819 113.317279 118.7391 128.4482 131.78638 134.6882 140.1973 146.15367">&#x2013;InventoryValueAdded(IVA)</tspan></text>
<path transform="matrix(1,0,0,-1,82.946,37.955)" stroke-width=".3985" stroke-linecap="butt" stroke-miterlimit="10" stroke-linejoin="miter" fill="none" stroke="#000000" d="M592.4439-229.02605H426.6683C424.46736-229.02605 422.6832-230.81021 422.6832-233.01116V-310.52787C422.6832-312.7288 424.46736-314.51298 426.6683-314.51298H592.4439C594.6449-314.51298 596.429-312.7288 596.429-310.52787V-233.01116C596.429-230.81021 594.6449-229.02605 592.4439-229.02605ZM596.429-242.83779H422.6832"/>
<text xml:space="preserve" transform="matrix(.85 0 -0 .85 498.866 305.287)" font-size="10.9091" font-family="Assistant" font-weight="bold"><tspan y="-34.045" x="10.946 17.404187 23.567828 29.786015 32.85147 35.818746 44.53512 51.844217 57.3424 63.05877 66.12423 70.22605 80.03333 83.25152 92.556987 98.66608 104.38245 109.356998">PublicHealthImpact</tspan></text>
<text xml:space="preserve" transform="matrix(.85 0 -0 .85 498.866 319.043)" font-size="10.9091" font-family="Assistant"><tspan y="-34.045" x="10.946 17.37146 22.891465 27.484196 32.906019 42.60421 48.52785 58.13877 63.72423 67.29151 73.21516 78.189708 83.41516 89.338809 95.29517 102.63699 108.84427 114.21155 117.778827">BasedonStockoutRate</tspan><tspan y="-20.495999" x="9.899">&#x2013;</tspan></text>
<text xml:space="preserve" transform="matrix(.85 0 -0 .85 498.866 319.043)" font-size="12.6556" font-family="LatinModernMath"><tspan y="-20.495999" x="18.771">&#x0394;</tspan></text>
<text xml:space="preserve" transform="matrix(.85 0 -0 .85 498.866 319.043)" font-size="10.9091" font-family="Assistant"><tspan y="-20.495999" x="32.949 42.014467 48.25447 54.45084">mCPR</tspan><tspan y="-6.9469988" x="9.899002 18.7681 25.79356 30.386292 35.808115 39.59357 47.808126 53.01177 58.91359 63.39723">&#x2013;UsersLost</tspan><tspan y="6.602001" x="9.899002 18.7681 24.724469 30.779019 36.70266 40.531755 44.251756 46.95721 52.88085 58.85904 67.0845 72.96451 78.05905 83.48087 87.30997 90.87724 96.299068">&#x2013;AbortionsAverted</tspan><tspan y="20.152" x="9.899002 18.7681 26.720835 32.099023 35.666296 41.088117 44.91721 50.895399 56.4154 62.840864 69.57178 74.85178 80.21906 83.939067 89.89543 98.10998 103.98998 109.084529 114.50635 118.33544 121.90272 127.32454">&#x2013;MaternalDeathsAverted</tspan><tspan y="33.701" x="9.899002 18.7681 25.826289 31.804476 34.509935 40.48812 44.066305 49.488126 55.466314 61.531774 66.9536 76.64088 82.83724 86.56815 91.989978 97.50998 103.48817 109.00817 114.98636 119.96091 122.66637 128.0882">&#x2013;UnintendedPregnancies</tspan></text>
<path transform="matrix(1,0,0,-1,82.946,37.955)" stroke-width=".3985" stroke-linecap="butt" stroke-miterlimit="10" stroke-linejoin="miter" fill="none" stroke="#000000" d="M0-14.16624V-72.30994H13.79767"/>
<path transform="matrix(1,0,0,-1,95.02548,110.26494)" d="M4.21463 0 .64343 1.34572 1.8178 0 .64343-1.34572Z"/>
<path transform="matrix(1,0,0,-1,95.02548,110.26494)" stroke-width=".3985" stroke-linecap="butt" stroke-miterlimit="10" stroke-linejoin="miter" fill="none" stroke="#000000" d="M4.21463 0 .64343 1.34572 1.8178 0 .64343-1.34572Z"/>
<path transform="matrix(1,0,0,-1,82.946,37.955)" stroke-width=".3985" stroke-linecap="butt" stroke-miterlimit="10" stroke-linejoin="miter" fill="none" stroke="#000000" d="M183.71743-13.24362V-72.30994H169.91193"/>
<path transform="matrix(-1,-0,0,1,254.57611,110.26494)" d="M4.21463 0 .64343 1.34572 1.8178 0 .64343-1.34572Z"/>
<path transform="matrix(-1,-0,0,1,254.57611,110.26494)" stroke-width=".3985" stroke-linecap="butt" stroke-miterlimit="10" stroke-linejoin="miter" fill="none" stroke="#000000" d="M4.21463 0 .64343 1.34572 1.8178 0 .64343-1.34572Z"/>
<path transform="matrix(1,0,0,-1,82.946,37.955)" stroke-width=".3985" stroke-linecap="butt" stroke-miterlimit="10" stroke-linejoin="miter" fill="none" stroke="#000000" d="M91.8548-92.36441 91.853-123.03084"/>
<path transform="matrix(-.00005,.99998,.99998,.00005,174.79907,159.26767)" d="M4.21463 0 .64343 1.34572 1.8178 0 .64343-1.34572Z"/>
<path transform="matrix(-.00005,.99998,.99998,.00005,174.79907,159.26767)" stroke-width=".3985" stroke-linecap="butt" stroke-miterlimit="10" stroke-linejoin="miter" fill="none" stroke="#000000" d="M4.21463 0 .64343 1.34572 1.8178 0 .64343-1.34572Z"/>
<path transform="matrix(1,0,0,-1,82.946,37.955)" stroke-width=".3985" stroke-linecap="butt" stroke-miterlimit="10" stroke-linejoin="miter" fill="none" stroke="#000000" d="M91.85286-212.34508 91.85104-238.19008"/>
<path transform="matrix(-.00005,.99998,.99998,.00005,174.79712,274.4269)" d="M4.21463 0 .64343 1.34572 1.8178 0 .64343-1.34572Z"/>
<path transform="matrix(-.00005,.99998,.99998,.00005,174.79712,274.4269)" stroke-width=".3985" stroke-linecap="butt" stroke-miterlimit="10" stroke-linejoin="miter" fill="none" stroke="#000000" d="M4.21463 0 .64343 1.34572 1.8178 0 .64343-1.34572Z"/>
<path transform="matrix(1,0,0,-1,82.946,37.955)" stroke-width=".3985" stroke-linecap="butt" stroke-miterlimit="10" stroke-linejoin="miter" fill="none" stroke="#000000" d="M166.84412-260.59443 251.17119-260.58894V0H419.484"/>
<path transform="matrix(1,0,0,-1,500.7118,37.955)" d="M4.21463 0 .64343 1.34572 1.8178 0 .64343-1.34572Z"/>
<path transform="matrix(1,0,0,-1,500.7118,37.955)" stroke-width=".3985" stroke-linecap="butt" stroke-miterlimit="10" stroke-linejoin="miter" fill="none" stroke="#000000" d="M4.21463 0 .64343 1.34572 1.8178 0 .64343-1.34572Z"/>
<path transform="matrix(1,0,0,-1,82.946,37.955)" stroke-width=".3985" stroke-linecap="butt" stroke-miterlimit="10" stroke-linejoin="miter" fill="none" stroke="#000000" d="M509.58833-19.92464 509.5787-45.7737"/>
<path transform="matrix(-.00037,.99998,.99998,.00037,592.5253,82.01053)" d="M4.21463 0 .64343 1.34572 1.8178 0 .64343-1.34572Z"/>
<path transform="matrix(-.00037,.99998,.99998,.00037,592.5253,82.01053)" stroke-width=".3985" stroke-linecap="butt" stroke-miterlimit="10" stroke-linejoin="miter" fill="none" stroke="#000000" d="M4.21463 0 .64343 1.34572 1.8178 0 .64343-1.34572Z"/>
<path transform="matrix(1,0,0,-1,82.946,37.955)" stroke-width=".3985" stroke-linecap="butt" stroke-miterlimit="10" stroke-linejoin="miter" fill="none" stroke="#000000" d="M422.53718-80.28365H337.89729V-118.30124"/>
<path transform="matrix(0,1,1,0,420.84327,154.53806)" d="M4.21463 0 .64343 1.34572 1.8178 0 .64343-1.34572Z"/>
<path transform="matrix(0,1,1,0,420.84327,154.53806)" stroke-width=".3985" stroke-linecap="butt" stroke-miterlimit="10" stroke-linejoin="miter" fill="none" stroke="#000000" d="M4.21463 0 .64343 1.34572 1.8178 0 .64343-1.34572Z"/>
<path transform="matrix(1,0,0,-1,82.946,37.955)" stroke-width=".3985" stroke-linecap="butt" stroke-miterlimit="10" stroke-linejoin="miter" fill="none" stroke="#000000" d="M596.61807-80.28365H681.23648V-118.30124"/>
<path transform="matrix(0,1,1,0,764.18246,154.53806)" d="M4.21463 0 .64343 1.34572 1.8178 0 .64343-1.34572Z"/>
<path transform="matrix(0,1,1,0,764.18246,154.53806)" stroke-width=".3985" stroke-linecap="butt" stroke-miterlimit="10" stroke-linejoin="miter" fill="none" stroke="#000000" d="M4.21463 0 .64343 1.34572 1.8178 0 .64343-1.34572Z"/>
<path transform="matrix(1,0,0,-1,82.946,37.955)" stroke-width=".3985" stroke-linecap="butt" stroke-miterlimit="10" stroke-linejoin="miter" fill="none" stroke="#000000" d="M337.89729-181.67957V-271.76377H419.441"/>
<path transform="matrix(1,0,0,-1,500.66883,309.71876)" d="M4.21463 0 .64343 1.34572 1.8178 0 .64343-1.34572Z"/>
<path transform="matrix(1,0,0,-1,500.66883,309.71876)" stroke-width=".3985" stroke-linecap="butt" stroke-miterlimit="10" stroke-linejoin="miter" fill="none" stroke="#000000" d="M4.21463 0 .64343 1.34572 1.8178 0 .64343-1.34572Z"/>
<path transform="matrix(1,0,0,-1,82.946,37.955)" stroke-width=".3985" stroke-linecap="butt" stroke-miterlimit="10" stroke-linejoin="miter" fill="none" stroke="#000000" d="M681.23648-218.21436V-271.76377H599.6497"/>
<path transform="matrix(-1,-0,0,1,684.3139,309.71876)" d="M4.21463 0 .64343 1.34572 1.8178 0 .64343-1.34572Z"/>
<path transform="matrix(-1,-0,0,1,684.3139,309.71876)" stroke-width=".3985" stroke-linecap="butt" stroke-miterlimit="10" stroke-linejoin="miter" fill="none" stroke="#000000" d="M4.21463 0 .64343 1.34572 1.8178 0 .64343-1.34572Z"/>
</svg>
