<svg width="4105" height="1562" xmlns="http://www.w3.org/2000/svg" xmlns:xlink="http://www.w3.org/1999/xlink" xml:space="preserve" overflow="hidden"><g transform="translate(-106 -457)"><rect x="108.5" y="459.5" width="940" height="105" stroke="#000000" stroke-width="4.58333" stroke-miterlimit="8" fill="none"/><text fill="#262626" font-family="Assistant,Assistant_MSFontService,sans-serif" font-weight="700" font-size="55" transform="matrix(1 0 0 1 140.892 531)">Synthetic data generation</text><rect x="108.5" y="588.5" width="940" height="1428" stroke="#000000" stroke-width="4.58333" stroke-miterlimit="8" fill="none"/><text fill="#262626" font-family="Assistant,Assistant_MSFontService,sans-serif" font-weight="700" font-size="55" transform="matrix(1 0 0 1 140.892 656)">Demand Types: </text><text fill="#262626" font-family="Arial,Arial_MSFontService,sans-serif" font-weight="400" font-size="55" transform="matrix(1 0 0 1 140.892 722)">•</text><text fill="#262626" font-family="Assistant,Assistant_MSFontService,sans-serif" font-weight="400" font-size="55" transform="matrix(1 0 0 1 202.767 722)">Smooth, Erratic, Lumpy </text><text fill="#262626" font-family="Assistant,Assistant_MSFontService,sans-serif" font-weight="700" font-size="55" transform="matrix(1 0 0 1 140.892 854)">Data Structure:</text><text fill="#262626" font-family="Arial,Arial_MSFontService,sans-serif" font-weight="400" font-size="55" transform="matrix(1 0 0 1 140.892 920)">•</text><text fill="#262626" font-family="Assistant,Assistant_MSFontService,sans-serif" font-weight="400" font-size="55" transform="matrix(1 0 0 1 202.767 920)">1000 </text><text fill="#262626" font-family="Assistant,Assistant_MSFontService,sans-serif" font-weight="400" font-size="55" transform="matrix(1 0 0 1 319.069 920)">monthly time series (</text><text fill="#262626" font-family="Assistant,Assistant_MSFontService,sans-serif" font-weight="400" font-size="55" transform="matrix(1 0 0 1 795.736 920)">100 </text><text fill="#262626" font-family="Assistant,Assistant_MSFontService,sans-serif" font-weight="400" font-size="55" transform="matrix(1 0 0 1 202.767 986)">stores </text><text fill="#262626" font-family="Assistant,Assistant_MSFontService,sans-serif" font-weight="400" font-size="55" transform="matrix(1 0 0 1 353.444 986)">×</text><text fill="#262626" font-family="Assistant,Assistant_MSFontService,sans-serif" font-weight="400" font-size="55" transform="matrix(1 0 0 1 380.372 986)"> </text><text fill="#262626" font-family="Assistant,Assistant_MSFontService,sans-serif" font-weight="400" font-size="55" transform="matrix(1 0 0 1 391.257 986)">10 </text><text fill="#262626" font-family="Assistant,Assistant_MSFontService,sans-serif" font-weight="400" font-size="55" transform="matrix(1 0 0 1 453.705 986)">products)</text><text fill="#262626" font-family="Arial,Arial_MSFontService,sans-serif" font-weight="400" font-size="55" transform="matrix(1 0 0 1 140.892 1052)">•</text><text fill="#262626" font-family="Assistant,Assistant_MSFontService,sans-serif" font-weight="400" font-size="55" transform="matrix(1 0 0 1 202.767 1052)">Each series: </text><text fill="#262626" font-family="Assistant,Assistant_MSFontService,sans-serif" font-weight="400" font-size="55" transform="matrix(1 0 0 1 480.632 1052)">100 </text><text fill="#262626" font-family="Assistant,Assistant_MSFontService,sans-serif" font-weight="400" font-size="55" transform="matrix(1 0 0 1 570.007 1052)">months</text><text fill="#262626" font-family="Arial,Arial_MSFontService,sans-serif" font-weight="400" font-size="55" transform="matrix(1 0 0 1 140.892 1118)">•</text><text fill="#262626" font-family="Assistant,Assistant_MSFontService,sans-serif" font-weight="400" font-size="55" transform="matrix(1 0 0 1 202.767 1118)">Store</text><text fill="#262626" font-family="Assistant,Assistant_MSFontService,sans-serif" font-weight="400" font-size="55" transform="matrix(1 0 0 1 325.944 1118)">-</text><text fill="#262626" font-family="Assistant,Assistant_MSFontService,sans-serif" font-weight="400" font-size="55" transform="matrix(1 0 0 1 343.132 1118)">product metadata included</text><text fill="#262626" font-family="Assistant,Assistant_MSFontService,sans-serif" font-weight="700" font-size="55" transform="matrix(1 0 0 1 140.892 1250)">Censorship Logic:</text><text fill="#262626" font-family="Arial,Arial_MSFontService,sans-serif" font-weight="400" font-size="55" transform="matrix(1 0 0 1 140.892 1316)">•</text><text fill="#262626" font-family="Assistant,Assistant_MSFontService,sans-serif" font-weight="400" font-size="55" transform="matrix(1 0 0 1 202.767 1316)">Partial Censoring: Stockouts </text><text fill="#262626" font-family="Assistant,Assistant_MSFontService,sans-serif" font-weight="400" font-size="55" transform="matrix(1 0 0 1 202.767 1382)">(demand &gt; stock, observed as </text><text fill="#262626" font-family="Assistant,Assistant_MSFontService,sans-serif" font-weight="400" font-size="55" transform="matrix(1 0 0 1 202.767 1448)">available stock)</text><text fill="#262626" font-family="Arial,Arial_MSFontService,sans-serif" font-weight="400" font-size="55" transform="matrix(1 0 0 1 140.892 1514)">•</text><text fill="#262626" font-family="Assistant,Assistant_MSFontService,sans-serif" font-weight="400" font-size="55" transform="matrix(1 0 0 1 202.767 1514)">Full Censoring: Interruptions/no </text><text fill="#262626" font-family="Assistant,Assistant_MSFontService,sans-serif" font-weight="400" font-size="55" transform="matrix(1 0 0 1 202.767 1580)">stock (observed as zero, true </text><text fill="#262626" font-family="Assistant,Assistant_MSFontService,sans-serif" font-weight="400" font-size="55" transform="matrix(1 0 0 1 202.767 1646)">demand unobserved)</text><text fill="#262626" font-family="Arial,Arial_MSFontService,sans-serif" font-weight="400" font-size="55" transform="matrix(1 0 0 1 140.892 1712)">•</text><text fill="#262626" font-family="Assistant,Assistant_MSFontService,sans-serif" font-weight="400" font-size="55" transform="matrix(1 0 0 1 202.767 1712)">20</text><text fill="#262626" font-family="Assistant,Assistant_MSFontService,sans-serif" font-weight="400" font-size="55" transform="matrix(1 0 0 1 256.622 1712)">–</text><text fill="#262626" font-family="Assistant,Assistant_MSFontService,sans-serif" font-weight="400" font-size="55" transform="matrix(1 0 0 1 282.976 1712)">40</text><text fill="#262626" font-family="Assistant,Assistant_MSFontService,sans-serif" font-weight="400" font-size="55" transform="matrix(1 0 0 1 336.83 1712)">% of each series is censored </text><text fill="#262626" font-family="Assistant,Assistant_MSFontService,sans-serif" font-weight="400" font-size="55" transform="matrix(1 0 0 1 202.767 1778)">(randomized bursts and </text><text fill="#262626" font-family="Assistant,Assistant_MSFontService,sans-serif" font-weight="400" font-size="55" transform="matrix(1 0 0 1 202.767 1844)">disruptions)</text><rect x="1161.5" y="459.5" width="940" height="105" stroke="#000000" stroke-width="4.58333" stroke-miterlimit="8" fill="none"/><text fill="#262626" font-family="Assistant,Assistant_MSFontService,sans-serif" font-weight="700" font-size="55" transform="matrix(1 0 0 1 1194.08 531)">Forecasting Setup</text><rect x="1161.5" y="588.5" width="940" height="1428" stroke="#000000" stroke-width="4.58333" stroke-miterlimit="8" fill="none"/><text fill="#262626" font-family="Assistant,Assistant_MSFontService,sans-serif" font-weight="700" font-size="55" transform="matrix(1 0 0 1 1194.08 656)">Models Evaluated:</text><text fill="#262626" font-family="Arial,Arial_MSFontService,sans-serif" font-weight="400" font-size="55" transform="matrix(1 0 0 1 1194.08 722)">•</text><text fill="#262626" font-family="Assistant,Assistant_MSFontService,sans-serif" font-weight="400" font-size="55" transform="matrix(1 0 0 1 1255.96 722)">Truncated Conformal Kalman Filter </text><text fill="#262626" font-family="Assistant,Assistant_MSFontService,sans-serif" font-weight="400" font-size="55" transform="matrix(1 0 0 1 1255.96 788)">(TCKF)</text><text fill="#262626" font-family="Arial,Arial_MSFontService,sans-serif" font-weight="400" font-size="55" transform="matrix(1 0 0 1 1194.08 854)">•</text><text fill="#262626" font-family="Assistant,Assistant_MSFontService,sans-serif" font-weight="400" font-size="55" transform="matrix(1 0 0 1 1255.96 854)">Naïve</text><text fill="#262626" font-family="Arial,Arial_MSFontService,sans-serif" font-weight="400" font-size="55" transform="matrix(1 0 0 1 1194.08 920)">•</text><text fill="#262626" font-family="Assistant,Assistant_MSFontService,sans-serif" font-weight="400" font-size="55" transform="matrix(1 0 0 1 1255.96 920)">3</text><text fill="#262626" font-family="Assistant,Assistant_MSFontService,sans-serif" font-weight="400" font-size="55" transform="matrix(1 0 0 1 1282.88 920)">-</text><text fill="#262626" font-family="Assistant,Assistant_MSFontService,sans-serif" font-weight="400" font-size="55" transform="matrix(1 0 0 1 1300.07 920)">month Moving Average</text><text fill="#262626" font-family="Arial,Arial_MSFontService,sans-serif" font-weight="400" font-size="55" transform="matrix(1 0 0 1 1194.08 986)">•</text><text fill="#262626" font-family="Assistant,Assistant_MSFontService,sans-serif" font-weight="400" font-size="55" transform="matrix(1 0 0 1 1255.96 986)">Linear Regression (with censorship </text><text fill="#262626" font-family="Assistant,Assistant_MSFontService,sans-serif" font-weight="400" font-size="55" transform="matrix(1 0 0 1 1255.96 1052)">as predictor)</text><text fill="#262626" font-family="Assistant,Assistant_MSFontService,sans-serif" font-weight="700" font-size="55" transform="matrix(1 0 0 1 1194.08 1184)">Forecasts Generated:</text><text fill="#262626" font-family="Arial,Arial_MSFontService,sans-serif" font-weight="400" font-size="55" transform="matrix(1 0 0 1 1194.08 1250)">•</text><text fill="#262626" font-family="Assistant,Assistant_MSFontService,sans-serif" font-weight="400" font-size="55" transform="matrix(1 0 0 1 1255.96 1250)">Point forecasts</text><text fill="#262626" font-family="Arial,Arial_MSFontService,sans-serif" font-weight="400" font-size="55" transform="matrix(1 0 0 1 1194.08 1316)">•</text><text fill="#262626" font-family="Assistant,Assistant_MSFontService,sans-serif" font-weight="400" font-size="55" transform="matrix(1 0 0 1 1255.96 1316)">Prediction intervals </text><text fill="#262626" font-family="Assistant,Assistant_MSFontService,sans-serif" font-weight="400" font-size="55" transform="matrix(1 0 0 1 1710.85 1316)">(</text><text fill="#262626" font-family="Assistant,Assistant_MSFontService,sans-serif" font-weight="400" font-size="55" transform="matrix(1 0 0 1 1727.47 1316)">TCKF = </text><text fill="#262626" font-family="Assistant,Assistant_MSFontService,sans-serif" font-weight="400" font-size="55" transform="matrix(1 0 0 1 1255.96 1382)">distribution</text><text fill="#262626" font-family="Assistant,Assistant_MSFontService,sans-serif" font-weight="400" font-size="55" transform="matrix(1 0 0 1 1524.08 1382)">-</text><text fill="#262626" font-family="Assistant,Assistant_MSFontService,sans-serif" font-weight="400" font-size="55" transform="matrix(1 0 0 1 1541.27 1382)">free via conformal </text><text fill="#262626" font-family="Assistant,Assistant_MSFontService,sans-serif" font-weight="400" font-size="55" transform="matrix(1 0 0 1 1255.96 1448)">prediction; benchmarks = </text><text fill="#262626" font-family="Assistant,Assistant_MSFontService,sans-serif" font-weight="400" font-size="55" transform="matrix(1 0 0 1 1255.96 1514)">Gaussian</text><text fill="#262626" font-family="Assistant,Assistant_MSFontService,sans-serif" font-weight="400" font-size="55" transform="matrix(1 0 0 1 1463.35 1514)">-</text><text fill="#262626" font-family="Assistant,Assistant_MSFontService,sans-serif" font-weight="400" font-size="55" transform="matrix(1 0 0 1 1480.54 1514)">based)</text><text fill="#262626" font-family="Assistant,Assistant_MSFontService,sans-serif" font-weight="700" font-size="55" transform="matrix(1 0 0 1 1194.08 1646)">Cross</text><text fill="#262626" font-family="Assistant,Assistant_MSFontService,sans-serif" font-weight="700" font-size="55" transform="matrix(1 0 0 1 1325.85 1646)">-</text><text fill="#262626" font-family="Assistant,Assistant_MSFontService,sans-serif" font-weight="700" font-size="55" transform="matrix(1 0 0 1 1344.19 1646)">validation:</text><text fill="#262626" font-family="Arial,Arial_MSFontService,sans-serif" font-weight="400" font-size="55" transform="matrix(1 0 0 1 1194.08 1712)">•</text><text fill="#262626" font-family="Assistant,Assistant_MSFontService,sans-serif" font-weight="400" font-size="55" transform="matrix(1 0 0 1 1255.96 1712)">Rolling</text><text fill="#262626" font-family="Assistant,Assistant_MSFontService,sans-serif" font-weight="400" font-size="55" transform="matrix(1 0 0 1 1414.66 1712)">-</text><text fill="#262626" font-family="Assistant,Assistant_MSFontService,sans-serif" font-weight="400" font-size="55" transform="matrix(1 0 0 1 1431.84 1712)">origin (30 splits)</text><text fill="#262626" font-family="Arial,Arial_MSFontService,sans-serif" font-weight="400" font-size="55" transform="matrix(1 0 0 1 1194.08 1778)">•</text><text fill="#262626" font-family="Assistant,Assistant_MSFontService,sans-serif" font-weight="400" font-size="55" transform="matrix(1 0 0 1 1255.96 1778)">One</text><text fill="#262626" font-family="Assistant,Assistant_MSFontService,sans-serif" font-weight="400" font-size="55" transform="matrix(1 0 0 1 1348.77 1778)">-</text><text fill="#262626" font-family="Assistant,Assistant_MSFontService,sans-serif" font-weight="400" font-size="55" transform="matrix(1 0 0 1 1365.96 1778)">step</text><text fill="#262626" font-family="Assistant,Assistant_MSFontService,sans-serif" font-weight="400" font-size="55" transform="matrix(1 0 0 1 1464.5 1778)">-</text><text fill="#262626" font-family="Assistant,Assistant_MSFontService,sans-serif" font-weight="400" font-size="55" transform="matrix(1 0 0 1 1481.69 1778)">ahead horizon</text><rect x="2214.5" y="459.5" width="940" height="105" stroke="#000000" stroke-width="4.58333" stroke-miterlimit="8" fill="none"/><text fill="#262626" font-family="Assistant,Assistant_MSFontService,sans-serif" font-weight="700" font-size="55" transform="matrix(1 0 0 1 2247.27 531)">Inventory Simulation</text><rect x="2214.5" y="588.5" width="940" height="1428" stroke="#000000" stroke-width="4.58333" stroke-miterlimit="8" fill="none"/><text fill="#262626" font-family="Assistant,Assistant_MSFontService,sans-serif" font-weight="700" font-size="55" transform="matrix(1 0 0 1 2247.27 656)">Simulation Logic:</text><text fill="#262626" font-family="Arial,Arial_MSFontService,sans-serif" font-weight="400" font-size="55" transform="matrix(1 0 0 1 2247.27 722)">•</text><text fill="#262626" font-family="Assistant,Assistant_MSFontService,sans-serif" font-weight="400" font-size="55" transform="matrix(1 0 0 1 2309.15 722)">Deterministic order</text><text fill="#262626" font-family="Assistant,Assistant_MSFontService,sans-serif" font-weight="400" font-size="55" transform="matrix(1 0 0 1 2750.87 722)">-</text><text fill="#262626" font-family="Assistant,Assistant_MSFontService,sans-serif" font-weight="400" font-size="55" transform="matrix(1 0 0 1 2768.06 722)">up</text><text fill="#262626" font-family="Assistant,Assistant_MSFontService,sans-serif" font-weight="400" font-size="55" transform="matrix(1 0 0 1 2828.21 722)">-</text><text fill="#262626" font-family="Assistant,Assistant_MSFontService,sans-serif" font-weight="400" font-size="55" transform="matrix(1 0 0 1 2845.4 722)">to: (3 </text><text fill="#262626" font-family="Assistant,Assistant_MSFontService,sans-serif" font-weight="400" font-size="55" transform="matrix(1 0 0 1 2972.01 722)">×</text><text fill="#262626" font-family="Assistant,Assistant_MSFontService,sans-serif" font-weight="400" font-size="55" transform="matrix(1 0 0 1 2309.15 788)">predicted mean demand </text><text fill="#262626" font-family="Assistant,Assistant_MSFontService,sans-serif" font-weight="400" font-size="55" transform="matrix(1 0 0 1 2882.07 788)">–</text><text fill="#262626" font-family="Assistant,Assistant_MSFontService,sans-serif" font-weight="400" font-size="55" transform="matrix(1 0 0 1 2919.31 788)">end </text><text fill="#262626" font-family="Assistant,Assistant_MSFontService,sans-serif" font-weight="400" font-size="55" transform="matrix(1 0 0 1 2309.15 854)">stock)</text><text fill="#262626" font-family="Arial,Arial_MSFontService,sans-serif" font-weight="400" font-size="55" transform="matrix(1 0 0 1 2247.27 920)">•</text><text fill="#262626" font-family="Assistant,Assistant_MSFontService,sans-serif" font-weight="400" font-size="55" transform="matrix(1 0 0 1 2309.15 920)">Quantile</text><text fill="#262626" font-family="Assistant,Assistant_MSFontService,sans-serif" font-weight="400" font-size="55" transform="matrix(1 0 0 1 2504.51 920)">-</text><text fill="#262626" font-family="Assistant,Assistant_MSFontService,sans-serif" font-weight="400" font-size="55" transform="matrix(1 0 0 1 2521.7 920)">based order</text><text fill="#262626" font-family="Assistant,Assistant_MSFontService,sans-serif" font-weight="400" font-size="55" transform="matrix(1 0 0 1 2795.56 920)">-</text><text fill="#262626" font-family="Assistant,Assistant_MSFontService,sans-serif" font-weight="400" font-size="55" transform="matrix(1 0 0 1 2812.74 920)">up</text><text fill="#262626" font-family="Assistant,Assistant_MSFontService,sans-serif" font-weight="400" font-size="55" transform="matrix(1 0 0 1 2872.9 920)">-</text><text fill="#262626" font-family="Assistant,Assistant_MSFontService,sans-serif" font-weight="400" font-size="55" transform="matrix(1 0 0 1 2890.09 920)">to: (upper </text><text fill="#262626" font-family="Assistant,Assistant_MSFontService,sans-serif" font-weight="400" font-size="55" transform="matrix(1 0 0 1 2309.15 986)">quantile of predicted demand)</text><text fill="#262626" font-family="Assistant,Assistant_MSFontService,sans-serif" font-weight="700" font-size="55" transform="matrix(1 0 0 1 2247.27 1118)">Lead Time: </text><text fill="#262626" font-family="Arial,Arial_MSFontService,sans-serif" font-weight="400" font-size="55" transform="matrix(1 0 0 1 2247.27 1184)">•</text><text fill="#262626" font-family="Assistant,Assistant_MSFontService,sans-serif" font-weight="400" font-size="55" transform="matrix(1 0 0 1 2309.15 1184)">Fixed</text><text fill="#262626" font-family="Arial,Arial_MSFontService,sans-serif" font-weight="400" font-size="55" transform="matrix(1 0 0 1 2247.27 1250)">•</text><text fill="#262626" font-family="Assistant,Assistant_MSFontService,sans-serif" font-weight="400" font-size="55" transform="matrix(1 0 0 1 2309.15 1250)">Dynamic (1</text><text fill="#262626" font-family="Assistant,Assistant_MSFontService,sans-serif" font-weight="400" font-size="55" transform="matrix(1 0 0 1 2561.23 1250)">–</text><text fill="#262626" font-family="Assistant,Assistant_MSFontService,sans-serif" font-weight="400" font-size="55" transform="matrix(1 0 0 1 2587.59 1250)">4 months)</text><text fill="#262626" font-family="Assistant,Assistant_MSFontService,sans-serif" font-weight="700" font-size="55" transform="matrix(1 0 0 1 2247.27 1382)">Lost Sales Logic:</text><text fill="#262626" font-family="Arial,Arial_MSFontService,sans-serif" font-weight="400" font-size="55" transform="matrix(1 0 0 1 2247.27 1448)">•</text><text fill="#262626" font-family="Assistant,Assistant_MSFontService,sans-serif" font-weight="400" font-size="55" transform="matrix(1 0 0 1 2309.15 1448)">No backorders</text><text fill="#262626" font-family="Assistant,Assistant_MSFontService,sans-serif" font-weight="700" font-size="55" transform="matrix(1 0 0 1 2247.27 1580)">Simulation Applied</text><text fill="#262626" font-family="Arial,Arial_MSFontService,sans-serif" font-weight="400" font-size="55" transform="matrix(1 0 0 1 2247.27 1646)">•</text><text fill="#262626" font-family="Assistant,Assistant_MSFontService,sans-serif" font-weight="400" font-size="55" transform="matrix(1 0 0 1 2309.15 1646)">Per store</text><text fill="#262626" font-family="Assistant,Assistant_MSFontService,sans-serif" font-weight="400" font-size="55" transform="matrix(1 0 0 1 2513.68 1646)">-</text><text fill="#262626" font-family="Assistant,Assistant_MSFontService,sans-serif" font-weight="400" font-size="55" transform="matrix(1 0 0 1 2530.87 1646)">product</text><text fill="#262626" font-family="Assistant,Assistant_MSFontService,sans-serif" font-weight="400" font-size="55" transform="matrix(1 0 0 1 2713.63 1646)">-</text><text fill="#262626" font-family="Assistant,Assistant_MSFontService,sans-serif" font-weight="400" font-size="55" transform="matrix(1 0 0 1 2730.82 1646)">model group</text><rect x="3268.5" y="459.5" width="940" height="110" stroke="#000000" stroke-width="4.58333" stroke-miterlimit="8" fill="none"/><text fill="#262626" font-family="Assistant,Assistant_MSFontService,sans-serif" font-weight="700" font-size="55" transform="matrix(1 0 0 1 3301.23 533)">Performance Metrics</text><rect x="3268.5" y="588.5" width="940" height="1428" stroke="#000000" stroke-width="4.58333" stroke-miterlimit="8" fill="none"/><text fill="#262626" font-family="Assistant,Assistant_MSFontService,sans-serif" font-weight="700" font-size="55" transform="matrix(1 0 0 1 3301.23 656)">Forecast Metrics:</text><text fill="#262626" font-family="Arial,Arial_MSFontService,sans-serif" font-weight="400" font-size="55" transform="matrix(1 0 0 1 3301.23 722)">•</text><text fill="#262626" font-family="Assistant,Assistant_MSFontService,sans-serif" font-weight="400" font-size="55" transform="matrix(1 0 0 1 3363.11 722)">MASE: Mean Absolute Scaled Error</text><text fill="#262626" font-family="Arial,Arial_MSFontService,sans-serif" font-weight="400" font-size="55" transform="matrix(1 0 0 1 3301.23 788)">•</text><text fill="#262626" font-family="Assistant,Assistant_MSFontService,sans-serif" font-weight="400" font-size="55" transform="matrix(1 0 0 1 3363.11 788)">Pinball Loss: Quantile/prediction </text><text fill="#262626" font-family="Assistant,Assistant_MSFontService,sans-serif" font-weight="400" font-size="55" transform="matrix(1 0 0 1 3363.11 854)">interval loss</text><text fill="#262626" font-family="Assistant,Assistant_MSFontService,sans-serif" font-weight="700" font-size="55" transform="matrix(1 0 0 1 3301.23 986)">Inventory Metrics:</text><text fill="#262626" font-family="Arial,Arial_MSFontService,sans-serif" font-weight="400" font-size="55" transform="matrix(1 0 0 1 3301.23 1052)">•</text><text fill="#262626" font-family="Assistant,Assistant_MSFontService,sans-serif" font-weight="400" font-size="55" transform="matrix(1 0 0 1 3363.11 1052)">Cycle Service Level (CSL)</text><text fill="#262626" font-family="Arial,Arial_MSFontService,sans-serif" font-weight="400" font-size="55" transform="matrix(1 0 0 1 3301.23 1118)">•</text><text fill="#262626" font-family="Assistant,Assistant_MSFontService,sans-serif" font-weight="400" font-size="55" transform="matrix(1 0 0 1 3363.11 1118)">Lost Sales Rate</text><text fill="#262626" font-family="Arial,Arial_MSFontService,sans-serif" font-weight="400" font-size="55" transform="matrix(1 0 0 1 3301.23 1184)">•</text><text fill="#262626" font-family="Assistant,Assistant_MSFontService,sans-serif" font-weight="400" font-size="55" transform="matrix(1 0 0 1 3363.11 1184)">Inventory Coverage</text><text fill="#262626" font-family="Arial,Arial_MSFontService,sans-serif" font-weight="400" font-size="55" transform="matrix(1 0 0 1 3301.23 1250)">•</text><text fill="#262626" font-family="Assistant,Assistant_MSFontService,sans-serif" font-weight="400" font-size="55" transform="matrix(1 0 0 1 3363.11 1250)">Public health indicators</text><text fill="#262626" font-family="Assistant,Assistant_MSFontService,sans-serif" font-weight="700" font-size="55" transform="matrix(1 0 0 1 3301.23 1382)">Validation:</text><text fill="#262626" font-family="Arial,Arial_MSFontService,sans-serif" font-weight="400" font-size="55" transform="matrix(1 0 0 1 3301.23 1448)">•</text><text fill="#262626" font-family="Assistant,Assistant_MSFontService,sans-serif" font-weight="400" font-size="55" transform="matrix(1 0 0 1 3363.11 1448)">Compare across all models, series, </text><text fill="#262626" font-family="Assistant,Assistant_MSFontService,sans-serif" font-weight="400" font-size="55" transform="matrix(1 0 0 1 3363.11 1514)">and CV origins</text><path d="M2101.5 510.208 2191.95 510.209 2191.95 514.792 2101.5 514.792ZM2187.37 498.75 2214.87 512.5 2187.37 526.25Z"/><path d="M3154.55 510.209 3245.77 512.039 3245.68 516.621 3154.45 514.791ZM3241.42 500.491 3268.64 514.79 3240.87 527.986Z"/><path d="M1048.5 510.208 1138.95 510.209 1138.95 514.792 1048.5 514.792ZM1134.37 498.75 1161.87 512.5 1134.37 526.25Z"/></g></svg>